<svg width="154" height="64" viewBox="0 0 154 64" fill="none" xmlns="http://www.w3.org/2000/svg">
<path d="M39.2375 42.1149H20.2627L17.5394 48.8508H9.99414L25.2632 13.1633H34.6839L49.953 48.8508H41.9607L39.2375 42.1149ZM36.8711 36.2263L29.7279 18.6059L22.6292 36.2263H36.8711Z" fill="#07360C"/>
<path d="M79.9654 48.8508H71.3487L64.4728 40.4645C63.5801 39.394 62.955 39.0817 61.3475 39.0817H59.2934V48.8514H52.3291V13.1633H59.2942V33.6391H61.3031C62.955 33.6391 63.5801 33.1483 64.5177 31.8549L70.4554 23.8699H78.2683L69.6073 35.2005L69.0714 35.8698C69.25 36.0484 69.4729 36.2712 69.6515 36.4944L79.9654 48.8508Z" fill="#07360C"/>
<path d="M143.71 44.5232V48.8504H134.959L134.692 46.1294C132.682 48.2706 129.647 49.475 125.896 49.475C119.735 49.475 115.984 46.2184 115.984 41.3115C115.984 36.4934 119.556 33.2368 126.834 33.2368C129.2 33.2368 131.7 33.5044 133.709 33.9503V28.9537H117.592V23.8689H140.63V44.5232H143.71ZM133.709 38.4566V38.3677C131.789 37.8769 129.468 37.7432 128.084 37.7432C123.932 37.7432 121.967 38.8585 121.967 40.9101C121.967 43.1852 124.423 44.0771 126.879 44.033C130.584 44.0324 133.709 42.2931 133.709 38.4566Z" fill="#07360C"/>
<path fill-rule="evenodd" clip-rule="evenodd" d="M89.5012 13.1633H82.5361V19.9888H89.5012V13.1633ZM104.887 13.1633H97.922V23.8693H95.6487H89.5018H86.0196H82.5374V48.8508H89.5023V28.9549H97.9225V39.4829C97.9225 45.728 101.092 49.4754 107.7 49.4754C109.665 49.4754 111.853 49.0741 113.817 48.5833V43.3192C112.567 43.7205 111.094 43.9886 109.932 43.9886C106.539 43.9886 104.888 41.8474 104.888 37.8324V28.9549H113.816V23.8693H106.856H104.887L104.887 13.1633Z" fill="#07360C"/>
</svg>
