<svg fill="none" height="168" viewBox="0 0 478 168" width="478" xmlns="http://www.w3.org/2000/svg" xmlns:xlink="http://www.w3.org/1999/xlink"><clipPath id="a"><path d="m0 0h477.75v168h-477.75z"/></clipPath><g clip-path="url(#a)"><path d="m90.7181 37.6879c2.9395-1.5533 6.458-3.011 9.5079-4.4357l21.331-9.8516 14.158-6.6043c5.183-2.3677 10.122-5.3979 15.939-3.6053 3.68 1.1431 6.75 3.7112 8.527 7.1319 3.56 6.8596.273 12.0636-2.59 18.3478l-7.153 15.3344-10.357 22.4532c-1.269 2.7057-2.585 5.9173-3.951 8.5169-1.401 4.1722-6.495 14.1778-8.448 18.4188l-10.131 21.947c-4.221 9.246-8.338 19.366-13.672 28.008-.113.184-1.139 1.021-1.357 1.186-5.4149 4.102-13.6813 3.376-18.4956-1.332-3.9627-3.831-3.7849-8.708-3.794-13.821-.0066-3.656-.0038-7.324-.0042-10.984l.0079-34.2036c-12.931-.3208-26.0383.1645-38.9845-.0305-4.2855-.0644-12.153.4783-15.9647-1.0181-3.2093-1.2903-5.7727-3.8059-7.124-6.9904-2.2338-5.2577-1.0508-13.0681 3.9624-16.3443 3.1873-2.083 6.6076-3.6048 10.0484-5.2159l16.707-7.6307 26.9474-12.4516c5.0581-2.3401 9.7146-4.6814 14.89-6.825z" fill="#6100cf"/><path d="m90.7181 37.6879c2.9396-1.5533 6.4581-3.011 9.5079-4.4357l21.331-9.8516 14.158-6.6043c5.183-2.3677 10.122-5.3979 15.939-3.6053 3.68 1.1431 6.75 3.7112 8.527 7.1319 3.56 6.8596.273 12.0636-2.59 18.3478l-7.153 15.3344-10.357 22.4532c-1.269 2.7057-2.585 5.9173-3.951 8.5169-.299-1.8489 2.107-5.0771 1.3-6.9015l-.774-.2555c-.529-1.2633.345-.8925-.309-2.2977-.044.008-1.134.2432-1.114.2684-.345-.4632-2.227-2.6869-2.848-2.4995-2.353.7093-2.138 5.0869-4.472 6.527-.8.7859-3.423 7.2119-4.043 8.653.646-3.6974 2.816-8.8338 3.955-12.7258-.539-1.536.911-3.7627.917-5.4796.003-1.0836-.101-.8708-.996-1.3582l-.039-.385.546-.4772c-.066-1.26-2.302-2.0251-3.085-2.8257-8.657-8.8512-17.981-17.0111-26.2931-26.2-.3845-.4252-3.5831-2.2225-4.1542-2.2314-1.3763-.0217-2.4342.9588-4.0026.9014z" fill="#ab00fb"/><path d="m127.825 75.7434c5.915-17.2055 11.724-34.4911 17.637-51.6978.309-.8999.93-1.8899 1.672-2.4874 2.692-.9583 6.568 4.1343 5.584 6.2464-1.759 3.7763-3.634 7.5369-5.418 11.3111l-13.651 28.7116c-1.731 3.6561-4.28 8.3074-5.736 11.9889-.8.7859-3.423 7.2119-4.043 8.653.646-3.6974 2.816-8.8338 3.955-12.7258z" fill="#fff"/><path d="m29.3224 75.8395c1.7055-.2805 15.3575 2.1387 17.9576 2.5064l43.458 6.2559 21.233 3.1892c3.77.5684 7.583.9901 11.331 1.6691-6.408 14.1029-12.726 28.2479-18.953 42.4319-1.779 3.995-3.438 8.036-5.2175 12.089-1.673 3.809-4.8652 6.216-8.6543 3.01-.6352-.538-.9282-1.501-.9844-2.312-.1635-2.357-.105-4.747-.1045-7.113l.0016-12.433.0579-40.2103c-19.2565-.3643-38.6367.2545-57.8999-.1272-1.7218-.0343-3.4252-.4741-4.5867-1.8464-.628-.7329-.9175-1.697-.7966-2.6548.2493-2.1369 1.6173-3.2238 3.1578-4.4548z" fill="#fff"/><path d="m427.423 62.1852c20.68-.8265 35.213 11.6461 36.797 32.3339.767 10.0049-.963 21.0209-7.584 29.0109-6.867 8.286-14.388 10.99-24.764 11.82l-.075.005c-21.839 1.287-36.216-13.35-36.967-34.648-.742-21.0286 10.618-37.3645 32.593-38.5218z" fill="#6d00f5"/><path d="m426.399 73.803c11.297-1.1578 19.898 4.4048 22.369 15.8414 1.773 8.2134 1.32 18.5346-3.222 25.8086-3.128 5.015-6.797 7.158-12.44 8.369-.091.019-.18.037-.271.053-11.517 2.112-20.96-6.271-22.665-17.393-2.048-13.3567.296-29.8629 16.229-32.679z" fill="#fff"/><path d="m224.218 62.1736c20.703-.3395 29.463 8.3725 29.757 28.8738.065 8.0143.068 16.0286.007 24.0436.009 4.878.217 9.754-.25 14.653-.532 5.574-8.055 6.981-11.614 3.514-2.371-2.309-1.918-7.159-1.846-10.281-1.248 2.166-4.213 5.969-6.065 7.514-7.659 6.386-20.508 6.162-29.093 1.785-3.599-1.835-5.917-4.324-8.454-7.273-2.628-3.838-3.416-6.626-3.566-11.305-.642-19.9553 21.583-20.2083 35.95-20.9143 3.654-.1795 7.34-.1022 10.969-.1221.054-5.3267.145-12.7215-4.413-16.3629-5.66-4.519-17.233-2.8094-23.798-.6681-3.197 1.0426-6.274 3.3439-9.76 3.6092-4.805.6067-6.486-7.4837-3.186-9.8525 6.557-4.7068 17.653-6.8968 25.362-7.2137z" fill="#6d00f5"/><path d="m228.874 101.865c3.626-.225 7.512-.155 11.16-.154.045 7.781-.786 14.346-7.346 19.795-3.632 3.015-8.969 3.837-13.573 3.289-6.682-.999-10.931-4.39-11.471-11.487-.844-11.094 13.481-11.089 21.23-11.443z" fill="#fff"/><g fill="#6d00f5"><path d="m279.234 31.1076c.544-.0655 1.087-.101 1.633-.1064 2.233-.0424 3.97.1806 5.687 1.7603 2.338 2.1553 2.107 5.1959 2.126 8.1611.028 4.5761 0 9.1882-.003 13.7804l.04 39.9023c4.962-5.4054 10.836-10.6435 15.968-15.9457 4.982-5.146 10.098-10.5343 15.715-14.9653 2.212-1.7444 7.141-1.8252 9.292.1801 1.071.9998 1.689 2.3919 1.71 3.8561.042 3.5592-6.509 9.0617-9.014 11.5633l-18.392 18.1038c3.189 3.4524 6.866 6.7764 10.218 10.0744 4.353 4.283 8.671 8.632 12.986 12.955 2.564 2.523 6.189 5.233 6.726 8.884.921 6.284-8.725 6.959-11.809 4.238-11.5-10.145-22.156-21.437-33.379-31.924-.173 5.521.711 26.394-.775 29.982-.55 1.327-1.838 2.414-3.151 2.94-1.99.796-5.062.8-7.024-.073-1.542-.687-2.75-2.223-3.296-3.804-.304-.877-.304-1.885-.329-2.805-.154-5.64-.038-11.313-.038-16.956l-.004-31.5648v-26.604c.002-4.8862-.033-9.7704.051-14.6557.068-3.8308 1.521-5.7379 5.062-6.9769z"/><path d="m356.738 41.1455c2.141-.146 4.253-.0457 5.983 1.3968 2.744 2.2845 2.489 6.1394 2.45 9.3466-.044 3.812-.044 7.6134-.058 11.4123 5.167.1395 10.387-.1008 15.568.0084 3.532.0742 7.468.9886 7.514 5.4003.075 7.031-7.584 6.0037-12.363 5.9747l-10.717-.0273-.007 30.8307c.051 16.17 6.529 19.732 21.76 16.755 1.18-.231 2.323.777 3.088 1.549.649 3.196.616 4.493-.275 7.668-2.022 3.358-9.452 3.884-13.094 3.927-11.433.133-22.093-4.837-24.86-16.898-1.586-6.927-1.129-13.844-1.129-20.9207l.007-22.9058c-2.872-.0441-10.885.8691-13.217-1.638-2.872-3.088-2.161-8.1782 2.482-9.2597 3.091-.72 7.297-.4664 10.723-.4477.073-4.4483-1.007-16.0452 1.342-19.4593 1.215-1.7647 2.766-2.3338 4.803-2.7123z"/></g></g></svg>