<svg width="406" height="64" viewBox="0 0 406 64" fill="none" xmlns="http://www.w3.org/2000/svg">
<g clip-path="url(#clip0_892_10079)">
<path d="M255.967 43.4509C255.967 49.9201 252.685 53.1547 246.124 53.1547C241.919 53.1547 239.818 51.6195 239.818 48.5391C239.818 45.747 242.033 43.9671 246.446 43.1961C248.077 42.9112 251.249 42.7671 255.967 42.7671V43.4509ZM274.476 34.5381C274.476 23.3124 265.965 18.0398 249.295 17.6946C231.921 17.3359 224.582 21.8543 223.122 31.3437H241.137C242.006 28.2532 244.087 26.5236 248.399 26.6744C252.638 26.8253 255.793 28.9739 255.95 34.5984C246.255 34.7425 239.113 35.3057 234.21 36.4788C224.75 38.7448 220.048 43.8967 220.048 50.9056C220.048 55.6285 222.142 59.0776 226.317 61.243C229.461 62.8653 233.542 63.8541 238.556 63.6798C246.772 63.3949 252.692 61.0553 256.36 56.2151V62.6977H274.482L274.476 34.5381Z" fill="#FF5A00"/>
<path d="M387.631 43.4509C387.631 49.9201 384.346 53.1547 377.788 53.1547C373.583 53.1547 371.482 51.6195 371.482 48.5391C371.482 45.747 373.694 43.9671 378.11 43.1961C379.741 42.9112 382.909 42.7671 387.631 42.7671V43.4509ZM406.14 34.5381C406.14 23.3124 397.625 18.0398 380.959 17.6946C363.582 17.3359 356.243 21.8543 354.786 31.3437H372.801C373.67 28.2532 375.751 26.5236 380.063 26.6744C384.299 26.8253 387.453 28.9739 387.611 34.5984C377.919 34.7425 370.774 35.3057 365.871 36.4788C356.414 38.7448 351.712 43.8967 351.712 50.9056C351.712 55.6285 353.803 59.0776 357.978 61.243C361.126 62.8653 365.206 63.8541 370.217 63.6798C378.436 63.3949 384.356 61.0553 388.02 56.2151V62.6977H406.143L406.14 34.5381Z" fill="#FF5A00"/>
<path d="M31.2914 37.773L41.5708 14.9195L51.3066 37.773H31.2914ZM31.3652 0L0 62.7684H20.3642L25.3412 51.4556H56.7064L61.3377 62.7684H83.937L54.0182 0H31.3652Z" fill="#FF5A00"/>
<path d="M89.7686 62.7665H109.505V0.00146484H89.7686V62.7665Z" fill="#FF5A00"/>
<path d="M122.03 0.00146484V12.4666H141.766V0.00146484H122.03ZM122.03 19.2484V62.7658H141.766V19.2484H122.03Z" fill="#FF5A00"/>
<path d="M191.65 48.0028C188.029 52.9805 183.512 54.0832 178.105 51.3212C177.82 51.1335 177.548 50.9358 177.283 50.7313C175.581 49.1525 174.497 47.2151 174.034 44.9157C173.34 41.5369 173.447 38.1917 174.357 34.88C175.004 32.6342 176.259 30.8644 178.129 29.5806C180.276 28.3437 182.562 27.8979 184.975 28.2398C188.351 28.7728 190.73 30.6599 192.123 33.9012C192.982 36.0264 193.395 38.252 193.362 40.5682C193.395 43.1928 192.825 45.6699 191.65 48.0028ZM154.314 62.7882H173.585V55.0553V54.8743C178.689 61.3804 185.139 64.1089 192.976 63.8273C197.342 63.6061 201.359 62.0944 204.997 59.557C209.927 55.6251 212.591 50.4464 212.987 44.014C213.548 37.3906 211.944 31.3873 208.172 25.9974C204.5 21.4555 199.822 18.8443 194.133 18.1773C186.223 17.1315 179.266 19.7359 173.739 25.7292V0.0600586H154.335L154.314 62.7882Z" fill="#FF5A00"/>
<path d="M323.264 48.0028C319.643 52.9805 315.126 54.0832 309.719 51.3212C309.434 51.1335 309.162 50.9358 308.897 50.7313C307.196 49.1525 306.112 47.2151 305.649 44.9157C304.954 41.5369 305.061 38.1917 305.971 34.88C306.618 32.6342 307.874 30.8644 309.743 29.5806C311.891 28.3437 314.176 27.8979 316.589 28.2398C319.965 28.7728 322.345 30.6599 323.734 33.9012C324.597 36.0264 325.009 38.252 324.976 40.5682C325.009 43.1928 324.439 45.6699 323.264 48.0028ZM285.929 62.7882H305.199V55.0553V54.8743C310.303 61.3804 316.754 64.1089 324.59 63.8273C328.956 63.6061 332.973 62.0944 336.611 59.557C341.541 55.6251 344.206 50.4464 344.602 44.014C345.162 37.3906 343.558 31.3873 339.786 25.9974C336.114 21.4555 331.436 18.8443 325.748 18.1773C317.838 17.1315 310.881 19.7359 305.353 25.7292V0.0600586H285.949L285.929 62.7882Z" fill="#FF5A00"/>
</g>
<defs>
<clipPath id="clip0_892_10079">
<rect width="406" height="64" fill="white"/>
</clipPath>
</defs>
</svg>
