<svg width="213" height="64" viewBox="0 0 213 64" fill="none" xmlns="http://www.w3.org/2000/svg">
<path d="M45.0794 27.6138V6.98015C45.0794 6.15242 44.4148 5.48682 43.5884 5.48682H36.4912V33.9199C36.4912 35.0634 37.8715 35.6351 38.6723 34.8244L44.5171 28.9706C44.8749 28.6122 45.0794 28.1258 45.0794 27.6138Z" fill="#FF0036"/>
<path d="M36.4908 5.48682H22.9951C22.4839 5.48682 21.9983 5.69162 21.6404 6.05002L15.7957 11.9039C14.9948 12.706 15.5572 14.0884 16.6988 14.0884H36.4993V5.48682H36.4908Z" fill="#FFC900"/>
<path d="M28.8316 43.8868H8.23026C7.40382 43.8868 6.73926 43.2212 6.73926 42.3934V35.2852H35.1279C36.2696 35.2852 36.8404 36.6676 36.031 37.4697L30.1863 43.3236C29.8199 43.6905 29.3343 43.8868 28.8316 43.8868Z" fill="#1904DA"/>
<path d="M6.73926 35.2853V21.7685C6.73926 21.2565 6.94374 20.7701 7.30158 20.4117L13.1463 14.5578C13.9472 13.7557 15.3274 14.3189 15.3274 15.4623V35.2938L6.73926 35.2853Z" fill="#08B1D5"/>
<path d="M90.2183 41.9926H72.9397C63.4143 41.9926 55.6611 34.2272 55.6611 24.6869C55.6611 15.1467 63.4143 7.38135 72.9397 7.38135C82.4651 7.38135 90.2183 15.1467 90.2183 24.6869V41.9926ZM72.9397 14.4128C67.2824 14.4128 62.6816 19.0208 62.6816 24.6869C62.6816 30.3531 67.2824 34.9611 72.9397 34.9611H83.1978V24.6869C83.1978 19.0208 78.597 14.4128 72.9397 14.4128Z" fill="#07242D"/>
<path d="M206.159 41.9926H188.88C179.355 41.9926 171.602 34.2272 171.602 24.6869C171.602 15.1467 179.355 7.38135 188.88 7.38135C198.405 7.38135 206.159 15.1467 206.159 24.6869V41.9926ZM188.88 14.4128C183.223 14.4128 178.622 19.0208 178.622 24.6869C178.622 30.3531 183.223 34.9611 188.88 34.9611H199.138V24.6869C199.147 19.0208 194.537 14.4128 188.88 14.4128Z" fill="#07242D"/>
<path d="M150.233 42.0011C140.699 42.0011 132.946 34.2357 132.946 24.6869V8.448H139.967V24.6869C139.967 30.3531 144.576 34.9696 150.233 34.9696C155.891 34.9696 160.5 30.3531 160.5 24.6869V8.448H167.52V24.6869C167.52 34.2357 159.767 42.0011 150.233 42.0011Z" fill="#07242D"/>
<path d="M111.578 7.38135C102.053 7.38135 94.2998 15.1467 94.2998 24.6869C94.2998 34.2272 102.053 41.9925 111.578 41.9925L118.599 34.9611H111.578C105.921 34.9611 101.32 30.3531 101.32 24.6869C101.32 19.0208 105.921 14.4128 111.578 14.4128C117.236 14.4128 121.836 19.0208 121.836 24.6869V58.5131H128.857V24.6869C128.857 15.1467 121.112 7.38135 111.578 7.38135Z" fill="#07242D"/>
</svg>
