<svg width="143" height="64" viewBox="0 0 143 64" fill="none" xmlns="http://www.w3.org/2000/svg">
<g clip-path="url(#clip0_930_10211)">
<path d="M55.6903 35.7033H63.5518C63.9805 35.7033 64.2378 35.1676 63.9891 34.7729L57.122 23.9182C57.0106 23.7396 57.0792 23.4953 57.2506 23.4014C58.8624 22.5462 60.1483 21.3807 61.0829 19.8771C62.1544 18.1574 62.6945 15.9864 62.6945 13.3926V12.6313C62.6945 10.0375 62.163 7.86657 61.1086 6.10915C60.0541 4.35174 58.5365 3.02663 56.5647 2.11502C54.5929 1.21282 52.2524 0.761719 49.5263 0.761719H37.0695C36.778 0.761719 36.5293 1.02486 36.5293 1.36318V35.1019C36.5293 35.4214 36.7694 35.7033 37.0695 35.7033H43.9708C44.2623 35.7033 44.511 35.4401 44.511 35.1019V25.6569C44.511 25.3373 44.751 25.0555 45.0511 25.0555H48.7718C48.9519 25.0555 49.1147 25.1588 49.2176 25.3186L55.253 35.4214C55.356 35.5811 55.5189 35.6845 55.6988 35.6845L55.6903 35.7033ZM44.5024 8.76877C44.5024 8.44924 44.7424 8.16729 45.0425 8.16729H49.9977C50.9408 8.16729 51.7553 8.37405 52.4411 8.77816C53.1269 9.19167 53.6671 9.77435 54.0529 10.5356C54.4386 11.2968 54.6273 12.199 54.6273 13.2422C54.6273 14.2854 54.4386 15.1406 54.0529 15.9019C53.6671 16.6631 53.1269 17.2457 52.4411 17.6593C51.7553 18.0727 50.9408 18.2701 49.9977 18.2701H45.0425C44.751 18.2701 44.5024 18.007 44.5024 17.6686V8.74998V8.76877Z" fill="#2916FC"/>
<path d="M93.3868 1.0426C93.164 1.0426 92.9668 1.19297 92.8897 1.41852L86.3997 18.7859C86.3312 18.9833 86.0741 18.9833 86.0054 18.7859L79.4727 1.42792C79.3955 1.20237 79.1984 1.052 78.9754 1.052H68.8077C68.5162 1.052 68.2676 1.31514 68.2676 1.65347V35.1102C68.2676 35.4297 68.5076 35.7117 68.8077 35.7117H75.0232C75.3147 35.7117 75.5633 35.4485 75.5633 35.1102V11.7563C75.5633 11.3615 76.0606 11.2582 76.1892 11.6247L82.216 28.3342C82.3018 28.5598 82.4905 28.7102 82.7133 28.7102H89.229C89.4518 28.7102 89.6405 28.5692 89.7262 28.3342L95.7874 11.4085C95.916 11.042 96.4132 11.1454 96.4132 11.5401V35.0914C96.4132 35.4109 96.6533 35.6928 96.9533 35.6928H103.769C104.06 35.6928 104.309 35.4297 104.309 35.0914V1.63468C104.309 1.31514 104.069 1.0332 103.769 1.0332H93.3783L93.3868 1.0426Z" fill="#2916FC"/>
<path d="M126.007 36.6517C123.153 36.6517 120.658 36.1066 118.541 35.0163C116.423 33.9262 114.666 32.4883 113.26 30.6933C111.854 28.8983 110.816 26.9718 110.13 24.876C109.445 22.7896 109.102 20.7691 109.102 18.7955V17.7523C109.102 15.572 109.453 13.4199 110.173 11.3242C110.893 9.21901 111.956 7.32062 113.397 5.60081C114.828 3.89978 116.595 2.52768 118.695 1.5127C120.795 0.497723 123.23 -0.00976562 126.007 -0.00976562C128.785 -0.00976562 131.177 0.497723 133.278 1.5127C135.378 2.52768 137.144 3.88098 138.577 5.60081C140 7.30183 141.088 9.21901 141.816 11.3242C142.545 13.4293 142.915 15.572 142.915 17.7523V18.7955C142.915 20.7597 142.571 22.7896 141.868 24.876C141.165 26.9623 140.119 28.8983 138.713 30.6933C137.307 32.4883 135.559 33.9262 133.432 35.0163C131.314 36.1066 128.837 36.6517 126.007 36.6517ZM126.007 28.3814C127.379 28.3814 128.615 28.1277 129.703 27.6202C130.792 27.1127 131.717 26.3985 132.489 25.4869C133.26 24.5659 133.844 23.5038 134.247 22.2822C134.649 21.0604 134.847 19.7447 134.847 18.3163C134.847 16.8877 134.641 15.4216 134.221 14.1905C133.8 12.95 133.209 11.8974 132.438 11.014C131.666 10.1306 130.732 9.44456 129.651 8.97467C128.563 8.49537 127.345 8.26043 126.007 8.26043C124.67 8.26043 123.401 8.49537 122.322 8.97467C121.232 9.45397 120.298 10.1306 119.535 11.014C118.764 11.8974 118.18 12.9594 117.778 14.1905C117.375 15.4311 117.177 16.8032 117.177 18.3163C117.177 19.8293 117.375 21.0604 117.778 22.2822C118.18 23.5038 118.764 24.5659 119.535 25.4869C120.307 26.4078 121.242 27.1127 122.322 27.6202C123.411 28.1277 124.645 28.3814 126.007 28.3814Z" fill="#2916FC"/>
<path d="M22.2392 1.0426H10.2369C10.0054 1.0426 9.79965 1.21176 9.73107 1.45612L0.0262733 34.9316C-0.0851776 35.317 0.172016 35.7117 0.532088 35.7117H32.2613C32.6214 35.7117 32.8871 35.317 32.7671 34.9316L22.7451 1.44671C22.6765 1.21176 22.4708 1.0332 22.2392 1.0332V1.0426ZM9.9797 27.714L15.2522 8.57976C15.3208 8.3354 15.5265 8.16624 15.7666 8.16624H16.5724C16.8039 8.16624 17.0097 8.3354 17.0782 8.57976L22.4965 27.714C22.608 28.0992 22.3508 28.4846 21.9907 28.4846H10.4941C10.134 28.4846 9.87682 28.0992 9.9797 27.714Z" fill="#2916FC"/>
<mask id="mask0_930_10211" style="mask-type:luminance" maskUnits="userSpaceOnUse" x="0" y="0" width="143" height="64">
<path d="M143 0H0V64H143V0Z" fill="white"/>
</mask>
<g mask="url(#mask0_930_10211)">
<path d="M3.68604 50.3718C4.12328 50.3718 4.50049 50.4376 4.8177 50.5598C5.13491 50.682 5.44353 50.8699 5.74359 51.1236L5.23779 51.7627C4.8177 51.3774 4.32046 51.1894 3.74606 51.1894C3.17165 51.1894 2.58868 51.4432 2.18574 51.96C1.79138 52.4676 1.58562 53.2664 1.58562 54.3753C1.58562 55.4843 1.7828 56.2738 2.16859 56.7906C2.56297 57.2981 3.07735 57.5613 3.72891 57.5613C4.38047 57.5613 4.38904 57.5049 4.64624 57.392C4.90343 57.2793 5.14347 57.1195 5.37495 56.9222L5.83791 57.5519C5.30637 58.1157 4.60337 58.3977 3.72034 58.3977C2.83731 58.3977 2.6144 58.2473 2.14288 57.9371C1.67992 57.6176 1.31128 57.1665 1.04552 56.5651C0.779748 55.9636 0.642578 55.2399 0.642578 54.3848C0.642578 53.5295 0.779748 52.8246 1.04552 52.2232C1.31986 51.6123 1.6885 51.1519 2.14288 50.8511C2.60583 50.541 3.12022 50.3907 3.67747 50.3907L3.68604 50.3718ZM10.8618 52.195C11.0847 52.195 11.3333 52.2326 11.6247 52.3172L11.5047 54.3377H10.8018V53.0596H10.7503C9.91015 53.0596 9.31859 53.7174 8.9671 55.0238V57.5236H10.0645V58.2566H7.24389V57.5236H8.10121V53.0502H7.24389V52.3172H8.7442L8.90709 53.7269C9.12999 53.2193 9.38719 52.8341 9.68725 52.5803C9.99588 52.3266 10.3817 52.195 10.8532 52.195H10.8618ZM14.0509 55.6253C14.0681 56.2831 14.2224 56.7718 14.5139 57.1007C14.8054 57.4297 15.1826 57.5988 15.6284 57.5988C16.0742 57.5988 16.1429 57.5613 16.3571 57.4767C16.5801 57.3827 16.8201 57.2511 17.0773 57.0725L17.4802 57.7022C17.223 57.9183 16.9315 58.0875 16.6057 58.2097C16.28 58.3318 15.9542 58.3882 15.6284 58.3882C14.8483 58.3882 14.2396 58.1064 13.7938 57.5519C13.3651 56.988 13.1423 56.2361 13.1423 55.2964C13.1423 54.3566 13.2365 54.1686 13.4338 53.7081C13.6223 53.2382 13.8966 52.8623 14.2568 52.5992C14.6168 52.3266 15.0283 52.195 15.4998 52.195C16.1856 52.195 16.7258 52.4581 17.1116 52.9844C17.5059 53.5013 17.7117 54.2155 17.7117 55.1178C17.7117 56.02 17.7117 55.4562 17.6946 55.6253H14.0509ZM15.517 52.975C15.0969 52.975 14.7625 53.1442 14.4968 53.4731C14.2396 53.7926 14.0853 54.2719 14.0509 54.9016H16.8716C16.8716 54.2814 16.7429 53.8021 16.5029 53.4731C16.2629 53.1442 15.9371 52.975 15.517 52.975ZM23.4214 56.9691C23.4214 57.2041 23.4557 57.3733 23.5243 57.4861C23.5929 57.5894 23.7044 57.674 23.8673 57.721L23.6529 58.3977C23.1214 58.3225 22.7956 58.0405 22.667 57.5519C22.4783 57.8244 22.2297 58.0312 21.9383 58.1721C21.6468 58.3131 21.3295 58.3882 20.9695 58.3882C20.4294 58.3882 20.0008 58.2191 19.6835 57.8901C19.3749 57.5613 19.2206 57.1195 19.2206 56.5557C19.2206 55.9918 19.435 55.4749 19.8722 55.146C20.3093 54.817 20.9352 54.6479 21.7582 54.6479H22.5641V54.1592C22.5641 53.7363 22.4526 53.4356 22.2383 53.257C22.0155 53.0691 21.6982 52.975 21.2782 52.975C20.8581 52.975 20.3951 53.0784 19.8722 53.2758L19.6321 52.5522C20.2665 52.3078 20.8667 52.1763 21.4153 52.1763C21.964 52.1763 22.5727 52.3454 22.9156 52.6837C23.2671 53.0221 23.4386 53.492 23.4386 54.0934V56.9504L23.4214 56.9691ZM21.1838 57.6835C21.4497 57.6835 21.7068 57.6083 21.9468 57.4579C22.1954 57.3075 22.3926 57.1007 22.5556 56.8376V55.3151H21.7753C21.2009 55.3151 20.7809 55.4185 20.5323 55.6346C20.2751 55.8414 20.1551 56.1515 20.1551 56.5557C20.1551 57.3075 20.498 57.6835 21.1924 57.6835H21.1838ZM30.0142 57.9653C29.8256 58.0969 29.6027 58.2098 29.3368 58.2848C29.0797 58.36 28.8139 58.3977 28.5568 58.3977C27.9909 58.3977 27.5451 58.2379 27.2193 57.9089C26.8935 57.5801 26.7393 57.1477 26.7393 56.6121V53.0691H25.4961V52.3266H26.7393V50.9827L27.6051 50.8699V52.3266H29.4912L29.3797 53.0691H27.6136V56.6026C27.6136 56.941 27.6994 57.1947 27.8623 57.3545C28.0253 57.5236 28.291 57.5988 28.651 57.5988C29.0111 57.5988 29.3712 57.5049 29.6884 57.317L30.0313 57.956L30.0142 57.9653ZM33.9406 52.195C34.6865 52.195 35.2609 52.477 35.6553 53.0314C36.0582 53.5765 36.264 54.3284 36.264 55.2869C36.264 56.2456 36.0582 56.9691 35.6467 57.5424C35.2438 58.1064 34.6694 58.3882 33.9321 58.3882C33.1948 58.3882 32.6118 58.1157 32.2003 57.5613C31.7974 57.0068 31.5917 56.2456 31.5917 55.2964C31.5917 54.3471 31.7974 53.6047 32.2003 53.0409C32.6118 52.477 33.1948 52.195 33.9406 52.195ZM33.9406 52.975C33.4691 52.975 33.1177 53.163 32.8776 53.5483C32.6461 53.9337 32.5261 54.5163 32.5261 55.2964C32.5261 56.0763 32.6375 56.659 32.8691 57.0443C33.1005 57.4203 33.452 57.6083 33.9321 57.6083C34.4122 57.6083 34.7551 57.4203 34.978 57.0443C35.2095 56.659 35.3295 56.0763 35.3295 55.2869C35.3295 54.4975 35.2095 53.9242 34.978 53.5483C34.7551 53.163 34.4036 52.975 33.9406 52.975ZM41.6994 52.195C41.9222 52.195 42.1709 52.2326 42.4624 52.3172L42.3423 54.3377H41.6393V53.0596H41.5879C40.7478 53.0596 40.1562 53.7174 39.8047 55.0238V57.5236H40.902V58.2566H38.0815V57.5236H38.9388V53.0502H38.0815V52.3172H39.5818L39.7447 53.7269C39.9676 53.2193 40.2247 52.8341 40.5248 52.5803C40.8335 52.3266 41.2192 52.195 41.6908 52.195H41.6994ZM46.063 57.6083C46.4747 57.6083 46.8003 57.5236 47.0405 57.3451C47.2805 57.1759 47.4005 56.941 47.4005 56.659C47.4005 56.3771 47.3662 56.3019 47.3062 56.1892C47.2462 56.0576 47.1176 55.9448 46.9375 55.8509C46.749 55.7475 46.4747 55.6441 46.0974 55.5314C45.463 55.3621 45 55.1554 44.7 54.911C44.3999 54.6667 44.2456 54.3002 44.2456 53.8208C44.2456 53.3416 44.4342 52.928 44.8114 52.6367C45.1887 52.3454 45.6859 52.195 46.3032 52.195C46.9204 52.195 47.7177 52.4112 48.275 52.8528L47.8806 53.5107C47.6577 53.3416 47.4176 53.21 47.1691 53.116C46.9204 53.0221 46.6374 52.9657 46.3117 52.9657C45.5315 52.9657 45.1372 53.2288 45.1372 53.7456C45.1372 54.2626 45.1801 54.0746 45.2572 54.1873C45.3429 54.3002 45.4886 54.4035 45.6773 54.4881C45.8745 54.5727 46.1746 54.6761 46.5603 54.7888C47.1519 54.9581 47.5891 55.1835 47.8806 55.4562C48.1721 55.7193 48.3264 56.1045 48.3264 56.6214C48.3264 57.1384 48.1035 57.6552 47.6662 57.956C47.229 58.2566 46.6889 58.3977 46.0545 58.3977C45.4201 58.3977 44.4942 58.1346 43.9369 57.5988L44.4171 56.9786C44.6399 57.1759 44.8886 57.3357 45.1715 57.4485C45.4544 57.5613 45.7459 57.6176 46.0545 57.6176L46.063 57.6083ZM58.6142 52.195C59.36 52.195 59.9344 52.477 60.3288 53.0314C60.7318 53.5765 60.9374 54.3284 60.9374 55.2869C60.9374 56.2456 60.7318 56.9691 60.3203 57.5424C59.9173 58.1064 59.3429 58.3882 58.6056 58.3882C57.8683 58.3882 57.2853 58.1157 56.8738 57.5613C56.4709 57.0068 56.2651 56.2456 56.2651 55.2964C56.2651 54.3471 56.4709 53.6047 56.8738 53.0409C57.2853 52.477 57.8683 52.195 58.6142 52.195ZM58.6142 52.975C58.1427 52.975 57.7911 53.163 57.5511 53.5483C57.3197 53.9337 57.1997 54.5163 57.1997 55.2964C57.1997 56.0763 57.3111 56.659 57.5425 57.0443C57.7741 57.4203 58.1255 57.6083 58.6056 57.6083C59.0857 57.6083 59.4286 57.4203 59.6515 57.0443C59.883 56.659 60.003 56.0763 60.003 55.2869C60.003 54.4975 59.883 53.9242 59.6515 53.5483C59.4286 53.163 59.0771 52.975 58.6142 52.975ZM65.9185 49.8174C66.4329 49.8174 66.9216 49.9208 67.393 50.1369L67.1187 50.8511C66.7759 50.682 66.39 50.6068 65.9527 50.6068C65.1984 50.6068 64.8211 50.9357 64.8211 51.5842V52.7871H66.6557L66.5615 53.539H64.8211V58.2661H63.9466V53.539H62.6607V52.7871H63.9466V51.603C63.9466 51.0672 64.1353 50.6443 64.5039 50.3155C64.8812 49.9865 65.3527 49.8174 65.9271 49.8174H65.9185Z" fill="#2916FC"/>
<path d="M95.6159 58.3332H94.1328V50.5328H95.6159V58.3332ZM97.0562 54.4048L95.4188 56.3408L95.153 54.7525L96.2589 53.0796L98.0592 50.5234H99.8683L97.0562 54.3953V54.4048ZM96.1132 54.7618L97.2019 53.7281L99.9454 58.3332H98.1878L96.1132 54.7618Z" fill="#2916FC"/>
<path d="M103.382 52.5332H104.805V58.3317H103.468L103.382 56.9408V52.5426V52.5332ZM103.973 55.7285C103.973 56.2453 103.905 56.7152 103.759 57.1194C103.613 57.5235 103.399 57.8525 103.107 58.0874C102.816 58.3224 102.439 58.4445 101.993 58.4445C101.547 58.4445 101.05 58.2754 100.724 57.9464C100.398 57.608 100.244 57.063 100.244 56.2923V52.5426H101.667V56.3018C101.667 56.5085 101.701 56.687 101.762 56.8186C101.83 56.9502 101.916 57.0442 102.027 57.1006C102.139 57.157 102.267 57.1851 102.413 57.1851C102.705 57.1851 102.936 57.1194 103.099 56.9972C103.27 56.875 103.39 56.6965 103.459 56.4803C103.528 56.2642 103.562 56.0198 103.562 55.7472H103.982L103.973 55.7285Z" fill="#2916FC"/>
<path d="M108.586 58.437C108.149 58.437 107.797 58.3054 107.514 58.0516C107.24 57.7885 107.017 57.4408 106.863 57.0084C106.709 56.5668 106.597 56.0781 106.537 55.5425V55.3262C106.606 54.7718 106.709 54.2831 106.863 53.8414C107.017 53.4091 107.231 53.0614 107.506 52.8171C107.789 52.5633 108.14 52.4411 108.569 52.4411C108.998 52.4411 109.418 52.5633 109.718 52.8171C110.026 53.0707 110.249 53.4185 110.404 53.8601C110.558 54.3019 110.635 54.8094 110.635 55.3826V55.4955C110.635 56.0687 110.558 56.5762 110.404 57.0273C110.258 57.469 110.026 57.8167 109.726 58.0705C109.426 58.3243 109.04 58.4464 108.577 58.4464L108.586 58.437ZM105.877 58.3336V50.1104H107.3V56.9897L107.154 58.3336H105.877ZM108.235 57.1777C108.5 57.1777 108.706 57.1025 108.843 56.9615C108.989 56.8111 109.083 56.6137 109.143 56.3601C109.195 56.1063 109.229 55.815 109.229 55.486V55.3732C109.229 55.0631 109.203 54.7906 109.143 54.5368C109.092 54.283 108.989 54.0764 108.843 53.926C108.697 53.7756 108.492 53.691 108.226 53.691C107.96 53.691 107.874 53.7286 107.746 53.7944C107.609 53.8601 107.506 53.9542 107.42 54.0857C107.334 54.208 107.266 54.3582 107.223 54.5368C107.18 54.7154 107.154 54.9033 107.146 55.1195V55.7491C107.163 56.0311 107.206 56.2754 107.274 56.4916C107.352 56.7078 107.463 56.8769 107.617 56.9991C107.772 57.1213 107.977 57.1777 108.235 57.1777Z" fill="#2916FC"/>
<path d="M113.952 58.435C113.404 58.435 112.932 58.3128 112.538 58.0591C112.143 57.8053 111.852 57.467 111.637 57.0441C111.432 56.6212 111.32 56.1513 111.32 55.6344V55.4276C111.32 54.8449 111.423 54.328 111.62 53.8769C111.826 53.4259 112.109 53.0687 112.478 52.815C112.846 52.5613 113.284 52.4297 113.789 52.4297C114.295 52.4297 114.732 52.5519 115.075 52.7869C115.419 53.0218 115.684 53.3507 115.856 53.783C116.035 54.2059 116.121 54.704 116.121 55.2773V55.9445H111.937V54.8826H114.724V54.7604C114.724 54.5536 114.69 54.375 114.621 54.2153C114.553 54.0555 114.458 53.924 114.321 53.8299C114.184 53.736 114.004 53.689 113.781 53.689C113.558 53.689 113.335 53.7642 113.189 53.924C113.035 54.0744 112.924 54.2811 112.855 54.5443C112.786 54.8074 112.752 55.0987 112.752 55.4371V55.6438C112.752 55.9445 112.803 56.217 112.906 56.4426C113.009 56.6776 113.164 56.8561 113.352 56.9877C113.549 57.1193 113.781 57.185 114.047 57.185C114.312 57.185 114.543 57.1286 114.758 57.0253C114.982 56.9219 115.161 56.7528 115.324 56.5366L116.018 57.3918C115.856 57.6549 115.598 57.8993 115.255 58.1155C114.913 58.3316 114.484 58.4443 113.961 58.4443L113.952 58.435Z" fill="#2916FC"/>
<path d="M118.943 58.4368C118.446 58.4368 118.026 58.3429 117.691 58.1455C117.349 57.9482 117.091 57.7038 116.92 57.4031C116.74 57.1023 116.654 56.7922 116.654 56.4726H118.009C118.017 56.6794 118.068 56.8391 118.154 56.9614C118.249 57.0836 118.36 57.1775 118.505 57.2338C118.652 57.2903 118.806 57.3185 118.978 57.3185C119.148 57.3185 119.303 57.2903 119.423 57.2433C119.543 57.1963 119.638 57.1211 119.697 57.0272C119.758 56.9332 119.792 56.8298 119.792 56.7076C119.792 56.5855 119.766 56.5008 119.706 56.4162C119.655 56.3317 119.543 56.2565 119.388 56.1813C119.234 56.1061 119.012 56.0404 118.711 55.9745C118.352 55.89 118.034 55.7772 117.742 55.6268C117.46 55.4764 117.237 55.2885 117.074 55.063C116.912 54.8281 116.834 54.5461 116.834 54.2078C116.834 53.8694 116.92 53.5874 117.082 53.315C117.254 53.0425 117.494 52.8169 117.803 52.6571C118.12 52.4879 118.497 52.4033 118.934 52.4033C119.371 52.4033 119.792 52.488 120.117 52.6478C120.452 52.8075 120.701 53.033 120.88 53.315C121.061 53.5969 121.147 53.9164 121.147 54.283H119.724C119.724 54.0574 119.655 53.8789 119.526 53.7378C119.398 53.5874 119.2 53.5217 118.926 53.5217C118.652 53.5217 118.635 53.5499 118.522 53.6063C118.411 53.6626 118.326 53.7285 118.266 53.8224C118.206 53.9164 118.18 54.0198 118.18 54.142C118.18 54.2641 118.215 54.3487 118.274 54.4334C118.335 54.5179 118.437 54.5931 118.574 54.6495C118.72 54.7058 118.909 54.7622 119.157 54.8186C119.543 54.9033 119.886 55.016 120.186 55.1476C120.487 55.2791 120.718 55.4671 120.897 55.7114C121.069 55.9463 121.164 56.2565 121.164 56.6418C121.164 57.0272 121.069 57.2809 120.889 57.5535C120.709 57.826 120.452 58.0327 120.117 58.1831C119.783 58.3334 119.388 58.4181 118.943 58.4181V58.4368Z" fill="#2916FC"/>
<path d="M124.3 58.4355C123.752 58.4355 123.298 58.304 122.937 58.0408C122.577 57.7777 122.312 57.43 122.123 56.9883C121.942 56.5466 121.857 56.0485 121.857 55.5034V55.3531C121.857 54.808 121.942 54.3099 122.123 53.8682C122.302 53.4264 122.569 53.0694 122.937 52.8156C123.298 52.5525 123.752 52.4209 124.292 52.4209C124.832 52.4209 125.106 52.5149 125.432 52.7029C125.757 52.8815 126.015 53.1446 126.203 53.4828C126.392 53.8211 126.486 54.2253 126.495 54.6858H125.158C125.158 54.4978 125.114 54.3287 125.046 54.1783C124.977 54.0279 124.874 53.9058 124.746 53.8118C124.618 53.7178 124.454 53.6709 124.266 53.6709C124.077 53.6709 123.786 53.7554 123.649 53.9152C123.502 54.0749 123.409 54.2817 123.357 54.5355C123.306 54.7891 123.281 55.0618 123.281 55.3531V55.5034C123.281 55.8042 123.306 56.0767 123.348 56.3304C123.4 56.5842 123.503 56.791 123.64 56.9507C123.786 57.101 124 57.1857 124.266 57.1857C124.532 57.1857 124.592 57.148 124.721 57.0823C124.857 57.0071 124.96 56.9131 125.038 56.7815C125.114 56.6499 125.149 56.4995 125.158 56.3304H126.495C126.495 56.744 126.392 57.101 126.194 57.4206C125.998 57.7402 125.74 57.9845 125.406 58.1724C125.08 58.351 124.712 58.445 124.3 58.445V58.4355Z" fill="#2916FC"/>
<path d="M130.165 54.4603C130.165 54.1971 130.106 53.9809 129.976 53.8211C129.848 53.6614 129.66 53.5768 129.394 53.5768C129.128 53.5768 129.11 53.605 128.99 53.6614C128.879 53.7178 128.794 53.793 128.734 53.8963C128.673 53.9997 128.648 54.1219 128.648 54.2723H127.225C127.225 53.934 127.319 53.6239 127.5 53.3419C127.687 53.0599 127.945 52.8438 128.279 52.6747C128.622 52.5055 129.017 52.4209 129.471 52.4209C129.925 52.4209 130.243 52.4961 130.56 52.6465C130.886 52.7968 131.134 53.0224 131.314 53.323C131.503 53.6238 131.588 54.0092 131.588 54.4603V56.9037C131.588 57.2326 131.606 57.4957 131.64 57.7025C131.674 57.8999 131.726 58.0785 131.794 58.2288V58.3228H130.354C130.285 58.1631 130.243 57.9656 130.2 57.7213C130.165 57.477 130.148 57.2326 130.148 56.9883V54.4508L130.165 54.4603ZM130.346 55.6914H129.591C129.213 55.6914 128.948 55.776 128.776 55.9451C128.605 56.1143 128.519 56.3211 128.519 56.5747C128.519 56.8285 128.58 56.9226 128.7 57.0541C128.828 57.1762 128.99 57.2421 129.205 57.2421C129.419 57.2421 129.591 57.1951 129.745 57.1105C129.9 57.0165 130.02 56.9037 130.106 56.7815C130.192 56.6499 130.234 56.5279 130.226 56.415L130.602 57.0917C130.56 57.2421 130.491 57.3925 130.397 57.5427C130.312 57.6931 130.2 57.8435 130.062 57.9751C129.925 58.1067 129.763 58.2194 129.566 58.304C129.377 58.3887 129.145 58.4355 128.889 58.4355C128.631 58.4355 128.246 58.3603 127.971 58.2194C127.696 58.069 127.483 57.8622 127.328 57.5991C127.165 57.336 127.088 57.0353 127.088 56.697C127.088 56.0861 127.294 55.6162 127.704 55.2872C128.116 54.9584 128.725 54.7891 129.531 54.7891H130.346V55.6914Z" fill="#2916FC"/>
<path d="M135.387 58.4354C135.061 58.4354 134.778 58.3602 134.538 58.2193C134.298 58.0689 134.101 57.8715 133.937 57.6083C133.775 57.3452 133.646 57.0445 133.543 56.7062C133.449 56.3678 133.372 55.9919 133.321 55.5972V55.3435C133.389 54.7795 133.5 54.2814 133.655 53.8492C133.809 53.4075 134.032 53.0691 134.306 52.8155C134.589 52.5617 134.941 52.4395 135.37 52.4395C135.797 52.4395 136.192 52.5617 136.501 52.806C136.81 53.0504 137.041 53.3886 137.195 53.8303C137.358 54.2721 137.436 54.789 137.436 55.3716V55.4844C137.436 56.0483 137.358 56.5464 137.195 56.9975C137.041 57.4392 136.81 57.7963 136.501 58.0594C136.201 58.3132 135.824 58.4447 135.378 58.4447L135.387 58.4354ZM132.678 60.5593V52.5335H133.998L134.101 53.6518V60.5593H132.678ZM135.017 57.1854C135.267 57.1854 135.463 57.1102 135.609 56.9505C135.755 56.7907 135.858 56.5839 135.927 56.3303C135.995 56.0765 136.021 55.7852 136.021 55.475V55.3623C136.021 55.0427 135.986 54.7608 135.918 54.507C135.849 54.2532 135.746 54.0559 135.593 53.9055C135.438 53.7551 135.24 53.6894 135 53.6894C134.761 53.6894 134.658 53.727 134.521 53.7928C134.391 53.8585 134.28 53.9526 134.195 54.0748C134.109 54.1969 134.04 54.3473 133.998 54.5259C133.954 54.7044 133.929 54.9017 133.92 55.1273V55.7945C133.937 56.0577 133.981 56.2926 134.057 56.4994C134.135 56.7062 134.246 56.8753 134.401 56.9881C134.555 57.1102 134.761 57.1666 135.009 57.1666L135.017 57.1854Z" fill="#2916FC"/>
<path d="M140.753 58.435C140.204 58.435 139.733 58.3128 139.338 58.0591C138.945 57.8053 138.644 57.467 138.439 57.0441C138.233 56.6212 138.121 56.1513 138.121 55.6344V55.4276C138.121 54.8449 138.224 54.328 138.422 53.8769C138.627 53.4259 138.91 53.0687 139.279 52.815C139.647 52.5613 140.084 52.4297 140.591 52.4297C141.097 52.4297 141.534 52.5519 141.877 52.7869C142.219 53.0218 142.485 53.3507 142.657 53.783C142.837 54.2059 142.922 54.704 142.922 55.2773V55.9445H138.739V54.8826H141.524V54.7604C141.524 54.5536 141.49 54.375 141.423 54.2153C141.354 54.0555 141.259 53.924 141.122 53.8299C140.985 53.736 140.805 53.689 140.582 53.689C140.359 53.689 140.136 53.7642 139.99 53.924C139.836 54.0744 139.725 54.2811 139.656 54.5443C139.588 54.8074 139.553 55.0987 139.553 55.4371V55.6438C139.553 55.9445 139.605 56.217 139.708 56.4426C139.811 56.6776 139.965 56.8561 140.153 56.9877C140.351 57.1193 140.582 57.185 140.856 57.185C141.131 57.185 141.354 57.1286 141.568 57.0253C141.782 56.9219 141.971 56.7528 142.134 56.5366L142.829 57.3918C142.665 57.6549 142.408 57.8993 142.066 58.1155C141.722 58.3316 141.293 58.4443 140.771 58.4443L140.753 58.435Z" fill="#2916FC"/>
<mask id="mask1_930_10211" style="mask-type:luminance" maskUnits="userSpaceOnUse" x="73" y="46" width="18" height="18">
<path d="M90.3957 46.9902H73.3008V63.9159H90.3957V46.9902Z" fill="white"/>
</mask>
<g mask="url(#mask1_930_10211)">
<path d="M88.6813 53.7957L88.5699 53.5889C88.4669 53.4105 88.3297 53.2507 88.1583 53.1473C87.9869 53.044 87.7982 52.9875 87.5924 52.9875H84.2232C84.0603 52.9875 83.8974 53.0251 83.7517 53.1003C83.6059 53.1755 83.4773 53.2789 83.3659 53.4105C83.323 53.4669 83.2802 53.5232 83.2459 53.5889L82.5773 54.8296L81.5656 56.7091C81.5656 56.7091 81.5656 56.7185 81.557 56.7279C81.4627 56.9065 81.4113 57.1133 81.4199 57.32C81.4199 57.5268 81.4712 57.7334 81.5656 57.912L83.2459 61.0321C83.3402 61.2014 83.4602 61.3423 83.6145 61.4457C83.7688 61.5491 83.9403 61.6148 84.1204 61.6336H77.6648C77.4847 61.6336 77.3133 61.5866 77.1589 61.4927C77.0046 61.3987 76.876 61.2577 76.7817 61.098L73.4126 54.8577C73.3268 54.6885 73.2754 54.5006 73.2754 54.3126C73.2754 54.1247 73.3182 53.9368 73.4126 53.7675L76.7817 47.5368C76.8674 47.3675 76.9961 47.236 77.1503 47.1421C77.3047 47.048 77.4847 46.9917 77.6562 47.001H84.3861C84.5662 47.001 84.7376 47.048 84.8919 47.1421C85.0462 47.236 85.1748 47.377 85.2606 47.5368L88.407 53.354L88.6298 53.7675C88.6298 53.777 88.6384 53.7864 88.647 53.7957H88.6813Z" fill="#2916FC"/>
<path d="M80.6667 50.5253V57.7429C80.6667 57.8463 80.6325 57.9403 80.5638 58.006C80.4953 58.0719 80.4095 58.1189 80.3153 58.1189H79.0293C78.935 58.1189 78.8492 58.0812 78.7807 58.006C78.7121 57.9403 78.6777 57.8463 78.6777 57.7429V50.5253C78.6777 50.4314 78.7121 50.328 78.7807 50.2622C78.8492 50.1964 78.935 50.1494 79.0293 50.1494H80.3153C80.4095 50.1494 80.4953 50.187 80.5553 50.2622C80.6239 50.328 80.6582 50.4219 80.6582 50.5253H80.6667ZM84.2417 50.7321L82.4929 53.5138C82.4585 53.5702 82.4328 53.6361 82.4328 53.7113C82.4328 53.777 82.45 53.8522 82.4757 53.9086L84.4818 57.5549C84.5161 57.6113 84.5246 57.6772 84.5246 57.7429C84.5246 57.8087 84.5076 57.8745 84.4818 57.9309C84.4475 57.9873 84.4046 58.0343 84.3532 58.0719C84.3017 58.1001 84.2417 58.1189 84.1818 58.1189H82.7243C82.6643 58.1189 82.6043 58.1001 82.5528 58.0719C82.5014 58.0343 82.4585 57.9873 82.4242 57.9309L80.4267 54.0778C80.4009 54.0214 80.3838 53.9556 80.3838 53.8898C80.3838 53.824 80.4009 53.7583 80.4353 53.7018L82.4242 50.3374C82.4585 50.281 82.5014 50.2434 82.5528 50.2151C82.6043 50.187 82.6642 50.1682 82.7157 50.1682H83.9417C84.0017 50.1682 84.0617 50.187 84.1217 50.2246C84.1732 50.2622 84.2161 50.3092 84.2503 50.3655C84.276 50.4219 84.2932 50.4878 84.2932 50.5535C84.2932 50.6193 84.2674 50.685 84.2332 50.7415L84.2417 50.7321Z" fill="#2916FC"/>
<path d="M88.2187 55.5714L85.6639 60.3174H84.2922L83.0406 57.9961L82.6719 57.3101L83.3063 56.1353L83.8293 55.1673L84.3008 54.3027H87.5414L88.2272 55.5714H88.2187Z" fill="url(#paint0_linear_930_10211)"/>
<path opacity="0.7" d="M84.1112 58.1371H82.8853L82.808 57.9868L82.4395 57.3007L83.0739 56.126L83.3397 55.6279L84.4113 57.5826C84.4456 57.639 84.4542 57.7049 84.4542 57.7706C84.4542 57.8364 84.437 57.9021 84.4113 57.9586C84.3769 58.015 84.3341 58.0619 84.2827 58.0901C84.2312 58.1184 84.1712 58.1371 84.1112 58.1371Z" fill="#2916FC"/>
<path d="M90.3439 56.9546C90.3181 56.87 90.2839 56.7948 90.2496 56.7196L88.8351 54.0976L88.6807 53.8063L88.5693 53.5995C88.4664 53.4211 88.3292 53.2612 88.1578 53.1579C87.9863 53.0545 87.7977 52.998 87.6005 52.998H84.2398C84.0769 52.998 83.914 53.0357 83.7683 53.1109C83.6225 53.1861 83.494 53.2895 83.3825 53.4211C83.3396 53.4774 83.2968 53.5338 83.2625 53.5995L82.5937 54.8401L81.5821 56.7196C81.5821 56.7196 81.5822 56.7291 81.5736 56.7385C81.4793 56.9171 81.4279 57.1238 81.4365 57.3306C81.4365 57.5374 81.4878 57.744 81.5821 57.9226L83.2625 61.0427C83.3568 61.212 83.4768 61.3529 83.6311 61.4563C83.7854 61.5596 83.9569 61.6254 84.137 61.6442C84.1712 61.6442 84.1969 61.6442 84.2313 61.6442H87.6005C87.6348 61.6442 87.6777 61.6442 87.712 61.6442L88.9036 63.6929C88.9722 63.8058 89.0837 63.8904 89.2037 63.9185C89.3322 63.9467 89.4608 63.9185 89.5638 63.8527L89.6323 63.8058C89.7437 63.7306 89.821 63.6177 89.8467 63.4862C89.8724 63.3546 89.8467 63.2137 89.7866 63.0915L88.5693 61.0239L90.241 57.9321C90.3181 57.791 90.3696 57.6219 90.3868 57.4622C90.4039 57.2929 90.3868 57.1238 90.3439 56.9641V56.9546ZM88.7836 57.9978L87.5319 60.3192H84.2913V60.3003L83.0396 57.9978L82.671 57.3118L83.3053 56.137L83.8283 55.169L84.2913 54.3139H87.5491L88.2263 55.5732L89.1609 57.3118L88.7922 57.9978H88.7836Z" fill="#1C0DC9"/>
</g>
</g>
</g>
<defs>
<linearGradient id="paint0_linear_930_10211" x1="82.6719" y1="57.3101" x2="88.2187" y2="57.3101" gradientUnits="userSpaceOnUse">
<stop stop-color="#FF7879"/>
<stop offset="0.2" stop-color="#FC777B"/>
<stop offset="0.4" stop-color="#F27281"/>
<stop offset="0.5" stop-color="#E26B8A"/>
<stop offset="0.6" stop-color="#CB6098"/>
<stop offset="0.8" stop-color="#AE52AA"/>
<stop offset="0.9" stop-color="#8A41C0"/>
<stop offset="1" stop-color="#5529E0"/>
</linearGradient>
<clipPath id="clip0_930_10211">
<rect width="143" height="64" fill="white"/>
</clipPath>
</defs>
</svg>
