<svg width="353" height="65" viewBox="0 0 353 65" fill="none" xmlns="http://www.w3.org/2000/svg">
<g clip-path="url(#clip0_926_10089)">
<path d="M71.2089 48.509H75.8559V56.2002H69.609C66.6125 56.2002 64.0221 55.6163 61.8381 54.4489C59.6542 53.281 57.9781 51.6056 56.8097 49.4225C55.6416 47.1891 55.0577 44.5747 55.0577 41.5789V22.3126H47.668V20.7135L61.9902 5.48324H63.4378V15.0784H75.6274V22.313H63.5144V40.8941C63.5144 43.3309 64.1747 45.2094 65.4952 46.5296C66.8157 47.8495 68.7205 48.509 71.2089 48.509ZM104.741 48.509H109.388V56.2002H103.141C100.145 56.2002 97.5545 55.6163 95.371 54.4489C93.1869 53.281 91.511 51.6056 90.3427 49.4225C89.1745 47.1891 88.5907 44.5747 88.5907 41.5789V22.3126H81.2007V20.7135L95.5229 5.48324H96.9707V15.0784H109.16V22.313H97.0471V40.8941C97.0471 43.3309 97.7076 45.2094 99.0279 46.5296C100.348 47.8495 102.253 48.509 104.741 48.509ZM139.645 14.8495H143.302V22.8455H138.883C131.874 22.8455 128.37 26.653 128.37 34.2682V56.2002H119.914V15.078H125.627L127.075 20.7131C130.021 16.8041 134.211 14.8495 139.645 14.8495ZM152.029 8.68149V0H160.79V8.68149H152.029ZM152.181 56.2002V15.078H160.637V56.2002H152.181ZM196.943 14.0881C203.139 14.0881 208.243 16.1442 212.256 20.2565C216.319 24.3181 218.35 29.4457 218.35 35.6393C218.35 41.8331 216.319 46.9857 212.256 51.0984C208.244 55.1597 203.139 57.1905 196.943 57.1905C191.204 57.1905 186.353 55.312 182.392 51.555L181.325 56.2006H174.926V0.304778H183.382V18.8858C187.191 15.6876 191.712 14.0881 196.943 14.0881ZM186.582 45.2342C189.172 47.8235 192.397 49.1179 196.257 49.1179C200.117 49.1179 203.317 47.8491 205.856 45.3108C208.396 42.7212 209.665 39.4977 209.665 35.6393C209.665 31.7808 208.396 28.5826 205.856 26.0441C203.317 23.455 200.117 22.1604 196.257 22.1604C193.718 22.1604 191.406 22.7443 189.324 23.9116C187.293 25.0796 185.693 26.7041 184.525 28.7855C183.357 30.8163 182.773 33.1006 182.773 35.639C182.773 39.4464 184.043 42.6446 186.582 45.2342ZM247.718 57.1905C242.079 57.1905 237.56 55.5151 234.156 52.1644C230.754 48.8138 229.052 44.3713 229.052 38.8375V15.078H237.509V37.6192C237.509 41.2237 238.422 44.0412 240.252 46.0722C242.079 48.1026 244.567 49.1182 247.718 49.1182C250.867 49.1182 253.431 48.103 255.259 46.0722C257.087 43.9906 258.002 41.1731 258.002 37.6192V15.078H266.457V38.8375C266.457 44.3713 264.757 48.8134 261.353 52.1644C257.951 55.5146 253.406 57.1905 247.718 57.1905ZM298.441 48.509H303.09V56.2002H296.843C293.845 56.2002 291.256 55.6163 289.073 54.4489C286.887 53.281 285.213 51.6056 284.042 49.4225C282.874 47.1891 282.291 44.5747 282.291 41.5789V22.3126H274.902V20.7135L289.224 5.48324H290.67V15.0784H302.861V22.313H290.747V40.8941C290.747 43.3309 291.409 45.2094 292.728 46.5296C294.049 47.8495 295.954 48.509 298.441 48.509ZM352.25 35.7152C352.25 36.4766 352.199 37.4159 352.097 38.5327H318.729C319.238 41.8326 320.608 44.447 322.842 46.3766C325.13 48.3054 327.947 49.27 331.3 49.27C332.926 49.27 334.449 49.0416 335.871 48.5845C337.292 48.077 338.537 47.3917 339.603 46.5289C340.72 45.6149 341.635 44.5234 342.345 43.2543H351.259C349.633 47.6204 347.044 51.0471 343.488 53.5349C339.933 55.9717 335.871 57.1902 331.3 57.1902C325.255 57.1902 320.202 55.1339 316.14 51.0215C312.127 46.9096 310.12 41.7818 310.12 35.639C310.12 29.4963 312.127 24.3685 316.14 20.2561C320.202 16.1439 325.255 14.0878 331.3 14.0878C335.413 14.0878 339.071 15.0777 342.269 17.0575C345.469 18.9868 347.933 21.6011 349.659 24.9013C351.386 28.1506 352.25 31.7551 352.25 35.7152ZM331.3 21.7034C328.151 21.7034 325.459 22.5917 323.225 24.3687C321.04 26.1458 319.593 28.5826 318.883 31.6794H343.795C343.286 29.5977 342.448 27.8209 341.279 26.3487C340.111 24.8254 338.664 23.6832 336.937 22.9218C335.262 22.1094 333.383 21.7034 331.3 21.7034Z" fill="#004742"/>
<path d="M41.8047 56.186H20.9026C9.37668 56.186 0 46.8132 0 35.2922C0 23.7714 9.37668 14.3984 20.9022 14.3984C32.4277 14.3984 41.8045 23.7714 41.8045 35.2922L41.8047 56.186ZM20.9022 22.3959C13.7886 22.3959 8.00063 28.181 8.00063 35.2922C8.00063 42.4034 13.7886 48.1887 20.9022 48.1887H33.8039V35.2922C33.8039 28.181 28.0159 22.3959 20.9022 22.3959Z" fill="#004742"/>
<path d="M50.6055 56.2031H41.8047V65.0004H50.6055V56.2031Z" fill="#004742"/>
</g>
<defs>
<clipPath id="clip0_926_10089">
<rect width="353" height="65" fill="white"/>
</clipPath>
</defs>
</svg>
