<svg width="184" height="64" viewBox="0 0 184 64" fill="none" xmlns="http://www.w3.org/2000/svg">
<g clip-path="url(#clip0_847_10234)">
<mask id="mask0_847_10234" style="mask-type:luminance" maskUnits="userSpaceOnUse" x="0" y="0" width="63" height="64">
<path d="M62.4825 0.694336H0V63.3061H62.4825V0.694336Z" fill="white"/>
</mask>
<g mask="url(#mask0_847_10234)">
<path fill-rule="evenodd" clip-rule="evenodd" d="M31.2494 63.2898C48.5111 63.2898 62.5046 49.2767 62.5046 31.9906C62.5046 29.7609 62.2718 27.5857 61.8291 25.488C61.4115 23.5088 60.8071 21.5984 60.0352 19.7763C55.4791 9.02176 45.0884 1.34596 32.8401 0.731085C31.7618 4.93155 30.2185 9.00916 28.3794 12.894C27.1571 13.0362 24.2006 13.6255 22.1525 14.8452C25.2268 9.11319 27.1868 4.06577 28.0233 0.855956C12.2772 2.47286 -0.00585938 15.7952 -0.00585938 31.9906C-0.00585938 35.1155 0.451468 38.1335 1.30276 40.9812C5.30288 37.6741 8.86511 33.9625 11.9871 30.1361C11.8798 31.0786 11.8122 33.6718 12.3997 36.5052C8.82746 40.4963 5.51307 43.6139 3.09248 45.5938C3.09244 45.5938 3.09253 45.5938 3.09248 45.5938C5.23158 50.0258 8.38352 53.876 12.2472 56.843C15.7683 55.7331 20.7758 53.6826 26.3548 50.671C27.367 50.999 30.5236 51.5048 35.0528 50.9027C27.9658 55.383 21.3961 58.4282 17.1848 59.9494C21.4122 62.0863 26.1904 63.2898 31.2494 63.2898ZM60.0352 19.7763C60.8071 21.5984 61.4115 23.5088 61.8291 25.488C58.6263 30.5244 54.6828 35.0586 50.4327 39.0697V32.5302C54.033 28.7203 57.3241 24.4712 60.0352 19.7763Z" fill="#0F172A"/>
<path d="M14.2461 32.0727C14.2461 41.4727 21.8555 49.0928 31.2421 49.0928C35.1706 49.0928 38.7878 47.7581 41.6661 45.5169V45.8C41.6661 47.6185 43.1373 49.0928 44.9523 49.0928C46.767 49.0928 48.2383 47.6185 48.2383 45.8V32.0727C48.2383 22.6728 40.6289 15.0527 31.2421 15.0527C21.8555 15.0527 14.2461 22.6728 14.2461 32.0727Z" fill="white"/>
<path d="M31.242 0.692871C30.1527 0.692871 29.0765 0.748659 28.0162 0.857537C27.1797 4.06735 25.2197 9.11478 22.1455 14.8468C24.1935 13.6271 27.1502 13.0378 28.3723 12.8956C30.2114 9.01078 31.7543 4.93318 32.8326 0.732707C32.3057 0.706255 31.7754 0.692871 31.242 0.692871Z" fill="#D9D9D9"/>
<path d="M1.29492 40.983C1.77166 42.5776 2.37196 44.119 3.08469 45.5955C5.5053 43.6156 8.81979 40.4979 12.3922 36.5068C11.8046 33.6734 11.8723 31.0802 11.9796 30.1377C8.8575 33.9643 5.29517 37.6758 1.29492 40.983Z" fill="#D9D9D9"/>
<path d="M12.2402 56.8444C13.7795 58.0264 15.4316 59.0683 17.1778 59.9508C21.3893 58.4298 27.9591 55.3844 35.0462 50.9041C30.5169 51.5062 27.3603 51.0004 26.3483 50.6724C20.769 53.684 15.7615 55.7345 12.2402 56.8444Z" fill="#D9D9D9"/>
<path d="M61.8209 25.4895C61.4034 23.5101 60.7989 21.5999 60.027 19.7778C57.316 24.4727 54.0251 28.7218 50.4248 32.5317V39.0712C54.6749 35.06 58.6181 30.5257 61.8209 25.4895Z" fill="#D9D9D9"/>
<path d="M31.2472 43.1553C37.406 43.1553 42.3987 38.1555 42.3987 31.988C42.3987 25.8205 37.406 20.8208 31.2472 20.8208C25.0884 20.8208 20.0957 25.8205 20.0957 31.988C20.0957 38.1555 25.0884 43.1553 31.2472 43.1553Z" fill="#80CB51"/>
<path d="M31.242 0.692871C30.1527 0.692871 29.0765 0.748659 28.0162 0.857537C27.1797 4.06735 25.2197 9.11478 22.1455 14.8468C24.1935 13.6271 27.1502 13.0378 28.3723 12.8956C30.2114 9.01078 31.7543 4.93318 32.8326 0.732707C32.3057 0.706255 31.7754 0.692871 31.242 0.692871Z" fill="white"/>
<path d="M1.29492 40.983C1.77166 42.5776 2.37196 44.119 3.08469 45.5955C5.5053 43.6156 8.81979 40.4979 12.3922 36.5068C11.8046 33.6734 11.8723 31.0802 11.9796 30.1377C8.8575 33.9643 5.29517 37.6758 1.29492 40.983Z" fill="white"/>
<path d="M12.2402 56.8444C13.7795 58.0264 15.4316 59.0683 17.1778 59.9508C21.3893 58.4298 27.9591 55.3844 35.0462 50.9041C30.5169 51.5062 27.3603 51.0004 26.3483 50.6724C20.769 53.684 15.7615 55.7345 12.2402 56.8444Z" fill="white"/>
<path d="M61.8209 25.4895C61.4034 23.5101 60.7989 21.5999 60.027 19.7778C57.316 24.4727 54.0251 28.7218 50.4248 32.5317V39.0712C54.6749 35.06 58.6181 30.5257 61.8209 25.4895Z" fill="white"/>
</g>
<mask id="mask1_847_10234" style="mask-type:luminance" maskUnits="userSpaceOnUse" x="72" y="0" width="112" height="64">
<path d="M183.658 0.694336H72.2852V63.3061H183.658V0.694336Z" fill="white"/>
</mask>
<g mask="url(#mask1_847_10234)">
<path d="M72.2832 32.0505C72.2832 29.1499 73.2514 26.5715 75.2286 24.3155C77.2059 22.0578 79.8289 20.9307 83.0144 20.9307C84.1854 20.9307 85.4362 21.2121 86.7675 21.8174C88.1394 22.3803 89.2287 23.2668 90.0348 24.4758V21.3331H94.7955V42.7641H90.0348V39.5844C89.2679 40.8327 88.1394 41.7194 86.7266 42.3233C85.3151 42.8872 84.0235 43.1688 82.8933 43.1688C79.8681 43.1688 77.3265 42.081 75.3104 39.8657C73.2923 37.6505 72.2832 35.0314 72.2832 32.0505ZM83.1716 25.2415C81.2761 25.2415 79.703 25.8861 78.4927 27.2162C77.3221 28.5447 76.7168 30.1561 76.7168 32.0505C76.7168 33.9434 77.3221 35.5548 78.4927 36.8849C79.703 38.1741 81.2761 38.8187 83.1716 38.8187C85.0686 38.8187 86.6417 38.1741 87.8111 36.8849C89.021 35.5548 89.6263 33.9434 89.6263 32.0505C89.6263 30.1561 89.021 28.5447 87.8111 27.2162C86.6008 25.8861 85.0686 25.2415 83.1716 25.2415Z" fill="#0F172A"/>
<path d="M99.7119 21.334H104.511V33.256C104.511 36.479 106.087 38.614 109.272 38.614C112.299 38.614 114.235 36.4397 114.235 33.1758V21.334H119.035V42.7648H114.356V39.8228C112.701 42.0395 110.523 43.1668 107.781 43.1668C102.576 43.1668 99.7119 39.5824 99.7119 34.4241V21.334Z" fill="#0F172A"/>
<path d="M135.726 21.0517V25.8672C135.322 25.7869 134.879 25.7461 134.354 25.7461C130.683 25.7461 128.747 27.8826 128.747 31.629V42.7656H123.945V21.3293H128.626V24.4569C129.957 22.0405 131.934 20.9307 134.555 20.9307C135.08 20.9307 135.443 20.9715 135.726 21.0517Z" fill="#0F172A"/>
<path d="M138.205 21.334H143.409L149.742 37.1648L156.076 21.334H161.12L152.124 42.7648H147.322L138.205 21.334Z" fill="#0F172A"/>
<path d="M161.126 32.0507C161.126 29.1499 162.095 26.5715 164.071 24.3155C166.048 22.0578 168.67 20.9307 171.857 20.9307C173.027 20.9307 174.278 21.2121 175.609 21.8174C176.98 22.3803 178.071 23.2668 178.878 24.4758V21.3331H183.638V42.769H178.878V39.5844C178.112 40.8327 176.98 41.7195 175.569 42.323C174.157 42.8874 172.867 43.169 171.737 43.169C168.711 43.169 166.17 42.081 164.152 39.8657C162.136 37.6505 161.126 35.0314 161.126 32.0507ZM172.015 25.2415C170.118 25.2415 168.545 25.8861 167.335 27.2162C166.165 28.5447 165.56 30.1561 165.56 32.0507C165.56 33.9435 166.613 35.5548 167.782 36.8849C168.994 38.1741 170.118 38.8187 172.015 38.8187C173.91 38.8187 175.483 38.1741 176.653 36.8849C177.864 35.5548 178.469 33.9435 178.469 32.0507C178.469 30.1561 177.864 28.5447 176.653 27.2162C175.445 25.8861 173.91 25.2415 172.015 25.2415Z" fill="#0F172A"/>
</g>
</g>
<defs>
<clipPath id="clip0_847_10234">
<rect width="184" height="64" fill="white"/>
</clipPath>
</defs>
</svg>
