<svg width="411" height="64" viewBox="0 0 411 64" fill="none" xmlns="http://www.w3.org/2000/svg">
<g clip-path="url(#clip0_847_10249)">
<path d="M81.9192 42.817L73.3082 31.6473L57.2498 11.1697L52.3624 4.88672C50.0352 1.86163 46.3114 0 42.3551 0C38.3987 0 34.6751 1.86163 32.3477 4.88672L27.4604 11.1697L11.402 31.6473L2.79094 42.817C-1.63093 48.4017 -0.70002 56.3136 4.88551 60.7348C7.21281 62.5964 10.0056 63.5272 12.7983 63.5272C15.5911 63.5272 20.2458 61.8983 22.8058 58.6405L27.6931 52.3576L40.4933 36.3013L33.7441 22.1066L57.7153 52.5903L62.6027 58.8733C65.1627 62.131 68.8863 63.76 72.6101 63.76C76.3336 63.76 78.1956 62.8291 80.5228 60.9676C86.1084 56.5462 87.0394 48.6344 82.6174 43.0496L81.9192 42.817Z" fill="#FA6B1E"/>
<path d="M293.239 10.7036H255.304C254.605 10.7036 253.907 11.6345 254.372 12.3325L256.468 16.7539C256.468 17.2192 256.933 17.4519 257.397 17.4519H271.828V51.8917C271.828 52.5898 272.293 53.0551 272.992 53.0551H278.111C278.81 53.0551 279.275 52.5898 279.275 51.8917V17.4519H293.471C294.17 17.4519 294.635 16.9866 294.635 16.2884V11.8671C294.635 11.169 294.17 10.7036 293.471 10.7036H293.239Z" fill="#FA6B1E"/>
<path d="M407.044 10.4712C404.948 10.4712 403.087 12.1001 403.087 14.1944C403.087 16.2887 404.716 17.9176 407.044 17.9176C409.37 17.9176 410.999 16.2887 410.999 14.1944C410.999 12.1001 409.37 10.4712 407.044 10.4712ZM407.044 17.4521C405.413 17.4521 404.017 16.056 404.017 14.4271C404.017 12.7982 405.181 11.4021 407.044 11.4021C408.905 11.4021 410.069 12.7982 410.069 14.4271C410.069 16.056 408.905 17.4521 407.276 17.4521H407.044Z" fill="#FCF9F3"/>
<path d="M407.973 14.4275C408.439 14.4275 408.672 13.9621 408.672 13.4967C408.672 13.0313 408.672 12.7986 408.207 12.7986C407.973 12.7986 407.74 12.5659 406.81 12.5659C405.879 12.5659 405.647 12.5659 405.414 12.5659V16.2891H406.344V14.8929H406.81C407.275 14.8929 407.508 14.8929 407.508 15.3583C407.508 15.8237 407.508 16.0564 407.74 16.2891H408.672C408.672 16.2891 408.672 16.0564 408.439 15.3583C408.439 14.8929 408.207 14.6602 407.74 14.4275H407.973ZM407.043 14.1948H406.576V13.0313C406.576 13.0313 406.81 13.0313 407.043 13.0313C407.508 13.0313 407.74 13.0313 407.74 13.4967C407.74 13.9621 407.275 13.9621 406.81 13.9621L407.043 14.1948Z" fill="#FCF9F3"/>
<path d="M136.378 14.1949C135.215 12.1006 133.12 10.4717 130.56 10.4717H129.396C126.836 10.4717 124.742 11.8679 123.578 14.1949L105.891 50.9616C105.658 51.6597 105.891 52.5906 106.822 52.5906H112.407C112.873 52.5906 113.105 52.3578 113.338 51.8924L117.527 42.8171H142.197L146.386 51.8924C146.386 52.3578 146.851 52.5906 147.317 52.5906H152.902C153.6 52.5906 154.298 51.6597 153.833 50.9616L136.145 14.1949H136.378ZM120.553 36.7669L128.698 19.0817C129.164 17.918 130.793 17.918 131.258 19.0817L139.404 36.7669H120.32H120.553Z" fill="#FA6B1E"/>
<path d="M192.698 10.7036H187.347C186.88 10.7036 186.648 10.9364 186.415 11.4018L171.52 43.2817C171.055 44.4451 169.426 44.4451 168.961 43.2817L154.066 11.4018C154.066 10.9364 153.6 10.7036 153.135 10.7036H147.55C146.851 10.7036 146.153 11.6344 146.619 12.3325L164.306 49.0993C165.47 51.1936 167.564 52.5896 170.124 52.5896H170.358C172.684 52.5896 175.012 51.1936 176.176 49.0993L193.862 12.3325C194.095 11.6344 193.862 10.7036 192.932 10.7036H192.698Z" fill="#FA6B1E"/>
<path d="M206.894 10.7036H201.774C201.132 10.7036 200.611 11.2245 200.611 11.8671V51.4262C200.611 52.0689 201.132 52.5896 201.774 52.5896H206.894C207.538 52.5896 208.058 52.0689 208.058 51.4262V11.8671C208.058 11.2245 207.538 10.7036 206.894 10.7036Z" fill="#FA6B1E"/>
<path d="M244.132 14.1944C242.969 12.1001 240.873 10.4712 238.314 10.4712H237.151C234.59 10.4712 232.495 11.8674 231.333 14.1944L213.644 50.9612C213.412 51.6593 213.644 52.59 214.576 52.59H220.161C220.626 52.59 220.859 52.3574 221.091 51.8919L225.28 42.8167H249.951L254.14 51.8919C254.14 52.3574 254.605 52.59 255.071 52.59H260.655C261.354 52.59 262.053 51.6593 261.587 50.9612L243.9 14.1944H244.132ZM228.306 36.7663L236.451 19.0811C236.918 17.9176 238.547 17.9176 239.012 19.0811L247.158 36.7663H228.073H228.306Z" fill="#FA6B1E"/>
<path d="M334.898 29.7854C336.062 27.9237 336.759 25.8294 336.759 23.2697C336.759 20.7101 336.062 18.6157 334.898 16.5214C333.734 14.6598 331.873 13.2636 329.777 12.1001C327.45 10.9366 324.891 10.4712 322.098 10.4712H302.549C301.85 10.4712 301.385 10.9366 301.385 11.6347V51.4265C301.385 52.1246 301.85 52.59 302.549 52.59H307.668C308.367 52.59 308.832 52.1246 308.832 51.4265V35.8356H315.116L328.846 52.1246C328.846 52.3574 329.313 52.59 329.777 52.59H335.828C336.759 52.59 337.224 51.4265 336.759 50.7284L323.959 35.6029C326.287 35.6029 328.381 34.9048 330.242 34.2067C332.57 33.0432 334.199 31.647 335.363 29.7854H334.898ZM326.985 27.9237C325.588 29.0872 323.495 29.5527 321.167 29.5527H308.599V16.9868H321.167C323.727 16.9868 325.588 17.4521 326.985 18.6157C328.381 19.7792 329.08 21.1754 329.08 23.2697C329.08 25.364 328.381 26.7603 326.985 27.9237Z" fill="#FA6B1E"/>
<path d="M352.12 10.7036H346.999C346.357 10.7036 345.835 11.2245 345.835 11.8671V51.4262C345.835 52.0689 346.357 52.5896 346.999 52.5896H352.12C352.763 52.5896 353.283 52.0689 353.283 51.4262V11.8671C353.283 11.2245 352.763 10.7036 352.12 10.7036Z" fill="#FA6B1E"/>
<path d="M407.045 10.4712C404.949 10.4712 403.088 12.1001 403.088 14.1944C403.088 16.2887 404.717 17.9176 407.045 17.9176C409.371 17.9176 411 16.2887 411 14.1944C411 12.1001 409.371 10.4712 407.045 10.4712ZM407.045 17.4523C405.414 17.4523 404.018 16.056 404.018 14.4271C404.018 12.7982 405.182 11.402 407.045 11.402C408.906 11.402 410.07 12.7982 410.07 14.4271C410.07 16.056 408.906 17.4523 407.277 17.4523H407.045Z" fill="#FCF9F3"/>
<path d="M407.973 14.4275C408.439 14.4275 408.672 13.9621 408.672 13.4967C408.672 13.0313 408.672 12.7986 408.207 12.7986C407.973 12.7986 407.74 12.5659 406.81 12.5659C405.879 12.5659 405.647 12.5659 405.414 12.5659V16.2891H406.344V14.8929H406.81C407.275 14.8929 407.508 14.8929 407.508 15.3583C407.508 15.8237 407.508 16.0564 407.74 16.2891H408.672C408.672 16.2891 408.672 16.0564 408.439 15.3583C408.439 14.8929 408.207 14.6602 407.74 14.4275H407.973ZM407.043 14.1948H406.576V13.0313C406.576 13.0313 406.81 13.0313 407.043 13.0313C407.508 13.0313 407.74 13.0313 407.74 13.4967C407.74 13.9621 407.275 13.9621 406.81 13.9621L407.043 14.1948Z" fill="#FCF9F3"/>
<path d="M386.564 31.6474L401.692 12.3333C402.157 11.6352 401.692 10.4717 400.761 10.4717H394.71C394.476 10.4717 394.011 10.4717 393.779 10.9371L381.909 25.83L370.04 10.9371C370.04 10.7044 369.343 10.4717 369.109 10.4717H363.058C362.127 10.4717 361.662 11.6352 362.127 12.3333L377.255 31.6474L362.127 50.9616C361.662 51.6597 362.127 52.8231 363.058 52.8231H369.109C369.343 52.8231 369.808 52.8231 370.04 52.3578L381.909 37.465L393.779 52.3578C393.779 52.5904 394.476 52.8231 394.71 52.8231H400.761C401.692 52.8231 402.157 51.6597 401.692 50.9616L386.564 31.6474Z" fill="#FA6B1E"/>
</g>
<defs>
<clipPath id="clip0_847_10249">
<rect width="411" height="64" fill="white"/>
</clipPath>
</defs>
</svg>
