<svg width="107" height="64" viewBox="0 0 107 64" fill="none" xmlns="http://www.w3.org/2000/svg">
<g clip-path="url(#clip0_887_10094)">
<path d="M30.4106 23.3494C30.4106 24.6505 30.5514 25.7054 30.7978 26.479C31.0793 27.2527 31.4313 28.0966 31.9241 29.0109C32.1001 29.2922 32.1705 29.5735 32.1705 29.8197C32.1705 30.1713 31.9593 30.523 31.5017 30.8746L29.2843 32.3516C28.9675 32.5625 28.6507 32.668 28.3691 32.668C28.0172 32.668 27.6652 32.4922 27.3132 32.1757C26.8205 31.6483 26.3981 31.0856 26.0461 30.523C25.6941 29.9252 25.3422 29.2571 24.955 28.4483C22.2096 31.6834 18.7603 33.301 14.607 33.301C11.6504 33.301 9.29217 32.457 7.5675 30.7691C5.84282 29.0812 4.96289 26.8307 4.96289 24.0175C4.96289 21.0285 6.01881 18.6021 8.16585 16.7735C10.3129 14.945 13.1639 14.0307 16.7892 14.0307C17.9859 14.0307 19.2178 14.1362 20.5201 14.312C21.8224 14.4878 23.1599 14.7691 24.5678 15.0856V12.5186C24.5678 9.84606 24.0047 7.98232 22.9135 6.89221C21.7872 5.8021 19.8866 5.27463 17.1764 5.27463C15.9445 5.27463 14.6774 5.41529 13.3751 5.73177C12.0728 6.04826 10.8057 6.43507 9.57375 6.92738C9.01059 7.17353 8.58822 7.31419 8.34184 7.38452C8.09546 7.45485 7.91947 7.49002 7.77868 7.49002C7.28592 7.49002 7.03954 7.13837 7.03954 6.39991V4.67683C7.03954 4.11419 7.10993 3.69221 7.28592 3.44606C7.4619 3.19991 7.77868 2.95375 8.27144 2.7076C9.50335 2.07463 10.9816 1.54716 12.7063 1.12518C14.431 0.668037 16.2612 0.457048 18.1971 0.457048C22.3856 0.457048 25.4478 1.4065 27.4188 3.3054C29.3547 5.2043 30.3402 8.08782 30.3402 11.956V23.3494H30.4106ZM16.1205 28.6944C17.282 28.6944 18.4787 28.4834 19.7458 28.0614C21.0129 27.6395 22.1392 26.8658 23.0895 25.8109C23.6527 25.1428 24.0751 24.4043 24.2862 23.5603C24.4974 22.7164 24.6382 21.6966 24.6382 20.501V19.0241C23.6175 18.7779 22.5264 18.5669 21.4001 18.4263C20.2737 18.2856 19.1826 18.2153 18.0915 18.2153C15.7333 18.2153 14.0086 18.6724 12.8471 19.6219C11.6856 20.5713 11.1224 21.9076 11.1224 23.6658C11.1224 25.3186 11.5448 26.5494 12.4247 27.3933C13.2695 28.2724 14.5014 28.6944 16.1205 28.6944ZM44.3839 32.4922C43.7504 32.4922 43.328 32.3867 43.0464 32.1406C42.7649 31.9296 42.5185 31.4373 42.3073 30.7691L34.0359 3.58672C33.8247 2.88342 33.7191 2.42628 33.7191 2.18013C33.7191 1.61749 34.0007 1.301 34.5639 1.301H38.0132C38.682 1.301 39.1395 1.4065 39.3859 1.65265C39.6675 1.86364 39.8787 2.35595 40.0899 3.02408L46.003 26.3032L51.4938 3.02408C51.6698 2.32078 51.881 1.86364 52.1626 1.65265C52.4441 1.44166 52.9369 1.301 53.5704 1.301H56.3862C57.055 1.301 57.5126 1.4065 57.7941 1.65265C58.0757 1.86364 58.3221 2.35595 58.4629 3.02408L64.0241 26.5845L70.1132 3.02408C70.3244 2.32078 70.5708 1.86364 70.8172 1.65265C71.0987 1.44166 71.5563 1.301 72.1899 1.301H75.4632C76.0264 1.301 76.3431 1.58232 76.3431 2.18013C76.3431 2.35595 76.3079 2.53177 76.2727 2.74276C76.2376 2.95375 76.1672 3.23507 76.0264 3.62188L67.5438 30.8043C67.3326 31.5076 67.0862 31.9647 66.8047 32.1757C66.5231 32.3867 66.0655 32.5274 65.4672 32.5274H62.4402C61.7714 32.5274 61.3139 32.4219 61.0323 32.1757C60.7507 31.9296 60.5043 31.4724 60.3635 30.7691L54.9079 8.08782L49.4876 30.734C49.3116 31.4373 49.1004 31.8944 48.8188 32.1406C48.5372 32.3867 48.0445 32.4922 47.4109 32.4922H44.3839ZM89.6126 33.4417C87.7823 33.4417 85.952 33.2307 84.1922 32.8087C82.4323 32.3867 81.0596 31.9296 80.1445 31.4021C79.5813 31.0856 79.1941 30.734 79.0533 30.4175C78.9126 30.101 78.8422 29.7494 78.8422 29.4329V27.6395C78.8422 26.901 79.1237 26.5494 79.6517 26.5494C79.8629 26.5494 80.0741 26.5845 80.2853 26.6549C80.4964 26.7252 80.8132 26.8658 81.1652 27.0065C82.3619 27.534 83.6642 27.956 85.0369 28.2373C86.4448 28.5186 87.8175 28.6592 89.2254 28.6592C91.4428 28.6592 93.1675 28.2724 94.3642 27.4988C95.5609 26.7252 96.1945 25.5999 96.1945 24.1581C96.1945 23.1735 95.8777 22.3647 95.2441 21.6966C94.6106 21.0285 93.4139 20.4307 91.6892 19.868L86.5856 18.2856C84.0162 17.4768 82.1155 16.2812 80.954 14.6988C79.7925 13.1516 79.1941 11.4285 79.1941 9.59991C79.1941 8.12298 79.5109 6.82188 80.1445 5.69661C80.778 4.57133 81.6227 3.58672 82.6787 2.81309C83.7346 2.0043 84.9313 1.4065 86.3392 0.984521C87.7471 0.562543 89.2254 0.386719 90.7741 0.386719C91.5484 0.386719 92.3579 0.421884 93.1323 0.527378C93.9418 0.632873 94.681 0.773532 95.4201 0.914191C96.1241 1.09002 96.7928 1.26584 97.4264 1.47683C98.0599 1.68782 98.5527 1.89881 98.9047 2.1098C99.3974 2.39111 99.7494 2.67243 99.9606 2.98892C100.172 3.27024 100.277 3.65705 100.277 4.14936V5.8021C100.277 6.54056 99.9958 6.92738 99.4678 6.92738C99.1862 6.92738 98.7287 6.78672 98.1303 6.5054C96.1241 5.59111 93.8714 5.13397 91.3724 5.13397C89.3662 5.13397 87.7823 5.45045 86.6912 6.11859C85.6001 6.78672 85.0369 7.8065 85.0369 9.24826C85.0369 10.2329 85.3889 11.0768 86.0928 11.745C86.7968 12.4131 88.0991 13.0812 89.9645 13.679L94.9625 15.2614C97.4968 16.0702 99.327 17.1955 100.418 18.6373C101.509 20.079 102.037 21.7318 102.037 23.5603C102.037 25.0724 101.72 26.4439 101.122 27.6395C100.489 28.8351 99.6438 29.89 98.5527 30.734C97.4616 31.6131 96.1593 32.2461 94.6458 32.7032C93.0619 33.1955 91.4076 33.4417 89.6126 33.4417Z" fill="#252F3E"/>
<path fill-rule="evenodd" clip-rule="evenodd" d="M96.2646 50.5319C84.6847 59.077 67.8604 63.6132 53.3942 63.6132C33.1206 63.6132 14.8531 56.1231 1.05575 43.6748C-0.0353694 42.6902 0.950157 41.3539 2.25246 42.1275C17.1761 50.7781 35.5844 56.0176 54.6261 56.0176C67.4732 56.0176 81.5873 53.3451 94.5752 47.8594C96.511 46.9803 98.1653 49.1253 96.2646 50.5319Z" fill="#FF9900"/>
<path fill-rule="evenodd" clip-rule="evenodd" d="M101.087 45.046C99.6088 43.1471 91.3022 44.1317 87.5361 44.5889C86.4098 44.7295 86.2338 43.7449 87.2545 43.0064C93.8716 38.3647 104.748 39.7009 106.015 41.2482C107.282 42.8306 105.663 53.6965 99.468 58.9009C98.5177 59.7097 97.6025 59.2878 98.0249 58.2328C99.4328 54.7515 102.565 46.9097 101.087 45.046Z" fill="#FF9900"/>
</g>
<defs>
<clipPath id="clip0_887_10094">
<rect width="107" height="64" fill="white"/>
</clipPath>
</defs>
</svg>
