<svg width="458" height="63" viewBox="0 0 458 63" fill="none" xmlns="http://www.w3.org/2000/svg">
<g clip-path="url(#clip0_894_10134)">
<path d="M452.885 17.3537C450.862 17.3537 449.202 15.7119 449.202 13.6883C449.202 11.6646 450.862 10.0037 452.885 10.0037C454.908 10.0037 456.568 11.6646 456.568 13.6883C456.568 15.7119 454.908 17.3537 452.885 17.3537ZM452.885 9.10645C450.366 9.10645 448.305 11.1683 448.305 13.6883C448.305 16.2083 450.366 18.2701 452.885 18.2701C455.404 18.2701 457.465 16.2083 457.465 13.6883C457.465 11.1683 455.404 9.10645 452.885 9.10645Z" fill="black"/>
<path d="M453.191 13.4972L452.218 13.5163L452.199 12.3326H453.172C453.535 12.3135 453.821 12.5426 453.821 12.9054C453.84 13.2681 453.554 13.4972 453.191 13.4972ZM454.775 12.8863C454.756 12.0844 454.202 11.5117 453.306 11.5117L451.264 11.5499L451.321 15.8644H452.256L452.237 14.3181H452.905L453.783 15.8454L454.832 15.8263L453.84 14.1844C454.298 14.0699 454.775 13.6499 454.775 12.8863Z" fill="black"/>
<path d="M98.9173 44.2538H87.4692V17.8434H98.6044C101.608 17.8434 103.484 19.7831 103.484 22.4119C103.484 25.0407 101.608 26.9173 98.6044 26.9173H85.8756V34.5537H98.9173C102.421 34.5537 104.297 36.8064 104.297 39.4333C104.297 42.4383 102.295 44.2538 98.9173 44.2538ZM105.36 30.4224C109.302 29.6092 112.556 26.1041 112.556 20.8483C112.556 15.2776 108.49 10.209 100.543 10.209H78.5859V51.9513H101.232C109.177 51.9513 113.367 46.9437 113.367 40.6857C113.367 35.4281 109.802 31.1116 105.36 30.4224Z" fill="black"/>
<path d="M139.372 29.2951H129.768V37.1186H136.557L144.751 51.9503H154.947L145.564 36.0533C150.07 34.9899 154.697 31.0476 154.697 23.6633M154.697 23.6633C154.697 15.9028 149.381 10.208 140.684 10.208H121.166V51.9503H130.049V18.0315H139.372C142.938 18.0315 145.627 20.1582 145.627 23.6633C145.627 27.1684 142.938 29.2951 139.372 29.2951" fill="black"/>
<path d="M222.231 37.0565L228.737 19.0958L235.244 37.0565H222.231ZM223.17 10.209L207.029 51.9513H217.163L219.79 44.88H237.683L240.248 51.9513H250.383L234.305 10.209H223.17Z" fill="black"/>
<path d="M274.512 44.1278H266.942V18.0305H274.512C283.083 18.0305 287.586 23.7253 287.586 31.1116C287.586 38.1829 282.77 44.1278 274.512 44.1278ZM274.512 10.209H258.059V51.9513H274.512C287.586 51.9513 296.657 43.6906 296.657 31.1116C296.657 18.5326 287.586 10.209 274.512 10.209Z" fill="black"/>
<path d="M431.238 10.2002L420.296 27.8975L409.353 10.2002H399.533V51.9501H408.418V24.6635L417.983 39.2146C419.078 40.8774 421.515 40.8774 422.609 39.2146L432.175 24.6635V51.9501H441.06V10.2002H431.238Z" fill="black"/>
<path d="M182.866 44.5656C175.479 44.5656 169.493 38.5749 169.493 31.1867C169.493 23.7966 175.479 17.8059 182.866 17.8059C190.252 17.8059 196.24 23.7966 196.24 31.1867C196.24 38.5749 190.252 44.5656 182.866 44.5656ZM182.866 9.17871C170.716 9.17871 160.867 19.0315 160.867 31.1867C160.867 43.34 170.716 53.1928 182.866 53.1928C195.015 53.1928 204.866 43.34 204.866 31.1867C204.866 19.0315 195.015 9.17871 182.866 9.17871Z" fill="black"/>
<path d="M336.637 37.6604C334.356 41.7764 329.973 44.5656 324.935 44.5656C317.55 44.5656 311.561 38.5749 311.561 31.1867C311.561 23.7966 317.55 17.8078 324.935 17.8078C329.931 17.8078 334.28 20.5531 336.576 24.6137L342.816 18.3729C338.824 12.8079 332.305 9.17871 324.935 9.17871C312.784 9.17871 302.938 19.0315 302.938 31.1867C302.938 43.34 312.784 53.1947 324.935 53.1947C332.345 53.1947 338.896 49.5254 342.881 43.907L336.637 37.6604Z" fill="black"/>
<path d="M371.253 44.5656C363.866 44.5656 357.88 38.5749 357.88 31.1867C357.88 23.7966 363.866 17.8059 371.253 17.8059C378.638 17.8059 384.627 23.7966 384.627 31.1867C384.627 38.5749 378.638 44.5656 371.253 44.5656ZM371.253 9.17871C359.103 9.17871 349.254 19.0315 349.254 31.1867C349.254 43.34 359.103 53.1928 371.253 53.1928C383.402 53.1928 393.252 43.34 393.252 31.1867C393.252 19.0315 383.402 9.17871 371.253 9.17871Z" fill="black"/>
<path d="M31.5253 62.4895C48.6375 62.4895 62.5097 48.6127 62.5097 31.4948C62.5097 14.3768 48.6375 0.5 31.5253 0.5C14.4132 0.5 0.541016 14.3768 0.541016 31.4948C0.541016 48.6127 14.4132 62.4895 31.5253 62.4895Z" fill="#CC092F"/>
<path d="M58.8241 39.8682C55.2803 38.4555 52.0362 38.929 48.7844 40.9011C48.7844 40.9011 47.5993 41.6246 47.2443 41.848C45.7291 42.7987 44.2998 43.6998 42.9258 43.6998C41.6148 43.6998 40.3247 43.3485 39.7789 40.8113C38.9278 36.8538 36.8516 27.1289 35.9451 22.3122C35.4127 19.4811 35.1207 17.9557 34.8173 16.9191C34.2829 15.0978 33.3059 14.107 31.9185 13.9485C31.9185 13.9485 31.701 13.918 31.5235 13.918C31.3479 13.918 31.1075 13.9523 31.1075 13.9523C29.7335 14.1165 28.7621 15.1073 28.2316 16.9191C27.9282 17.9557 27.6362 19.4811 27.1038 22.3122C26.1973 27.1289 24.1211 36.8538 23.2699 40.8113C22.7242 43.3485 21.4341 43.6998 20.1231 43.6998C18.7491 43.6998 17.3198 42.7987 15.8045 41.848C15.4496 41.6246 14.2626 40.9011 14.2626 40.9011C11.0127 38.929 7.76664 38.4555 4.22478 39.8682C3.45954 40.1737 2.70581 40.5158 1.98828 40.8613C2.47872 42.4 3.08926 43.9144 3.80107 45.3367C4.58539 44.9511 5.40794 44.5684 6.24761 44.3202C7.45749 43.9632 8.69791 43.9442 9.90016 44.347C11.0681 44.7383 12.1081 45.4313 13.1443 46.0823C15.0966 47.3099 17.3083 48.7016 20.1231 48.7016C24.2947 48.7016 27.2221 46.2102 28.1572 41.8651C28.8824 38.4975 30.4892 30.9795 31.5216 25.7944C31.5216 25.7944 34.1665 38.4975 34.8898 41.8651C35.8249 46.2102 38.7542 48.7016 42.9258 48.7016C45.7406 48.7016 47.9523 47.3099 49.9046 46.0823C50.9408 45.4313 51.9808 44.7383 53.1487 44.347C54.3491 43.9442 55.5914 43.9632 56.8013 44.3202C57.6409 44.5684 58.4623 44.9515 59.2466 45.3371C59.9603 43.9148 60.5692 42.3997 61.0597 40.861C60.3421 40.5155 59.5893 40.1737 58.8241 39.8682Z" fill="white"/>
</g>
<defs>
<clipPath id="clip0_894_10134">
<rect width="458" height="63" fill="white"/>
</clipPath>
</defs>
</svg>
