<svg width="370" height="65" viewBox="0 0 370 65" fill="none" xmlns="http://www.w3.org/2000/svg">
<g clip-path="url(#clip0_886_10080)">
<path d="M0 3.33252L11.3004 6.60561V51.9254L0 55.1985V3.33252Z" fill="#3259B4"/>
<path d="M17.8291 26.4961L28.8784 29.2656V53.688L17.8291 55.9539V26.4961Z" fill="#3C8CFF"/>
<path d="M36.6641 21.7124L46.96 18.9429V48.9043L36.6641 45.883V21.7124Z" fill="#00C8D2"/>
<path d="M53.7402 0.814941L65.0407 4.08804V54.9469L53.7402 57.7164V0.814941Z" fill="#78E6DD"/>
<path d="M344.177 35.0975H364.116C363.781 32.5679 362.703 30.5185 360.881 28.9491C359.059 27.3797 356.847 26.595 354.244 26.595C351.604 26.595 349.336 27.3981 347.439 29.0045C345.562 30.5923 344.474 32.6233 344.177 35.0975ZM344.177 39.3072C344.363 42.0398 345.441 44.2554 347.412 45.9541C349.401 47.6527 351.901 48.5021 354.913 48.5021C356.847 48.5021 358.65 48.0959 360.323 47.2835C361.996 46.4711 363.53 45.2709 364.924 43.6831L368.745 46.7296C366.83 48.9452 364.729 50.5792 362.442 51.6317C360.174 52.6841 357.609 53.2103 354.746 53.2103C352.385 53.2103 350.182 52.7856 348.137 51.9363C346.092 51.087 344.335 49.8776 342.866 48.3082C341.583 46.9234 340.598 45.3263 339.91 43.5169C339.222 41.689 338.878 39.778 338.878 37.7839C338.878 33.0572 340.301 29.2353 343.145 26.318C345.989 23.4008 349.708 21.9421 354.3 21.9421C358.985 21.9421 362.768 23.5023 365.649 26.6227C368.55 29.7246 370 33.8235 370 38.9194V39.3072H344.177ZM332.484 29.6138C331.56 28.5798 330.505 27.8228 329.317 27.3427C328.148 26.8442 326.809 26.595 325.301 26.595C322.379 26.595 319.975 27.6289 318.089 29.6969C316.223 31.7463 315.289 34.3774 315.289 37.5901C315.289 40.8027 316.213 43.4246 318.061 45.4556C319.928 47.4866 322.341 48.5021 325.301 48.5021C326.904 48.5021 328.318 48.2251 329.543 47.6712C330.787 47.1173 331.843 46.2957 332.711 45.2063L336.189 49.1114C334.605 50.5331 332.937 51.5763 331.183 52.241C329.449 52.8872 327.488 53.2103 325.301 53.2103C323.057 53.2103 320.983 52.841 319.079 52.1025C317.175 51.3639 315.525 50.293 314.13 48.8898C312.64 47.4127 311.509 45.7233 310.736 43.8215C309.982 41.9013 309.605 39.8242 309.605 37.5901C309.605 35.356 309.982 33.2788 310.736 31.3586C311.509 29.4384 312.64 27.7397 314.13 26.2626C315.544 24.8409 317.194 23.77 319.079 23.0499C320.965 22.3114 323.038 21.9421 325.301 21.9421C327.45 21.9421 329.392 22.256 331.127 22.8838C332.88 23.5115 334.473 24.4624 335.906 25.7364L332.484 29.6138ZM280.996 52.4625V22.6899H286.289V26.0964C287.622 24.7486 289.02 23.7516 290.485 23.1053C291.967 22.4406 293.554 22.1083 295.243 22.1083C298.716 22.1083 301.456 23.2715 303.465 25.5979C305.473 27.9243 306.478 31.1278 306.478 35.2082V52.4625H301.128V35.7345C301.128 32.6141 300.574 30.3339 299.467 28.8937C298.378 27.4351 296.66 26.7057 294.314 26.7057C291.648 26.7057 289.64 27.4812 288.288 29.0322C286.956 30.5646 286.289 32.8726 286.289 35.956V52.4625H280.996ZM260.63 48.3082C263.615 48.3082 266.068 47.3019 267.991 45.2894C269.914 43.2769 270.875 40.6919 270.875 37.5347C270.875 34.3959 269.914 31.8202 267.991 29.8076C266.068 27.7766 263.615 26.7611 260.63 26.7611C257.646 26.7611 255.192 27.7674 253.27 29.7799C251.347 31.7925 250.386 34.3774 250.386 37.5347C250.386 40.7104 251.347 43.3045 253.27 45.3171C255.192 47.3112 257.646 48.3082 260.63 48.3082ZM275.819 52.4625H270.6V47.5881C269.355 49.3422 267.835 50.6623 266.041 51.5486C264.265 52.4164 262.223 52.8502 259.916 52.8502C257.866 52.8502 255.906 52.4625 254.039 51.687C252.189 50.8931 250.541 49.7484 249.095 48.2528C247.722 46.8126 246.687 45.1878 245.991 43.3784C245.296 41.569 244.948 39.6026 244.948 37.4793C244.948 32.8818 246.312 29.1706 249.04 26.3457C251.787 23.5208 255.412 22.1083 259.916 22.1083C262.187 22.1083 264.265 22.5791 266.151 23.5208C268.037 24.444 269.648 25.7918 270.985 27.5643V22.6899H275.819V52.4625ZM213.998 14.2428V47.3665H218.106C224.093 47.3665 228.601 45.9725 231.631 43.1845C234.68 40.3965 236.204 36.2699 236.204 30.8047C236.204 25.321 234.68 21.1944 231.631 18.4248C228.601 15.6368 224.093 14.2428 218.106 14.2428H213.998ZM217.257 9.11914C225.288 9.11914 231.394 10.9655 235.574 14.6582C239.772 18.3325 241.872 23.7146 241.872 30.8047C241.872 37.8762 239.772 43.2584 235.574 46.9511C231.394 50.6254 225.288 52.4625 217.257 52.4625H208.386V9.11914H217.257ZM175.036 35.0975H194.653C194.323 32.5679 193.263 30.5185 191.47 28.9491C189.678 27.3797 187.501 26.595 184.94 26.595C182.343 26.595 180.111 27.3981 178.246 29.0045C176.398 30.5923 175.328 32.6233 175.036 35.0975ZM175.036 39.3072C175.218 42.0398 176.279 44.2554 178.218 45.9541C180.175 47.6527 182.635 48.5021 185.599 48.5021C187.501 48.5021 189.275 48.0959 190.921 47.2835C192.567 46.4711 194.076 45.2709 195.448 43.6831L199.207 46.7296C197.323 48.9452 195.256 50.5792 193.006 51.6317C190.775 52.6841 188.251 53.2103 185.434 53.2103C183.111 53.2103 180.944 52.7856 178.932 51.9363C176.92 51.087 175.191 49.8776 173.746 48.3082C172.484 46.9234 171.515 45.3263 170.838 43.5169C170.161 41.689 169.823 39.778 169.823 37.7839C169.823 33.0572 171.222 29.2353 174.02 26.318C176.819 23.4008 180.477 21.9421 184.995 21.9421C189.604 21.9421 193.327 23.5023 196.162 26.6227C199.015 29.7246 200.442 33.8235 200.442 38.9194V39.3072H175.036ZM155.217 15.4338V22.69H150.778H144.842L136.862 41.523C136.73 41.8369 136.474 42.5381 136.096 43.6275C135.736 44.6984 135.291 46.0187 134.761 47.5882C134.288 45.9264 133.881 44.5691 133.54 43.5167C133.218 42.4643 132.991 41.7999 132.858 41.523L124.992 22.69H118.943L131.694 52.4624L126.327 64.8147H131.807L148.867 26.9321L155.217 27.121V46.2864C155.217 48.779 155.858 50.5606 157.138 51.6315C158.419 52.6839 160.57 53.2102 163.593 53.2102H166.962V48.1975H163.813C162.911 48.1975 162.25 47.9944 161.83 47.5882C161.431 47.182 161.231 46.5356 161.231 45.6494V27.121H166.962V22.69H161.231V15.4338H155.217ZM86.3994 52.4625V9.11914H94.7749C98.0076 9.11914 100.558 9.26685 102.426 9.56227C104.315 9.83922 105.879 10.3008 107.118 10.947C109.238 12.0549 110.844 13.4581 111.935 15.1567C113.048 16.8369 113.604 18.7387 113.604 20.862C113.604 22.6161 113.09 24.2224 112.061 25.681C111.054 27.1396 109.616 28.3305 107.747 29.2537C110.812 30.14 113.132 31.5248 114.706 33.408C116.301 35.2729 117.099 37.5808 117.099 40.3319C117.099 43.7477 115.567 46.628 112.502 48.9729C109.458 51.2993 105.659 52.4625 101.104 52.4625H86.3994ZM92.7912 27.7859H98.081C101.02 27.7859 103.287 27.1858 104.882 25.9857C106.498 24.7855 107.307 23.0961 107.307 20.9174C107.307 18.6279 106.498 16.9016 104.882 15.7384C103.266 14.5751 100.852 13.9935 97.6402 13.9935H92.7912V27.7859ZM92.7912 47.3665H99.309C102.982 47.3665 105.764 46.748 107.653 45.511C109.563 44.2739 110.518 42.446 110.518 40.0273C110.518 37.6454 109.595 35.8452 107.747 34.6266C105.9 33.3896 103.171 32.771 99.5609 32.771H92.7912V47.3665Z" fill="#3259B4"/>
</g>
<defs>
<clipPath id="clip0_886_10080">
<rect width="370" height="64" fill="white" transform="translate(0 0.814941)"/>
</clipPath>
</defs>
</svg>
