<svg width="300" height="65" viewBox="0 0 300 65" fill="none" xmlns="http://www.w3.org/2000/svg">
<g clip-path="url(#clip0_844_10111)">
<path d="M68.5459 44.025C68.5459 37.6971 73.1241 32.6606 79.7371 32.6606C86.35 32.6606 86.2229 34.0812 88.2576 36.0183L85.2055 39.5051C83.5523 37.9554 81.899 37.0514 79.7371 37.0514C76.0491 37.0514 73.5056 40.1508 73.5056 43.8959C73.5056 47.641 76.0491 50.8695 79.7371 50.8695C83.4251 50.8695 83.6794 49.8364 85.4598 48.2867L88.512 51.3861C86.35 53.8397 83.8066 55.2603 79.7371 55.2603C73.3784 55.2603 68.6731 50.2238 68.6731 44.025H68.5459Z" fill="#231F20"/>
<path d="M92.2002 33.0481H96.9056V41.7005H105.68V33.0481H110.386V54.8729H105.68V46.0913H96.9056V54.8729H92.2002V33.0481Z" fill="#231F20"/>
<path d="M116.108 33.1772H132.386V37.4389H120.814V41.8297H130.988V46.0913H120.814V50.6112H132.514V54.8729H116.108V32.9189V33.1772Z" fill="#231F20"/>
<path d="M135.693 44.1542C135.693 37.8263 140.399 32.7898 146.885 32.7898C153.37 32.7898 153.37 34.2103 155.405 36.1475L152.353 39.6343C150.7 38.0846 149.046 37.1806 146.885 37.1806C143.197 37.1806 140.653 40.28 140.653 44.025C140.653 47.7701 143.197 50.9986 146.885 50.9986C149.301 50.9986 150.827 49.9655 152.607 48.4158L155.659 51.5152C153.498 53.9689 150.954 55.3894 146.885 55.3894C140.526 55.3894 135.821 50.3529 135.821 44.1542H135.693Z" fill="#231F20"/>
<path d="M159.093 33.3064H163.798V42.8628L172.573 33.3064H178.296L169.521 42.6045L178.677 55.2603H172.955L166.342 45.9622L163.798 48.545V55.2603H159.093V33.4355V33.3064Z" fill="#231F20"/>
<path d="M191.521 33.3064H200.296C205.383 33.3064 208.563 36.4058 208.563 40.9257C208.563 46.0913 204.62 48.6741 199.788 48.6741H196.227V55.2603H191.521V33.4355V33.3064ZM199.915 44.4125C202.331 44.4125 203.603 42.992 203.73 41.0548C203.73 38.8595 202.204 37.6972 199.915 37.6972H196.227V44.4125H200.042H199.915Z" fill="#231F20"/>
<path d="M211.615 44.4125C211.615 38.0846 216.447 33.0481 223.06 33.0481C229.673 33.0481 234.506 38.0846 234.379 44.2834C234.379 50.6113 229.546 55.6477 222.933 55.6477C216.32 55.6477 211.488 50.6112 211.615 44.4125ZM229.546 44.4125C229.546 40.6674 226.875 37.4389 223.06 37.4389C219.245 37.4389 216.574 40.5383 216.574 44.2834C216.574 48.0284 219.245 51.2569 223.06 51.2569C226.875 51.2569 229.546 48.1576 229.546 44.4125Z" fill="#231F20"/>
<path d="M239.084 33.4355H243.789V55.2603H239.084V33.4355Z" fill="#231F20"/>
<path d="M249.767 33.4355H254.091L264.137 46.8662V33.4355H268.843V55.2603H264.773L254.345 41.3131V55.2603H249.64V33.4355H249.767Z" fill="#231F20"/>
<path d="M279.652 37.9555H273.166V33.5647H290.97V38.0846H284.484V55.5186H279.779V38.0846L279.652 37.9555Z" fill="#231F20"/>
<path d="M64.7309 16.6471C61.2973 20.9088 55.193 21.5545 50.9963 18.1968C46.7996 14.71 46.1638 8.51124 49.4702 4.24959C52.9039 -0.0120517 59.0082 -0.657757 63.2049 2.6999C67.4016 6.18671 68.0374 12.3855 64.7309 16.6471Z" fill="#231F20"/>
<path d="M51.5049 32.144C48.8343 33.4354 45.5278 33.4354 42.73 31.7565L35.0996 42.0878C36.117 43.2501 36.6257 44.6706 36.6257 46.0912C36.6257 47.3826 36.3713 48.674 35.6083 49.8363C33.7007 52.8065 29.6312 53.7105 26.7062 51.7734C26.4519 51.5151 26.0704 51.3859 25.816 51.1277C25.816 51.1277 25.6888 50.9985 25.5617 50.8694C25.4345 50.7402 25.1802 50.482 25.053 50.2237C25.053 50.2237 24.9258 50.0945 24.7986 49.9654C24.6715 49.7071 24.4171 49.4488 24.29 49.0614C24.29 49.0614 24.29 48.9323 24.29 48.8031C24.29 48.5449 24.0356 48.2866 24.0356 48.0283C24.0356 48.0283 24.0356 47.8991 24.0356 47.77C24.0356 47.5117 24.0356 47.1243 23.9084 46.866C23.9084 46.866 23.9084 46.7369 23.9084 46.6077C23.9084 46.3495 23.9084 45.962 23.9084 45.7038C23.9084 45.7038 23.9084 45.7038 23.9084 45.5746C23.9084 45.1872 23.9084 44.9289 24.1628 44.5415C24.1628 44.5415 24.1628 44.4123 24.1628 44.2832C24.1628 43.8958 24.4171 43.6375 24.5443 43.2501L18.3128 38.4719L16.4053 41.0547L9.28359 35.6308L14.6248 28.3989L21.7465 33.8228L19.8389 36.4056L26.0704 41.1838C27.978 39.505 30.7758 39.1176 33.192 40.409L40.8224 30.0777C37.7702 26.9783 37.0072 22.2001 39.2963 18.1968C39.6778 17.4219 40.3137 16.7762 40.8224 16.1305C36.6257 13.2894 31.666 11.6106 26.1975 11.4814C11.827 11.4814 0.127173 23.2333 0 37.9553C0 52.5482 11.5727 64.4292 26.0704 64.5583C40.4409 64.5583 52.1407 52.8065 52.2679 38.0844C52.2679 35.8891 52.0136 33.8228 51.5049 31.8857V32.144Z" fill="#EE0C5D"/>
<path d="M295.421 36.6638H294.913V34.081H294.022V33.5645H296.439V34.081H295.549V36.6638H295.421Z" fill="#231F20"/>
<path d="M298.601 35.889L297.711 34.4685V36.6638H297.202V33.6936H297.711L298.601 35.1142L299.491 33.6936H300V36.6638H299.491V34.4685L298.601 35.889Z" fill="#231F20"/>
</g>
<defs>
<clipPath id="clip0_844_10111">
<rect width="300" height="64" fill="white" transform="translate(0 0.55835)"/>
</clipPath>
</defs>
</svg>
