<svg width="122" height="64" viewBox="0 0 122 64" fill="none" xmlns="http://www.w3.org/2000/svg">
<path d="M27.14 63.188V57.5718L27.0293 57.62C25.7558 58.2329 24.3704 58.5824 22.9569 58.6474C21.488 58.7618 20.0281 58.3341 18.8564 57.446C18.0197 56.804 17.3976 55.9258 17.0716 54.9264C16.7119 53.8375 16.6703 52.6695 16.9518 51.558C17.2131 50.4212 17.8537 49.4058 18.7694 48.6769C19.5815 48.0018 20.5738 47.5765 21.6251 47.453C23.4832 47.2482 25.3607 47.598 27.018 48.4579L27.14 48.5208V42.8731L26.8824 42.8046C25.2231 42.2749 23.4809 42.0481 21.7403 42.1354C20.155 42.1759 18.5937 42.5309 17.1484 43.1796C15.6892 43.8438 14.4027 44.8317 13.3879 46.0675C11.8456 48.0074 10.9896 50.3985 10.9524 52.8707C10.9153 55.343 11.699 57.7584 13.1823 59.7433C14.6833 61.6518 16.7904 62.9986 19.1603 63.5642C21.6579 64.1682 24.2752 64.0762 26.7254 63.3014L27.14 63.188" fill="#02C8FF"/>
<path d="M83.0579 63.188V57.5718L82.9472 57.62C81.6737 58.2329 80.2883 58.5824 78.8749 58.6474C77.4059 58.7618 75.946 58.3341 74.7744 57.446C73.9376 56.804 73.3155 55.9258 72.9895 54.9264C72.6298 53.8375 72.5883 52.6695 72.8698 51.558C73.1311 50.4212 73.7717 49.4058 74.6874 48.6769C75.4994 48.0018 76.4918 47.5765 77.5431 47.453C79.4012 47.2482 81.2786 47.598 82.9359 48.4579L83.0579 48.5208V42.8731L82.8004 42.8046C81.141 42.2749 79.3989 42.0481 77.6583 42.1354C76.0729 42.1759 74.5117 42.5309 73.0664 43.1796C71.6072 43.8438 70.3207 44.8317 69.3058 46.0675C67.7635 48.0074 66.9076 50.3985 66.8704 52.8707C66.8332 55.343 67.6169 57.7584 69.1002 59.7433C70.6012 61.6518 72.7084 62.9986 75.0782 63.5642C77.5758 64.1682 80.1932 64.0762 82.6434 63.3014L83.0579 63.188" fill="#02C8FF"/>
<path fill-rule="evenodd" clip-rule="evenodd" d="M47.0945 58.5259L47.073 63.363L47.4288 63.4236C48.546 63.6313 49.6734 63.775 50.8064 63.8559C51.7985 63.9472 52.796 63.9663 53.7909 63.9131C54.742 63.8458 55.683 63.6684 56.5924 63.3877C57.661 63.0874 58.6522 62.5624 59.4989 61.8483C60.2611 61.2013 60.8437 60.371 61.1911 59.4365C61.797 57.872 61.7849 56.1375 61.1572 54.5815C60.8271 53.774 60.3068 53.057 59.6401 52.4908C58.9956 51.9136 58.238 51.4751 57.4147 51.203L53.7435 49.8489C53.3049 49.6636 52.9489 49.3265 52.7415 48.9001C52.6617 48.725 52.6238 48.5339 52.6309 48.3418C52.6379 48.1497 52.6897 47.9618 52.7821 47.793C52.8479 47.6731 52.9305 47.5631 53.0273 47.4663C53.1844 47.3067 53.3678 47.1749 53.5695 47.0766C53.9795 46.8745 54.4224 46.7477 54.8776 46.6983C55.6544 46.5869 56.4439 46.5952 57.2182 46.723C58.1332 46.8218 59.0403 46.9823 59.9316 47.2058L60.1213 47.2473V42.7853L59.7712 42.71C58.8613 42.4936 57.9394 42.3305 57.0103 42.2216C55.8062 42.0618 54.5864 42.0565 53.3808 42.2059C51.8537 42.3449 50.4009 42.9258 49.2023 43.8766C48.3898 44.5106 47.7717 45.3576 47.4175 46.3221C46.8847 47.7914 46.8835 49.3994 47.4141 50.8695C47.6875 51.5993 48.1258 52.2584 48.6974 52.794C49.191 53.2678 49.7502 53.6698 50.358 53.9898C51.1577 54.4164 52.005 54.7477 52.8827 54.9756C53.173 55.062 53.461 55.153 53.748 55.2484L54.1829 55.4067L54.3071 55.4573C54.7364 55.61 55.1272 55.8503 55.4571 56.1624C55.6853 56.3757 55.8615 56.6373 55.9711 56.9293C56.0389 57.1954 56.04 57.4738 55.9745 57.7411C55.837 58.1714 55.5353 58.531 55.134 58.7426C54.697 58.9685 54.2231 59.1156 53.7344 59.1771C53.0174 59.2903 52.2903 59.3268 51.5655 59.286C50.6151 59.2152 49.6695 59.09 48.7335 58.911C48.2444 58.81 47.7575 58.6977 47.2752 58.5708L47.0945 58.5259ZM34.5059 63.5583H39.849V42.4933H34.5059V63.5583ZM96.3633 48.7137C96.9343 48.2514 97.5918 47.9061 98.2979 47.6979C99.004 47.4897 99.7446 47.4226 100.477 47.5006C101.209 47.5785 101.919 47.8 102.564 48.1522C103.21 48.5043 103.779 48.9802 104.239 49.5523C104.698 50.1243 105.039 50.7812 105.242 51.4851C105.444 52.1889 105.505 52.9256 105.419 53.6527C105.334 54.3798 105.104 55.0829 104.743 55.7212C104.383 56.3595 103.898 56.9205 103.318 57.3717C102.161 58.2608 100.698 58.662 99.2458 58.4886C97.7933 58.3153 96.4677 57.5814 95.5549 56.4452C94.642 55.309 94.2152 53.8617 94.3664 52.4155C94.5176 50.9693 95.2348 49.639 96.3633 48.7137ZM88.6061 53.0354C88.6315 54.6796 89.0247 56.2975 89.7572 57.7719C90.4898 59.2463 91.5432 60.5402 92.8411 61.5597C94.1391 62.5793 95.6491 63.299 97.2616 63.6666C98.8741 64.0342 100.549 64.0406 102.164 63.6852C104.333 63.2793 106.327 62.2267 107.881 60.6675C109.434 59.1082 110.473 57.1161 110.86 54.9557C111.247 52.7953 110.964 50.5691 110.048 48.5727C109.131 46.5763 107.625 44.9044 105.73 43.779C104.047 42.7435 102.118 42.169 100.139 42.1137C98.1606 42.0585 96.2024 42.5245 94.4634 43.4645C92.7244 44.4044 91.2664 45.7849 90.2375 47.4658C89.2086 49.1467 88.6454 51.0682 88.6049 53.0354" fill="#02C8FF"/>
<path d="M0 25.565C0.0380387 26.059 0.215377 26.5324 0.511683 26.9308C0.807989 27.3293 1.21127 27.6367 1.67528 27.8178C2.13929 27.9989 2.64525 28.0463 3.13514 27.9547C3.62504 27.863 4.07904 27.636 4.44509 27.2997C4.93535 26.8472 5.23583 26.2274 5.28554 25.565V19.7264C5.27124 19.0391 4.98653 18.3848 4.49247 17.9038C3.99841 17.4227 3.33436 17.1533 2.64277 17.1533C1.95118 17.1533 1.28713 17.4227 0.793069 17.9038C0.299011 18.3848 0.0142962 19.0391 0 19.7264L0 25.565Z" fill="#02C8FF"/>
<path d="M14.6289 25.5654C14.6796 26.2279 14.98 26.8471 15.47 27.299C15.9601 27.7509 16.6037 28.0023 17.2722 28.003C17.9408 28.0028 18.5846 27.7516 19.0746 27.2995C19.5646 26.8474 19.8646 26.228 19.9144 25.5654V12.4768C19.8899 11.7964 19.6008 11.152 19.1078 10.6793C18.6149 10.2066 17.9566 9.94238 17.2717 9.94238C16.5867 9.94238 15.9285 10.2066 15.4355 10.6793C14.9426 11.152 14.6534 11.7964 14.6289 12.4768V25.5665" fill="#02C8FF"/>
<path d="M29.1797 30.8365C29.2276 31.5005 29.5267 32.1218 30.017 32.5754C30.5072 33.029 31.1521 33.2812 31.8219 33.2812C32.4917 33.2812 33.1366 33.029 33.6268 32.5754C34.117 32.1218 34.4162 31.5005 34.4641 30.8365V2.52488C34.4298 1.85136 34.1364 1.21669 33.6447 0.752054C33.1529 0.287415 32.5004 0.0283203 31.8219 0.0283203C31.1434 0.0283203 30.4909 0.287415 29.9991 0.752054C29.5074 1.21669 29.214 1.85136 29.1797 2.52488V30.8365Z" fill="#02C8FF"/>
<path d="M43.8574 25.5654C43.9081 26.2279 44.2085 26.8471 44.6985 27.299C45.1886 27.7509 45.8322 28.0023 46.5008 28.003C47.1693 28.0028 47.8131 27.7516 48.3031 27.2995C48.7931 26.8474 49.0931 26.228 49.143 25.5654V12.4768C49.1184 11.7964 48.8293 11.152 48.3363 10.6793C47.8434 10.2066 47.1852 9.94238 46.5002 9.94238C45.8152 9.94238 45.157 10.2066 44.664 10.6793C44.1711 11.152 43.8819 11.7964 43.8574 12.4768V25.5665" fill="#02C8FF"/>
<path d="M58.459 25.565C58.497 26.059 58.6744 26.5324 58.9707 26.9308C59.267 27.3293 59.6703 27.6367 60.1343 27.8178C60.5983 27.9989 61.1042 28.0463 61.5941 27.9547C62.084 27.863 62.538 27.636 62.9041 27.2997C63.3943 26.8472 63.6948 26.2274 63.7445 25.565V19.7264C63.7302 19.0391 63.4455 18.3848 62.9515 17.9038C62.4574 17.4227 61.7933 17.1533 61.1018 17.1533C60.4102 17.1533 59.7461 17.4227 59.2521 17.9038C58.758 18.3848 58.4733 19.0391 58.459 19.7264V25.565Z" fill="#02C8FF"/>
<path d="M73.0879 25.5654C73.1385 26.2279 73.4389 26.8471 73.929 27.299C74.4191 27.7509 75.0627 28.0023 75.7312 28.003C76.3998 28.0028 77.0436 27.7516 77.5336 27.2995C78.0236 26.8474 78.3236 26.228 78.3734 25.5654V12.4768C78.3489 11.7964 78.0597 11.152 77.5668 10.6793C77.0739 10.2066 76.4156 9.94238 75.7307 9.94238C75.0457 9.94238 74.3874 10.2066 73.8945 10.6793C73.4016 11.152 73.1124 11.7964 73.0879 12.4768V25.5665" fill="#02C8FF"/>
<path d="M87.6387 30.8365C87.6866 31.5005 87.9857 32.1218 88.476 32.5754C88.9662 33.029 89.6111 33.2812 90.2809 33.2812C90.9506 33.2812 91.5956 33.029 92.0858 32.5754C92.576 32.1218 92.8752 31.5005 92.9231 30.8365V2.52488C92.8887 1.85136 92.5954 1.21669 92.1036 0.752054C91.6119 0.287415 90.9594 0.0283203 90.2809 0.0283203C89.6024 0.0283203 88.9498 0.287415 88.4581 0.752054C87.9664 1.21669 87.673 1.85136 87.6387 2.52488V30.8365Z" fill="#02C8FF"/>
<path d="M102.316 25.5654C102.367 26.2279 102.667 26.8471 103.158 27.299C103.648 27.7509 104.291 28.0023 104.96 28.003C105.628 28.0028 106.272 27.7516 106.762 27.2995C107.252 26.8474 107.552 26.228 107.602 25.5654V12.4768C107.577 11.7964 107.288 11.152 106.795 10.6793C106.302 10.2066 105.644 9.94238 104.959 9.94238C104.274 9.94238 103.616 10.2066 103.123 10.6793C102.63 11.152 102.341 11.7964 102.316 12.4768V25.5665" fill="#02C8FF"/>
<path d="M116.775 25.565C116.813 26.059 116.991 26.5324 117.287 26.9308C117.583 27.3293 117.987 27.6367 118.451 27.8178C118.915 27.9989 119.421 28.0463 119.911 27.9547C120.4 27.863 120.854 27.636 121.22 27.2997C121.711 26.8472 122.011 26.2274 122.061 25.565V19.7264C122.047 19.0391 121.762 18.3848 121.268 17.9038C120.774 17.4227 120.11 17.1533 119.418 17.1533C118.727 17.1533 118.063 17.4227 117.568 17.9038C117.074 18.3848 116.79 19.0391 116.775 19.7264V25.565Z" fill="#02C8FF"/>
</svg>
