<svg width="285" height="64" viewBox="0 0 285 64" fill="none" xmlns="http://www.w3.org/2000/svg">
<g clip-path="url(#clip0_941_10082)">
<path d="M93.7134 45.7343C91.3427 44.446 89.5297 42.6056 88.2282 40.2131C86.9731 37.8666 86.3223 35.106 86.3223 31.9773C86.3223 28.8486 86.9731 26.134 88.2282 23.7875C89.4833 21.441 91.3427 19.6006 93.7134 18.3123C96.0841 17.024 98.8732 16.3799 102.081 16.3799C104.08 16.3799 106.032 16.702 107.938 17.3001C109.844 17.8982 111.378 18.7264 112.54 19.7386L110.076 25.3058C107.519 23.5575 104.916 22.6833 102.267 22.6833C99.7565 22.6833 97.8506 23.4654 96.5025 25.0298C95.1544 26.5941 94.5036 28.8946 94.5036 32.0233C94.5036 35.106 95.1544 37.4525 96.5025 39.0168C97.8506 40.5812 99.7565 41.3633 102.267 41.3633C104.916 41.3633 107.519 40.4892 110.076 38.7408L112.586 44.354C111.378 45.3662 109.844 46.1944 107.984 46.7925C106.125 47.3907 104.173 47.7127 102.127 47.7127C98.8732 47.6667 96.0841 47.0226 93.7134 45.7343Z" fill="#3CC48F"/>
<path d="M119.652 46.2399C117.839 45.3197 116.491 44.0314 115.515 42.3751C114.539 40.7187 114.027 38.7403 114.027 36.4858C114.027 34.2313 114.539 32.2528 115.515 30.5965C116.491 28.9401 117.886 27.6518 119.652 26.7777C121.418 25.9035 123.51 25.4434 125.928 25.4434C128.298 25.4434 130.39 25.9035 132.203 26.7777C133.969 27.6518 135.364 28.9401 136.34 30.5965C137.316 32.2528 137.828 34.2313 137.828 36.4858C137.828 38.7403 137.316 40.7187 136.34 42.3751C135.364 44.0314 133.969 45.3657 132.203 46.2399C130.437 47.1601 128.345 47.6202 125.928 47.6202C123.51 47.6202 121.418 47.1601 119.652 46.2399ZM130.018 36.4858C130.018 32.897 128.624 31.1026 125.881 31.1026C123.092 31.1026 121.744 32.897 121.744 36.4858C121.744 40.0746 123.138 41.869 125.881 41.869C128.624 41.869 130.018 40.0746 130.018 36.4858Z" fill="#3CC48F"/>
<path d="M157.537 31.7471L153.306 32.1612C151.633 32.3452 150.424 32.8053 149.774 33.4955C149.123 34.2316 148.751 35.2438 148.751 36.5781V47.2985H140.941V25.9498H148.333V29.6306C148.844 28.3423 149.634 27.3301 150.796 26.64C151.912 25.9498 153.306 25.5817 154.933 25.4897L157.072 25.3057L157.537 31.7471Z" fill="#3CC48F"/>
<path d="M177.062 27.744C178.689 29.3083 179.479 31.7008 179.479 34.9676V47.2522H172.181V44.2616C171.762 45.3198 171.065 46.102 170.135 46.7001C169.159 47.2982 167.997 47.5743 166.695 47.5743C165.208 47.5743 163.86 47.2982 162.651 46.7001C161.443 46.102 160.513 45.2738 159.816 44.2156C159.118 43.1573 158.793 41.9611 158.793 40.6268C158.793 39.1085 159.211 37.8662 160.002 36.946C160.792 36.0258 162.093 35.3816 163.813 34.9676C165.58 34.5535 167.951 34.3694 170.926 34.3694H172.088V33.8633C172.088 32.8051 171.855 32.0689 171.344 31.6548C170.833 31.2407 169.949 31.0107 168.694 31.0107C167.718 31.0107 166.556 31.1947 165.254 31.6088C163.953 31.9769 162.744 32.483 161.582 33.0811L159.63 28.02C160.885 27.2839 162.465 26.6397 164.325 26.1336C166.231 25.6275 167.951 25.3975 169.531 25.3975C172.924 25.4435 175.435 26.2256 177.062 27.744ZM171.065 41.363C171.716 40.6268 172.088 39.6606 172.088 38.5103V38.0042H171.39C169.531 38.0042 168.183 38.1883 167.393 38.5103C166.602 38.8324 166.231 39.3845 166.231 40.1667C166.231 40.8108 166.463 41.363 166.881 41.8231C167.3 42.2371 167.858 42.4672 168.508 42.4672C169.531 42.4672 170.414 42.0991 171.065 41.363Z" fill="#3CC48F"/>
<path d="M183.104 47.2987V16.748H190.913V47.2987H183.104Z" fill="#3CC48F"/>
<path d="M199.746 46.2399C197.933 45.3197 196.585 44.0314 195.609 42.3751C194.632 40.7187 194.121 38.7403 194.121 36.4858C194.121 34.2313 194.632 32.2528 195.609 30.5965C196.585 28.9401 197.979 27.6518 199.746 26.7777C201.512 25.9035 203.604 25.4434 206.021 25.4434C208.392 25.4434 210.484 25.9035 212.297 26.7777C214.063 27.6518 215.458 28.9401 216.434 30.5965C217.41 32.2528 217.921 34.2313 217.921 36.4858C217.921 38.7403 217.41 40.7187 216.434 42.3751C215.458 44.0314 214.063 45.3657 212.297 46.2399C210.53 47.1601 208.438 47.6202 206.021 47.6202C203.604 47.6202 201.512 47.1601 199.746 46.2399ZM210.112 36.4858C210.112 32.897 208.717 31.1026 205.975 31.1026C203.186 31.1026 201.838 32.897 201.838 36.4858C201.838 40.0746 203.232 41.869 205.975 41.869C208.764 41.869 210.112 40.0746 210.112 36.4858Z" fill="#3CC48F"/>
<path d="M244.604 25.9497V44.6758C244.604 48.2186 243.535 50.8871 241.443 52.6815C239.305 54.5219 236.19 55.3961 232.053 55.3961C230.101 55.3961 228.195 55.1661 226.382 54.706C224.522 54.2459 222.942 53.6478 221.594 52.8196L223.546 47.5744C224.894 48.2646 226.289 48.8167 227.73 49.1848C229.171 49.5529 230.519 49.7369 231.82 49.7369C233.54 49.7369 234.842 49.3688 235.632 48.6327C236.469 47.8965 236.887 46.7462 236.887 45.1359V43.4795C236.237 44.4457 235.307 45.1819 234.145 45.734C232.936 46.2861 231.635 46.5622 230.24 46.5622C228.381 46.5622 226.707 46.1481 225.266 45.2739C223.825 44.3997 222.663 43.1575 221.873 41.5471C221.036 39.9368 220.664 38.0963 220.664 35.9799C220.664 33.8634 221.082 32.023 221.873 30.4127C222.709 28.8023 223.825 27.56 225.266 26.6859C226.707 25.8117 228.381 25.3516 230.24 25.3516C231.681 25.3516 232.983 25.6276 234.191 26.2258C235.4 26.8239 236.33 27.6061 236.934 28.6183V25.9037H244.604V25.9497ZM235.818 39.6147C236.562 38.7405 236.934 37.5902 236.934 36.0719C236.934 34.5536 236.562 33.3573 235.818 32.4831C235.074 31.6089 234.005 31.1948 232.611 31.1948C231.263 31.1948 230.24 31.6089 229.45 32.4831C228.706 33.3573 228.334 34.5536 228.334 36.1179C228.334 37.6362 228.706 38.7865 229.496 39.6607C230.286 40.5349 231.309 40.949 232.611 40.949C234.005 40.903 235.074 40.4889 235.818 39.6147Z" fill="#3CC48F"/>
<path d="M248.09 15.3213H256.225V22.3148H248.09V15.3213ZM248.276 47.2983V25.9496H256.085V47.2523H248.276V47.2983Z" fill="#3CC48F"/>
<path d="M275.843 36.2555L285 47.2519H275.889L271.38 41.6386L266.871 47.2519H257.807L266.964 36.2555L258.318 25.9492H267.476L271.38 30.9643L275.332 25.9492H284.489L275.843 36.2555Z" fill="#3CC48F"/>
<path d="M32.3536 60.8253C48.4249 60.8253 61.4532 47.9301 61.4532 32.023C61.4532 16.1159 48.4249 3.2207 32.3536 3.2207C16.2823 3.2207 3.25391 16.1159 3.25391 32.023C3.25391 47.9301 16.2823 60.8253 32.3536 60.8253Z" fill="#3CC48F"/>
<path d="M32.3536 64C14.5033 64 0 49.6449 0 32.023C0 14.3551 14.5033 0 32.3536 0C50.2039 0 64.7072 14.3551 64.7072 32.023C64.6607 49.6449 50.1574 64 32.3536 64ZM32.3536 6.34939C18.0827 6.34939 6.46143 17.8519 6.46143 31.977C6.46143 46.1021 18.0827 57.6046 32.3536 57.6046C46.6245 57.6046 58.2458 46.1021 58.2458 31.977C58.2458 17.8519 46.6245 6.34939 32.3536 6.34939Z" fill="#AEFFDC"/>
</g>
<defs>
<clipPath id="clip0_941_10082">
<rect width="285" height="64" fill="white"/>
</clipPath>
</defs>
</svg>
