<svg width="346" height="64" viewBox="0 0 346 64" fill="none" xmlns="http://www.w3.org/2000/svg">
<path d="M55.0401 31.5338V30.9198L49.8401 26.4438H49.2341C47.8041 28.0238 45.5961 29.2078 43.1261 29.2078C39.2701 29.2078 36.2361 26.2678 36.2361 22.2318C36.2361 18.1958 39.2701 15.2558 43.1261 15.2558C45.5961 15.2558 47.8041 16.4398 49.2341 18.0198H49.8401L55.0401 13.5438V12.9298C52.3101 9.5958 48.0221 7.4458 43.1681 7.4458C34.2441 7.4458 27.4861 13.7638 27.4861 22.2318C27.4861 22.5598 27.5601 22.8618 27.5821 23.1838C31.2341 25.6678 34.4581 27.6558 37.2341 29.4758C41.2361 32.0078 44.4661 34.3378 47.1261 36.5038C50.4421 35.6658 53.1301 33.8478 55.0401 31.5338ZM30.7401 31.3758C32.8241 33.9358 35.7661 35.7718 39.2361 36.5558C36.8921 35.2378 34.6221 33.9438 32.5081 32.5118C31.8881 32.1278 31.3361 31.7558 30.7401 31.3758Z" fill="#FC0000"/>
<path d="M85.14 35.1336L83.84 29.5176L83.364 29.2096C83.104 29.3416 82.888 29.5176 82.238 29.5176C81.24 29.5176 80.634 28.4636 80.114 27.6316C79.248 26.3136 78.554 25.6116 77.948 25.3056C81.11 23.9016 83.234 21.2696 83.234 17.4956C83.234 11.6596 79.248 7.97363 71.84 7.97363H58.928V36.4936H67.506V26.4896H68.286C70.192 26.4896 72.62 30.6136 73.746 32.4576C76.086 36.1876 77.948 37.0196 81.284 37.0196C82.844 37.0196 84.144 36.4496 84.924 35.7476L85.14 35.1336ZM74.482 17.9776C74.482 19.8656 73.096 20.7856 71.492 20.7856H67.506V14.9936H71.492C73.096 14.9936 74.482 16.0476 74.482 17.9776Z" fill="#FC0000"/>
<path d="M118.28 22.2416C118.28 13.7736 111.522 7.45557 102.554 7.45557C93.5842 7.45557 86.8262 13.7736 86.8262 22.2416C86.8262 30.7096 93.5842 37.0276 102.554 37.0276C111.522 37.0276 118.28 30.6656 118.28 22.2416ZM109.528 22.2416C109.528 26.3216 106.408 29.2176 102.554 29.2176C98.6982 29.2176 95.5782 26.3216 95.5782 22.2416C95.5782 18.1616 98.6982 15.2656 102.554 15.2656C106.408 15.2656 109.528 18.1616 109.528 22.2416Z" fill="#FC0000"/>
<path d="M137.4 7.98193L132.06 23.6799L127 7.98193H118.8L118.42 8.63993L128.9 36.4999H134.1L140 20.9599L145.92 36.4999H151.12L161.62 8.63993L161.22 7.98193H153.04L147.96 23.7799L142.6 7.98193H137.4Z" fill="#FC0000"/>
<path d="M193.02 22.1999C193.02 13.6879 187.344 7.98389 178.116 7.98389H164.988V36.5039H178.116C187.344 36.5039 193.02 30.7999 193.02 22.1999ZM184.268 22.2439C184.268 26.8939 181.538 29.4839 177.77 29.4839H173.566V15.0039H177.77C181.538 15.0039 184.268 17.5939 184.268 22.2439Z" fill="#FC0000"/>
<path d="M221.4 15.0019H229.8V36.4999H238.4V15.0019H247V7.98193H221.4V15.0019Z" fill="#FC0000"/>
<path d="M274.4 17.502C274.4 11.666 270.414 7.97998 263.006 7.97998H250.094V36.5H258.674V26.496H260.71L266.038 36.5H274.574L274.964 35.842L269.244 25.268C272.32 23.82 274.4 21.232 274.4 17.502ZM265.648 17.984C265.648 19.872 264.262 20.792 262.658 20.792H258.674V15H262.658C264.262 15 265.648 16.054 265.648 17.984Z" fill="#FC0000"/>
<path d="M279.6 36.4999H288.2V7.98193H279.6V36.4999Z" fill="#FC0000"/>
<path d="M302.2 18.1179V7.98193H293.6V36.4999H302.2V27.7199L303.8 25.8799L311 36.4999H320L320.4 35.8399L310 20.7399L319.6 8.63993L319.4 7.98193H310.2L302.2 18.1179Z" fill="#FC0000"/>
<path d="M331.4 29.48V25.54H341.2V18.95H331.4V15.002H344.2V7.97998H322.8V36.5H344.4V29.48H331.4Z" fill="#FC0000"/>
<path d="M207.6 36.8331C213.884 36.8331 219.338 33.7631 219.338 27.8431C219.338 21.3911 213.84 19.7231 208.988 18.3191C207.08 17.7491 205.128 17.0891 205.128 15.6851C205.128 14.6751 206.212 14.0611 207.86 14.0611C210.678 14.0611 213.06 15.8171 214.272 16.9591H214.878L218.906 12.1331V11.5191C216.784 9.10714 212.454 7.26514 207.686 7.26514C201.014 7.26514 196.382 10.8611 196.382 16.0811C196.382 21.6991 201.49 24.1571 205.822 25.3851C208.64 26.1751 210.55 26.3071 210.55 27.8431C210.55 28.9411 209.204 29.5991 207.122 29.5991C204.478 29.5991 201.274 27.8871 199.716 26.3511H199.11L195.126 31.3531V31.9671C197.68 34.8171 202.27 36.8331 207.6 36.8331Z" fill="#FC0000"/>
<path d="M59.64 63.053C57.562 58.297 53.388 52.195 37.04 43.481C29.5 39.289 16.62 32.835 5.04004 20.561C6.09004 24.989 11.47 34.719 34.6 46.861C41.008 50.367 51.844 53.655 59.64 63.037" fill="#FC0000"/>
<path d="M58.6 54.9132C56.628 49.2932 53.068 42.0972 36.18 31.4132C27.958 26.0252 15.88 19.2592 0 2.01318C1.136 6.66318 6.156 18.7552 31.46 34.4532C39.772 40.0852 50.5 43.5592 58.6 54.9132Z" fill="#FC0000"/>
</svg>
