<svg width="330" height="65" viewBox="0 0 330 65" fill="none" xmlns="http://www.w3.org/2000/svg">
<g clip-path="url(#clip0_924_10125)">
<path d="M7.17294 14.9344C3.12867 14.9344 -0.125371 18.2938 0.0140868 22.4001C0.153545 26.133 3.17516 29.1657 6.89403 29.3055C10.9848 29.4456 14.3318 26.1794 14.3318 22.1202V19.4604C14.3318 16.9407 16.3307 14.9344 18.841 14.9344H21.3977C25.3026 14.9344 28.5566 11.8548 28.6495 7.98195C28.7889 3.92252 25.5349 0.609646 21.5371 0.56298C17.5394 0.516337 14.3318 3.87589 14.3318 7.88865V10.8749C14.3318 13.1146 12.5189 14.9344 10.2875 14.9344H7.17294Z" fill="#1DF26D"/>
<path d="M14.3318 42.4186C14.3318 38.359 10.9848 35.093 6.89403 35.2328C3.17516 35.3729 0.153545 38.4058 0.0140868 42.1387C-0.125371 46.2447 3.12867 49.6044 7.17294 49.6044H9.82268C12.3329 49.6044 14.3318 51.6107 14.3318 54.1303V56.6965C14.3318 60.616 17.3999 63.8822 21.2583 63.9756C25.3026 64.1157 28.603 60.8493 28.6495 56.8365C28.6961 52.8237 25.349 49.6044 21.3513 49.6044H18.3761C16.1448 49.6044 14.3318 47.7846 14.3318 45.5447V42.4186Z" fill="#1DF26D"/>
<path d="M26.558 51.7024C23.6759 48.8096 19.0274 48.9028 16.2382 51.8893C13.7279 54.6419 13.7279 58.9346 16.2382 61.6412C19.0274 64.6273 23.6759 64.7207 26.558 61.8277L28.4174 59.9613C30.1839 58.1884 33.0197 58.1884 34.7862 59.9613L36.5989 61.7812C39.3418 64.5339 43.8045 64.6739 46.6402 62.0143C49.5687 59.2149 49.6618 54.5955 46.826 51.7492C44.0369 48.9028 39.3882 48.9494 36.5989 51.7956L34.5071 53.8955C32.9268 55.482 30.3702 55.482 28.7895 53.8955L26.558 51.7024Z" fill="#1DF26D"/>
<path d="M41.7123 49.6034C37.6677 49.6034 34.4137 52.9628 34.5531 57.0691C34.6928 60.8018 37.7143 63.8345 41.4332 63.9745C45.524 64.1146 48.871 60.8484 48.871 56.789V54.1294C48.871 51.6098 50.8698 49.6034 53.3801 49.6034H55.9367C59.8419 49.6034 63.0959 46.5237 63.1887 42.6509C63.3281 38.5913 60.0741 35.2785 56.0764 35.2319C52.0784 35.1853 48.871 38.5449 48.871 42.5577V45.5438C48.871 47.7835 47.0581 49.6034 44.8269 49.6034H41.7123Z" fill="#1DF26D"/>
<path d="M2.10474 37.3785C-0.777395 40.2715 -0.684424 44.9375 2.29068 47.7372C5.03337 50.2569 9.31011 50.2569 12.0063 47.7372C14.9814 44.9375 15.0744 40.2715 12.1922 37.3785L10.3328 35.5121C8.56631 33.7392 8.56631 30.8927 10.3328 29.1198L12.1458 27.3001C14.8885 24.547 15.0279 20.0676 12.3782 17.2213C9.58904 14.2817 4.98688 14.1884 2.15123 17.0347C-0.684422 19.8344 -0.637935 24.5002 2.19772 27.3001L4.28959 29.3997C5.87012 30.9862 5.87012 33.5523 4.28959 35.1388L2.10474 37.3785Z" fill="#1DF26D"/>
<path d="M50.9621 37.3785C48.08 40.2715 48.173 44.9375 51.1482 47.7372C53.8909 50.2569 58.1675 50.2569 60.8638 47.7372C63.8387 44.9375 63.932 40.2715 61.0496 37.3785L59.1903 35.5121C57.4237 33.7392 57.4237 30.8927 59.1903 29.1198L61.0032 27.3001C63.7459 24.547 63.8856 20.0676 61.2357 17.2213C58.4465 14.2817 53.8445 14.1884 51.0087 17.0347C48.173 19.8344 48.2196 24.5002 51.0552 27.3001L53.1469 29.3997C54.7276 30.9862 54.7276 33.5523 53.1469 35.1388L50.9621 37.3785Z" fill="#1DF26D"/>
<path d="M41.7115 14.9348C45.6653 14.9348 48.8704 11.7177 48.8704 7.74915C48.8704 3.78061 45.6653 0.563477 41.7115 0.563477C37.7577 0.563477 34.5527 3.78061 34.5527 7.74915C34.5527 11.7177 37.7577 14.9348 41.7115 14.9348Z" fill="#1DF26D"/>
</g>
<g clip-path="url(#clip1_924_10125)">
<path d="M106.179 61.0482C99.5775 61.0482 94.3247 59.1355 90.4199 55.3559C86.5149 51.5298 84.5625 46.0237 84.5625 38.7447V25.9599C84.5625 18.7275 86.5149 13.1749 90.4199 9.34879C94.3247 5.52266 99.5775 3.65625 106.179 3.65625C112.733 3.65625 117.754 5.476 121.24 9.11548C124.727 12.755 126.493 17.7476 126.493 24.0468V24.4199H119.334V23.8601C119.334 19.8473 118.265 16.5811 116.127 14.0148C113.988 11.4485 110.641 10.142 106.179 10.142C101.67 10.142 98.1365 11.5418 95.6263 14.2948C93.0696 17.0478 91.8144 20.9206 91.8144 25.8199V38.8848C91.8144 43.7843 93.0696 47.6102 95.6263 50.4098C98.183 53.2095 101.67 54.6093 106.179 54.6093C110.688 54.6093 113.988 53.3027 116.127 50.7363C118.265 48.1702 119.334 44.8572 119.334 40.8912V39.6312H126.493V40.6577C126.493 46.9568 124.727 51.9497 121.24 55.589C117.754 59.2287 112.733 61.0482 106.179 61.0482Z" fill="black"/>
<path d="M189.852 59.9756V4.77637H223.926V11.3088H197.011V28.9931H221.09V35.5254H197.011V53.3962H224.344V59.9287H189.852V59.9756Z" fill="black"/>
<path d="M171.398 4.77637L157.452 30.1594H155.639L141.786 4.77637H133.512L152.943 39.305V59.9756H160.148V39.305L179.533 4.77637H171.398Z" fill="black"/>
<path d="M312.899 4.77637H299.745L283.195 59.9287H290.633L294.632 46.3041H317.919L322.009 59.9287H329.401L312.899 4.77637ZM296.49 39.7249L304.903 11.3555H307.739L316.152 39.7249H296.49Z" fill="black"/>
<path d="M244.149 37.5786V59.9756H236.99V4.77637H259.444C262.836 4.77637 265.858 5.38293 268.415 6.54944C271.019 7.71597 273.017 9.39573 274.505 11.5888C275.991 13.7818 276.689 16.3948 276.689 19.4277V20.3142C276.689 23.9071 275.852 26.7066 274.132 28.8064C272.413 30.906 270.415 32.3525 268.042 33.1459V34.2657H269.856C273.62 34.2657 276.642 37.3452 276.642 41.1247V59.9756H269.483V42.1046C269.483 39.6315 267.485 37.5786 264.975 37.5786H244.149ZM244.149 31.0461H258.746C262.14 31.0461 264.789 30.2062 266.695 28.5265C268.601 26.8466 269.53 24.5137 269.53 21.5275V20.9674C269.53 17.9347 268.601 15.5549 266.787 13.8751C264.975 12.1954 262.279 11.3555 258.793 11.3555H244.197V31.0461H244.149Z" fill="black"/>
</g>
<defs>
<clipPath id="clip0_924_10125">
<rect width="63.9375" height="63.9375" fill="white" transform="translate(0 0.5625)"/>
</clipPath>
<clipPath id="clip1_924_10125">
<rect width="245.438" height="57.75" fill="white" transform="translate(84.5625 3.65625)"/>
</clipPath>
</defs>
</svg>
