<svg width="253" height="65" viewBox="0 0 253 65" fill="none" xmlns="http://www.w3.org/2000/svg">
<g clip-path="url(#clip0_853_10087)">
<path fill-rule="evenodd" clip-rule="evenodd" d="M82.4483 45.7513H70.6279V18.6318H82.4483C90.9627 18.6318 95.2263 22.9061 95.2263 31.4514C95.2231 40.9825 90.9627 45.7513 82.4483 45.7513ZM75.6784 41.3857H81.6834C87.3408 41.3857 90.1663 38.0753 90.1663 31.4482C90.1663 25.807 87.3376 22.9848 81.6834 22.9848H75.6784V41.3857Z" fill="#632CA6"/>
<path fill-rule="evenodd" clip-rule="evenodd" d="M100.517 45.7513H95.3271L106.904 18.6318H112.337L124.161 45.7513H118.728L115.295 38.3556H106.563L108.298 33.9932H113.962L109.499 23.8069L100.517 45.7513Z" fill="#632CA6"/>
<path fill-rule="evenodd" clip-rule="evenodd" d="M121.307 18.6318H141.995V22.9911H134.179V45.7513H129.129V22.9911H121.307V18.6318Z" fill="#632CA6"/>
<path fill-rule="evenodd" clip-rule="evenodd" d="M144.594 45.7513H139.404L150.981 18.6318H156.414L168.238 45.7513H162.798L159.366 38.3556H150.634L152.369 33.9932H158.032L153.573 23.8069L144.594 45.7513Z" fill="#632CA6"/>
<path fill-rule="evenodd" clip-rule="evenodd" d="M183.411 45.7513H171.591V18.6318H183.411C191.932 18.6318 196.189 22.9061 196.189 31.4514C196.189 40.9825 191.932 45.7513 183.411 45.7513ZM176.644 41.3857H182.649C188.304 41.3857 191.139 38.0753 191.139 31.4482C191.139 25.807 188.307 22.9848 182.649 22.9848H176.644V41.3857Z" fill="#632CA6"/>
<path fill-rule="evenodd" clip-rule="evenodd" d="M199.612 32.2293C199.612 23.032 204.179 18.4365 213.307 18.4365C222.295 18.4365 226.783 23.032 226.783 32.2293C226.783 41.3731 222.292 45.9465 213.307 45.9465C204.584 45.9465 200.02 41.3731 199.612 32.2293ZM213.307 41.5747C218.794 41.5747 221.54 38.4218 221.54 32.1096C221.54 25.8983 218.794 22.7895 213.307 22.7895C207.675 22.7895 204.859 25.8983 204.859 32.1096C204.859 38.4218 207.675 41.5747 213.307 41.5747Z" fill="#632CA6"/>
<path fill-rule="evenodd" clip-rule="evenodd" d="M247.867 34.7775V41.1274C246.701 41.4298 245.658 41.581 244.738 41.581C238.56 41.581 235.475 38.3241 235.475 31.8136C235.475 25.8007 238.749 22.7989 245.295 22.7989C248.029 22.7989 250.57 23.3061 252.921 24.3171V19.7626C250.57 18.8806 247.899 18.4365 244.912 18.4365C235.124 18.4365 230.229 22.8934 230.229 31.8136C230.229 41.2313 235.039 45.9465 244.663 45.9465C247.972 45.9465 250.721 45.4678 252.921 44.5039V30.3143H244.761L243.054 34.7743L247.867 34.7775Z" fill="#632CA6"/>
<path fill-rule="evenodd" clip-rule="evenodd" d="M50.2113 45.597L44.8795 42.0945L40.4327 49.4964L35.2621 47.9908L30.7077 54.9172L30.9416 57.0968L55.698 52.5517L54.26 37.1368L50.2113 45.597ZM27.1237 38.9542L31.0965 38.4093C31.7381 38.6959 32.1869 38.8061 32.958 39.0014C34.159 39.3132 35.5465 39.6125 37.604 38.5793C38.0813 38.3431 39.08 37.4328 39.4814 36.9163L55.7549 33.9744L57.4142 53.9974L29.5352 59.0055L27.1237 38.9542ZM57.351 31.7381L55.7454 32.0436L52.6607 0.268799L0.0791016 6.34469L6.55818 58.7347L12.7117 57.8433C12.2218 57.144 11.4538 56.2968 10.1485 55.2132C8.33439 53.7139 8.97598 51.1626 10.0474 49.5531C11.4602 46.8349 18.7515 43.3764 18.3375 39.0298C18.1889 37.4486 17.9361 35.3918 16.4633 33.9807C16.4095 34.5665 16.5075 35.1304 16.5075 35.1304C16.5075 35.1304 15.9038 34.3618 15.6004 33.3129C15.3002 32.9098 15.0663 32.7838 14.7471 32.2452C14.5195 32.8657 14.5511 33.587 14.5511 33.587C14.5511 33.587 14.0581 32.4216 13.9759 31.4388C13.682 31.8798 13.6093 32.7145 13.6093 32.7145C13.6093 32.7145 12.9677 30.8782 13.1131 29.8892C12.8192 29.0293 11.95 27.3221 12.1966 23.4416C13.8021 24.5629 17.3356 24.2952 18.7104 22.273C19.1687 21.6021 19.4816 19.7753 18.4828 16.1751C17.8413 13.8663 16.2547 10.4268 15.6352 9.11963L15.5625 9.17317C15.888 10.2252 16.5612 12.4269 16.8204 13.4978C17.6011 16.7389 17.8096 17.8665 17.443 19.3595C17.1301 20.6572 16.3842 21.5076 14.4879 22.4589C12.5916 23.4132 10.0758 21.0919 9.91465 20.9659C8.07207 19.5044 6.64667 17.1169 6.48865 15.9578C6.3243 14.6884 7.22189 13.9262 7.677 12.8899C7.0291 13.0757 6.30534 13.4033 6.30534 13.4033C6.30534 13.4033 7.16816 12.5119 8.23325 11.7434C8.67573 11.4536 8.93173 11.2678 9.39633 10.8835C8.72314 10.874 8.17637 10.8898 8.17637 10.8898C8.17637 10.8898 9.29835 10.285 10.4614 9.84722C9.61124 9.80943 8.79583 9.84092 8.79583 9.84092C8.79583 9.84092 11.299 8.72591 13.2743 7.90697C14.6333 7.35261 15.9607 7.5164 16.7066 8.59047C17.6864 9.99841 18.7136 10.7638 20.8943 11.2394C22.2344 10.6473 22.6389 10.3449 24.3203 9.88817C25.7995 8.26604 26.9625 8.05501 26.9625 8.05501C26.9625 8.05501 26.3873 8.58102 26.2324 9.40941C27.0731 8.75111 27.9929 8.1999 27.9929 8.1999C27.9929 8.1999 27.6357 8.63771 27.3039 9.33381L27.3797 9.4472C28.3595 8.86135 29.5099 8.40148 29.5099 8.40148C29.5099 8.40148 29.1812 8.81725 28.7956 9.35271C29.5352 9.34641 31.0333 9.38421 31.6117 9.45035C35.044 9.52595 35.7551 5.79663 37.073 5.33047C38.7228 4.74461 39.4592 4.38869 42.2689 7.13843C44.6804 9.50075 46.5641 13.7246 45.6286 14.6727C44.8448 15.4569 43.2961 14.3671 41.5831 12.2347C40.676 11.1071 39.9934 9.77478 39.671 8.08021C39.3992 6.65021 38.3467 5.82183 38.3467 5.82183C38.3467 5.82183 38.9567 7.17937 38.9567 8.37628C38.9567 9.03143 39.0389 11.4756 40.0913 12.8458C39.987 13.0474 39.9396 13.838 39.8227 13.9892C38.5996 12.5151 35.97 11.4599 35.5433 11.1481C36.994 12.3324 40.3284 15.0538 41.6084 17.6618C42.8189 20.128 42.1046 22.3896 42.7177 22.9754C42.8916 23.1424 45.322 26.1598 45.7898 27.678C46.6052 30.3207 45.8372 33.0988 44.7721 34.8217L41.7917 35.2847C41.3556 35.165 41.0616 35.102 40.6697 34.8784C40.8846 34.4973 41.3145 33.5492 41.3176 33.3539L41.1501 33.061C40.2209 34.3713 38.6691 35.6438 37.3765 36.3745C35.6856 37.3289 33.7387 37.1809 32.4713 36.7903C28.8715 35.6847 25.4676 33.2594 24.649 32.6231C24.649 32.6231 24.6237 33.1303 24.7786 33.2468C25.6857 34.2673 27.7653 36.1131 29.7754 37.3982L25.4929 37.8675L27.5188 53.5817C26.6212 53.7108 26.4821 53.7738 25.4992 53.9124C24.6332 50.8634 22.9771 48.8696 21.1661 47.7105C19.5701 46.6868 17.3672 46.4569 15.2559 46.8727L15.12 47.0302C16.5865 46.879 18.3185 47.09 20.0947 48.2113C21.8393 49.3106 23.2457 52.1517 23.7641 53.862C24.4278 56.0479 24.8861 58.385 23.1004 60.8639C21.8298 62.6246 18.1257 63.5979 15.1295 61.4939C15.9291 62.7758 17.01 63.8247 18.4639 64.02C20.6257 64.3129 22.6769 63.9381 24.0864 62.4955C25.2906 61.2608 25.9322 58.678 25.7615 55.9597L27.6673 55.6857L28.3563 60.5647L59.9236 56.7755L57.351 31.7381ZM38.1445 18.4839C38.056 18.6855 37.9169 18.8146 38.1255 19.4666L38.1381 19.5044L38.1697 19.5894L38.2551 19.7847C38.6312 20.547 39.042 21.2683 39.7279 21.6368C39.9049 21.6084 40.0913 21.5864 40.281 21.5769C40.9257 21.5486 41.3334 21.6494 41.5926 21.7911C41.6147 21.662 41.621 21.4761 41.6052 21.199C41.5547 20.232 41.798 18.5878 39.9333 17.7216C39.2285 17.3972 38.2424 17.4948 37.9137 17.9043C37.9738 17.9106 38.0275 17.9232 38.0686 17.939C38.5711 18.109 38.2361 18.2791 38.1445 18.4839ZM43.372 27.5079C43.1286 27.3725 41.9845 27.426 41.1817 27.5205C39.652 27.7001 37.9991 28.2292 37.6356 28.5096C36.9782 29.0167 37.2753 29.9018 37.762 30.264C39.1274 31.2782 40.3221 31.9617 41.5831 31.7948C42.3574 31.694 43.0401 30.4719 43.5237 29.36C43.8587 28.5978 43.8587 27.7757 43.372 27.5079ZM29.8228 19.6808C30.2558 19.2713 27.6736 18.7358 25.6699 20.0965C24.1939 21.1013 24.1465 23.2558 25.5593 24.4747C25.7015 24.5944 25.8184 24.6826 25.9259 24.7519C26.3399 24.5566 26.8108 24.3613 27.3513 24.1881C28.2678 23.892 29.0263 23.7377 29.6521 23.6589C29.9524 23.3251 30.3 22.7392 30.2115 21.6777C30.0946 20.232 28.9979 20.4619 29.8228 19.6808Z" fill="#632CA6"/>
</g>
<defs>
<clipPath id="clip0_853_10087">
<rect width="253" height="64" fill="white" transform="translate(0 0.189941)"/>
</clipPath>
</defs>
</svg>
