<svg width="185" height="63" viewBox="0 0 185 63" fill="none" xmlns="http://www.w3.org/2000/svg">
<mask id="mask0_928_10173" style="mask-type:luminance" maskUnits="userSpaceOnUse" x="0" y="0" width="184" height="63">
<path d="M183.762 0H0V63H183.762V0Z" fill="white"/>
</mask>
<g mask="url(#mask0_928_10173)">
<path d="M63.2405 33.0101C63.2405 27.7178 59.9528 23.067 55.008 21.2762C55.2219 20.1535 55.3288 19.031 55.3288 17.8816C55.3288 8.01867 47.3102 0 37.4738 0C31.7005 0 26.3546 2.75308 22.9868 7.4039C21.3296 6.12092 19.2983 5.42597 17.1867 5.42597C11.9478 5.42597 7.69792 9.67587 7.69792 14.9147C7.69792 16.0641 7.91174 17.1867 8.28595 18.2291C3.36784 19.9932 0 24.7242 0 29.9899C0 35.3088 3.31438 39.9596 8.25922 41.7506C8.0454 42.8465 7.93847 43.9957 7.93847 45.1452C7.93847 54.9814 15.9303 62.9732 25.7667 62.9732C31.5402 62.9732 36.8859 60.1935 40.2269 55.5427C41.8841 56.8523 43.9156 57.574 46.0272 57.574C51.2659 57.574 55.5159 53.3241 55.5159 48.0852C55.5159 46.9359 55.302 45.8133 54.9278 44.771C59.8459 43.0068 63.2405 38.2758 63.2405 33.0101Z" fill="white"/>
<path d="M24.8578 27.1291L38.7034 33.4371L52.6559 21.1953C52.8698 20.1795 52.9499 19.1906 52.9499 18.1213C52.9499 9.51469 45.9468 2.51172 37.3403 2.51172C32.1815 2.51172 27.3971 5.05097 24.4837 9.30085L22.1582 21.3556L24.8578 27.1291Z" fill="#FED10A"/>
<path d="M10.5303 41.7777C10.3165 42.7934 10.2363 43.8357 10.2363 44.905C10.2363 53.5383 17.2661 60.5413 25.8994 60.5413C31.0848 60.5413 35.9227 57.9753 38.8362 53.6987L41.1349 41.6975L38.0611 35.8171L24.1621 29.4824L10.5303 41.7777Z" fill="#24BBB1"/>
<path d="M10.4505 17.8284L19.9393 20.0736L22.0241 9.30187C20.7411 8.31289 19.1374 7.77832 17.4802 7.77832C13.3639 7.77832 9.99609 11.1194 9.99609 15.2624C9.99609 16.1444 10.1565 17.0264 10.4505 17.8284Z" fill="#EF5098"/>
<path d="M9.62367 20.0996C5.4005 21.4895 2.43359 25.5523 2.43359 30.0161C2.43359 34.3729 5.13321 38.2485 9.16929 39.7988L22.4803 27.7708L20.0479 22.5587L9.62367 20.0996Z" fill="#1BA9F5"/>
<path d="M41.2422 53.6971C42.552 54.6861 44.129 55.2474 45.7594 55.2474C49.8757 55.2474 53.2435 51.9063 53.2435 47.7633C53.2435 46.8545 53.0832 45.9725 52.7891 45.1707L43.3272 42.9521L41.2422 53.6971Z" fill="#93C83E"/>
<path d="M43.1672 40.4671L53.5915 42.8993C57.8413 41.5094 60.7815 37.4467 60.7815 32.9562C60.7815 28.6261 58.0819 24.7237 54.0458 23.2002L40.4141 35.148L43.1672 40.4671Z" fill="#0077CC"/>
<path d="M88.4205 44.2361L89.6768 44.1024L89.7569 46.6684C86.4425 47.1227 83.6092 47.3632 81.2571 47.3632C78.1298 47.3632 75.9113 46.4545 74.6017 44.6369C73.2919 42.8194 72.6504 39.9861 72.6504 36.1639C72.6504 28.5195 75.6975 24.6973 81.7649 24.6973C84.7051 24.6973 86.8969 25.5259 88.3402 27.1563C89.7837 28.7868 90.5054 31.3794 90.5054 34.8809L90.3183 37.3667H75.938C75.938 39.7722 76.3657 41.5632 77.2478 42.7124C78.1298 43.8619 79.6267 44.4498 81.7917 44.4498C83.9835 44.5034 86.1752 44.4232 88.4205 44.2361ZM87.2443 34.8007C87.2443 32.1278 86.8167 30.2301 85.9613 29.1342C85.1061 28.0383 83.7162 27.477 81.7917 27.477C79.8672 27.477 78.3971 28.0651 77.4349 29.2144C76.4726 30.3638 75.9648 32.2347 75.938 34.8007H87.2443Z" fill="#1C1E23"/>
<path d="M95.0488 46.9633V15.6904H98.3099V46.9633H95.0488Z" fill="#1C1E23"/>
<path d="M118.917 31.7543V42.4727C118.917 43.5685 121.616 43.7824 121.616 43.7824L121.456 46.6691C119.157 46.6691 117.259 46.8562 116.11 45.7603C113.491 46.9096 110.898 47.3907 108.278 47.3907C106.274 47.3907 104.75 46.8294 103.708 45.6801C102.665 44.5575 102.131 42.927 102.131 40.7888C102.131 38.6772 102.665 37.1002 103.735 36.1112C104.804 35.1223 106.488 34.4808 108.786 34.2669L115.629 33.6254V31.7543C115.629 30.2844 115.308 29.2151 114.667 28.5736C114.025 27.9321 113.143 27.6114 112.047 27.6114H103.467V24.7246H111.833C114.292 24.7246 116.083 25.2859 117.206 26.4354C118.355 27.5579 118.917 29.3488 118.917 31.7543ZM105.499 40.6283C105.499 43.3013 106.595 44.6376 108.813 44.6376C110.791 44.6376 112.742 44.317 114.64 43.6487L115.629 43.3013V36.1112L109.187 36.726C107.878 36.8329 106.942 37.2071 106.354 37.8486C105.766 38.4901 105.499 39.4255 105.499 40.6283Z" fill="#1C1E23"/>
<path d="M131.667 27.6378C128.513 27.6378 126.909 28.7337 126.909 30.9522C126.909 31.9678 127.284 32.6896 128.005 33.1172C128.727 33.5448 130.384 33.9724 132.977 34.4268C135.57 34.8812 137.387 35.4961 138.456 36.3247C139.526 37.1265 140.06 38.65 140.06 40.8954C140.06 43.1405 139.338 44.771 137.895 45.8135C136.452 46.8558 134.367 47.3903 131.587 47.3903C129.796 47.3903 123.782 46.7222 123.782 46.7222L123.969 43.889C127.417 44.2096 129.93 44.4769 131.614 44.4769C133.298 44.4769 134.581 44.2096 135.463 43.6751C136.345 43.1405 136.799 42.2317 136.799 40.9755C136.799 39.7191 136.425 38.8639 135.677 38.4095C134.928 37.9551 133.271 37.5275 130.705 37.1265C128.139 36.7255 126.321 36.1376 125.252 35.3358C124.183 34.5606 123.648 33.0904 123.648 30.9788C123.648 28.8672 124.397 27.2903 125.894 26.2746C127.39 25.2589 129.262 24.751 131.48 24.751C133.244 24.751 139.392 25.2054 139.392 25.2054V28.0654C136.158 27.8783 133.512 27.6378 131.667 27.6378Z" fill="#1C1E23"/>
<path d="M155.83 28.0126H148.907V38.4369C148.907 40.9227 149.094 42.5799 149.442 43.355C149.816 44.1302 150.671 44.531 152.034 44.531L155.91 44.2638L156.124 46.9635C154.173 47.2841 152.703 47.4445 151.687 47.4445C149.415 47.4445 147.865 46.8831 146.983 45.7872C146.101 44.6914 145.673 42.5799 145.673 39.4794V28.0126H142.572V25.1793H145.673V18.4971H148.907V25.1527H155.83V28.0126Z" fill="#1C1E23"/>
<path d="M160.373 20.2337V16.4648H163.635V20.2603L160.373 20.2337ZM160.373 46.9625V25.1785H163.635V46.9625H160.373Z" fill="#1C1E23"/>
<path d="M177.801 24.7246C178.763 24.7246 180.393 24.9117 182.693 25.2593L183.734 25.3929L183.601 28.039C181.275 27.7718 179.565 27.6382 178.468 27.6382C176.01 27.6382 174.326 28.2261 173.444 29.4022C172.562 30.5783 172.107 32.77 172.107 35.9507C172.107 39.1316 172.509 41.35 173.337 42.6064C174.166 43.8626 175.876 44.4773 178.495 44.4773L183.628 44.0765L183.76 46.776C181.061 47.177 179.031 47.3907 177.694 47.3907C174.299 47.3907 171.946 46.5087 170.664 44.7714C169.381 43.034 168.713 40.0938 168.713 35.9507C168.713 31.8079 169.407 28.8944 170.798 27.2372C172.214 25.58 174.54 24.7246 177.801 24.7246Z" fill="#1C1E23"/>
</g>
</svg>
