<svg width="296" height="64" viewBox="0 0 296 64" fill="none" xmlns="http://www.w3.org/2000/svg">
<path fill-rule="evenodd" clip-rule="evenodd" d="M2.89865 44.8704C1.2369 43.9376 1.23691 41.5455 2.89865 40.6125L18.2402 32.0001L2.89865 23.3877C1.2369 22.4547 1.23691 20.0626 2.89865 19.1298L35.1015 1.0518C36.586 0.218409 38.3976 0.218413 39.8821 1.0518L72.0851 19.1298C73.7469 20.0626 73.7469 22.4547 72.0849 23.3877L56.7434 32.0001L72.0851 40.6125C73.7469 41.5455 73.7469 43.9376 72.0849 44.8704L39.8821 62.9485C38.3976 63.7818 36.586 63.7818 35.1015 62.9485L2.89865 44.8704ZM38.1081 4.21187L68.4743 21.2586L56.3419 28.0696C54.5272 19.3222 46.7771 12.7485 37.4918 12.7485C28.2065 12.7485 20.4564 19.3222 18.6418 28.0696L6.50946 21.2586L36.8755 4.21185C37.2584 3.99699 37.7254 3.99699 38.1081 4.21187ZM37.4918 16.3725C45.4057 16.3725 51.9457 22.255 52.9777 29.8861L39.8821 22.5346C38.3976 21.7013 36.586 21.7013 35.1015 22.5346L22.0059 29.8863C23.0379 22.2552 29.5777 16.3725 37.4918 16.3725ZM35.1015 41.4656L22.0059 34.1139C23.0379 41.745 29.5777 47.6277 37.4918 47.6277C45.4057 47.6277 51.9457 41.7452 52.9777 34.1141L39.8821 41.4656C38.3976 42.2989 36.586 42.2989 35.1015 41.4656ZM37.4918 51.2517C28.2065 51.2517 20.4564 44.678 18.6418 35.9306L6.50946 42.7415L36.8755 59.7884C37.2584 60.0033 37.7254 60.0033 38.1081 59.7884L68.4743 42.7415L56.3419 35.9306C54.5272 44.678 46.7771 51.2517 37.4918 51.2517ZM49.3403 32.0001L38.1081 38.3055C37.7254 38.5204 37.2584 38.5204 36.8755 38.3055L25.6435 32.0001L36.8755 25.6947C37.2584 25.4798 37.7254 25.4798 38.1081 25.6947L49.3403 32.0001Z" fill="#E2491C"/>
<path fill-rule="evenodd" clip-rule="evenodd" d="M110.728 54.0731C106.443 54.0731 102.694 53.1711 99.4805 51.3669C96.2667 49.5064 93.7578 46.9129 91.9536 43.5865C90.2058 40.2036 89.332 36.3416 89.332 32.0002C89.332 27.6025 90.1776 23.7404 91.8691 20.414C93.6169 17.0876 96.0412 14.5223 99.1421 12.7181C102.243 10.8575 105.795 9.92725 109.798 9.92725C113.745 9.92725 117.24 10.7448 120.285 12.3798C123.329 14.0148 125.726 16.3828 127.473 19.4837C129.221 22.5847 130.151 26.2213 130.264 30.3933C130.264 31.3707 130.203 32.3821 130.095 33.3533H96.6049V33.9453C96.6614 36.708 97.2534 39.1605 98.3809 41.3031C99.5649 43.3891 101.172 45.0242 103.202 46.208C105.231 47.3358 107.571 47.8996 110.221 47.8996C113.322 47.8996 115.944 47.1385 118.086 45.616C120.285 44.0376 121.751 41.8669 122.484 39.1042H129.503C128.939 41.9796 127.783 44.5731 126.036 46.8847C124.344 49.1398 122.174 50.9158 119.524 52.2127C116.93 53.4529 113.998 54.0731 110.728 54.0731ZM109.883 16.0163C107.74 16.0163 105.739 16.4956 103.878 17.4541C102.018 18.4125 100.467 19.7938 99.2267 21.598C97.9863 23.3458 97.2534 25.3473 97.0278 27.6025H123.076C122.737 23.9378 121.356 21.0906 118.932 19.0609C116.564 17.0312 113.547 16.0163 109.883 16.0163Z" fill="#E2491C"/>
<path fill-rule="evenodd" clip-rule="evenodd" d="M195.424 54.0731C191.139 54.0731 187.389 53.1711 184.176 51.3669C180.962 49.5064 178.453 46.9129 176.649 43.5865C174.901 40.2036 174.027 36.3416 174.027 32.0002C174.027 27.6025 174.873 23.7404 176.564 20.414C178.312 17.0876 180.736 14.5223 183.838 12.7181C186.938 10.8575 190.49 9.92725 194.493 9.92725C198.44 9.92725 201.935 10.7448 204.98 12.3798C208.025 14.0148 210.42 16.3828 212.169 19.4837C213.917 22.5847 214.846 26.2213 214.959 30.3933C214.959 31.3707 214.898 32.3821 214.791 33.3533H181.3V33.9453C181.357 36.708 181.949 39.1605 183.076 41.3031C184.26 43.3891 185.867 45.0242 187.897 46.208C189.927 47.3358 192.266 47.8996 194.916 47.8996C198.018 47.8996 200.638 47.1385 202.781 45.616C204.98 44.0376 206.446 41.8669 207.18 39.1042H214.199C213.635 41.9796 212.478 44.5731 210.732 46.8847C209.039 49.1398 206.868 50.9158 204.22 52.2127C201.625 53.4529 198.695 54.0731 195.424 54.0731ZM194.578 16.0163C192.436 16.0163 190.434 16.4956 188.573 17.4541C186.713 18.4125 185.162 19.7938 183.922 21.598C182.682 23.3458 181.949 25.3473 181.723 27.6025H207.772C207.433 23.9378 206.051 21.0906 203.628 19.0609C201.26 17.0312 198.243 16.0163 194.578 16.0163Z" fill="#E2491C"/>
<path d="M258.534 10.4347L259.475 16.3039C260.76 14.6809 262.364 13.2883 264.286 12.1261C266.767 10.6602 269.895 9.92725 273.674 9.92725C278.917 9.92725 283.116 11.5059 286.273 14.6632C289.488 17.8205 291.094 22.782 291.094 29.5478V53.5658H284.16V29.9705C284.16 25.5164 283.146 22.1336 281.115 19.822C279.142 17.4541 276.267 16.2701 272.49 16.2701C269.782 16.2701 267.444 16.9184 265.47 18.2152C263.552 19.4556 262.059 21.2598 260.987 23.6278C259.973 25.9958 259.466 28.7865 259.466 32.0002V53.5658H252.531V10.4347H258.534Z" fill="#E2491C"/>
<path d="M218.332 10.4341V16.7769H230.511V47.2223H218.332V53.5652H247.456V47.2223H237.446V16.0094C237.446 12.9302 234.949 10.4341 231.869 10.4341H218.332Z" fill="#E2491C"/>
<path d="M141.008 10.4346H132.721L148.028 31.4081L131.621 53.5656H139.317L152.003 36.2287L164.688 53.5656H172.976L156.485 31.4081L171.877 10.4346H164.181L152.51 26.4185L141.008 10.4346Z" fill="#E2491C"/>
</svg>
