<svg width="199" height="62" viewBox="0 0 199 62" fill="none" xmlns="http://www.w3.org/2000/svg">
<path fill-rule="evenodd" clip-rule="evenodd" d="M35.611 54.1198C40.156 49.5056 45.3707 42.1081 46.3166 35.3625C48.1212 22.4856 40.1044 17.3343 34.8007 16.3187C29.5583 15.3148 25.2072 17.3085 22.4 21.9838C22.1015 22.4809 21.6206 22.8487 21.0533 22.9631L19.6099 23.2542C19.4834 23.2651 19.3538 23.3028 19.2271 23.3562C18.5178 23.6557 18.2998 24.4771 18.4354 25.2738C18.4528 25.376 18.4674 25.4674 18.4807 25.5499C18.5706 26.1107 18.5952 26.2639 18.9738 26.6435C19.4081 27.0789 24.9047 28.1185 24.9047 28.1185C27.4736 28.48 28.3278 30.1382 28.019 32.3368C27.7115 34.5354 23.8817 38.5212 18.2508 37.7501C11.7206 36.856 7.33689 30.2886 8.34326 23.3473C9.5413 15.0844 16.9739 11.3075 22.237 12.0484C23.6113 12.2421 24.8128 12.4801 25.909 12.6973C29.458 13.4005 31.9029 13.885 35.5334 11.9367C35.8055 11.7908 35.7966 11.395 35.5195 11.258C25.2805 6.21251 23.6164 5.26481 21.9409 0.544121C21.8637 0.32718 21.6106 0.224419 21.4069 0.332255C18.7834 1.71274 17.9818 3.68374 17.2207 5.55526C16.5136 7.29381 15.8414 8.94651 13.776 9.96011C9.11018 12.2488 2.0969 17.1534 0.494797 28.5866C-0.526448 35.8725 2.87038 49.8941 18.3761 53.7173C20.1586 54.1573 21.8939 54.3678 23.57 54.3818C24.1968 56.2728 24.4019 58.8368 24.1536 61.0193C24.0938 61.5448 24.6201 61.9598 25.0893 61.7183C27.1743 60.6453 31.7442 58.0453 35.611 54.1198ZM33.77 21.3561C34.781 21.4986 35.4806 22.4694 35.3327 23.5246C35.1848 24.5798 34.2453 25.3197 33.2343 25.1772C32.2234 25.0348 31.5238 24.0639 31.6716 23.0088C31.8196 21.9536 32.7591 21.2137 33.77 21.3561Z" fill="#E64F4B"/>
<path d="M71.6967 55.2298C78.6392 55.2298 83.0237 51.4038 83.0237 44.9731V24.3781H77.1774V27.0237H76.7714C75.1475 24.9886 72.9959 23.7676 69.9914 23.7676C64.2264 23.7676 60.207 28.0819 60.207 34.7977C60.207 41.2285 64.2668 45.5022 70.0318 45.5022C72.8333 45.5022 74.9445 44.4032 76.6093 42.4903H77.0153V44.8103C77.0153 48.2292 74.8632 50.4268 71.5341 50.4268C68.9356 50.4268 67.0274 49.0432 66.2563 46.7639L60.4504 47.9036C61.4654 52.5843 65.6474 55.2298 71.6967 55.2298ZM71.7371 40.5773C68.5296 40.5773 66.2154 38.1352 66.2154 34.7977C66.2154 31.3788 68.5296 28.896 71.7371 28.896C74.9445 28.896 77.2183 31.3788 77.2183 34.7977C77.2183 38.1352 74.9445 40.5773 71.7371 40.5773Z" fill="#101828"/>
<path d="M93.2685 45.7461C96.232 45.7461 98.6275 44.6471 99.9267 42.5714H100.333V45.217H106.342V31.4599C106.342 26.7385 102.566 23.7266 96.638 23.7266C90.7917 23.7266 87.0162 26.6571 87.0162 31.2157H92.9029C92.8625 29.1399 94.3647 27.9188 96.5567 27.9188C98.9522 27.9188 100.333 29.262 100.333 31.2564V32.1111L95.9073 32.6402C89.3708 33.4542 86.082 35.8556 86.082 39.763C86.082 43.5075 89.0052 45.7461 93.2685 45.7461ZM95.258 41.798C93.1872 41.798 91.9692 40.8212 91.9692 39.2746C91.9692 37.85 93.1059 36.6697 96.0699 36.3033L100.333 35.7742V37.2395C100.333 39.8444 98.2619 41.798 95.258 41.798Z" fill="#101828"/>
<path d="M110.453 45.2178H116.462V34.554C116.462 31.3386 118.248 29.1407 120.887 29.1407C121.74 29.1407 123.12 29.3849 124.297 29.9141V24.5008C123.648 24.1752 122.795 23.9717 121.943 23.9717C119.75 23.9717 117.72 25.2741 116.827 27.2278H116.381V24.3787H110.453V45.2178Z" fill="#101828"/>
<path d="M127.299 45.2173H133.307V33.4952C133.307 30.8496 135.297 28.9367 137.692 28.9367C140.128 28.9367 141.59 30.7275 141.59 33.2917V45.2173H147.598V32.437C147.598 27.4307 144.472 23.7676 139.763 23.7676C137.245 23.7676 135.256 24.9479 133.713 27.3086H133.307V24.3781H127.299V45.2173Z" fill="#101828"/>
<path d="M162.273 45.8682C167.307 45.8682 171.327 43.5889 172.626 39.8444L167.51 38.5419C166.617 40.2514 164.83 41.391 162.516 41.391C159.553 41.391 157.482 39.4781 156.995 36.5476H173.316C173.397 36.0998 173.397 35.2451 173.397 34.716C173.397 28.1631 168.85 23.7266 162.232 23.7266C155.533 23.7266 150.783 28.1224 150.783 34.6346C150.783 41.3503 155.533 45.8682 162.273 45.8682ZM156.954 32.803C157.441 30.0353 159.35 28.2038 162.07 28.2038C164.871 28.2038 166.901 30.1574 167.266 32.803H156.954Z" fill="#101828"/>
<path d="M184.859 45.8682C186.036 45.8682 187.741 45.624 188.918 45.217V40.9026C188.228 41.0654 187.335 41.1875 186.767 41.1875C185.062 41.1875 184.006 40.0072 184.006 38.257V28.7736H188.756V24.3778H184.006L184.047 17.7842H179.337L178.159 24.3778H175.074V28.7736H177.997V38.5012C177.997 42.897 180.677 45.8682 184.859 45.8682Z" fill="#101828"/>
</svg>
