<svg width="302" height="65" viewBox="0 0 302 65" fill="none" xmlns="http://www.w3.org/2000/svg">
<g clip-path="url(#clip0_853_10106)">
<path fill-rule="evenodd" clip-rule="evenodd" d="M38.1033 38.9508H28.0859V31.3865H49.3416V51.8596C43.0564 53.7521 36.5242 54.6763 29.9657 54.6009C13.0262 54.6009 4.50684 47.7069 4.50684 34.0735C4.50684 20.6165 13.1445 13.0466 28.8095 13.0466C41.9787 13.0466 48.7852 17.4844 49.3419 26.4466H37.1592C36.9952 22.7499 33.7896 20.4483 28.473 20.4483C20.6124 20.4483 16.2369 25.1113 16.2369 33.4628C16.2369 42.322 20.7279 46.8085 29.6294 46.8085C32.4914 46.7812 35.3382 46.3844 38.1004 45.6278L38.1033 38.9508Z" fill="#FF6C01"/>
<path fill-rule="evenodd" clip-rule="evenodd" d="M55.8443 53.4228H65.9692V26.0285H55.8443V53.4228ZM55.4248 21.8297H66.3377V14.1322H55.4248L55.4248 21.8297ZM89.2635 46.3959C90.2942 46.5258 91.3406 46.4169 92.3233 46.0775C93.306 45.7381 94.1991 45.1771 94.9348 44.4372C95.6706 43.6972 96.2295 42.7978 96.5693 41.8072C96.909 40.8165 97.0206 39.7608 96.8955 38.7201C96.9931 37.7016 96.8649 36.674 96.5202 35.7117C96.1755 34.7494 95.6229 33.8766 94.9026 33.1565C94.1822 32.4365 93.3121 31.8873 92.3554 31.5487C91.3986 31.2102 90.3792 31.0907 89.3711 31.1991C88.3347 31.1121 87.2922 31.2594 86.3194 31.6303C85.3465 32.0011 84.4679 32.5863 83.7474 33.3431C83.0269 34.1 82.4826 35.0094 82.1543 36.0053C81.826 37.0012 81.7218 38.0585 81.8494 39.1001C81.7947 40.0888 81.9506 41.0778 82.3065 42.0006C82.6624 42.9234 83.21 43.7585 83.9125 44.4498C84.615 45.1411 85.456 45.6724 86.379 46.0081C87.3021 46.3438 88.2856 46.4761 89.2635 46.3959ZM97.3905 25.8385H107.556C107.301 27.9294 107.176 30.0343 107.182 32.1409V46.2927C107.698 50.5658 106.824 54.8926 104.692 58.6206C101.653 62.6484 96.2448 64.4724 88.072 64.4724C77.8933 64.4724 72.7488 61.2615 72.6466 54.6986H82.9303C83.0406 57.1875 84.8746 58.4496 88.3949 58.4496C94.1364 58.4496 96.7853 55.795 96.7853 50.1632V47.8425C95.3201 49.4398 93.5218 50.6889 91.5202 51.4996C89.5186 52.3102 87.3635 52.6621 85.2108 52.5299C83.3897 52.6712 81.5595 52.4245 79.839 51.8057C78.1185 51.187 76.5461 50.21 75.2239 48.9382C73.9017 47.6665 72.8592 46.1283 72.1641 44.4236C71.469 42.7189 71.1368 40.8857 71.1891 39.0431C71.1891 30.4771 76.6026 25.1788 85.6922 25.1788C87.8079 25.1759 89.9029 25.5987 91.8548 26.4227C93.8066 27.2467 95.5761 28.4553 97.0596 29.9777C97.04 28.5895 97.1517 27.2026 97.3929 25.8359M133.655 41.4233C125.713 41.4233 122.069 42.2593 122.069 45.4023C122.069 47.4787 123.812 48.5426 127.303 48.5426C131.917 48.5426 134.478 46.2491 134.478 42.0367V41.4233H133.655ZM122.013 54.6495C114.994 54.6495 111.194 51.4604 111.194 46.1378C111.137 44.5575 111.501 42.9905 112.246 41.5997C112.992 40.2089 114.093 39.0449 115.435 38.2287C118.151 36.4916 122.777 36.2717 129.411 36.2717H134.478C134.478 35.9895 134.529 35.7072 134.529 35.4928C134.529 32.4093 132.735 30.7782 129.411 30.7782C125.765 30.7782 123.923 31.6739 123.535 34.198H112.929C113.633 27.9283 119.02 25.1814 129.578 25.1814C139.757 25.1814 144.592 28.4819 144.592 35.9296V50.2796C144.547 51.5354 144.733 52.7887 145.14 53.9763H135.403C134.937 52.8229 134.713 51.5844 134.746 50.3394V49.8292C133.146 51.583 131.16 52.9329 128.949 53.7702C126.737 54.6075 124.361 54.9087 122.013 54.6495ZM149.099 32.3199C149.127 30.1529 149.019 27.9862 148.776 25.8329H159.2C159.415 27.3203 159.587 28.8023 159.695 30.2843C161.129 28.6469 162.897 27.3428 164.879 26.4619C166.86 25.581 169.007 25.1442 171.172 25.1816C173.216 24.9179 175.289 25.3321 177.079 26.3617C178.869 27.3914 180.279 28.9806 181.096 30.8896C182.353 29.0544 184.049 27.5691 186.026 26.5713C188.003 25.5735 190.198 25.0956 192.407 25.1817C200.179 25.1817 204.546 29.2394 204.546 36.8799V53.4228H194.009V36.6056C194.071 35.8882 193.974 35.1658 193.724 34.4912C193.474 33.8166 193.078 33.2067 192.565 32.7061C192.052 32.2055 191.435 31.8268 190.759 31.5975C190.082 31.3682 189.363 31.2942 188.655 31.3808C184.078 31.3808 181.978 34.0217 181.978 39.4013V53.4228H171.554V36.6056C171.615 35.8983 171.52 35.1861 171.277 34.5198C171.034 33.8536 170.648 33.2496 170.147 32.7508C169.647 32.2519 169.043 31.8706 168.38 31.6338C167.717 31.3971 167.01 31.3107 166.31 31.3808C161.62 31.3808 159.531 34.0217 159.531 39.4013V53.4228H149.096L149.099 32.3199ZM234.66 39.6645C234.66 34.1817 231.688 30.8271 227.006 30.8271C222.141 30.8271 219.334 33.962 219.334 39.613C219.334 45.3074 222.034 48.3798 227.052 48.3798C231.739 48.3798 234.66 45.0793 234.66 39.6645ZM208.184 39.8898C208.184 30.4987 214.636 25.1789 226.95 25.1789C239.245 25.1789 245.767 30.4987 245.767 40.0011C245.767 49.6691 239.302 54.6496 226.504 54.6496C214.475 54.6496 208.184 49.3379 208.184 39.8898ZM248.528 32.32C248.559 30.1525 248.446 27.9854 248.192 25.8329H258.565C258.741 27.2919 258.83 28.7602 258.834 30.23C260.279 28.5797 262.068 27.2716 264.072 26.399C266.075 25.5264 268.245 25.1107 270.427 25.1816C271.97 25.0021 273.533 25.1691 275.004 25.6706C276.475 26.172 277.819 26.9956 278.938 28.0823C280.057 29.169 280.924 30.492 281.478 31.9566C282.031 33.4211 282.257 34.991 282.138 36.5539V53.4225H271.774V37.0479C271.868 36.2745 271.785 35.4897 271.531 34.7539C271.277 34.018 270.86 33.3507 270.31 32.8033C269.761 32.2559 269.095 31.843 268.362 31.5964C267.63 31.3497 266.851 31.276 266.086 31.3807C261.135 31.3807 258.833 34.0216 258.833 39.4011V53.4226H248.528L248.528 32.32ZM290.359 20.4643H292.024C292.588 20.5193 293.156 20.394 293.646 20.1061C293.786 19.9919 293.899 19.846 293.973 19.68C294.048 19.5141 294.083 19.3328 294.076 19.1506C294.077 18.9092 294.007 18.6728 293.874 18.4721C293.727 18.2659 293.522 18.109 293.285 18.0215C292.839 17.8956 292.376 17.8452 291.914 17.8723H290.359V20.4643ZM288.988 25.2956V16.7133H291.903C292.631 16.6791 293.361 16.7588 294.065 16.9495C294.502 17.0977 294.878 17.3903 295.13 17.78C295.389 18.1484 295.531 18.5877 295.536 19.0394C295.537 19.3439 295.479 19.6456 295.365 19.9274C295.25 20.2092 295.082 20.4654 294.869 20.6815C294.4 21.1578 293.77 21.4363 293.105 21.4605C293.371 21.5692 293.617 21.7235 293.831 21.9164C294.305 22.4385 294.724 23.0088 295.082 23.6182L296.114 25.301H294.447L293.694 23.9439C293.337 23.1984 292.852 22.5229 292.261 21.9489C291.939 21.7296 291.553 21.6254 291.166 21.6532H290.359V25.3011H288.988L288.988 25.2956ZM292.449 14.2217C291.316 14.228 290.203 14.526 289.216 15.0875C288.179 15.6492 287.326 16.5049 286.764 17.5493C286.183 18.5574 285.875 19.7022 285.871 20.8685C285.867 22.0349 286.168 23.1817 286.742 24.1936C287.304 25.2341 288.151 26.0896 289.181 26.6581C290.175 27.2378 291.302 27.543 292.449 27.543C293.596 27.543 294.723 27.2378 295.716 26.6581C296.744 26.0871 297.589 25.2322 298.153 24.1936C298.723 23.1804 299.022 22.0346 299.019 20.8693C299.016 19.704 298.712 18.5597 298.137 17.5493C297.572 16.5055 296.719 15.6501 295.681 15.0875C294.693 14.5292 293.581 14.2314 292.449 14.2217ZM292.449 12.9026C293.807 12.9098 295.141 13.2647 296.327 13.9341C297.571 14.6078 298.595 15.633 299.271 16.8844C299.958 18.0975 300.32 19.4697 300.323 20.8667C300.326 22.2636 299.969 23.6373 299.288 24.8532C298.615 26.0999 297.604 27.1265 296.372 27.8117C295.178 28.5018 293.826 28.8648 292.45 28.8648C291.074 28.8648 289.722 28.5018 288.528 27.8117C287.295 27.127 286.283 26.1004 285.61 24.8532C284.921 23.6401 284.559 22.2655 284.561 20.867C284.564 19.4685 284.93 18.0951 285.623 16.8844C286.303 15.6318 287.329 14.6058 288.576 13.9314C289.76 13.2633 291.093 12.9092 292.449 12.9026Z" fill="#FF6C01"/>
</g>
<defs>
<clipPath id="clip0_853_10106">
<rect width="301" height="64" fill="white" transform="translate(0.720703 0.744141)"/>
</clipPath>
</defs>
</svg>
