<svg width="218" height="64" viewBox="0 0 218 64" fill="none" xmlns="http://www.w3.org/2000/svg">
<path d="M96.9163 33.622C96.9163 41.5789 90.7034 47.4422 83.0787 47.4422C75.4541 47.4422 69.2412 41.5789 69.2412 33.622C69.2412 25.609 75.4541 19.8018 83.0787 19.8018C90.7034 19.8018 96.9163 25.609 96.9163 33.622ZM90.8589 33.622C90.8589 28.6497 87.258 25.2476 83.0787 25.2476C78.8995 25.2476 75.2986 28.6497 75.2986 33.622C75.2986 38.5444 78.8995 41.9964 83.0787 41.9964C87.258 41.9964 90.8589 38.5382 90.8589 33.622Z" fill="#EA4335"/>
<path d="M126.768 33.622C126.768 41.5789 120.555 47.4422 112.93 47.4422C105.306 47.4422 99.0928 41.5789 99.0928 33.622C99.0928 25.6152 105.306 19.8018 112.93 19.8018C120.555 19.8018 126.768 25.609 126.768 33.622ZM120.71 33.622C120.71 28.6497 117.11 25.2476 112.93 25.2476C108.751 25.2476 105.15 28.6497 105.15 33.622C105.15 38.5444 108.751 41.9964 112.93 41.9964C117.11 41.9964 120.71 38.5382 120.71 33.622Z" fill="#FBBC05"/>
<path d="M155.376 20.6367V45.4483C155.376 55.6546 149.369 59.8231 142.266 59.8231C135.581 59.8231 131.557 55.3431 130.04 51.6793L135.313 49.4797C136.253 51.7291 138.554 54.3835 142.26 54.3835C146.806 54.3835 149.624 51.5733 149.624 46.2833V44.2956H149.412C148.056 45.9717 145.444 47.436 142.148 47.436C135.251 47.436 128.933 41.4169 128.933 33.6718C128.933 25.8707 135.251 19.8018 142.148 19.8018C145.438 19.8018 148.05 21.266 149.412 22.8923H149.624V20.6429H155.376V20.6367ZM150.053 33.6718C150.053 28.8055 146.813 25.2476 142.689 25.2476C138.51 25.2476 135.009 28.8055 135.009 33.6718C135.009 38.4884 138.51 41.9964 142.689 41.9964C146.813 41.9964 150.053 38.4884 150.053 33.6718Z" fill="#4285F4"/>
<path d="M164.86 6.09375V46.5949H158.952V6.09375H164.86Z" fill="#34A853"/>
<path d="M187.884 38.1709L192.586 41.3113C191.068 43.5607 187.411 47.4364 181.093 47.4364C173.256 47.4364 167.404 41.3674 167.404 33.6161C167.404 25.3975 173.306 19.7959 180.415 19.7959C187.573 19.7959 191.074 25.5034 192.219 28.5878L192.847 30.158L174.407 37.8096C175.819 40.5823 178.014 41.9967 181.093 41.9967C184.177 41.9967 186.317 40.4764 187.884 38.1709ZM173.412 33.1987L185.738 28.0706C185.06 26.3446 183.021 25.142 180.62 25.142C177.541 25.142 173.256 27.865 173.412 33.1987Z" fill="#EA4335"/>
<path d="M46.8777 30.0271V24.1637H66.5985C66.7913 25.1856 66.8908 26.3944 66.8908 27.7029C66.8908 32.102 65.6905 37.5416 61.8222 41.4172C58.0597 45.3427 53.2523 47.4363 46.8839 47.4363C35.08 47.4363 25.1543 37.8033 25.1543 25.9769C25.1543 14.1506 35.08 4.51758 46.8839 4.51758C53.414 4.51758 58.0659 7.08473 61.561 10.4307L57.4315 14.5681C54.9252 12.2128 51.5296 10.3809 46.8777 10.3809C38.258 10.3809 31.5165 17.3409 31.5165 25.9769C31.5165 34.613 38.258 41.573 46.8777 41.573C52.4687 41.573 55.6529 39.3236 57.6927 37.2799C59.347 35.6224 60.4354 33.2547 60.8645 30.0208L46.8777 30.0271Z" fill="#4285F4"/>
</svg>
