<svg width="235" height="40" viewBox="0 0 235 40" fill="none" xmlns="http://www.w3.org/2000/svg">
<g clip-path="url(#clip0_858_10089)">
<path fill-rule="evenodd" clip-rule="evenodd" d="M172.546 32.4111H185.007V29.0745H175.882V7.82983H172.546V32.4111ZM199.917 32.4116H202.71V15.8653H199.849V17.9761C198.419 16.4781 196.445 15.5929 194.198 15.5929C189.431 15.5929 185.617 19.406 185.617 24.1044C185.617 28.8027 189.431 32.6839 194.198 32.6839C196.445 32.6839 198.487 31.7307 199.917 30.3008V32.4116ZM194.198 18.8613C197.125 18.8613 199.44 21.2446 199.44 24.1044C199.44 27.0324 197.125 29.3476 194.198 29.3476C191.27 29.3476 188.955 27.0324 188.955 24.1044C188.955 21.2446 191.337 18.8613 194.198 18.8613ZM222.593 24.1039C222.593 28.8024 218.711 32.6836 214.012 32.6836C211.765 32.6836 209.723 31.7302 208.292 30.3003V32.4112H205.501V9.1918H208.77V17.5671C210.132 16.3415 211.97 15.5924 214.012 15.5924C218.711 15.5244 222.593 19.4057 222.593 24.1039ZM219.188 24.1039C219.188 21.2441 216.805 18.8608 213.944 18.8608C211.085 18.8608 208.701 21.1759 208.701 24.1039C208.701 26.9637 211.085 29.2789 213.944 29.2789C216.805 29.2789 219.188 26.9637 219.188 24.1039ZM232.464 19.4735L233.894 17.0221C232.532 16.205 231.035 15.5241 229.127 15.6603C225.995 15.6603 223.612 17.5669 223.612 20.2905C223.612 23.1749 226.256 24.2751 227.896 24.9582L227.97 24.9888C230.285 25.874 231.306 26.4869 231.306 27.6444C231.306 28.5977 230.558 29.6191 228.923 29.6191C227.562 29.6191 225.791 28.8702 224.838 28.3253L223.544 31.049C224.974 31.9342 227.017 32.7514 229.059 32.7514C232.397 32.7514 234.779 30.3681 234.779 27.6444C234.779 24.9208 232.464 23.1504 229.809 22.1971C229.711 22.1608 229.616 22.1251 229.522 22.09C228.026 21.5331 226.88 21.1071 226.88 20.0182C226.88 18.9968 227.97 18.3839 229.264 18.3839C230.558 18.3839 231.783 19.0648 232.464 19.4735Z" fill="black"/>
<path d="M35.4078 16.9549C35.3398 16.3421 35.2717 15.5931 34.9993 14.776C34.795 13.9589 34.4546 13.0737 33.9779 12.1204C33.5012 11.1671 32.8885 10.2138 32.1395 9.2605C31.8671 8.92005 31.5266 8.5115 31.1181 8.17104C31.6628 5.9921 30.4372 4.15362 30.4372 4.15362C28.3944 4.01743 27.0325 4.76644 26.5558 5.17499C26.4878 5.17499 26.4197 5.1069 26.2835 5.0388C25.9431 4.90263 25.6026 4.76643 25.1941 4.63026C24.7856 4.49407 24.445 4.42598 24.0365 4.28979C23.628 4.2217 23.2193 4.15362 22.879 4.08551C22.8108 4.08551 22.7428 4.08551 22.6746 4.08551C21.7894 1.22566 19.2019 0 19.2019 0C16.3421 1.83849 15.7974 4.3579 15.7974 4.3579C15.7974 4.3579 15.7974 4.42598 15.7974 4.49407C15.6612 4.56216 15.4569 4.56216 15.3207 4.63026C15.1164 4.69835 14.9121 4.76643 14.6398 4.83454C14.4355 4.90263 14.2312 4.97071 13.9589 5.1069C13.5503 5.31118 13.0737 5.51544 12.6651 5.71972C12.2566 5.924 11.848 6.19637 11.4395 6.46875C11.3714 6.46875 11.3714 6.40064 11.3714 6.40064C7.35395 4.90263 3.81315 6.74111 3.81315 6.74111C3.4727 10.9628 5.37927 13.6865 5.78783 14.1631C5.71972 14.4355 5.58355 14.7079 5.51546 14.9802C5.2431 15.9335 4.97071 16.9549 4.83454 17.9763C4.83454 18.1125 4.76643 18.2487 4.76643 18.3849C1.08947 20.2233 0 23.9683 0 23.9683C3.06414 27.5092 6.67303 27.7134 6.67303 27.7134C7.14967 28.5306 7.62631 29.2795 8.23913 30.0285C8.5115 30.3009 8.78388 30.6414 8.98816 30.9137C7.89868 34.1141 9.12433 36.7697 9.12433 36.7697C12.5289 36.9059 14.776 35.2717 15.2526 34.8631C15.5931 34.9993 15.9335 35.0673 16.274 35.2037C17.2954 35.476 18.3849 35.6122 19.4743 35.6802C19.7466 35.6802 20.0191 35.6802 20.2915 35.6802H20.4277H20.4957H20.6318H20.768C22.4023 37.9953 25.1941 38.3358 25.1941 38.3358C27.2369 36.2249 27.3049 34.1141 27.3049 33.6374V33.5694V33.5012C27.7134 33.2289 28.1219 32.8885 28.5306 32.548C29.3477 31.799 30.0285 30.9819 30.6414 30.0967C30.7096 30.0285 30.7776 29.9605 30.7776 29.8243C33.0927 29.9605 34.6588 28.3944 34.6588 28.3944C34.2503 26.0111 32.8883 24.8536 32.616 24.6494H32.548C32.548 24.513 32.548 24.3769 32.548 24.2407C32.548 23.9683 32.548 23.696 32.548 23.4918V23.1513V23.0831V23.0151V22.947V22.8108V22.6066C32.548 22.5384 32.548 22.4704 32.548 22.4023C32.548 22.3343 32.548 22.2661 32.548 22.1979V21.9937V21.7894C32.4798 21.517 32.4798 21.2447 32.4118 21.0403C32.1395 20.0191 31.799 19.0657 31.2543 18.1805C30.7096 17.2954 30.0967 16.5463 29.3477 15.8654C28.5986 15.1845 27.7816 14.7079 26.8963 14.2993C26.0111 13.8908 25.1259 13.6865 24.1727 13.5503C23.696 13.4822 23.2875 13.4822 22.8108 13.4822H22.6746H22.6066H22.5384H22.4704H22.3343C22.2661 13.4822 22.1979 13.4822 22.1299 13.4822C21.9256 13.4822 21.6532 13.5503 21.449 13.5503C20.5638 13.6865 19.6786 14.027 18.9296 14.5036C18.1805 14.9802 17.4997 15.525 16.9549 16.1378C16.4102 16.7506 16.0016 17.4997 15.7293 18.2487C15.4569 18.9977 15.3207 19.7466 15.2526 20.4957C15.2526 20.7 15.2526 20.8362 15.2526 21.0403C15.2526 21.1085 15.2526 21.1085 15.2526 21.1767V21.3129C15.2526 21.3809 15.2526 21.517 15.2526 21.5852C15.3207 21.9256 15.3888 22.3343 15.4569 22.6746C15.6612 23.3555 16.0016 23.9683 16.3421 24.513C16.7506 25.0579 17.2273 25.4664 17.704 25.8068C18.1805 26.1473 18.7254 26.4197 19.2701 26.5558C19.8148 26.692 20.2915 26.7602 20.8362 26.7602C20.9042 26.7602 20.9723 26.7602 21.0403 26.7602H21.1085H21.1767C21.2447 26.7602 21.3129 26.7602 21.3129 26.7602C21.3129 26.7602 21.3129 26.7602 21.3809 26.7602H21.449H21.517C21.5852 26.7602 21.6532 26.7602 21.7214 26.7602C21.7894 26.7602 21.8576 26.7602 21.9256 26.692C22.0617 26.692 22.1299 26.624 22.2661 26.624C22.4704 26.5558 22.6746 26.4878 22.879 26.3517C23.0831 26.2835 23.2193 26.1473 23.4237 26.0111C23.4917 26.0111 23.4918 25.9431 23.5598 25.875C23.7642 25.7388 23.7642 25.4664 23.628 25.3303C23.4918 25.1941 23.2875 25.1259 23.1513 25.2621C23.0831 25.2621 23.0831 25.3303 23.0151 25.3303C22.879 25.3983 22.7428 25.4664 22.5384 25.5344C22.4023 25.6026 22.1979 25.6026 22.0617 25.6706C21.9937 25.6706 21.8576 25.6706 21.7894 25.6706C21.7214 25.6706 21.7214 25.6706 21.6532 25.6706C21.5852 25.6706 21.5852 25.6706 21.517 25.6706C21.449 25.6706 21.449 25.6706 21.3809 25.6706C21.3129 25.6706 21.2447 25.6706 21.2447 25.6706H21.1767H21.1085C21.0403 25.6706 21.0405 25.6706 20.9723 25.6706C20.5638 25.6026 20.2233 25.5344 19.8148 25.3303C19.4063 25.1941 19.0657 24.9217 18.7252 24.6494C18.3849 24.3769 18.1125 23.9683 17.9082 23.628C17.704 23.2875 17.4997 22.8108 17.4315 22.3343C17.3635 22.1299 17.3635 21.8576 17.3635 21.6532C17.3635 21.5852 17.3635 21.517 17.3635 21.449V21.3809V21.3129C17.3635 21.1767 17.3635 21.0403 17.4315 20.9042C17.6358 19.8828 18.1125 18.9296 18.9296 18.1125C19.1339 17.9082 19.3381 17.772 19.5424 17.5677C19.7466 17.4315 20.0191 17.2954 20.2233 17.1592C20.4957 17.023 20.768 16.9549 20.9723 16.8868C21.2447 16.8187 21.517 16.7506 21.7894 16.7506C21.9256 16.7506 22.0617 16.7506 22.1979 16.7506H22.2661H22.4023H22.4704H22.6066C22.879 16.7506 23.2193 16.8187 23.4917 16.8868C24.1045 17.023 24.6492 17.2273 25.1941 17.5677C26.2835 18.1805 27.1687 19.1339 27.7816 20.2233C28.0539 20.768 28.2583 21.3809 28.3944 21.9937C28.3944 22.1299 28.4624 22.3343 28.4624 22.4704V22.6066V22.7428C28.4624 22.8108 28.4624 22.8108 28.4624 22.879C28.4624 22.947 28.4624 22.947 28.4624 23.0151V23.1513V23.2875C28.4624 23.3555 28.4624 23.4917 28.4624 23.5598C28.4624 23.7642 28.4624 23.9003 28.3944 24.1045C28.3944 24.2407 28.3263 24.445 28.3263 24.5812C28.3263 24.7174 28.2581 24.9217 28.1901 25.0579C28.1219 25.3983 27.9857 25.7388 27.8496 26.0111C27.5772 26.624 27.2369 27.2369 26.8282 27.8496C26.0111 28.9391 24.9217 29.8924 23.628 30.437C23.0151 30.7096 22.3343 30.9137 21.6532 31.0499C21.3129 31.1181 20.9723 31.1181 20.6318 31.1861H20.5638H20.4957H20.3595H20.2233H20.1553C19.951 31.1861 19.8148 31.1861 19.6104 31.1861C18.8616 31.1181 18.1125 30.9819 17.4315 30.7776C16.7506 30.5734 16.0016 30.3009 15.3888 29.9605C14.095 29.2795 12.9375 28.3263 11.9842 27.1687C11.5075 26.624 11.099 26.0111 10.8266 25.3303C10.4862 24.6494 10.2138 23.9683 10.0095 23.2875C9.80525 22.6066 9.66908 21.8576 9.66908 21.1767V21.0403V20.9723V20.8362V20.4277V20.3595V20.2233V20.1553C9.66908 20.0871 9.66908 19.951 9.66908 19.8828C9.66908 19.5424 9.73717 19.1339 9.73717 18.7934C9.80525 18.4529 9.87334 18.0443 9.94144 17.704C10.0095 17.3635 10.0776 16.9549 10.2138 16.6145C10.4181 15.9335 10.6905 15.2526 10.9628 14.5717C11.5756 13.2779 12.3246 12.1204 13.2779 11.2352C13.4822 11.0309 13.7546 10.7585 14.027 10.5543C14.2993 10.35 14.5717 10.1457 14.8441 10.0095C15.1164 9.80525 15.3888 9.66906 15.6612 9.53289C15.7973 9.46478 15.9335 9.3967 16.0697 9.32861C16.1378 9.32861 16.2059 9.2605 16.274 9.2605C16.3421 9.2605 16.4102 9.19242 16.4783 9.19242C16.7506 9.05624 17.0911 8.98814 17.3635 8.85197C17.4315 8.85197 17.4997 8.78386 17.5678 8.78386C17.6358 8.78386 17.704 8.71577 17.772 8.71577C17.9082 8.64769 18.1125 8.64769 18.2487 8.5796C18.3167 8.5796 18.3849 8.5115 18.521 8.5115C18.589 8.5115 18.6572 8.5115 18.7934 8.44341C18.8616 8.44341 18.9296 8.44341 19.0657 8.37532H19.2019H19.3381C19.4063 8.37532 19.4743 8.37532 19.6104 8.30722C19.6786 8.30722 19.8148 8.30722 19.883 8.23913C19.951 8.23913 20.0871 8.23913 20.1553 8.23913C20.2233 8.23913 20.2915 8.23913 20.3595 8.23913H20.4957H20.5638H20.6318C20.7 8.23913 20.8362 8.23913 20.9042 8.23913H21.0403H21.1085C21.1767 8.23913 21.2447 8.23913 21.3129 8.23913C21.6532 8.23913 21.9256 8.23913 22.2661 8.23913C22.879 8.23913 23.4917 8.30722 24.1045 8.44341C25.2621 8.64769 26.3517 9.05624 27.373 9.53289C28.3944 10.0095 29.2795 10.6223 30.0285 11.3033C30.0967 11.3714 30.0967 11.3714 30.1647 11.4395C30.2329 11.5075 30.2329 11.5075 30.3009 11.5756C30.369 11.6437 30.5052 11.7118 30.5732 11.848C30.6414 11.9842 30.7776 11.9842 30.8457 12.1204C30.9137 12.2566 31.0499 12.3247 31.1181 12.3927C31.4584 12.7332 31.7308 13.0737 32.0033 13.4822C32.548 14.1631 33.0247 14.9121 33.365 15.5931C33.365 15.6612 33.4332 15.6612 33.4332 15.7293C33.4332 15.7973 33.5012 15.7973 33.5012 15.8654C33.5694 15.9335 33.5694 16.0016 33.6374 16.1378C33.7056 16.2059 33.7056 16.274 33.7736 16.4102C33.8417 16.4783 33.8417 16.5463 33.9097 16.6825C34.0461 17.023 34.1823 17.2954 34.2503 17.5677C34.3864 18.0443 34.5226 18.4529 34.5908 18.7934C34.6588 18.9296 34.795 19.0657 34.9311 18.9977C35.0673 18.9977 35.2037 18.8616 35.2037 18.7252C35.476 17.9082 35.476 17.4315 35.4078 16.9549Z" fill="url(#paint0_linear_858_10089)"/>
<path d="M68.5711 20.7002C68.2988 27.3733 63.0557 32.6162 56.4508 32.6162C49.5054 32.6162 44.3984 27.0327 44.3984 20.2235C44.3984 13.4143 49.9819 7.7627 56.7911 7.7627C59.8553 7.7627 62.8513 9.05645 65.4388 11.4397L63.4642 13.891C61.4896 12.1887 59.1744 11.0311 56.8593 11.0311C51.8885 11.0311 47.803 15.1166 47.803 20.1555C47.803 25.2623 51.6844 29.2117 56.587 29.2117C61.0129 29.2117 64.4856 26.0114 65.1664 21.7896H55.1569V18.8616H68.7073L68.5711 20.7002Z" fill="black"/>
<path d="M80.1481 19.0658H78.3097C76.2669 19.0658 74.6326 20.7001 74.6326 22.7429V32.4119H71.3643V15.9336H74.0879V17.2954C74.9731 16.4102 76.403 15.9336 77.9691 15.9336H81.51L80.1481 19.0658Z" fill="black"/>
<path d="M98.1227 32.4113H95.3308V30.3005C93.1519 32.4113 89.7474 33.4327 86.2747 31.9346C83.687 30.777 81.7806 28.4619 81.3039 25.6702C80.2825 20.4271 84.3681 15.6606 89.611 15.6606C91.79 15.6606 93.8328 16.5458 95.2627 17.9758V15.8649H98.1227V32.4113ZM94.718 25.3977C95.467 22.0614 92.9475 18.9972 89.6792 18.9972C86.8194 18.9972 84.5042 21.3123 84.5042 24.1722C84.5042 27.3725 87.2959 29.8918 90.6324 29.2791C92.6072 28.9386 94.2413 27.3725 94.718 25.3977Z" fill="black"/>
<path d="M104.728 14.98V15.9333H109.971V18.8613H104.728V32.4797H101.46V15.1162C101.46 11.5073 104.047 9.32837 107.316 9.32837H111.265L109.971 12.4606H107.316C105.886 12.4606 104.728 13.5501 104.728 14.98Z" fill="black"/>
<path d="M127.471 32.4113H124.679V30.3005C122.5 32.4113 119.096 33.4327 115.623 31.9346C113.036 30.777 111.129 28.4619 110.652 25.6702C109.631 20.4271 113.785 15.6606 119.028 15.6606C121.207 15.6606 123.249 16.5458 124.679 17.9758V15.8649H127.539L127.471 32.4113ZM124.135 25.3977C124.884 22.0614 122.364 18.9972 119.096 18.9972C116.236 18.9972 113.921 21.3123 113.921 24.1722C113.921 27.3725 116.713 29.8918 120.049 29.2791C122.024 28.9386 123.658 27.3725 124.135 25.3977Z" fill="black"/>
<path d="M145.107 22.6741V32.4113H141.839V22.6741C141.839 20.6313 140.136 18.9972 138.162 18.9972C136.051 18.9972 134.417 20.6313 134.417 22.6741V32.4113H131.148V15.933H133.872V17.363C135.03 16.2735 136.664 15.6606 138.298 15.6606C142.111 15.6606 145.107 18.7929 145.107 22.6741Z" fill="black"/>
<path d="M164.511 32.4113H161.719V30.3005C159.54 32.4113 156.136 33.4327 152.663 31.9346C150.076 30.777 148.169 28.4619 147.692 25.6702C146.671 20.4271 150.825 15.6606 156.068 15.6606C158.247 15.6606 160.29 16.5458 161.719 17.9758V15.8649H164.579L164.511 32.4113ZM161.175 25.3977C161.924 22.0614 159.404 18.9972 156.136 18.9972C153.276 18.9972 150.961 21.3123 150.961 24.1722C150.961 27.3725 153.753 29.8918 157.089 29.2791C158.996 28.9386 160.698 27.3725 161.175 25.3977Z" fill="black"/>
</g>
<defs>
<linearGradient id="paint0_linear_858_10089" x1="17.8336" y1="48.6957" x2="17.8336" y2="4.34783" gradientUnits="userSpaceOnUse">
<stop stop-color="#FFF100"/>
<stop offset="1" stop-color="#F05A28"/>
</linearGradient>
<clipPath id="clip0_858_10089">
<rect width="234.783" height="40" fill="white"/>
</clipPath>
</defs>
</svg>
