<svg width="401" height="64" viewBox="0 0 401 64" fill="none" xmlns="http://www.w3.org/2000/svg">
<g clip-path="url(#clip0_895_10168)">
<path d="M17.9388 20.0971C23.5447 20.0971 26.2675 22.4056 26.2675 26.306C26.2675 30.1268 23.9451 32.4352 18.0189 32.4352C12.0927 32.4352 9.93041 30.0473 9.93041 26.306C9.93041 22.5647 12.1728 20.0971 17.9388 20.0971ZM18.5795 55.997C8.96941 55.997 6.72706 54.9622 6.72706 52.0965C6.72706 50.2658 8.4889 48.435 12.413 48.435H26.8281C29.9515 48.435 30.9926 49.8678 30.9926 51.5394C30.9926 54.5642 28.8302 55.997 18.5795 55.997ZM18.7397 62.365C32.9947 62.4446 37.8797 58.5442 37.8797 51.5394C37.8797 45.7285 34.5163 42.2262 26.5078 42.2262C22.3434 42.2262 17.5384 42.465 13.0537 42.465C10.8113 42.465 9.77025 41.9077 9.77025 40.4748C9.77025 39.838 10.1707 39.3605 10.6512 38.5644L11.452 37.2908C13.374 37.8481 15.5363 38.0869 17.9388 38.0869C28.1896 38.0869 33.7152 34.6641 33.7152 28.0571C33.7152 23.0424 30.1916 21.0524 25.5469 20.1767V20.0971C28.1896 20.2563 30.0315 20.2563 31.8733 20.2563H36.7587V13.0127H18.3392C8.16857 13.0127 2.16227 17.6295 2.16227 25.8284C2.16227 31.4004 5.20547 35.3804 10.8113 37.1316L7.92831 38.4052C4.88511 39.44 3.20335 41.4301 3.20335 43.3405C3.20335 46.1265 5.28555 47.8777 8.96941 48.3554C3.12327 49.0717 0 51.5394 0 54.7234C0 59.4198 4.0843 62.4446 18.7397 62.365Z" fill="black"/>
<path d="M49.153 50.4249V31.4801C49.153 24.9529 51.7956 22.6444 58.5228 22.6444H62.2066V13.0127H60.0444C54.3583 13.0127 50.9949 15.5599 49.3131 25.2711H49.153V13.0127H40.5039V50.4249H49.153Z" fill="black"/>
<path d="M82.2066 51.4598C94.139 51.4598 101.427 43.8977 101.427 31.6393C101.427 19.3013 93.7387 12.0576 82.2066 12.0576C70.5944 12.0576 62.9062 19.3013 62.9062 31.6393C62.9062 43.8977 70.1139 51.4598 82.2066 51.4598ZM82.2066 19.8585C88.8534 19.8585 92.8578 24.3957 92.8578 31.5598C92.8578 38.8033 89.0136 43.5795 82.1265 43.5795C75.3193 43.5795 71.5553 38.8033 71.5553 31.5598C71.5553 24.3957 75.4794 19.8585 82.2066 19.8585Z" fill="black"/>
<path d="M130.248 50.4249H138.897V13.0127H130.248V35.1417C130.248 40.4748 126.884 43.6588 121.359 43.6588C115.512 43.6588 113.51 39.6788 113.51 35.1417V13.0127H104.861V37.4501C104.861 45.4897 108.305 51.4597 117.354 51.4597C123.681 51.4597 128.486 48.1962 130.168 40.1566H130.248V50.4249Z" fill="black"/>
<path d="M153.169 28.296C153.169 22.9629 156.532 19.7789 162.058 19.7789C167.904 19.7789 169.906 23.7589 169.906 28.296V50.425H178.555V26.0673C178.555 17.9481 175.112 12.0576 166.062 12.0576C159.736 12.0576 154.931 15.3212 153.249 23.2813H153.169V13.0128H144.52V50.425H153.169V28.296Z" fill="black"/>
<path d="M200.355 43.6589C193.628 43.6589 190.585 39.3606 190.585 31.878C190.585 24.1569 193.788 19.6992 200.355 19.6992C206.521 19.6992 210.365 24.316 210.365 31.4802V32.117C210.365 39.5198 206.521 43.6589 200.355 43.6589ZM210.365 50.4249H219.014V1.62988H210.365V23.7588H210.285C208.604 16.0376 204.359 11.9779 196.831 12.0576C187.381 11.9779 182.016 19.4604 182.016 31.878C182.016 43.9774 187.061 51.4598 196.831 51.4598C204.119 51.4598 208.523 47.4002 210.205 39.8381H210.365V50.4249Z" fill="black"/>
<path d="M251.833 28.6145L260.16 27.2614C258.64 17.6297 253.434 12.0576 242.142 12.0576C230.69 12.0576 222.762 19.3809 222.762 31.7985C222.762 44.5345 230.53 51.4598 242.382 51.4598C253.274 51.4598 258.719 45.4899 260.241 35.9379L251.993 34.2662C250.792 39.5994 248.548 43.5795 242.222 43.5795C235.815 43.5795 231.571 39.3606 231.571 31.719C231.571 23.6793 235.895 19.8585 242.062 19.8585C247.909 19.8585 250.711 23.3609 251.833 28.6145Z" fill="black"/>
<path d="M281.556 51.4598C293.49 51.4598 300.776 43.8977 300.776 31.6393C300.776 19.3013 293.089 12.0576 281.556 12.0576C269.944 12.0576 262.256 19.3013 262.256 31.6393C262.256 43.8977 269.464 51.4598 281.556 51.4598ZM281.556 19.8585C288.203 19.8585 292.208 24.3957 292.208 31.5598C292.208 38.8033 288.363 43.5795 281.477 43.5795C274.67 43.5795 270.906 38.8033 270.906 31.5598C270.906 24.3957 274.83 19.8585 281.556 19.8585Z" fill="black"/>
<path d="M324.953 50.4249L339.69 13.0127H330.639L325.433 27.5001C323.672 32.5147 321.829 37.8481 320.149 42.624H319.989C318.387 37.8481 316.464 32.5147 314.702 27.5001L309.578 13.0127H300.207L315.103 50.4249H324.953Z" fill="black"/>
<path d="M357.958 19.3013C363.885 19.3013 366.928 22.3261 367.408 28.137H347.707C348.669 22.0873 352.273 19.3013 357.958 19.3013ZM358.199 51.3803C368.129 51.3803 373.253 46.4452 375.177 39.2811L367.649 37.1317C366.527 40.9525 364.286 43.8977 358.278 43.8977C352.111 43.8977 348.428 40.7935 347.628 34.505H375.255C375.415 32.5148 375.415 31.0025 375.415 29.4901C375.415 19.2217 369.651 12.0576 358.199 12.0576C346.507 12.0576 338.979 19.5401 338.979 32.1966C338.979 44.5345 346.666 51.3803 358.199 51.3803Z" fill="black"/>
<path d="M387.947 50.4249V31.4801C387.947 24.9529 390.589 22.6444 397.317 22.6444H401V13.0127H398.838C393.152 13.0127 389.789 15.5599 388.107 25.2711H387.947V13.0127H379.297V50.4249H387.947Z" fill="black"/>
</g>
<defs>
<clipPath id="clip0_895_10168">
<rect width="401" height="64" fill="white"/>
</clipPath>
</defs>
</svg>
