<svg width="161" height="65" viewBox="0 0 161 65" fill="none" xmlns="http://www.w3.org/2000/svg">
<g clip-path="url(#clip0_900_10123)">
<path d="M11.654 1.49268H0V13.4342H11.654V1.49268Z" fill="#04C7FD"/>
<path d="M11.3637 63.7077V20.701H0.331787V63.7077H11.3637ZM84.6888 64.1326V53.5935C83.0714 53.5935 81.7027 53.5085 80.7074 53.3385C79.5461 53.1685 78.6752 52.7435 78.0945 52.1486C77.5139 51.5536 77.1407 50.7037 76.9333 49.5988C76.7674 48.5364 76.6844 47.134 76.6844 45.4341V30.3903H84.6888V20.701H76.6844V3.91484H65.611V45.5191C65.611 49.0463 65.9013 52.0211 66.482 54.4009C67.0626 56.7382 68.058 58.6506 69.4266 60.0954C70.7952 61.5403 72.62 62.5603 74.8181 63.1977C77.0577 63.8352 79.8779 64.1326 83.2372 64.1326H84.6888ZM148.06 63.7077V0.600098H136.987V63.7077H148.06ZM54.9523 24.9082C51.8833 21.5085 47.5701 19.8086 42.0956 19.8086C39.4413 19.8086 37.0358 20.3611 34.8377 21.466C32.6811 22.5709 30.8148 24.1008 29.3632 26.0556L28.7411 26.863V26.1406V20.701H17.8336V63.7077H28.8241V40.802V42.3743C28.8241 42.1194 28.8241 41.8644 28.8241 41.6094C28.9485 37.5722 29.9024 34.5974 31.7272 32.6851C33.6765 30.6452 36.0404 29.6253 38.7362 29.6253C41.9297 29.6253 44.3766 30.6453 45.9941 32.6001C47.5701 34.5549 48.3995 37.3172 48.3995 40.8445V40.9294V63.6652H59.5559V39.2721C59.5974 33.1526 58.0214 28.3079 54.9523 24.9082ZM131.264 42.1194C131.264 39.0171 130.724 36.1273 129.688 33.4075C128.609 30.7302 127.116 28.3504 125.25 26.3106C123.342 24.2707 121.061 22.6984 118.407 21.551C115.752 20.4035 112.808 19.8511 109.614 19.8511C106.587 19.8511 103.725 20.446 101.071 21.5935C98.4165 22.7834 96.094 24.3557 94.1448 26.3531C92.1955 28.3504 90.6195 30.7302 89.4997 33.45C88.3385 36.1698 87.7993 39.1021 87.7993 42.2043C87.7993 45.3066 88.3385 48.2389 89.4168 50.9587C90.4951 53.6784 92.0296 56.0583 93.9374 58.0556C95.8452 60.0529 98.2092 61.6678 100.946 62.8152C103.684 64.0051 106.711 64.6001 109.946 64.6001C119.319 64.6001 125.125 60.2229 128.609 56.1433L120.646 49.9387C118.987 51.9786 115.006 54.7409 110.029 54.7409C106.919 54.7409 104.347 54.0184 102.398 52.531C100.449 51.0862 99.1216 49.0463 98.4165 46.539L98.2921 46.1565H131.264V42.1194ZM98.3751 38.1672C98.3751 35.0224 101.9 29.5403 109.49 29.4978C117.08 29.4978 120.646 34.9799 120.646 38.1247L98.3751 38.1672Z" fill="#0068B5"/>
<path d="M160.668 58.0981C160.461 57.5882 160.17 57.1632 159.797 56.7807C159.424 56.3983 159.009 56.1008 158.511 55.8883C158.014 55.6758 157.475 55.5483 156.935 55.5483C156.355 55.5483 155.857 55.6758 155.36 55.8883C154.862 56.1008 154.447 56.3983 154.074 56.7807C153.701 57.1632 153.41 57.5882 153.203 58.0981C152.996 58.6081 152.871 59.1606 152.871 59.713C152.871 60.308 152.996 60.8179 153.203 61.3279C153.41 61.8378 153.701 62.2628 154.074 62.6453C154.447 63.0278 154.862 63.3252 155.36 63.5377C155.857 63.7502 156.396 63.8777 156.935 63.8777C157.516 63.8777 158.014 63.7502 158.511 63.5377C159.009 63.3252 159.424 63.0278 159.797 62.6453C160.17 62.2628 160.461 61.8378 160.668 61.3279C160.875 60.8179 161 60.2655 161 59.713C161 59.1606 160.875 58.6081 160.668 58.0981ZM160.005 61.0729C159.839 61.4979 159.59 61.8803 159.299 62.1778C159.009 62.4753 158.636 62.7303 158.221 62.9003C157.806 63.0703 157.392 63.1552 156.894 63.1552C156.438 63.1552 155.982 63.0703 155.567 62.9003C155.152 62.7303 154.779 62.4753 154.489 62.1778C154.198 61.8803 153.949 61.4979 153.784 61.0729C153.618 60.6479 153.535 60.223 153.535 59.713C153.535 59.2456 153.618 58.7781 153.784 58.3531C153.949 57.9281 154.198 57.5457 154.489 57.2482C154.779 56.9507 155.152 56.6958 155.567 56.5258C155.982 56.3558 156.396 56.2708 156.894 56.2708C157.35 56.2708 157.806 56.3558 158.221 56.5258C158.636 56.6958 159.009 56.9507 159.299 57.2482C159.59 57.5457 159.839 57.9281 160.005 58.3531C160.17 58.7781 160.253 59.2031 160.253 59.713C160.295 60.223 160.17 60.6479 160.005 61.0729ZM157.682 60.053C158.014 60.0105 158.263 59.883 158.47 59.6705C158.677 59.458 158.802 59.1606 158.802 58.7356C158.802 58.2681 158.677 57.9282 158.387 57.6732C158.138 57.4182 157.682 57.2907 157.143 57.2907H155.318V62.0928H156.189V60.138H156.811L157.972 62.0928H158.885L157.682 60.053ZM157.226 59.373C157.101 59.373 156.977 59.373 156.811 59.373H156.189V58.0131H156.811C156.935 58.0131 157.06 58.0131 157.226 58.0131C157.35 58.0131 157.475 58.0556 157.599 58.0981C157.723 58.1406 157.806 58.2256 157.848 58.3106C157.889 58.3956 157.931 58.5231 157.931 58.6931C157.931 58.8631 157.889 58.9906 157.848 59.0756C157.765 59.1606 157.682 59.2456 157.599 59.288C157.475 59.3305 157.35 59.373 157.226 59.373Z" fill="#0068B5"/>
</g>
<defs>
<clipPath id="clip0_900_10123">
<rect width="161" height="64" fill="white" transform="translate(0 0.600098)"/>
</clipPath>
</defs>
</svg>
