<svg width="273" height="64" viewBox="0 0 273 64" fill="none" xmlns="http://www.w3.org/2000/svg">
<mask id="mask0_859_10101" style="mask-type:luminance" maskUnits="userSpaceOnUse" x="0" y="0" width="272" height="63">
<path d="M271.83 0.449219H0.515625V62.765H271.83V0.449219Z" fill="white"/>
</mask>
<g mask="url(#mask0_859_10101)">
<path d="M60.8077 31.5464C60.8077 14.3719 47.3108 0.449219 30.6617 0.449219C14.0125 0.449219 0.515625 14.3719 0.515625 31.5464C0.515625 48.7208 14.0125 62.6435 30.6617 62.6435C47.3108 62.6435 60.8077 48.7208 60.8077 31.5464Z" fill="#F7604A"/>
<path fill-rule="evenodd" clip-rule="evenodd" d="M12.9092 17.5006C12.9092 18.6488 13.4336 19.6704 14.2488 20.3247V44.8411C13.4336 45.4956 12.9092 46.5171 12.9092 47.6652C12.9092 49.6403 14.4613 51.2413 16.376 51.2413C18.2907 51.2413 19.8429 49.6403 19.8429 47.6652C19.8429 46.5117 19.3132 45.4855 18.4912 44.8315V20.3343C18.7128 20.1582 18.913 19.9549 19.0874 19.7294H22.1723C22.6221 20.3108 23.2437 20.7443 23.9579 20.9479L33.8661 45.8818C33.5728 46.4067 33.4052 47.0159 33.4052 47.6652C33.4052 49.6403 34.9571 51.2413 36.8718 51.2413C38.7865 51.2413 40.3388 49.6403 40.3388 47.6652C40.3388 47.019 40.1726 46.4128 39.8817 45.8895L49.9047 20.9541C51.3811 20.544 52.4677 19.1534 52.4677 17.5008C52.4677 15.5257 50.9155 13.9246 49.001 13.9246C47.0863 13.9246 45.5342 15.5257 45.5342 17.5008C45.5342 18.145 45.6993 18.7495 45.9882 19.2716L36.8808 41.9296L27.8849 19.2921C28.181 18.7655 28.3507 18.1534 28.3507 17.5006C28.3507 15.5257 26.7985 13.9246 24.8838 13.9246C23.7707 13.9246 22.7802 14.4656 22.146 15.3067H19.1139C18.4796 14.4656 17.489 13.9246 16.376 13.9246C14.4613 13.9246 12.9092 15.5257 12.9092 17.5006ZM49.0005 19.6948C50.1752 19.6948 51.1275 18.7124 51.1275 17.5008C51.1275 16.289 50.1752 15.3067 49.0005 15.3067C47.8257 15.3067 46.8736 16.289 46.8736 17.5008C46.8736 18.7124 47.8257 19.6948 49.0005 19.6948ZM38.9985 47.6652C38.9985 48.877 38.0464 49.8592 36.8717 49.8592C35.6969 49.8592 34.7446 48.877 34.7446 47.6652C34.7446 46.4536 35.6969 45.471 36.8717 45.471C38.0464 45.471 38.9985 46.4536 38.9985 47.6652ZM16.376 19.6948C17.5507 19.6948 18.503 18.7124 18.503 17.5008C18.503 16.289 17.5507 15.3067 16.376 15.3067C15.2013 15.3067 14.2491 16.289 14.2491 17.5008C14.2491 18.7124 15.2013 19.6948 16.376 19.6948ZM27.0108 17.5008C27.0108 18.7124 26.0585 19.6948 24.8838 19.6948C23.7092 19.6948 22.7569 18.7124 22.7569 17.5008C22.7569 16.289 23.7092 15.3067 24.8838 15.3067C26.0585 15.3067 27.0108 16.289 27.0108 17.5008ZM16.376 49.8592C17.5507 49.8592 18.503 48.877 18.503 47.6652C18.503 46.4536 17.5507 45.471 16.376 45.471C15.2013 45.471 14.2491 46.4536 14.2491 47.6652C14.2491 48.877 15.2013 49.8592 16.376 49.8592Z" fill="white"/>
<path fill-rule="evenodd" clip-rule="evenodd" d="M134.94 15.9165C135.93 15.4978 137.061 15.9864 137.467 17.0077L146.638 40.0837L155.916 17.0003C156.326 15.9806 157.459 15.4968 158.448 15.9195C159.436 16.3423 159.905 17.5116 159.495 18.5312L148.417 46.093C148.116 46.8408 147.408 47.3277 146.623 47.3258C145.838 47.3243 145.132 46.8344 144.835 46.0853L133.882 18.5238C133.476 17.5025 133.95 16.3351 134.94 15.9165ZM120.581 17.7658C120.581 16.6619 119.713 15.7671 118.643 15.7671C117.573 15.7671 116.706 16.6619 116.706 17.7658V39.6622L98.1023 16.5539C97.5809 15.906 96.7215 15.6649 95.9539 15.9509C95.1861 16.2369 94.6743 16.9887 94.6743 17.8308V45.3272C94.6743 46.4312 95.5417 47.3258 96.6118 47.3258C97.682 47.3258 98.5494 46.4312 98.5494 45.3272V23.3658L117.152 46.474C117.674 47.1219 118.533 47.3631 119.301 47.0771C120.069 46.7911 120.581 46.0393 120.581 45.1973V17.7658ZM78.0811 17.7658C78.0811 16.662 77.2136 15.7672 76.1435 15.7672C75.0736 15.7672 74.2061 16.662 74.2061 17.7658V45.3274C74.2061 46.4312 75.0736 47.3258 76.1435 47.3258C77.2136 47.3258 78.0811 46.4312 78.0811 45.3274V17.7658ZM189.976 46.0853C190.382 47.1066 191.513 47.595 192.504 47.1766C193.493 46.7578 193.967 45.5904 193.561 44.5691L188.085 30.7884L188.079 30.7736L182.477 16.9927C182.174 16.2461 181.463 15.7622 180.677 15.7671C179.894 15.772 179.189 16.2648 178.894 17.0151L173.483 30.7884L167.948 44.5617C167.538 45.5813 168.007 46.7507 168.996 47.1734C169.983 47.5962 171.117 47.1123 171.527 46.0927L177.066 32.3119L177.073 32.2971L180.721 23.0092L184.503 32.3119L189.976 46.0853ZM208.8 15.7671C207.73 15.7671 206.862 16.6619 206.862 17.7658V31.6182V31.6273V31.6362V45.3272C206.862 46.4312 207.73 47.3258 208.8 47.3258C209.87 47.3258 210.736 46.4312 210.736 45.3272V33.6258H222.94L229.035 46.1583C229.516 47.1448 230.68 47.5434 231.636 47.0486C232.591 46.5538 232.979 45.3528 232.499 44.366L227.007 33.0714C230.36 31.8559 232.768 28.5828 232.768 24.6725C232.768 19.7056 228.882 15.7671 224.115 15.7671H208.8ZM223.692 29.6287C223.828 29.597 223.972 29.5805 224.115 29.5805C226.764 29.5805 228.892 27.4065 228.892 24.6725C228.892 21.9384 226.764 19.7644 224.115 19.7644H210.736V29.6287H223.692ZM249.362 16.5004C248.685 15.646 247.463 15.5199 246.634 16.2187C245.808 16.9176 245.685 18.1767 246.363 19.0311L256.876 32.2924V45.3274C256.876 46.4312 257.746 47.3258 258.814 47.3258C259.884 47.3258 260.751 46.4312 260.751 45.3274V32.2988L271.386 19.0399C272.068 18.1893 271.954 16.9295 271.128 16.2258C270.304 15.5222 269.081 15.6413 268.401 16.4918L258.823 28.433L249.362 16.5004Z" fill="#2F3438"/>
</g>
</svg>
