<svg width="314" height="65" viewBox="0 0 314 65" fill="none" xmlns="http://www.w3.org/2000/svg">
<g clip-path="url(#clip0_860_10119)">
<path d="M115.392 24.4169C114.359 23.5851 113.236 22.8735 112.045 22.2957C110.792 21.7327 109.432 21.4518 108.061 21.4723C106.779 21.433 105.512 21.7621 104.409 22.4213C103.297 23.1678 102.299 24.0753 101.449 25.1147L92.3469 35.5953C91.237 36.8237 90.4562 38.3176 90.0784 39.9354V8.91233C90.1284 7.7072 89.8962 6.50715 89.4006 5.40949C88.9735 4.56632 88.352 3.83887 87.5885 3.28825C86.8408 2.76918 85.992 2.4171 85.0986 2.25555C84.1873 2.07571 83.2607 1.98689 82.3321 1.99039C81.4725 1.98513 80.6133 2.03173 79.7592 2.12995C79.2928 2.15757 78.8299 2.22763 78.376 2.33928V63.3807H90.0507V42.5172C90.271 44.1353 90.9372 45.6584 91.9734 46.9132L101.49 59.8081C102.502 61.291 103.881 62.4809 105.49 63.2595C107.099 64.0381 108.882 64.3781 110.661 64.2459C111.948 64.2591 113.228 64.0612 114.451 63.6598C115.518 63.3553 116.531 62.8844 117.453 62.2643L101.407 40.689L115.392 24.4169ZM150.886 26.8033C149.401 25.0446 147.537 23.6509 145.436 22.7283C142.856 21.6511 140.08 21.1328 137.289 21.2071C134.833 21.2121 132.394 21.6222 130.068 22.4213C127.726 23.2339 125.577 24.5316 123.761 26.2311C121.835 28.0716 120.317 30.3022 119.307 32.7763C118.105 35.7563 117.517 38.9517 117.578 42.1683C117.459 45.9396 118.104 49.6956 119.473 53.2071C120.559 55.8885 122.25 58.2776 124.411 60.1849C126.418 61.9047 128.781 63.1493 131.327 63.8273C133.914 64.5172 136.578 64.869 139.253 64.8739C141.875 64.9213 144.489 64.5828 147.013 63.8692C148.84 63.388 150.568 62.5848 152.118 61.4967C152.74 61.1552 153.27 60.6649 153.66 60.0688C154.051 59.4727 154.291 58.789 154.358 58.0776C154.258 56.8908 153.873 55.7463 153.238 54.7422C152.612 53.5796 151.895 52.469 151.094 51.4208L149.393 52.8582C148.706 53.4508 147.954 53.9612 147.152 54.3794C146.228 54.8714 145.254 55.2599 144.247 55.5377C143.017 55.8793 141.746 56.0437 140.471 56.0261C136.75 56.0261 134.025 54.9655 132.323 52.8582C130.543 50.5944 129.521 47.8189 129.404 44.9315H154.621C154.701 44.5502 154.747 44.1626 154.76 43.7732L154.843 42.2521V39.5726C154.855 37.2137 154.539 34.8647 153.902 32.5948C153.299 30.477 152.273 28.506 150.886 26.8033ZM129.294 38.4422C129.163 35.9675 129.913 33.5272 131.41 31.5621C132.107 30.7417 132.979 30.0927 133.962 29.6646C134.945 29.2365 136.012 29.0407 137.082 29.092C139.848 29.092 141.729 29.9572 142.781 31.6877C143.924 33.7459 144.475 36.0852 144.371 38.4422H129.294ZM198.291 30.041C197.806 27.5287 196.471 25.2644 194.514 23.6354C192.578 22.0305 189.576 21.2071 185.509 21.2071C182.695 21.0731 179.892 21.6588 177.362 22.9097C175.635 23.7991 174.117 25.0505 172.908 26.58C172.794 25.8327 172.503 25.1242 172.06 24.5144C171.617 23.9047 171.035 23.4116 170.363 23.0772C168.873 22.3843 167.245 22.0453 165.604 22.0863H163.986C163.525 22.0863 163.124 22.1282 162.783 22.2119L161.745 22.3794V63.3807H173.503V35.3301C173.541 34.6159 173.775 33.9264 174.178 33.3378C174.581 32.7492 175.137 32.2844 175.785 31.9948C177.44 31.0453 179.318 30.5632 181.221 30.5992C182.417 30.5376 183.61 30.7573 184.707 31.2412C185.492 31.6316 186.124 32.275 186.505 33.0693C186.901 33.9501 187.135 34.8956 187.197 35.8604C187.28 36.9629 187.322 38.1491 187.322 39.4051V63.3807H198.996V38.9586C198.996 37.4653 198.996 35.9302 198.872 34.3672C198.787 32.9123 198.593 31.4661 198.291 30.041ZM231.074 52.4954C230.908 52.6768 230.618 52.928 230.216 53.2769C229.759 53.6657 229.258 53.9983 228.723 54.2678C228.083 54.6045 227.422 54.8982 226.744 55.147C226.011 55.4056 225.239 55.5377 224.462 55.5377C221.207 55.5377 219.579 53.5188 219.579 49.481V30.99H231.586V22.1701H219.579V16.1134C219.625 14.9026 219.389 13.6978 218.888 12.5966C218.469 11.7515 217.852 11.0231 217.089 10.4753C216.342 9.95627 215.493 9.60419 214.599 9.44264C213.688 9.26369 212.761 9.17488 211.833 9.17748H210.45C209.993 9.17748 209.564 9.26121 209.163 9.31704L207.877 9.4845V49.7043C207.877 50.9696 207.932 52.2396 208.043 53.5142C208.15 54.7515 208.41 55.9705 208.817 57.1426C209.591 59.36 211.045 61.2712 212.967 62.5992C215.459 64.1292 218.355 64.8547 221.267 64.6786C222.97 64.6946 224.67 64.5073 226.329 64.1204C227.705 63.812 229.031 63.3143 230.272 62.6411C231.229 62.1435 232.088 61.4716 232.803 60.6594C233.36 60.0541 233.679 59.2656 233.702 58.4405C233.68 57.5337 233.448 56.6449 233.024 55.8447C232.448 54.6865 231.796 53.5676 231.074 52.4954ZM247.977 23.3423C247.222 22.8434 246.376 22.5018 245.488 22.3375C244.575 22.1689 243.649 22.0848 242.721 22.0863C241.862 22.083 241.003 22.1249 240.148 22.2119C239.682 22.2382 239.219 22.3082 238.765 22.4213V57.0589C238.765 59.9476 239.47 61.8596 240.868 62.8085C242.504 63.8161 244.403 64.3024 246.318 64.2041C247.231 64.2041 248.102 64.2041 248.89 64.1204C249.418 64.1195 249.941 64.0298 250.44 63.8552V28.9245C250.487 27.7181 250.25 26.5175 249.748 25.4217C249.348 24.5844 248.738 23.8674 247.977 23.3423ZM282.739 40.689L296.724 24.4169C295.677 23.5824 294.54 22.8708 293.335 22.2957C292.077 21.7312 290.713 21.4502 289.337 21.4723C288.06 21.4349 286.798 21.7639 285.699 22.4213C284.584 23.1642 283.586 24.0722 282.739 25.1147L273.637 35.5953C272.538 36.8197 271.77 38.3099 271.41 39.9215V8.91233C271.456 7.70605 271.219 6.50583 270.718 5.40949C270.296 4.56694 269.68 3.83933 268.92 3.28825C268.172 2.76918 267.324 2.4171 266.43 2.25555C265.519 2.07589 264.592 1.98708 263.664 1.99039C262.804 1.98513 261.945 2.03173 261.091 2.12995C260.624 2.156 260.161 2.22608 259.708 2.33928V63.3807H271.382V42.5172C271.607 44.1079 272.263 45.605 273.277 46.8434L282.794 59.7383C283.799 61.2362 285.176 62.4412 286.789 63.2324C288.401 64.0236 290.191 64.3731 291.979 64.2459C293.258 64.2498 294.529 64.0424 295.741 63.6319C296.812 63.3272 297.83 62.8564 298.757 62.2364L282.739 40.689ZM244.298 2.25555C243.474 2.2363 242.654 2.38314 241.887 2.68747C241.12 2.99181 240.421 3.44751 239.83 4.0279C239.231 4.61742 238.761 5.32651 238.449 6.10987C238.137 6.89323 237.99 7.73363 238.018 8.57739C237.987 9.41318 238.133 10.246 238.445 11.0207C238.758 11.7954 239.23 12.4943 239.83 13.0711C241.045 14.1861 242.628 14.8039 244.27 14.8039C245.913 14.8039 247.496 14.1861 248.711 13.0711C249.32 12.4996 249.799 11.8023 250.117 11.0268C250.434 10.2513 250.582 9.41584 250.55 8.57739C250.579 7.73103 250.43 6.88808 250.113 6.10397C249.796 5.31985 249.318 4.61232 248.711 4.0279C247.529 2.87326 245.943 2.23626 244.298 2.25555Z" fill="#17181B"/>
<path d="M56.8246 28.6177C55.6428 27.4631 54.0569 26.8261 52.412 26.8454C51.5875 26.8237 50.7672 26.9695 49.9997 27.274C49.2321 27.5784 48.5331 28.0354 47.944 28.6177C47.345 29.2072 46.8745 29.9163 46.5625 30.6997C46.2505 31.483 46.1038 32.3234 46.1319 33.1672C46.1012 34.003 46.2469 34.8358 46.5593 35.6105C46.8717 36.3852 47.3437 37.0841 47.944 37.6609C48.5374 38.2344 49.2382 38.6828 50.0053 38.9799C50.7725 39.2771 51.5906 39.4169 52.412 39.3914C54.0508 39.4204 55.6354 38.7989 56.8246 37.6609C57.4335 37.0894 57.9131 36.3921 58.2306 35.6166C58.5481 34.8411 58.696 34.0056 58.6643 33.1672C58.6932 32.3208 58.5442 31.4779 58.2271 30.6938C57.91 29.9097 57.432 29.2021 56.8246 28.6177Z" fill="#E05420"/>
<path d="M34.4568 33.1252L56.0079 4.06978C55.0795 3.46063 54.0684 2.99055 53.0063 2.67422C51.7932 2.23898 50.5174 2.00796 49.23 1.9904C47.4622 1.93755 45.7048 2.28072 44.0842 2.9952C42.5251 3.83469 41.1694 5.01183 40.1143 6.44221L20.4443 33.1252L40.1143 59.7383C41.1752 61.199 42.5517 62.3968 44.1396 63.2412C45.7601 63.9557 47.5175 64.2988 49.2853 64.246C50.5487 64.2528 51.8051 64.0549 53.0063 63.6598C54.0684 63.3435 55.0795 62.8734 56.0079 62.2643L34.4568 33.1252Z" fill="#E05420"/>
<path d="M35.5636 4.06978C34.6352 3.46063 33.6241 2.99055 32.5619 2.67422C31.3483 2.24117 30.0728 2.01021 28.7856 1.9904C27.0179 1.93755 25.2605 2.28072 23.6399 2.9952C22.0588 3.83081 20.6797 5.00773 19.6008 6.44221L0 33.1252L19.6008 59.7383C20.6664 61.1999 22.0476 62.3978 23.6399 63.2412C25.2605 63.9557 27.0179 64.2988 28.7856 64.246C30.0675 64.2576 31.3428 64.0597 32.5619 63.6598C33.6241 63.3435 34.6352 62.8734 35.5636 62.2643L14.0124 33.1252L35.5636 4.06978Z" fill="#E05420"/>
<path d="M307.651 64.316C306.084 64.316 304.582 63.6881 303.474 62.5706C302.366 61.4531 301.744 59.9374 301.744 58.357C301.744 56.7765 302.366 55.2608 303.474 54.1433C304.582 53.0258 306.084 52.3979 307.651 52.3979C309.217 52.3979 310.72 53.0258 311.827 54.1433C312.935 55.2608 313.557 56.7765 313.557 58.357C313.557 59.9374 312.935 61.4531 311.827 62.5706C310.72 63.6881 309.217 64.316 307.651 64.316ZM307.651 53.1515C306.447 53.1524 305.282 53.5741 304.352 54.3448C303.422 55.1155 302.786 56.1876 302.552 57.3784C302.318 58.5691 302.501 59.8049 303.069 60.8752C303.637 61.9454 304.555 62.7839 305.667 63.2478C306.779 63.7117 308.016 63.7723 309.167 63.4193C310.318 63.0663 311.312 62.3214 311.98 61.3117C312.648 60.302 312.948 59.0899 312.83 57.8819C312.711 56.6738 312.181 55.5446 311.33 54.6867C310.858 54.1811 310.287 53.779 309.654 53.5053C309.021 53.2316 308.339 53.0922 307.651 53.0957V53.1515ZM310.514 62.1389H309.241L308.467 60.2549C308.052 59.3478 307.609 58.8594 307.084 58.8594H306.392V62.0552H305.341V54.5052H307.457C308.171 54.4595 308.88 54.6506 309.477 55.0495C309.709 55.2254 309.897 55.4557 310.022 55.7207C310.147 55.9856 310.207 56.2773 310.196 56.5706C310.204 57.0606 310.026 57.5352 309.698 57.8964C309.321 58.2776 308.839 58.5353 308.315 58.6361C308.73 58.7198 309.145 59.1943 309.546 60.0316L310.514 62.1389ZM306.364 55.4542V58.0499H307.485C308.522 58.0499 309.048 57.6173 309.048 56.7521C309.064 56.5619 309.033 56.3707 308.958 56.1954C308.884 56.0201 308.767 55.8662 308.619 55.7473C308.219 55.5217 307.762 55.4198 307.305 55.4542H306.364Z" fill="#17181B"/>
</g>
<defs>
<clipPath id="clip0_860_10119">
<rect width="314" height="64" fill="white" transform="translate(0 0.860107)"/>
</clipPath>
</defs>
</svg>
