<svg width="298" height="64" viewBox="0 0 298 64" fill="none" xmlns="http://www.w3.org/2000/svg">
<g clip-path="url(#clip0_931_10273)">
<path d="M126.825 63.8874H112.221L100.055 42.5709L95.0566 47.7968V63.8874H83.1797V0H95.0566V33.7097L110.114 16.3178H125.09L108.916 34.0196L126.825 63.908V63.8874Z" fill="black"/>
<path d="M167.764 48.7677C167.454 51.5149 166.029 54.3034 163.468 57.1332C159.502 61.6361 153.966 63.8875 146.84 63.8875C140.953 63.8875 135.769 61.9872 131.266 58.2073C126.763 54.4066 124.512 48.2513 124.512 39.6999C124.512 31.6856 126.536 25.551 130.605 21.2753C134.674 16.9996 139.941 14.8721 146.407 14.8721C150.248 14.8721 153.719 15.595 156.796 17.0409C159.874 18.4868 162.435 20.7589 164.439 23.8779C166.256 26.625 167.413 29.806 167.971 33.4207C168.281 35.5482 168.405 38.6052 168.343 42.5917H136.678C136.843 47.2392 138.31 50.4821 141.057 52.3618C142.73 53.5185 144.733 54.0968 147.088 54.0968C149.587 54.0968 151.591 53.3945 153.161 51.9693C154.008 51.205 154.751 50.1516 155.412 48.7884H167.764V48.7677ZM155.805 34.598C155.598 31.3965 154.627 28.9798 152.892 27.3273C151.157 25.6749 148.988 24.8487 146.427 24.8487C143.618 24.8487 141.449 25.7162 139.921 27.4719C138.372 29.2276 137.401 31.603 137.008 34.598H155.805Z" fill="black"/>
<path d="M196.289 27.2449C191.415 27.2449 188.151 28.8354 186.478 31.9957C185.549 33.7721 185.073 36.5192 185.073 40.2372V63.8878H172.887V16.091H184.433V24.1466C186.292 21.069 187.924 18.9621 189.308 17.826C191.58 15.9257 194.513 14.9756 198.128 14.9756C198.355 14.9756 198.541 14.9756 198.706 14.9962C198.871 14.9962 199.202 15.0376 199.739 15.0582V27.4515C198.975 27.3689 198.293 27.3069 197.694 27.2862C197.095 27.2656 196.62 27.2449 196.248 27.2449H196.289Z" fill="black"/>
<path d="M225.144 25.0348C221.034 25.0348 218.225 26.7699 216.696 30.2606C215.911 32.099 215.498 34.4537 215.498 37.3042V63.8671H203.436V16.1736H215.106V22.9279C216.655 20.5526 218.142 18.8382 219.526 17.7847C222.025 15.9257 225.165 14.9756 228.986 14.9756C233.758 14.9756 237.682 16.2356 240.719 18.7349C243.755 21.2342 245.284 25.3859 245.284 31.1901V63.8671H232.89V34.2058C232.89 31.7685 232.56 29.9095 231.919 28.6082C230.721 26.2328 228.47 25.0348 225.124 25.0348H225.144Z" fill="black"/>
<path d="M291.574 21.9362C295.477 26.8316 297.44 32.6151 297.44 39.2868C297.44 45.9585 295.477 51.8866 291.574 56.72C287.67 61.5534 281.742 63.9494 273.789 63.9494C265.837 63.9494 259.909 61.5327 256.005 56.72C252.101 51.8866 250.139 46.0825 250.139 39.2868C250.139 32.4912 252.101 26.8316 256.005 21.9362C259.909 17.0409 265.837 14.6035 273.789 14.6035C281.742 14.6035 287.67 17.0615 291.574 21.9362ZM273.748 24.828C270.216 24.828 267.489 26.088 265.568 28.5873C263.668 31.0866 262.697 34.66 262.697 39.3075C262.697 43.9549 263.647 47.5283 265.568 50.0483C267.469 52.5683 270.195 53.8283 273.748 53.8283C277.301 53.8283 280.006 52.5683 281.907 50.0483C283.807 47.5283 284.757 43.9549 284.757 39.3075C284.757 34.66 283.807 31.0866 281.907 28.5873C280.006 26.088 277.301 24.828 273.748 24.828Z" fill="black"/>
<path d="M16.5245 19.457L10.0386 23.2163H10.018L1.21875 28.2975L9.43963 33.069L28.3394 22.1629L20.0979 17.4121L16.5245 19.457Z" fill="black"/>
<path d="M26.9958 55.5009L31.3335 58.0002L40.1534 63.1021L40.174 53.5799L21.2949 42.6738V52.196L26.9958 55.5009Z" fill="black"/>
<path d="M42.5703 16.7106V25.6337V38.5227L50.8325 33.772V30.6117L50.8118 22.1636H50.8325V11.9805L42.5703 16.7106Z" fill="black"/>
<path d="M19.4987 39.5764L28.9383 34.1233L29.558 33.7722V24.25L20.3869 29.5378L10.6582 35.1561V52.9611C10.6582 53.2503 10.6582 53.5601 10.6995 53.8493C10.6995 53.9319 10.6995 54.0145 10.7202 54.0765C10.7408 54.345 10.7821 54.6135 10.8441 54.8614C10.8441 54.944 10.8854 55.0267 10.9061 55.1299C10.9474 55.3158 10.9887 55.4811 11.0507 55.667C11.092 55.7909 11.1333 55.9148 11.1746 56.0388C11.2159 56.1627 11.2779 56.3073 11.3192 56.4312C11.4018 56.6584 11.5051 56.865 11.6084 57.0715C11.6497 57.1542 11.691 57.2368 11.7323 57.2988C11.8149 57.464 11.8975 57.6086 11.9802 57.7532V57.7738C12.1867 58.1043 12.4139 58.4348 12.6411 58.7446C13.3847 59.6741 14.3142 60.459 15.347 61.0581L15.3883 61.0994C16.7929 61.9049 18.404 62.3594 20.0564 62.3594C21.6263 62.3594 23.2167 61.9669 24.7452 61.0787L28.3186 59.0132L25.5715 57.4227L19.4574 53.8906C19.0856 53.6841 18.8584 53.2916 18.8584 52.8578V40.5678C18.8584 40.1341 19.0856 39.7416 19.4574 39.5351L19.4987 39.5764Z" fill="black"/>
<path d="M40.8153 41.6624L30.7767 35.8582L22.5352 40.6296L41.4349 51.5357L55.8731 43.1909L56.8439 42.6332C58.4137 41.7244 59.5911 40.4851 60.376 39.0805C61.1609 37.6759 61.5533 36.0854 61.5533 34.495V34.4123V34.371C61.5533 32.8219 61.1402 31.2727 60.376 29.8888C59.5911 28.4842 58.4344 27.2449 56.8439 26.3361L53.2705 24.2705V31.1075V34.4743C53.2705 34.9081 53.0433 35.3005 52.6715 35.5071L42.0339 41.6624C41.848 41.7657 41.6415 41.8277 41.4349 41.8277C41.249 41.8277 41.0631 41.7863 40.8979 41.6831C40.8979 41.6831 40.8979 41.6831 40.8772 41.6831L40.8153 41.6624Z" fill="black"/>
<path d="M31.3343 21.1308C31.4996 21.2134 31.6235 21.358 31.7268 21.5026L31.7681 21.5645C31.7681 21.5852 31.7888 21.6265 31.8094 21.6472C31.8094 21.6472 31.8094 21.6885 31.8301 21.7091C31.892 21.8537 31.9333 21.9983 31.9333 22.1429V33.7306L32.0366 33.7926L40.1955 38.502V25.3858V16.6898L30.4255 11.0509L24.7865 7.78733C23.258 6.9198 21.6676 6.52734 20.1184 6.52734C18.4453 6.52734 16.8135 6.98176 15.3883 7.80798L15.3263 7.84929C14.686 8.22109 14.0664 8.67551 13.5293 9.1919C11.7943 10.865 10.6582 13.1991 10.6582 15.9669V20.098L15.1198 17.5161L19.5194 14.9754C19.7053 14.8722 19.9119 14.8102 20.1184 14.8102C20.325 14.8102 20.5315 14.8722 20.7174 14.9754L31.355 21.1101L31.3343 21.1308Z" fill="black"/>
<path d="M25.9426 5.74235L30.7966 8.55149L41.3516 14.6449L43.4171 13.4468L49.6138 9.87344L35.4028 1.67322C33.8743 0.785032 32.2838 0.392578 30.714 0.392578C29.0409 0.392578 27.4091 0.846999 25.9839 1.67322L21.543 4.2345C23.0302 4.4204 24.5174 4.91613 25.9219 5.72169L25.9426 5.74235Z" fill="black"/>
<path d="M58.6824 44.2648C58.4552 44.4094 58.228 44.554 58.0008 44.6986L57.1539 45.1943L42.5918 53.6011V55.9765V63.1233L56.8028 54.9231C58.3726 54.0142 59.5499 52.7749 60.3348 51.3703C61.1198 49.9658 61.5122 48.3753 61.5122 46.7848V41.6416C60.748 42.6331 59.8185 43.5213 58.7237 44.2648H58.6824Z" fill="black"/>
<path d="M9.10906 57.3805C9.02644 57.1946 8.96447 57.0087 8.90251 56.8021C8.8612 56.6575 8.79923 56.513 8.75792 56.3684C8.69595 56.1412 8.63399 55.8933 8.57202 55.6454C8.57202 55.6041 8.55137 55.5422 8.53071 55.5008C8.53071 55.4802 8.53071 55.4389 8.53071 55.4182C8.53071 55.4182 8.53071 55.3976 8.53071 55.3769C8.46874 55.0464 8.40678 54.7159 8.36547 54.3648C8.36547 54.3648 8.36547 54.3441 8.36547 54.3235C8.36547 54.2409 8.36547 54.1582 8.34481 54.055C8.3035 53.6832 8.28284 53.3114 8.28284 52.9189V35.1345L0 30.3838V46.7842C0 50.4196 1.94161 53.332 4.70945 54.9431L9.17103 57.5251C9.17103 57.5251 9.17103 57.5044 9.17103 57.4838C9.17103 57.4425 9.12972 57.4218 9.12972 57.3805H9.10906Z" fill="black"/>
</g>
<defs>
<clipPath id="clip0_931_10273">
<rect width="297.439" height="63.97" fill="white"/>
</clipPath>
</defs>
</svg>
