<svg width="212" height="64" viewBox="0 0 212 64" fill="none" xmlns="http://www.w3.org/2000/svg">
<g clip-path="url(#clip0_861_10133)">
<path d="M89.5781 32.2296L101.038 17.272H93.4871L86.3321 27.1845V17.272H79.833V47.4944H86.3321V37.2268L95.4211 47.4944H103.765L89.5781 32.2296Z" fill="#252F37"/>
<path d="M114.297 47.8424C120.092 47.8424 124.964 43.6303 124.964 37.1857C124.964 30.7412 120.092 26.5701 114.297 26.5701C108.501 26.5701 103.67 30.6934 103.67 37.1857C103.67 43.6781 108.454 47.8424 114.297 47.8424ZM114.297 41.8826C111.795 41.8826 109.684 40.0394 109.684 37.1857C109.684 34.3321 111.789 32.5366 114.297 32.5366C116.805 32.5366 118.95 34.3799 118.95 37.1857C118.95 39.9916 116.886 41.8826 114.297 41.8826Z" fill="#252F37"/>
<path d="M150.154 47.4942V15.8655H144.092V29.5054C143.081 27.6212 140.669 26.563 138.078 26.563C132.81 26.563 128.156 30.7274 128.156 37.3085C128.156 43.8896 132.81 47.9242 138.078 47.9242C140.669 47.9242 143.087 46.8251 144.092 44.9409V47.4873H150.154V47.4942ZM143.962 37.1856C143.962 40.169 141.809 42.1419 139.22 42.1419C136.629 42.1419 134.477 40.2099 134.477 37.1856C134.477 34.1613 136.581 32.3181 139.22 32.3181C141.68 32.3181 143.962 34.1613 143.962 37.1856Z" fill="#252F37"/>
<path d="M160.719 35.4313C161.204 32.7961 163.617 31.9222 165.285 31.9222C167.04 31.9222 169.235 32.9326 169.59 35.4313H160.719ZM170.157 40.7357C169.145 42.0943 167.388 42.6677 165.681 42.6677C163.487 42.6677 160.978 41.6164 160.63 39.2474H175.645C175.686 38.7218 175.733 37.8889 175.733 37.3633C175.733 30.9118 171.08 26.5701 165.236 26.5701C159.393 26.5701 154.521 30.6934 154.521 37.1857C154.521 43.6781 159.393 47.9312 165.236 47.9312C168.749 47.9312 172.48 46.832 174.592 43.7668L170.157 40.7425V40.7357Z" fill="#252F37"/>
<path d="M202.555 32.4955C204.353 32.4955 205.938 33.9019 205.938 36.578V47.5009H212V35.8748C212 29.6897 209.013 26.5767 204.093 26.5767C202.603 26.5767 199.965 27.0136 197.95 30.2154C196.808 27.8055 194.615 26.6176 191.361 26.6176C189.12 26.6176 187.015 27.8464 186.003 29.9969V27.0136H179.9V47.5009H186.003V36.6668C186.003 33.5537 187.671 32.5024 189.564 32.5024C191.32 32.5024 192.899 33.8199 192.947 36.4483V47.5009H199.049V36.6668C199.049 33.6835 200.627 32.5024 202.562 32.5024" fill="#252F37"/>
<path d="M39.527 49.8085L27.6567 31.4648L39.322 12.9914L49.3952 12.9368L37.7297 31.4103L49.6069 49.7539L39.5339 49.8085H39.527ZM24.3354 49.8154H15.3762V13.0392H24.3354V49.8154ZM55.573 0H8.28947C3.71078 0 0 3.70696 0 8.28094V55.5158C0 60.0897 3.71078 63.7967 8.28947 63.7967H55.573C60.1516 63.7967 63.8624 60.0897 63.8624 55.5158V8.28094C63.8624 3.70696 60.1516 0 55.573 0Z" fill="#252F37"/>
</g>
<defs>
<clipPath id="clip0_861_10133">
<rect width="212" height="64" fill="white"/>
</clipPath>
</defs>
</svg>
