<svg width="204" height="63" viewBox="0 0 204 63" fill="none" xmlns="http://www.w3.org/2000/svg">
<g clip-path="url(#clip0_861_10147)">
<path d="M6.12608 55.8558H33.9443V61.2557H0.0566406V1.51831H6.12608V55.8558Z" fill="black"/>
<path d="M111.273 53.3808H111.442L130.83 1.51831H137.293L114.477 61.2557H108.07L85.3096 1.51831H91.8848L111.273 53.3808Z" fill="black"/>
<path d="M203.494 31.3874C203.494 35.9436 202.707 40.1624 201.134 43.9874C199.56 47.8124 197.369 51.1311 194.615 53.8874C191.861 56.7001 188.545 58.8376 184.78 60.4126C180.959 61.9876 176.856 62.7751 172.417 62.7751C167.977 62.7751 163.874 61.9876 160.053 60.4126C156.231 58.8376 152.972 56.6439 150.218 53.8874C147.408 51.1311 145.273 47.8124 143.699 43.9874C142.126 40.1624 141.339 35.9999 141.339 31.3874C141.339 26.8311 142.126 22.6686 143.699 18.8436C145.273 15.0186 147.464 11.6999 150.218 8.94365C152.972 6.1874 156.288 3.99365 160.053 2.41865C163.874 0.843653 167.977 0.0561523 172.417 0.0561523C176.856 0.0561523 180.959 0.843653 184.78 2.41865C188.545 3.99365 191.861 6.1874 194.615 8.94365C197.425 11.6999 199.56 15.0186 201.134 18.8436C202.707 22.6686 203.494 26.8311 203.494 31.3874ZM197.088 31.4436C197.088 27.9561 196.526 24.6374 195.402 21.4874C194.278 18.3374 192.648 15.5811 190.512 13.2186C188.377 10.8561 185.792 8.94365 182.701 7.5374C179.61 6.13115 176.182 5.45615 172.36 5.45615C168.539 5.45615 165.111 6.13115 162.02 7.5374C158.929 8.94365 156.344 10.8561 154.208 13.2186C152.073 15.5811 150.443 18.3936 149.319 21.4874C148.195 24.6374 147.633 27.9561 147.633 31.4436C147.633 34.9311 148.195 38.2499 149.319 41.3999C150.443 44.5499 152.073 47.3061 154.208 49.6686C156.344 52.0311 158.929 53.8874 162.02 55.2936C165.055 56.7001 168.539 57.3751 172.36 57.3751C176.182 57.3751 179.61 56.7001 182.701 55.2936C185.736 53.8874 188.377 52.0311 190.512 49.6686C192.648 47.3061 194.278 44.5499 195.402 41.3999C196.526 38.2499 197.088 34.9311 197.088 31.4436Z" fill="black"/>
<path d="M49.1183 6.9183H80.0838V1.51831H43.0488V6.9183H49.1183Z" fill="#F68C1F"/>
<path d="M49.1183 55.8555V32.793H78.0606V27.4492H55.2439H49.1183H43.0488V61.2556H81.0953V55.8555H49.1183Z" fill="black"/>
</g>
<defs>
<clipPath id="clip0_861_10147">
<rect width="204" height="63" fill="white"/>
</clipPath>
</defs>
</svg>
