<svg width="319" height="64" viewBox="0 0 319 64" fill="none" xmlns="http://www.w3.org/2000/svg">
<g clip-path="url(#clip0_897_10108)">
<path d="M10.4516 42.2065C10.4516 45.8857 11.2626 48.7104 12.3226 50.4193C13.7123 52.6576 15.7851 53.6059 17.8983 53.6059C20.624 53.6059 23.1174 52.9324 27.9226 46.3146C31.7721 41.0103 36.3081 33.5648 39.3602 28.8972L44.5288 20.9893C48.1192 15.4974 52.2749 9.39225 57.0398 5.25403C60.9297 1.87644 65.1258 0 69.3489 0C76.4389 0 83.1924 4.09131 88.361 11.7646C94.0175 20.1684 96.7633 30.7535 96.7633 41.6771C96.7633 48.1709 95.4779 52.9424 93.2907 56.712C91.1775 60.3577 87.0587 64 80.1302 64V53.6059C86.0627 53.6059 87.5433 48.1776 87.5433 41.9652C87.5433 33.1125 85.4705 23.288 80.9042 16.2681C77.6637 11.2888 73.4642 8.24628 68.8441 8.24628C63.8471 8.24628 59.826 11.9992 55.3068 18.6907C52.9042 22.2459 50.4377 26.5784 47.6683 31.4672L44.6196 36.8452C38.4954 47.6582 36.9441 50.121 33.882 54.1856C28.5148 61.3026 23.9317 64 17.8983 64C10.741 64 6.21512 60.9139 3.41209 56.263C1.1239 52.4733 0 47.5007 0 41.8346L10.4516 42.2065Z" fill="#0081FB"/>
<path d="M8.24072 12.4984C13.0325 5.14346 19.9475 0 27.8787 0C32.4719 0 37.0382 1.35372 41.8064 5.23058C47.0221 9.46932 52.581 16.449 59.5163 27.9523L62.003 32.0804C68.0061 42.039 71.4216 47.1623 73.4204 49.5782C75.9912 52.681 77.7915 53.6059 80.1301 53.6059C86.0626 53.6059 87.5432 48.1776 87.5432 41.9652L96.7632 41.6771C96.7632 48.1709 95.4778 52.9424 93.2906 56.712C91.1773 60.3577 87.0586 64 80.1301 64C75.823 64 72.0071 63.0685 67.7874 59.1045C64.5435 56.062 60.7512 50.6572 57.8338 45.7985L49.1555 31.3634C44.8012 24.119 40.807 18.7175 38.4952 16.2714C36.0085 13.641 32.8118 10.4645 27.7105 10.4645C23.5817 10.4645 20.0754 13.3495 17.1411 17.7625L8.24072 12.4984Z" fill="url(#paint0_linear_897_10108)"/>
<path d="M27.7106 10.4645C23.5818 10.4645 20.0755 13.3495 17.1412 17.7625C12.9922 23.9983 10.4516 33.2867 10.4516 42.2065C10.4516 45.8857 11.2626 48.7104 12.3226 50.4193L3.41209 56.263C1.1239 52.4733 0 47.5007 0 41.8346C0 31.5309 2.84004 20.7916 8.24083 12.4984C13.0326 5.14346 19.9476 0 27.8788 0L27.7106 10.4645Z" fill="url(#paint1_linear_897_10108)"/>
<path d="M117.081 2.02393H129.171L149.728 39.0568L170.288 2.02393H182.116V62.8742H172.253V16.238L154.224 48.5328H144.97L126.944 16.238V62.8742H117.081V2.02393ZM213.02 24.7121C205.947 24.7121 201.687 30.013 200.667 36.5772H224.673C224.178 29.8153 220.261 24.7121 213.02 24.7121ZM190.889 40.3167C190.889 26.5048 199.853 16.4524 213.192 16.4524C226.312 16.4524 234.145 26.3774 234.145 41.0539V43.7513H200.667C201.855 50.8918 206.613 55.7035 214.285 55.7035C220.406 55.7035 224.232 53.8438 227.86 50.4428L233.099 56.8327C228.162 61.3529 221.883 63.9598 213.935 63.9598C199.496 63.9598 190.889 53.4752 190.889 40.3167ZM246.104 25.5833H237.026V17.5414H246.104V4.24215H255.621V17.5414H269.414V25.5833H255.621V45.9661C255.621 52.9257 257.855 55.3986 263.347 55.3986C265.854 55.3986 267.29 55.1841 269.414 54.8323V62.7871C266.769 63.5309 264.245 63.8727 261.513 63.8727C251.239 63.8727 246.104 58.2836 246.104 47.0953V25.5833ZM309.484 33.404C307.573 28.599 303.309 25.0606 297.043 25.0606C288.9 25.0606 283.688 30.8139 283.688 40.186C283.688 49.3236 288.486 55.355 296.653 55.355C303.074 55.355 307.657 51.6357 309.484 47.0082V33.404ZM319 62.8742H309.659V56.5278C307.048 60.2639 302.296 63.9598 294.601 63.9598C282.224 63.9598 273.953 53.6428 273.953 40.186C273.953 26.6019 282.423 16.4524 295.125 16.4524C301.405 16.4524 306.331 18.9521 309.659 23.3651V17.5414H319V62.8742Z" fill="#192830"/>
</g>
<defs>
<linearGradient id="paint0_linear_897_10108" x1="20.5263" y1="39.2042" x2="87.1514" y2="42.5833" gradientUnits="userSpaceOnUse">
<stop stop-color="#0064E1"/>
<stop offset="0.4" stop-color="#0064E1"/>
<stop offset="0.83" stop-color="#0073EE"/>
<stop offset="1" stop-color="#0082FB"/>
</linearGradient>
<linearGradient id="paint1_linear_897_10108" x1="15.1424" y1="46.5759" x2="15.1424" y2="22.1152" gradientUnits="userSpaceOnUse">
<stop stop-color="#0082FB"/>
<stop offset="1" stop-color="#0064E0"/>
</linearGradient>
<clipPath id="clip0_897_10108">
<rect width="319" height="64" fill="white"/>
</clipPath>
</defs>
</svg>
