<svg width="300" height="64" viewBox="0 0 300 64" fill="none" xmlns="http://www.w3.org/2000/svg">
<g clip-path="url(#clip0_945_10128)">
<path d="M300 28.9396V23.6429H293.448V15.4087L293.228 15.4768L287.074 17.3671L286.953 17.4041V23.6432H277.24V20.1675C277.24 18.5491 277.6 17.3106 278.311 16.4846C279.016 15.6686 280.025 15.2537 281.312 15.2537C282.238 15.2537 283.195 15.4725 284.16 15.904L284.401 16.0123V10.4343L284.288 10.3923C283.388 10.0677 282.165 9.9043 280.649 9.9043C278.738 9.9043 277.001 10.3218 275.487 11.1492C273.972 11.9778 272.78 13.1607 271.945 14.6646C271.113 16.1668 270.691 17.9017 270.691 19.8217V23.6429H266.129V28.9396H270.691V51.2534H277.24V28.9396H286.953V43.1196C286.953 48.9596 289.697 51.9191 295.108 51.9191C295.997 51.9191 296.933 51.8145 297.889 51.6097C298.862 51.3994 299.524 51.1893 299.914 50.965L300 50.9137V45.5681L299.734 45.7449C299.379 45.9827 298.936 46.177 298.417 46.3215C297.896 46.4686 297.461 46.5424 297.123 46.5424C295.856 46.5424 294.918 46.1994 294.336 45.5227C293.747 44.8397 293.449 43.6455 293.449 41.9749V28.9396H300ZM251.503 46.5432C249.126 46.5432 247.252 45.7519 245.931 44.1932C244.603 42.6267 243.929 40.3932 243.929 37.5555C243.929 34.6278 244.603 32.3364 245.932 30.7421C247.254 29.1584 249.11 28.3546 251.45 28.3546C253.721 28.3546 255.529 29.1223 256.824 30.6376C258.125 32.1607 258.785 34.4338 258.785 37.3956C258.785 40.3938 258.164 42.6969 256.94 44.2375C255.723 45.7665 253.894 46.5432 251.503 46.5432ZM251.795 22.9778C247.259 22.9778 243.657 24.3119 241.089 26.943C238.523 29.5744 237.221 33.216 237.221 37.7673C237.221 42.0903 238.491 45.5675 240.997 48.1008C243.503 50.6349 246.913 51.9185 251.131 51.9185C255.527 51.9185 259.058 50.5658 261.625 47.8983C264.192 45.2336 265.492 41.6265 265.492 37.1815C265.492 32.7909 264.272 29.2878 261.864 26.7714C259.455 24.2539 256.067 22.9778 251.795 22.9778ZM226.662 22.9778C223.577 22.9778 221.025 23.77 219.076 25.3319C217.115 26.9031 216.12 28.9638 216.12 31.4574C216.12 32.7536 216.335 33.905 216.757 34.8816C217.182 35.8614 217.84 36.724 218.714 37.448C219.582 38.1662 220.921 38.9184 222.695 39.6838C224.187 40.3 225.299 40.8212 226.006 41.232C226.697 41.6347 227.187 42.0393 227.464 42.4335C227.733 42.8193 227.869 43.3472 227.869 43.9986C227.869 45.8536 226.485 46.7562 223.638 46.7562C222.582 46.7562 221.377 46.5348 220.058 46.0983C218.748 45.6685 217.511 45.039 216.391 44.232L216.119 44.0362V50.3663L216.219 50.4129C217.146 50.8423 218.314 51.2045 219.691 51.4894C221.066 51.7746 222.314 51.9197 223.399 51.9197C226.747 51.9197 229.443 51.1238 231.41 49.5525C233.389 47.9705 234.392 45.8612 234.392 43.2813C234.392 41.4202 233.852 39.8242 232.788 38.5371C231.731 37.2604 229.896 36.0883 227.336 35.0523C225.297 34.2307 223.991 33.5487 223.452 33.0251C222.933 32.5194 222.669 31.8041 222.669 30.8983C222.669 30.0954 222.994 29.4521 223.663 28.9311C224.336 28.4076 225.274 28.1413 226.45 28.1413C227.541 28.1413 228.658 28.3144 229.768 28.6535C230.877 28.9926 231.852 29.4468 232.665 30.0024L232.933 30.186V24.1814L232.83 24.1371C232.08 23.814 231.09 23.5375 229.888 23.3131C228.691 23.0903 227.606 22.9778 226.662 22.9778ZM199.047 46.5432C196.67 46.5432 194.796 45.7519 193.475 44.1932C192.146 42.6267 191.474 40.3938 191.474 37.5555C191.474 34.6278 192.147 32.3364 193.477 30.7421C194.797 29.1584 196.653 28.3546 198.994 28.3546C201.264 28.3546 203.072 29.1223 204.367 30.6376C205.669 32.1607 206.329 34.4338 206.329 37.3956C206.329 40.3938 205.708 42.6969 204.483 44.2375C203.267 45.7665 201.439 46.5432 199.047 46.5432ZM199.339 22.9778C194.803 22.9778 191.2 24.3119 188.633 26.943C186.067 29.5744 184.765 33.216 184.765 37.7673C184.765 42.0921 186.036 45.5675 188.541 48.1008C191.047 50.6349 194.457 51.9185 198.675 51.9185C203.071 51.9185 206.602 50.5658 209.169 47.8983C211.736 45.2336 213.037 41.6265 213.037 37.1815C213.037 32.7909 211.816 29.2878 209.408 26.7714C206.998 24.2539 203.61 22.9778 199.339 22.9778ZM174.823 28.4245V23.6429H168.354V51.2528H174.823V37.1293C174.823 34.7277 175.366 32.7548 176.436 31.2645C177.493 29.7921 178.901 29.0459 180.62 29.0459C181.203 29.0459 181.857 29.1424 182.565 29.3332C183.266 29.5229 183.774 29.7289 184.074 29.9456L184.346 30.1434V23.5958L184.241 23.5506C183.638 23.2936 182.786 23.164 181.708 23.164C180.082 23.164 178.627 23.6884 177.381 24.7209C176.287 25.6285 175.497 26.8728 174.892 28.4245H174.823ZM156.769 22.9778C153.801 22.9778 151.153 23.6167 148.902 24.8762C146.645 26.1386 144.9 27.9409 143.713 30.2326C142.531 32.5188 141.931 35.1892 141.931 38.1674C141.931 40.7761 142.513 43.17 143.663 45.28C144.814 47.3934 146.442 49.0468 148.504 50.1935C150.563 51.3388 152.942 51.9194 155.577 51.9194C158.651 51.9194 161.276 51.3023 163.38 50.0854L163.465 50.0365V44.0863L163.194 44.2856C162.24 44.9828 161.175 45.5393 160.029 45.9401C158.885 46.3407 157.843 46.5432 156.929 46.5432C154.39 46.5432 152.352 45.7458 150.873 44.1737C149.391 42.5996 148.639 40.3892 148.639 37.6077C148.639 34.8087 149.423 32.5415 150.968 30.8686C152.508 29.2006 154.549 28.3546 157.035 28.3546C159.162 28.3546 161.234 29.0774 163.194 30.505L163.465 30.7028V24.4334L163.378 24.3838C162.64 23.9693 161.634 23.6269 160.385 23.3673C159.141 23.1083 157.925 22.9778 156.769 22.9778ZM137.475 23.6432H131.006V51.2528H137.475V23.6432ZM134.307 11.8814C133.242 11.8814 132.314 12.2453 131.551 12.9663C130.784 13.6894 130.396 14.5999 130.396 15.6744C130.396 16.732 130.78 17.6258 131.539 18.3297C132.293 19.0315 133.224 19.3873 134.307 19.3873C135.39 19.3873 136.325 19.0315 137.088 18.3309C137.856 17.6258 138.245 16.7323 138.245 15.6744C138.245 14.6375 137.866 13.7364 137.12 12.9955C136.374 12.256 135.427 11.8814 134.307 11.8814ZM118.166 21.6062V51.2528H124.768V12.7266H115.63L104.015 41.3427L92.7442 12.7266H83.2344V51.2525H89.4387V21.6032H89.6517L101.554 51.2528H106.236L117.953 21.6062H118.166Z" fill="#706D6E"/>
<path d="M30.4334 30.4053H0V-0.147461H30.4334V30.4053Z" fill="#F1511B"/>
<path d="M64.0363 30.4053H33.6035V-0.147461H64.0363V30.4053Z" fill="#80CC28"/>
<path d="M30.4325 64.1511H0V33.5986H30.4325V64.1511Z" fill="#00ADEF"/>
<path d="M64.0363 64.1511H33.6035V33.5986H64.0363V64.1511Z" fill="#FBBC09"/>
</g>
<defs>
<clipPath id="clip0_945_10128">
<rect width="300" height="64" fill="white"/>
</clipPath>
</defs>
</svg>
