<svg width="490" height="64" viewBox="0 0 490 64" fill="none" xmlns="http://www.w3.org/2000/svg">
<g clip-path="url(#clip0_863_10173)">
<path d="M219.861 22.9475C223.346 22.9475 226.148 24.037 228.267 26.2161C230.42 28.3606 231.496 31.3698 231.496 35.2436V52.1054H224.32V36.2294C224.32 33.9812 223.757 32.269 222.628 31.093C221.501 29.8824 219.963 29.2772 218.015 29.2772C216.068 29.2772 214.513 29.8824 213.351 31.093C212.224 32.269 211.66 33.9812 211.66 36.2294V52.1054H204.484V36.2294C204.484 33.9812 203.92 32.269 202.792 31.093C201.665 29.8824 200.127 29.2772 198.179 29.2772C196.197 29.2772 194.625 29.8824 193.463 31.093C192.336 32.269 191.772 33.9812 191.772 36.2294V52.1054H184.596V23.3626H191.772V26.8387C192.695 25.6281 193.874 24.6769 195.309 23.9852C196.778 23.2934 198.384 22.9475 200.127 22.9475C202.348 22.9475 204.33 23.4317 206.073 24.4002C207.816 25.3341 209.165 26.683 210.122 28.447C211.044 26.7868 212.377 25.4552 214.12 24.4521C215.897 23.449 217.811 22.9475 219.861 22.9475Z" fill="#5B5FC7"/>
<path d="M241.944 19.9384C240.68 19.9384 239.62 19.5407 238.766 18.7452C237.946 17.915 237.536 16.8947 237.536 15.6841C237.536 14.4735 237.946 13.4704 238.766 12.6749C239.62 11.8448 240.68 11.4297 241.944 11.4297C243.208 11.4297 244.251 11.8448 245.071 12.6749C245.925 13.4704 246.352 14.4735 246.352 15.6841C246.352 16.8947 245.925 17.915 245.071 18.7452C244.251 19.5407 243.208 19.9384 241.944 19.9384ZM245.481 23.3627V52.1056H238.305V23.3627H245.481Z" fill="#5B5FC7"/>
<path d="M250.726 37.6304C250.726 34.725 251.289 32.1482 252.417 29.9C253.579 27.6517 255.151 25.9223 257.133 24.7117C259.115 23.5011 261.318 22.8958 263.744 22.8958C265.59 22.8958 267.35 23.3109 269.024 24.141C270.699 24.9365 272.031 26.0088 273.022 27.3577V13.7126H280.301V52.1056H273.022V47.8513C272.134 49.2694 270.887 50.4108 269.281 51.2755C267.674 52.1402 265.812 52.5726 263.693 52.5726C261.302 52.5726 259.115 51.95 257.133 50.7048C255.151 49.4596 253.579 47.7129 252.417 45.4647C251.289 43.1818 250.726 40.5704 250.726 37.6304ZM273.074 37.7342C273.074 35.9702 272.732 34.4656 272.049 33.2204C271.365 31.9406 270.442 30.9722 269.281 30.315C268.119 29.6232 266.872 29.2774 265.538 29.2774C264.206 29.2774 262.976 29.606 261.848 30.2631C260.721 30.9203 259.798 31.8888 259.08 33.1686C258.397 34.4137 258.055 35.901 258.055 37.6304C258.055 39.3598 258.397 40.8817 259.08 42.1961C259.798 43.4758 260.721 44.4616 261.848 45.1534C263.01 45.8452 264.24 46.191 265.538 46.191C266.872 46.191 268.119 45.8624 269.281 45.2052C270.442 44.5135 271.365 43.545 272.049 42.2998C272.732 41.0201 273.074 39.4982 273.074 37.7342Z" fill="#5B5FC7"/>
<path d="M285.464 37.6304C285.464 34.725 286.028 32.1482 287.156 29.9C288.318 27.6517 289.889 25.9223 291.871 24.7117C293.853 23.5011 296.057 22.8958 298.483 22.8958C300.329 22.8958 302.089 23.3109 303.763 24.141C305.437 24.9365 306.77 26.0088 307.761 27.3577V13.7126H315.039V52.1056H307.761V47.8513C306.872 49.2694 305.625 50.4108 304.019 51.2755C302.413 52.1402 300.551 52.5726 298.432 52.5726C296.04 52.5726 293.853 51.95 291.871 50.7048C289.889 49.4596 288.318 47.7129 287.156 45.4647C286.028 43.1818 285.464 40.5704 285.464 37.6304ZM307.812 37.7342C307.812 35.9702 307.471 34.4656 306.787 33.2204C306.104 31.9406 305.181 30.9722 304.019 30.315C302.858 29.6232 301.61 29.2774 300.277 29.2774C298.945 29.2774 297.715 29.606 296.587 30.2631C295.459 30.9203 294.537 31.8888 293.819 33.1686C293.136 34.4137 292.794 35.901 292.794 37.6304C292.794 39.3598 293.136 40.8817 293.819 42.1961C294.537 43.4758 295.459 44.4616 296.587 45.1534C297.748 45.8452 298.979 46.191 300.277 46.191C301.61 46.191 302.858 45.8624 304.019 45.2052C305.181 44.5135 306.104 43.545 306.787 42.2998C307.471 41.0201 307.812 39.4982 307.812 37.7342Z" fill="#5B5FC7"/>
<path d="M329.224 13.7126V52.1056H322.048V13.7126H329.224Z" fill="#5B5FC7"/>
<path d="M362.711 37.1116C362.711 38.1492 362.643 39.0831 362.506 39.9132H341.747C341.918 41.9885 342.636 43.6141 343.9 44.7902C345.164 45.9662 346.719 46.5542 348.565 46.5542C351.23 46.5542 353.127 45.3954 354.254 43.078H361.994C361.174 45.8451 359.602 48.1279 357.278 49.9265C354.954 51.6905 352.101 52.5725 348.719 52.5725C345.984 52.5725 343.524 51.9672 341.337 50.7566C339.184 49.5114 337.493 47.7647 336.263 45.5165C335.067 43.2682 334.469 40.6741 334.469 37.7341C334.469 34.7595 335.067 32.1481 336.263 29.8999C337.459 27.6516 339.133 25.9222 341.286 24.7116C343.439 23.501 345.916 22.8958 348.719 22.8958C351.418 22.8958 353.827 23.4838 355.946 24.6598C358.098 25.8358 359.756 27.5133 360.917 29.6924C362.113 31.8368 362.711 34.3099 362.711 37.1116ZM355.279 35.0362C355.245 33.1685 354.579 31.6812 353.28 30.5744C351.982 29.4329 350.392 28.8622 348.513 28.8622C346.736 28.8622 345.233 29.4156 344.002 30.5224C342.807 31.5947 342.072 33.0993 341.799 35.0362H355.279Z" fill="#5B5FC7"/>
<path d="M405.777 23.6738L397.012 52.1054H392.194L385.428 29.5366L378.662 52.1054H373.844L365.027 23.6738H369.795L376.253 47.5398L383.224 23.6738H387.991L394.808 47.5916L401.164 23.6738H405.777Z" fill="#5B5FC7"/>
<path d="M408.663 37.786C408.663 34.8806 409.244 32.3384 410.406 30.1593C411.568 27.9456 413.157 26.2335 415.173 25.0229C417.223 23.8123 419.496 23.207 421.99 23.207C424.45 23.207 426.586 23.7432 428.397 24.8154C430.208 25.8876 431.558 27.2366 432.447 28.8622V23.674H437.162V52.1056H432.447V46.8136C431.524 48.4738 430.14 49.8573 428.294 50.9642C426.484 52.0364 424.365 52.5725 421.939 52.5725C419.444 52.5725 417.189 51.9499 415.173 50.7047C413.157 49.4596 411.568 47.7128 410.406 45.4646C409.244 43.2164 408.663 40.6568 408.663 37.786ZM432.447 37.8379C432.447 35.6934 432.019 33.8256 431.165 32.2346C430.311 30.6435 429.149 29.4329 427.679 28.6028C426.244 27.7381 424.655 27.3058 422.912 27.3058C421.17 27.3058 419.581 27.7208 418.146 28.5509C416.71 29.381 415.566 30.5916 414.712 32.1827C413.857 33.7738 413.43 35.6415 413.43 37.786C413.43 39.965 413.857 41.8674 414.712 43.4931C415.566 45.0842 416.71 46.312 418.146 47.1767C419.581 48.0068 421.17 48.4219 422.912 48.4219C424.655 48.4219 426.244 48.0068 427.679 47.1767C429.149 46.312 430.311 45.0842 431.165 43.4931C432.019 41.8674 432.447 39.9824 432.447 37.8379Z" fill="#5B5FC7"/>
<path d="M449.709 28.2914C450.529 26.6657 451.691 25.4032 453.194 24.504C454.732 23.6047 456.594 23.155 458.782 23.155V28.032H457.551C452.323 28.032 449.709 30.9028 449.709 36.6444V52.1054H445.045V23.6738H449.709V28.2914Z" fill="#5B5FC7"/>
<path d="M489.794 36.8002C489.794 37.6996 489.743 38.6507 489.64 39.6538H467.189C467.361 42.4554 468.3 44.6518 470.009 46.2428C471.751 47.7993 473.853 48.5776 476.314 48.5776C478.329 48.5776 480.004 48.1106 481.336 47.1767C482.703 46.2082 483.66 44.9285 484.207 43.3374H489.23C488.479 46.0699 486.975 48.3008 484.72 50.0302C482.464 51.7251 479.662 52.5725 476.314 52.5725C473.648 52.5725 471.256 51.9672 469.137 50.7566C467.053 49.546 465.413 47.8339 464.217 45.6202C463.02 43.372 462.423 40.7779 462.423 37.8379C462.423 34.8979 463.004 32.321 464.166 30.1074C465.327 27.8938 466.95 26.1989 469.035 25.0229C471.153 23.8123 473.58 23.207 476.314 23.207C478.979 23.207 481.336 23.795 483.387 24.971C485.437 26.147 487.009 27.7727 488.103 29.848C489.23 31.8887 489.794 34.2061 489.794 36.8002ZM484.976 35.8145C484.976 34.0159 484.583 32.4767 483.797 31.197C483.011 29.8826 481.935 28.8968 480.567 28.2396C479.235 27.5479 477.748 27.202 476.108 27.202C473.751 27.202 471.734 27.9629 470.06 29.4848C468.42 31.0067 467.48 33.1166 467.241 35.8145H484.976Z" fill="#5B5FC7"/>
<path d="M104.626 34.3135C105.2 33.421 105.66 32.7665 106.08 32.0723C109.239 26.8363 112.34 21.5606 115.651 16.3444C116.255 15.2844 117.161 14.4444 118.244 13.9401C119.327 13.4357 120.534 13.2917 121.7 13.528C122.828 13.7044 123.867 14.2668 124.651 15.1259C125.435 15.985 125.919 17.0911 126.026 18.2682C126.139 19.6926 125.846 21.1202 125.184 22.3738C120.003 31.2459 114.72 40.0586 109.335 48.8118C106.77 52.9768 101.678 52.7784 99.1893 48.4151C96.1457 43.2782 93.2555 38.0422 90.2889 32.8656C89.8866 32.1516 89.4464 31.4773 88.8528 30.4856L86.7474 33.9366C83.9143 38.7165 81.0048 43.4964 78.1724 48.2961C75.3393 53.0958 69.9413 53.1751 67.0511 48.0779C63.7967 42.3659 60.5618 36.634 57.1929 30.7038C56.6952 31.4773 56.2741 32.0922 55.9104 32.6872C52.7329 37.9232 49.5937 43.179 46.3397 48.3952C45.9468 49.0687 45.4289 49.6548 44.816 50.1194C44.2031 50.5841 43.5073 50.9182 42.769 51.1023C42.0306 51.2864 41.2643 51.317 40.5144 51.1922C39.7646 51.0674 39.0461 50.7898 38.4005 50.3754C37.755 49.9609 37.1951 49.4178 36.7534 48.7777C36.3118 48.1375 35.9971 47.413 35.8276 46.6459C35.658 45.8788 35.637 45.0846 35.7657 44.309C35.8944 43.5336 36.1703 42.7922 36.5774 42.1279C41.6819 33.5862 46.8692 25.0645 52.1395 16.5625C52.6656 15.5203 53.4625 14.6512 54.4401 14.0535C55.4178 13.4558 56.5373 13.1533 57.6721 13.1801C58.807 13.207 59.9121 13.562 60.8624 14.2053C61.8127 14.8486 62.5705 15.7544 63.0502 16.8204C65.9406 21.8779 68.7927 26.9751 71.645 32.0326C72.0467 32.7466 72.4869 33.421 73.042 34.3333L82.7663 18.2286C83.1873 17.5344 83.5889 16.8005 84.0869 16.1262C84.6546 15.2043 85.446 14.4525 86.3809 13.9454C87.3164 13.4384 88.3635 13.1938 89.4178 13.2358C90.4729 13.278 91.4987 13.6054 92.3937 14.1855C93.2887 14.7656 94.021 15.5782 94.519 16.5427C97.4862 21.6399 100.262 26.7966 103.247 31.9335C103.63 32.6673 104.051 33.3615 104.626 34.3135Z" fill="#5B5FC7"/>
<path d="M131.415 63.9991L161.707 32.5391H146.98L131.491 48.6455C130.516 49.6509 129.742 50.8469 129.213 52.1645C128.685 53.482 128.413 54.8951 128.413 56.3223C128.413 57.7495 128.685 59.1626 129.213 60.4801C129.742 61.7977 130.516 62.9937 131.491 63.9991H131.415Z" fill="#5B5FC7" fill-opacity="0.5"/>
<path d="M131.461 1.08203C130.495 2.0722 129.728 3.24771 129.205 4.54145C128.683 5.83518 128.413 7.2218 128.413 8.62213C128.413 10.0225 128.683 11.4091 129.205 12.7028C129.728 13.9966 130.495 15.1721 131.461 16.1623L146.973 31.9819C147.941 32.9707 148.71 34.1459 149.234 35.4397C149.759 36.7337 150.028 38.1209 150.028 39.522C150.028 40.9231 149.759 42.3103 149.234 43.6043C148.71 44.8981 147.941 46.0733 146.973 47.0621L161.707 31.9819L131.48 1.08203H131.461Z" fill="#5B5FC7"/>
<path d="M29.7359 0L5.95508 24.8657L14.2783 31.9999L29.7359 15.3536C30.7049 14.3455 31.4735 13.1487 31.9979 11.8315C32.5223 10.5143 32.7922 9.10253 32.7922 7.6768C32.7922 6.25109 32.5223 4.83933 31.9979 3.52214C31.4735 2.20495 30.7049 1.00812 29.7359 0Z" fill="#5B5FC7" fill-opacity="0.5"/>
<path d="M30.2369 64.0004C31.2058 62.9581 31.9745 61.7207 32.4989 60.3589C33.0233 58.9971 33.2932 57.5375 33.2932 56.0635C33.2932 54.5894 33.0233 53.1298 32.4989 51.768C31.9745 50.4061 31.2058 49.1688 30.2369 48.1265L14.7567 31.4743C13.7877 30.4319 13.0191 29.1946 12.4947 27.8327C11.9703 26.4709 11.7004 25.0113 11.7004 23.5373C11.7004 22.0633 11.9703 20.6037 12.4947 19.2418C13.0191 17.88 13.7877 16.6426 14.7567 15.6003L0 31.4743L30.2369 64.0004Z" fill="#5B5FC7"/>
</g>
<defs>
<clipPath id="clip0_863_10173">
<rect width="490" height="64" fill="white"/>
</clipPath>
</defs>
</svg>
