<svg width="295" height="64" viewBox="0 0 295 64" fill="none" xmlns="http://www.w3.org/2000/svg">
<g clip-path="url(#clip0_918_10075)">
<path d="M85.1561 0H73.6777V63.7382H85.1561V0Z" fill="#292A35"/>
<path d="M119.217 14.0224C122.437 12.276 126.143 11.39 130.236 11.39C136.288 11.39 141.523 13.4743 145.783 17.5854L146.733 18.5032L147.186 18.943L147.632 18.4968L154.64 11.492L155.075 11.0586L154.66 10.606L153.799 9.65634C150.942 6.5013 147.429 4.07287 143.354 2.4348C139.323 0.822227 134.796 0 129.899 0C123.649 0 117.929 1.37038 112.904 4.07287C107.847 6.79449 103.83 10.6315 100.96 15.4757C98.0907 20.3198 96.6367 25.8203 96.6367 31.8245C96.6367 37.8286 98.0907 43.3165 100.96 48.1351C101.949 49.7986 103.084 51.3347 104.334 52.7561C110.194 58.6519 118.018 62.5909 126.748 63.5215C128.062 63.6617 129.395 63.7382 130.746 63.7382C135.039 63.7382 139.157 63.0051 142.99 61.6666C146.937 60.2963 150.572 58.2758 153.786 55.7391L154.583 55.1016V30.4159H142.984V49.0656L142.92 49.1039C139.503 51.1371 134.675 52.259 130.128 52.259C126.098 52.259 122.419 51.3602 119.205 49.5883C116.01 47.8291 113.472 45.3688 111.667 42.2839C109.856 39.1926 108.938 35.6743 108.938 31.8309C108.938 27.9874 109.856 24.3862 111.667 21.295C113.472 18.2099 116.003 15.7688 119.198 14.0352L119.217 14.0224Z" fill="#292A35"/>
<path d="M185.283 14.0224C188.504 12.276 192.209 11.39 196.302 11.39C202.354 11.39 207.59 13.4743 211.849 17.5854L212.799 18.5032L213.252 18.943L213.699 18.4968L220.707 11.492L221.141 11.0586L220.726 10.606L219.866 9.65634C217.008 6.5013 213.495 4.07287 209.419 2.4348C205.39 0.822227 200.862 0 195.965 0C189.715 0 183.996 1.37038 178.97 4.07287C173.913 6.79449 169.896 10.6315 167.026 15.4757C164.156 20.3198 162.703 25.8203 162.703 31.8245C162.703 37.8286 164.156 43.3165 167.026 48.1351C168.015 49.7986 169.15 51.3347 170.399 52.7561C176.261 58.6519 184.085 62.5909 192.815 63.5215C194.129 63.6617 195.461 63.7382 196.813 63.7382C201.105 63.7382 205.224 63.0051 209.056 61.6666C213.004 60.2963 216.639 58.2758 219.852 55.7391L220.65 55.1016V30.4159H209.05V49.0656L208.986 49.1039C205.568 51.1371 200.741 52.259 196.195 52.259C192.164 52.259 188.485 51.3602 185.271 49.5883C182.076 47.8291 179.538 45.3688 177.733 42.2839C175.922 39.1926 175.004 35.6743 175.004 31.8309C175.004 27.9874 175.922 24.3862 177.733 21.295C179.538 18.2099 182.069 15.7688 185.264 14.0352L185.283 14.0224Z" fill="#292A35"/>
<path d="M290.667 15.5393C287.823 10.7144 283.831 6.87735 278.806 4.13024C273.793 1.3895 268.124 0 261.958 0C255.791 0 250.033 1.3895 245.022 4.13024C239.996 6.87735 235.991 10.7335 233.122 15.584C230.252 20.4344 228.799 25.916 228.799 31.8754C228.799 37.835 230.252 43.3165 233.122 48.1606C235.991 53.0111 239.996 56.8608 245.022 59.6143C250.033 62.3551 255.727 63.7446 261.958 63.7446C268.188 63.7446 273.8 62.3551 278.806 59.6143C283.831 56.8672 287.823 53.0238 290.667 48.2051C293.511 43.3866 294.945 37.8923 294.945 31.8754C294.945 25.8586 293.504 20.3707 290.667 15.5457V15.5393ZM283.678 31.869C283.678 35.9229 282.721 39.6323 280.833 42.8958C278.945 46.1592 276.337 48.7534 273.08 50.6081C269.814 52.4693 266.071 53.4126 261.958 53.4126C257.845 53.4126 254.064 52.4693 250.741 50.6081C247.425 48.7534 244.792 46.1592 242.904 42.9022C241.016 39.6387 240.06 35.9293 240.06 31.8754C240.06 27.8217 241.016 24.1121 242.904 20.8488C244.785 17.5918 247.419 14.9976 250.741 13.1365C254.069 11.2753 257.845 10.332 261.958 10.332C266.071 10.332 269.814 11.2753 273.08 13.1301C276.344 14.9912 278.952 17.5854 280.833 20.8424C282.721 24.1058 283.678 27.8153 283.678 31.869Z" fill="#292A35"/>
<path d="M20.0744 27.7142L0 7.64941V23.8708L11.9566 35.8281L0 47.7789V64.0003L20.0744 43.9355L28.1858 35.8281L20.0744 27.7142Z" fill="#FD5861"/>
<path d="M55.958 0.000976562H50.7353H47.8084L32.2807 15.5213L16.7467 0.000976562H0.517578L24.1629 23.6351L24.1438 23.6479L32.2616 31.7617L50.7353 13.2968V63.7392H62.2137V0.000976562H55.958Z" fill="#292A35"/>
</g>
<defs>
<clipPath id="clip0_918_10075">
<rect width="295" height="64" fill="white"/>
</clipPath>
</defs>
</svg>
