<svg width="236" height="65" viewBox="0 0 236 65" fill="none" xmlns="http://www.w3.org/2000/svg">
<g clip-path="url(#clip0_897_10116)">
<path d="M32.4507 60.6169C28.9005 61.2425 25.288 61.43 21.5509 61.9296L10.1524 28.4298V63.3673C6.60224 63.7422 3.36346 64.2422 0 64.7422V0.742188H9.46766L22.4228 37.0552V0.742188H32.4507V60.6169ZM52.0707 24.1797C55.9327 24.1797 61.8497 23.9921 65.3999 23.9921V33.9919C60.9774 33.9919 55.808 33.9919 52.0707 34.1795V49.0547C57.9258 48.6799 63.7806 48.1794 69.6974 47.9919V57.6163L42.1048 59.8043V0.742188H69.6974V10.7422H52.0707V24.1797ZM106.757 10.7424H96.418V56.7424C93.0545 56.7424 89.6911 56.7424 86.4527 56.867V10.7424H76.1135V0.742188H106.758L106.757 10.7424ZM122.951 23.4924H136.592V33.4922H122.951V56.1799H113.172V0.742188H141.014V10.7422H122.951V23.4924ZM157.208 47.4297C162.877 47.5543 168.607 47.9926 174.15 48.3045V58.1797C165.244 57.6168 156.337 57.055 147.243 56.867V0.742188H157.208V47.4297ZM182.559 58.8672C185.735 59.055 189.099 59.2425 192.337 59.617V0.742188H182.559V58.8672ZM236 0.742188L223.356 31.1798L236 64.7422C232.262 64.2422 228.525 63.5547 224.788 62.9296L217.626 44.43L210.339 61.4301C206.726 60.8045 203.238 60.6169 199.626 60.1169L212.456 30.8044L200.871 0.742188H211.584L218.124 17.5547L225.1 0.742188L236 0.742188Z" fill="#D81F26"/>
</g>
<defs>
<clipPath id="clip0_897_10116">
<rect width="236" height="64" fill="white" transform="translate(0 0.742188)"/>
</clipPath>
</defs>
</svg>
