<svg width="489" height="68" viewBox="0 0 489 68" fill="none" xmlns="http://www.w3.org/2000/svg">
<g clip-path="url(#clip0_941_10109)">
<path d="M49.5854 0.000307819H45.4415C44.9183 -0.0584232 44.3888 0.00192723 43.892 0.176885C43.3953 0.351843 42.9441 0.636922 42.5719 1.01099C42.1997 1.38506 41.916 1.83852 41.7419 2.33776C41.5678 2.837 41.5078 3.36922 41.5662 3.89496V45.4853L13.3648 2.58726C12.9476 1.73731 12.2833 1.03479 11.4599 0.572808C10.6365 0.110822 9.69291 -0.0888285 8.75408 0.000307819H3.77569C3.25739 -0.0561215 2.73311 0.0066913 2.24254 0.183991C1.75197 0.361292 1.30796 0.648432 0.944125 1.02368C0.58029 1.39892 0.306165 1.85244 0.142501 2.34989C-0.0211634 2.84734 -0.0700771 3.3757 -0.00053771 3.89496V62.8406C-0.00053771 65.3849 1.28649 66.8063 3.77569 66.8063H8.01864C10.5078 66.8063 11.7949 65.5128 11.7949 62.9117V20.2838L40.0812 64.1341C40.4835 64.983 41.1297 65.6914 41.9364 66.1677C42.7431 66.644 43.6733 66.8664 44.607 66.8063H49.5854C50.1102 66.8735 50.6434 66.8191 51.144 66.6471C51.6446 66.4751 52.0994 66.1902 52.4735 65.8143C52.8476 65.4383 53.1311 64.9812 53.3022 64.4781C53.4733 63.975 53.5275 63.4391 53.4606 62.9117V3.89496C53.5191 3.36922 53.459 2.837 53.2849 2.33776C53.1109 1.83852 52.8272 1.38506 52.455 1.01099C52.0828 0.636922 51.6316 0.351843 51.1348 0.176885C50.6381 0.00192723 50.1085 -0.0584232 49.5854 0.000307819Z" fill="#282D34"/>
<path d="M106.074 56.4578H78.3671V37.7948H98.012C98.533 37.8554 99.0609 37.7958 99.5556 37.6207C100.05 37.4455 100.499 37.1593 100.867 36.7839C101.235 36.4084 101.513 35.9535 101.68 35.4539C101.847 34.9542 101.899 34.4228 101.831 33.9001V31.2705C101.889 30.7504 101.829 30.2237 101.654 29.7305C101.48 29.2374 101.195 28.7908 100.823 28.4248C100.45 28.0588 99.9999 27.783 99.5054 27.6185C99.011 27.4539 98.4857 27.405 97.9696 27.4754H78.3671V10.2764H104.659C105.175 10.3467 105.701 10.2978 106.195 10.1333C106.69 9.96875 107.14 9.69298 107.513 9.32698C107.885 8.96097 108.169 8.51438 108.344 8.02123C108.519 7.52807 108.579 7.00137 108.52 6.48122V3.89427C108.581 3.36928 108.523 2.83728 108.351 2.33794C108.179 1.8386 107.896 1.3848 107.525 1.01039C107.154 0.635986 106.703 0.350634 106.207 0.175618C105.711 0.00060157 105.182 -0.0595612 104.659 -0.000383711H70.348C69.8297 -0.0568131 69.3054 0.00599977 68.8148 0.1833C68.3242 0.3606 67.8802 0.647741 67.5164 1.02299C67.1526 1.39823 66.8784 1.85174 66.7148 2.3492C66.5511 2.84665 66.5022 3.37501 66.5717 3.89427V62.8399C66.5717 65.3842 67.887 66.8056 70.348 66.8056H106.074C106.598 66.8728 107.132 66.8184 107.632 66.6464C108.133 66.4744 108.588 66.1896 108.962 65.8136C109.336 65.4376 109.619 64.9805 109.79 64.4774C109.961 63.9743 110.016 63.4384 109.949 62.911V60.253C110.005 59.7321 109.942 59.2052 109.766 58.7121C109.59 58.2191 109.304 57.7729 108.931 57.4072C108.557 57.0416 108.106 56.7661 107.611 56.6016C107.116 56.4371 106.59 56.3879 106.074 56.4578Z" fill="#282D34"/>
<path d="M170.141 -0.000394505H123.13C122.605 -0.0675952 122.072 -0.0131261 121.571 0.158837C121.07 0.330799 120.616 0.615689 120.241 0.991664C119.867 1.36764 119.584 1.82471 119.413 2.32785C119.242 2.83098 119.187 3.36681 119.254 3.89425V6.48121C119.254 8.98288 120.541 10.2764 123.13 10.2764H140.724V62.8683C140.641 63.3932 140.68 63.9303 140.839 64.4371C140.998 64.944 141.272 65.4066 141.64 65.7886C142.008 66.1706 142.459 66.4613 142.958 66.6378C143.457 66.8143 143.989 66.8718 144.514 66.8056H148.658C149.185 66.8818 149.721 66.8335 150.226 66.6647C150.731 66.4959 151.19 66.2112 151.566 65.8332C151.942 65.4552 152.225 64.9942 152.393 64.487C152.561 63.9797 152.609 63.4401 152.533 62.911V10.319H170.141C170.661 10.3955 171.19 10.3489 171.688 10.1831C172.186 10.0173 172.639 9.73676 173.01 9.36393C173.381 8.99109 173.66 8.53627 173.825 8.03576C173.99 7.53525 174.036 7.0029 173.96 6.48121V3.89425C174.031 3.37103 173.981 2.83845 173.816 2.33744C173.65 1.83644 173.371 1.38035 173.003 1.00423C172.634 0.628107 172.184 0.341972 171.688 0.167814C171.192 -0.00634408 170.663 -0.0638878 170.141 -0.000394505Z" fill="#282D34"/>
<path d="M192.346 18.4783C192.346 14.0293 196.208 11.0728 202.247 11.0728C206.282 11.1782 210.205 12.4299 213.561 14.6831C215.499 15.6923 217.436 16.1045 218.822 13.3754L220.633 10.2768C220.923 9.85876 221.122 9.38444 221.219 8.88427C221.315 8.38411 221.307 7.86917 221.194 7.37255C221.08 6.87592 220.865 6.40859 220.561 6.00057C220.258 5.59256 219.873 5.25288 219.431 5.00337C214.403 1.69203 208.512 -0.0489343 202.501 2.85176e-05C190.055 2.85176e-05 180.466 7.50505 180.466 19.0895C180.466 39.5577 210.973 36.9565 210.973 49.4649C210.973 53.9139 207.296 56.9699 201.2 56.9699C196.385 56.802 191.744 55.1163 187.934 52.1514C185.628 50.8579 184.059 50.9432 182.588 52.99L180.565 55.9465C178.712 58.4482 179.632 60.0259 181.117 61.3194C186.955 65.595 193.977 67.9306 201.2 68C214.933 68 222.867 59.1873 222.867 48.541C222.867 27.6037 192.346 30.7592 192.346 18.4783Z" fill="#282D34"/>
<path d="M420.942 -0.000340647H416.699C416.185 -0.0475392 415.667 0.0221457 415.184 0.203544C414.7 0.384943 414.264 0.673399 413.907 1.04751C413.549 1.42162 413.28 1.87179 413.12 2.36461C412.959 2.85743 412.911 3.38026 412.979 3.89431V43.1677C412.979 52.0657 407.166 57.0691 398.412 57.0691C389.657 57.0691 383.943 52.0657 383.943 43.1677V3.89431C384.012 3.36146 383.957 2.81985 383.783 2.31185C383.609 1.80385 383.32 1.34324 382.939 0.966072C382.559 0.5889 382.096 0.305394 381.588 0.137737C381.08 -0.0299189 380.541 -0.0771776 380.011 -0.000340647H375.868C375.349 -0.05677 374.825 0.00604285 374.334 0.183343C373.844 0.360643 373.4 0.647784 373.036 1.02303C372.672 1.39827 372.398 1.85179 372.234 2.34924C372.071 2.84669 372.022 3.37505 372.091 3.89431V43.2672C372.091 57.993 382.6 67.9997 398.454 67.9997C414.309 67.9997 424.718 58.0498 424.718 43.2672V3.89431C424.788 3.37505 424.739 2.84669 424.575 2.34924C424.411 1.85179 424.137 1.39827 423.773 1.02303C423.41 0.647784 422.965 0.360643 422.475 0.183343C421.984 0.00604285 421.46 -0.05677 420.942 -0.000340647Z" fill="#282D34"/>
<path d="M484.36 -0.000394503H437.362C436.837 -0.0675952 436.304 -0.0131261 435.803 0.158837C435.303 0.330799 434.848 0.615689 434.474 0.991664C434.1 1.36764 433.816 1.82471 433.645 2.32785C433.474 2.83098 433.42 3.36681 433.487 3.89425V6.48121C433.487 8.98288 434.774 10.2764 437.362 10.2764H454.956V62.8683C454.873 63.3932 454.913 63.9303 455.072 64.4371C455.231 64.944 455.505 65.4067 455.873 65.7886C456.24 66.1706 456.691 66.4613 457.19 66.6378C457.689 66.8143 458.222 66.8718 458.746 66.8056H462.89C463.421 66.8771 463.96 66.8228 464.465 66.6469C464.971 66.4711 465.428 66.1786 465.801 65.7931C466.173 65.4075 466.451 64.9395 466.611 64.4267C466.771 63.9138 466.81 63.3704 466.723 62.8399V10.2479H484.317C484.83 10.318 485.352 10.2682 485.843 10.1025C486.334 9.93676 486.78 9.65953 487.146 9.29237C487.513 8.92521 487.791 8.478 487.957 7.98551C488.124 7.49302 488.175 6.96852 488.108 6.45278V3.89425C488.176 3.37761 488.128 2.85204 487.966 2.35691C487.804 1.86179 487.532 1.40996 487.172 1.03529C486.811 0.660615 486.371 0.372813 485.884 0.193451C485.397 0.0140884 484.876 -0.0521821 484.36 -0.000394503Z" fill="#282D34"/>
<path d="M327.654 -0.000434391H301.914C301.198 -0.000434401 300.49 0.141114 299.83 0.416128C299.169 0.691142 298.569 1.09424 298.063 1.6024C297.558 2.11056 297.157 2.71383 296.883 3.37777C296.609 4.04172 296.468 4.75333 296.468 5.47197C296.468 6.19062 296.609 6.90223 296.883 7.56617C297.157 8.23012 297.558 8.83339 298.063 9.34155C298.569 9.84971 299.169 10.2528 299.83 10.5278C300.49 10.8028 301.198 10.9444 301.914 10.9444H327.654C340.256 10.9444 349.35 20.7663 349.35 33.5447C349.35 46.8917 340.256 57.0832 327.654 57.0832C315.053 57.0832 305.958 46.9059 305.958 33.5305C305.87 29.9241 306.645 26.3492 308.218 23.1065C309.791 19.8637 312.115 17.0479 314.996 14.8959H298.986C295.444 20.45 293.587 26.9197 293.64 33.5163C293.64 52.8758 307.783 67.9854 327.583 67.9854C347.384 67.9854 361.598 52.8758 361.598 33.5163C361.598 14.7111 347.455 -0.0146484 327.583 -0.0146484" fill="#97D700"/>
<path d="M286.045 51.8955C284.63 49.7634 282.721 49.7634 280.684 51.2417C276.046 54.7982 270.407 56.7884 264.575 56.9273C250.432 56.9273 242.455 45.7267 242.455 33.4315C242.455 21.1363 250.135 10.9164 264.476 10.9164C269.752 10.9927 274.893 12.5967 279.284 15.536C281.519 16.9574 283.273 16.7442 284.574 14.6121L286.228 11.9256C287.53 9.89304 287.431 8.04521 285.493 6.56695C279.192 2.18316 271.686 -0.112754 264.024 6.07083e-05C244.124 6.07083e-05 230.08 14.6121 230.08 33.6731C230.08 53.0042 243.417 67.8863 264.024 67.8863C272.501 67.9233 280.735 65.033 287.346 59.6991C287.76 59.4027 288.107 59.0211 288.363 58.5794C288.619 58.1378 288.778 57.6464 288.831 57.138C288.883 56.6296 288.827 56.1158 288.666 55.6309C288.505 55.1461 288.243 54.7013 287.897 54.3262L286.045 51.8955Z" fill="#282D34"/>
<path d="M478.123 61.1199C478.12 60.1623 478.369 59.2209 478.844 58.3908C479.314 57.5311 480.015 56.8217 480.867 56.344C481.688 55.8545 482.627 55.599 483.582 55.6049C484.423 55.5948 485.255 55.7806 486.012 56.1475C486.769 56.5145 487.432 57.0528 487.948 57.7201C488.463 58.3875 488.818 59.1658 488.985 59.9941C489.151 60.8224 489.124 61.6781 488.906 62.4943C488.689 63.3104 488.286 64.0648 487.729 64.6983C487.173 65.3318 486.478 65.8272 485.699 66.1457C484.921 66.4642 484.079 66.5971 483.241 66.534C482.402 66.471 481.59 66.2136 480.867 65.7821C480.042 65.3065 479.362 64.6135 478.901 63.778C478.413 62.9763 478.145 62.0594 478.123 61.1199ZM478.887 61.1199C478.886 61.9438 479.102 62.7533 479.511 63.467C479.921 64.1806 480.51 64.7732 481.22 65.1852C481.928 65.6039 482.733 65.8248 483.554 65.8248C484.38 65.8302 485.192 65.609 485.902 65.1852C486.607 64.7723 487.196 64.1852 487.613 63.4795C488.024 62.7619 488.239 61.9479 488.235 61.1199C488.239 60.2965 488.024 59.4869 487.613 58.7746C487.201 58.0617 486.611 57.4689 485.902 57.0547C485.193 56.6288 484.38 56.4075 483.554 56.4151C482.735 56.4135 481.93 56.6292 481.22 57.0405C480.496 57.435 479.886 58.0132 479.453 58.7178C479.047 59.4508 478.851 60.2821 478.887 61.1199ZM485.76 59.798C485.766 60.1614 485.663 60.5181 485.463 60.8214C485.249 61.126 484.948 61.3587 484.601 61.4895L486.312 64.3323H485.11L483.611 61.7596H482.635V64.3323H481.574V57.8365H483.455C484.083 57.7832 484.709 57.9544 485.223 58.3198C485.407 58.4966 485.55 58.7116 485.643 58.9497C485.736 59.1878 485.776 59.4433 485.76 59.6985V59.798ZM482.621 60.8925H483.413C483.744 60.9045 484.07 60.7989 484.332 60.594C484.447 60.5028 484.538 60.3859 484.6 60.2526C484.661 60.1192 484.69 59.9733 484.686 59.8265C484.701 59.6805 484.681 59.5328 484.627 59.3965C484.573 59.2602 484.486 59.1394 484.374 59.0447C484.082 58.8644 483.741 58.78 483.398 58.803H482.621V60.8925Z" fill="#282D34"/>
</g>
<defs>
<clipPath id="clip0_941_10109">
<rect width="489" height="68" fill="white"/>
</clipPath>
</defs>
</svg>
