<svg width="272" height="65" viewBox="0 0 272 65" fill="none" xmlns="http://www.w3.org/2000/svg">
<g clip-path="url(#clip0_895_10150)">
<path d="M91.7145 1.09733C74.1537 1.09733 60.5275 13.8785 60.5275 32.1773C60.5275 51.3002 74.1529 63.2581 91.7145 63.2573C109.276 63.2565 122.93 51.2993 122.901 32.1773C122.876 14.8399 109.276 1.09733 91.7145 1.09733ZM91.7145 9.65401C103.969 9.65401 113.903 18.8773 113.903 32.1773C113.903 45.7239 103.969 54.7015 91.7145 54.7015C79.4601 54.7015 69.526 45.7231 69.526 32.1773C69.526 18.8765 79.4601 9.65401 91.7145 9.65401ZM188.022 2.12375V62.2301H197.037V2.12375H188.022ZM163.137 2.12375L129.682 32.1765L163.137 62.2301H176.551L143.045 32.1765L176.551 2.12375H163.137ZM238.408 0.177734L233.516 9.21469L250.114 40.0457H216.826L204.817 62.2309H214.734L221.986 48.9204H254.831L262.083 62.2309H271.999L238.408 0.177734ZM0 0.177734V62.2309H9.20004V21.2225L57.0073 64.1769V51.3114L0 0.177734Z" fill="#005AFF"/>
</g>
<defs>
<clipPath id="clip0_895_10150">
<rect width="272" height="64" fill="white" transform="translate(0 0.177734)"/>
</clipPath>
</defs>
</svg>
