<svg width="86" height="65" viewBox="0 0 86 65" fill="none" xmlns="http://www.w3.org/2000/svg">
<g clip-path="url(#clip0_891_10072)">
<path d="M85.3992 62.7601C85.3992 63.6927 84.7216 64.3186 83.9195 64.3186V64.3129C83.0947 64.3186 82.4296 63.6927 82.4296 62.7603C82.4296 61.8282 83.0947 61.204 83.9195 61.204C84.7219 61.2037 85.3992 61.8279 85.3992 62.7601ZM85.9994 62.7601C85.9994 61.4802 85.0157 60.7373 83.9195 60.7373C82.8157 60.7373 81.832 61.4802 81.832 62.7601C81.832 64.0391 82.8159 64.785 83.9195 64.785C85.016 64.785 85.9994 64.0391 85.9994 62.7601ZM83.5745 62.9312H83.7972L84.3132 63.847H84.8799L84.3083 62.8926C84.6037 62.8713 84.8467 62.7291 84.8467 62.3273C84.8467 61.8279 84.506 61.6674 83.9291 61.6674H83.0944V63.847H83.5742V62.9312M83.5745 62.5622V62.0374H83.9083C84.0898 62.0374 84.3372 62.0523 84.3372 62.2761C84.3372 62.5197 84.2092 62.5622 83.9951 62.5622H83.5745Z" fill="black"/>
<path d="M71.9933 51.6108L74.5865 58.7811H69.3197L71.9933 51.6108ZM69.216 48.819L63.2398 64.1225H67.4598L68.4051 61.4184H75.4774L76.372 64.1225H80.9532L74.9325 48.817L69.216 48.819ZM57.2179 64.1281H61.4993V48.8142L57.2172 48.8133L57.2179 64.1281ZM27.4957 48.8133L23.9237 60.9507L20.5019 48.8142L15.8823 48.8133L20.7693 64.1281H26.9373L31.8637 48.8133H27.4957ZM44.8017 52.148H46.6418C49.3114 52.148 51.0379 53.3593 51.0379 56.5029C51.0379 59.6472 49.3114 60.8587 46.6418 60.8587H44.8017V52.148ZM40.5562 48.8133V64.1281H47.4972C51.1953 64.1281 52.4028 63.5069 53.7085 62.1131C54.6308 61.1345 55.2273 58.9868 55.2273 56.6391C55.2273 54.4858 54.7225 52.5664 53.8424 51.3704C52.2565 49.2315 49.9721 48.8133 46.5627 48.8133H40.5562ZM0 48.792V64.1281H4.31762V52.4833L7.66307 52.4843C8.7708 52.4843 9.56042 52.7633 10.0939 53.3393C10.7704 54.0676 11.0467 55.2433 11.0467 57.3939V64.1281H15.2305V55.6548C15.2305 49.6074 11.4167 48.792 7.68509 48.792H0ZM33.6657 48.8133L33.6674 64.1281H37.9468V48.8133H33.6657Z" fill="black"/>
<path d="M11.5058 18.3199C11.5058 18.3199 17.0123 10.1085 28.0072 9.25897V6.27988C15.829 7.26838 5.2832 17.693 5.2832 17.693C5.2832 17.693 11.2562 35.1444 28.0072 36.7422V33.5757C15.7145 32.0127 11.5058 18.3199 11.5058 18.3199ZM28.0072 27.2782V30.1781C18.7166 28.5041 16.1378 18.7433 16.1378 18.7433C16.1378 18.7433 20.5986 13.7489 28.0072 12.9389V16.1211C28.0015 16.1211 27.9976 16.1193 27.993 16.1193C24.1045 15.6477 21.0669 19.319 21.0669 19.319C21.0669 19.319 22.7695 25.4995 28.0072 27.2782ZM28.0072 0.785156V6.27988C28.3647 6.25218 28.7222 6.22869 29.0816 6.21632C42.9269 5.7447 51.948 17.693 51.948 17.693C51.948 17.693 41.5869 30.4264 30.7925 30.4264C29.8032 30.4264 28.877 30.3337 28.0072 30.1779V33.5757C28.751 33.6711 29.5223 33.7273 30.3271 33.7273C40.372 33.7273 47.6362 28.5424 54.6702 22.4059C55.8364 23.3499 60.6109 25.6464 61.5923 26.6518C54.9044 32.3109 39.3176 36.8728 30.481 36.8728C29.6292 36.8728 28.8112 36.8206 28.0072 36.7422V41.5168H66.1872V0.785156H28.0072ZM28.0072 12.9389V9.25897C28.361 9.23399 28.7175 9.21495 29.0816 9.20333C39.0377 8.88726 45.5696 17.8505 45.5696 17.8505C45.5696 17.8505 38.5145 27.7535 30.9501 27.7535C29.8614 27.7535 28.8856 27.5767 28.0072 27.2782V16.1211C31.8831 16.5944 32.6629 18.3248 34.9932 22.2509L40.1758 17.8342C40.1758 17.8342 36.3926 12.8195 30.0151 12.8195C29.3219 12.8192 28.6585 12.8685 28.0072 12.9389Z" fill="#77B900"/>
</g>
<defs>
<clipPath id="clip0_891_10072">
<rect width="86" height="64" fill="white" transform="translate(0 0.785156)"/>
</clipPath>
</defs>
</svg>
