<svg width="143" height="32" viewBox="0 0 143 32" fill="none" xmlns="http://www.w3.org/2000/svg">
<g clip-path="url(#clip0_864_10085)">
<mask id="mask0_864_10085" style="mask-type:luminance" maskUnits="userSpaceOnUse" x="0" y="0" width="143" height="32">
<path d="M143 0H0V32H143V0Z" fill="white"/>
</mask>
<g mask="url(#mask0_864_10085)">
<path d="M121.591 10.9688H119.355C119.159 10.9688 118.983 10.8888 118.855 10.7609C118.728 10.6329 118.648 10.4569 118.648 10.2614V8.02531C118.648 7.82979 118.568 7.65382 118.44 7.52584C118.312 7.39786 118.136 7.31787 117.94 7.31787H107.44C107.321 7.31787 107.204 7.34098 107.094 7.38186C106.969 7.42985 106.856 7.50273 106.76 7.60049L103.703 10.6578C103.612 10.7484 103.543 10.8533 103.495 10.9688C103.447 11.0844 103.42 11.2106 103.42 11.3403V21.7866C103.42 21.9448 103.472 22.0905 103.559 22.2078C103.687 22.382 103.895 22.494 104.128 22.494H106.363C106.532 22.494 106.685 22.5527 106.808 22.6504C106.968 22.7802 107.071 22.9793 107.071 23.2014V25.4375C107.071 25.633 107.151 25.809 107.279 25.937C107.407 26.065 107.582 26.145 107.778 26.145H118.264C118.392 26.145 118.516 26.1201 118.633 26.0721C118.751 26.0241 118.855 25.953 118.946 25.8623L122.019 22.7891C122.104 22.7038 122.172 22.6042 122.22 22.494C122.273 22.3731 122.302 22.2416 122.302 22.1065V11.6763C122.302 11.5163 122.248 11.3688 122.159 11.2514C122.03 11.0808 121.825 10.9688 121.594 10.9688H121.591ZM118.648 21.7848C118.648 21.959 118.584 22.119 118.479 22.2434C118.349 22.3962 118.155 22.4922 117.94 22.4922H107.774C107.579 22.4922 107.403 22.4122 107.275 22.2843C107.147 22.1563 107.067 21.9803 107.067 21.7848V11.6745C107.067 11.479 107.147 11.303 107.275 11.175C107.403 11.047 107.579 10.967 107.774 10.967H117.94C118.136 10.967 118.312 11.047 118.44 11.175C118.568 11.303 118.648 11.479 118.648 11.6745V21.7848Z" fill="black"/>
<path d="M80.1796 26.1432H77.9261C77.7306 26.1432 77.5547 26.0632 77.4268 25.9352C77.2988 25.8072 77.2188 25.6313 77.2188 25.4357V8.02531C77.2188 7.83867 77.2899 7.66981 77.4072 7.54361C77.537 7.40497 77.7199 7.31787 77.9261 7.31787H80.1796C80.3485 7.31787 80.5031 7.37653 80.6239 7.47429C80.7839 7.60405 80.887 7.80135 80.887 8.02531V25.4357C80.887 25.6313 80.807 25.8072 80.679 25.9352C80.5511 26.0632 80.3751 26.1432 80.1796 26.1432Z" fill="black"/>
<path d="M80.1796 3.66872H77.9261C77.7519 3.66872 77.5921 3.60473 77.4677 3.49986C77.3148 3.37011 77.2188 3.17636 77.2188 2.96128V0.707438C77.2188 0.519025 77.2917 0.348386 77.4108 0.222185C77.5405 0.0853191 77.7217 0 77.9261 0H80.1796C80.3751 0 80.5511 0.0799867 80.679 0.207965C80.807 0.335944 80.887 0.511915 80.887 0.707438V2.96128C80.887 3.15681 80.807 3.33278 80.679 3.46076C80.5511 3.58874 80.3751 3.66872 80.1796 3.66872Z" fill="black"/>
<path d="M140.059 14.8075C140.059 14.8078 140.059 14.8084 140.059 14.8084H142.294C142.391 14.8084 142.484 14.7888 142.569 14.7533C142.823 14.6466 143.001 14.3942 143.001 14.1009V11.7049C143.001 11.5022 142.919 11.3174 142.786 11.1841C142.653 11.0508 142.468 10.969 142.265 10.969H140.104C139.896 10.969 139.708 10.8855 139.573 10.7486C139.438 10.6117 139.352 10.4251 139.352 10.2171V8.0557C139.352 7.85307 139.27 7.66821 139.137 7.5349C139.004 7.40159 138.819 7.31982 138.616 7.31982H128.145C128.019 7.31982 127.894 7.34471 127.779 7.39092C127.663 7.43714 127.553 7.51001 127.462 7.60067L124.406 10.6579C124.324 10.7397 124.258 10.8357 124.21 10.9388C124.153 11.0632 124.123 11.2001 124.123 11.3405V13.4308C124.123 13.6068 124.175 13.7739 124.265 13.9161C124.356 14.0583 124.487 14.1756 124.647 14.2484L138.94 20.8216C139.002 20.85 139.059 20.8873 139.11 20.9318C139.262 21.0633 139.352 21.2571 139.352 21.4632V21.785C139.352 21.9609 139.288 22.1227 139.182 22.2471C139.052 22.3982 138.86 22.4924 138.647 22.4924H128.481C128.285 22.4924 128.109 22.4124 127.981 22.2844C127.853 22.1565 127.774 21.9805 127.774 21.785V19.2698C127.774 19.0743 127.694 18.8983 127.566 18.7704C127.438 18.6424 127.262 18.5624 127.066 18.5624H124.83C124.649 18.5624 124.484 18.6299 124.358 18.7437C124.214 18.8735 124.123 19.0619 124.123 19.2698V21.785C124.123 21.9805 124.203 22.1565 124.331 22.2844C124.459 22.4124 124.635 22.4924 124.83 22.4924H127.066C127.249 22.4924 127.415 22.5617 127.541 22.6755C127.685 22.8052 127.774 22.9919 127.774 23.1998V25.4057C127.774 25.6083 127.855 25.7932 127.989 25.9265C128.122 26.0598 128.307 26.1416 128.509 26.1416H138.965C139.093 26.1416 139.217 26.1167 139.333 26.0687C139.448 26.0207 139.555 25.9496 139.645 25.8607L142.718 22.791C142.805 22.7039 142.873 22.6026 142.921 22.4924C142.972 22.3733 143.001 22.2418 143.001 22.1085V20.011C143.001 19.8688 142.967 19.7302 142.905 19.6076C142.814 19.428 142.667 19.2805 142.477 19.1934L128.184 12.6203C128.058 12.5634 127.957 12.471 127.884 12.359C127.811 12.247 127.772 12.1155 127.772 11.9768V11.6747C127.772 11.4791 127.852 11.3032 127.98 11.1752C128.108 11.0472 128.284 10.9672 128.479 10.9672H138.599C138.791 10.9672 138.965 11.0383 139.098 11.1556C139.254 11.2943 139.352 11.4951 139.352 11.7191V14.0991C139.352 14.268 139.411 14.4226 139.51 14.5453C139.64 14.705 139.836 14.8062 140.059 14.8066C140.059 14.8066 140.059 14.8072 140.059 14.8075Z" fill="black"/>
<path d="M75.3934 0.707438C75.3934 0.511915 75.3135 0.335944 75.1855 0.207965C75.0575 0.0799867 74.8816 0 74.6861 0H72.4325C72.2548 0 72.0913 0.0657668 71.9669 0.174193C71.8176 0.303949 71.7252 0.49414 71.7252 0.707438V8.01466C71.7252 7.84758 71.6666 7.69294 71.5688 7.57207C71.4391 7.4121 71.24 7.309 71.0179 7.309H60.518C60.39 7.309 60.2656 7.33389 60.1483 7.38188C60.031 7.42987 59.9261 7.50097 59.8355 7.59162L56.7787 10.6489C56.688 10.7395 56.6187 10.8444 56.5707 10.96C56.5227 11.0755 56.4961 11.2017 56.4961 11.3314V21.7777C56.4961 21.9643 56.5672 22.1332 56.6862 22.2594C56.816 22.398 56.999 22.4851 57.2034 22.4851H59.4392C59.6347 22.4851 59.8106 22.5651 59.9386 22.6931C60.0665 22.8211 60.1465 22.9971 60.1465 23.1926V25.4287C60.1465 25.6242 60.2265 25.8001 60.3545 25.9281C60.4824 26.0561 60.6584 26.1361 60.8539 26.1361H71.3396C71.4675 26.1361 71.5919 26.1112 71.7092 26.0632C71.8265 26.0152 71.9314 25.9441 72.022 25.8535L75.0949 22.7802C75.1802 22.6949 75.2477 22.5953 75.2957 22.4851C75.349 22.3643 75.3774 22.2327 75.3774 22.0977L75.3952 0.710993L75.3934 0.707438ZM71.7252 21.7741C71.7252 21.9483 71.663 22.1083 71.5582 22.231C71.4284 22.3838 71.2347 22.4816 71.0179 22.4816H60.8521C60.6566 22.4816 60.4806 22.4016 60.3527 22.2736C60.2247 22.1456 60.1447 21.9697 60.1447 21.7741V11.6638C60.1447 11.4683 60.2247 11.2923 60.3527 11.1644C60.4806 11.0364 60.6566 10.9564 60.8521 10.9564H71.0179C71.2134 10.9564 71.3893 11.0364 71.5173 11.1644C71.6452 11.2923 71.7252 11.4683 71.7252 11.6638V21.7741Z" fill="black"/>
<path d="M100.887 10.9688H98.6512C98.4557 10.9688 98.2798 10.8888 98.1518 10.7609C98.0239 10.6329 97.9439 10.4569 97.9439 10.2614V8.02531C97.9439 7.8369 97.871 7.66626 97.7502 7.53828C97.6204 7.40319 97.4392 7.31787 97.2366 7.31787H86.7366C86.6087 7.31787 86.4843 7.34276 86.367 7.39075C86.2497 7.43874 86.1448 7.50984 86.0542 7.60049L82.9973 10.6578C82.9529 10.7022 82.912 10.752 82.8765 10.8053C82.7716 10.9617 82.7148 11.1483 82.7148 11.3403V21.7866C82.7148 21.9643 82.7805 22.1261 82.8871 22.2505C83.0169 22.3998 83.2071 22.494 83.4203 22.494H85.6561C85.8391 22.494 86.0044 22.5633 86.1306 22.6771C86.2728 22.8068 86.3634 22.9935 86.3634 23.2014V25.4375C86.3634 25.633 86.4434 25.809 86.5714 25.937C86.6993 26.065 86.8753 26.145 87.0708 26.145H97.5565H97.56C97.7697 26.145 97.9439 26.3032 97.9439 26.5111V27.1635C97.9439 27.3465 97.8746 27.5136 97.7591 27.6398C97.6293 27.782 97.4427 27.8709 97.2366 27.8709H87.0708C86.9073 27.8709 86.7562 27.926 86.6371 28.0202C86.4701 28.15 86.3634 28.3508 86.3634 28.5783V30.8144C86.3634 31.0099 86.4434 31.1859 86.5714 31.3139C86.6993 31.4419 86.8753 31.5218 87.0708 31.5218H97.5565C97.6844 31.5218 97.8088 31.497 97.9261 31.449C98.0434 31.401 98.1483 31.3299 98.2389 31.2392L101.311 28.166C101.402 28.0753 101.473 27.9687 101.521 27.8531C101.569 27.7376 101.594 27.6114 101.594 27.4834V11.6763C101.594 11.5092 101.537 11.3563 101.439 11.2354C101.31 11.0737 101.111 10.9688 100.887 10.9688ZM97.9439 19.8118V21.4169C97.9439 22.0105 97.4623 22.4922 96.8687 22.4922H87.0708C86.8753 22.4922 86.6975 22.4122 86.5678 22.2825C86.4381 22.1527 86.3634 21.9785 86.3634 21.7848V11.6745C86.3634 11.479 86.4434 11.303 86.5714 11.175C86.6993 11.047 86.8753 10.967 87.0708 10.967H97.2366C97.4214 10.967 97.5902 11.0381 97.7146 11.1537C97.855 11.2834 97.9421 11.4683 97.9421 11.6745V19.8118H97.9439Z" fill="black"/>
<path d="M53.9769 10.9688H51.7412C51.5457 10.9688 51.3697 10.8888 51.2418 10.7609C51.1138 10.6329 51.0338 10.4569 51.0338 10.2614V8.02531C51.0338 7.82979 50.9539 7.65382 50.8259 7.52584C50.6979 7.39786 50.522 7.31787 50.3265 7.31787H39.8266C39.6986 7.31787 39.5742 7.34276 39.4569 7.39075C39.3396 7.43874 39.2348 7.50984 39.1441 7.60049L36.0873 10.6578C35.9966 10.7484 35.9255 10.8551 35.8776 10.9706C35.8296 11.0861 35.8047 11.2123 35.8047 11.3403V21.7866C35.8047 21.9697 35.874 22.1367 35.9878 22.2612C36.1175 22.4034 36.3041 22.494 36.512 22.494H38.7478C38.9113 22.494 39.0606 22.5491 39.1797 22.6415C39.3467 22.7713 39.4551 22.9739 39.4551 23.2014V25.4375C39.4551 25.633 39.5351 25.809 39.6631 25.937C39.791 26.065 39.967 26.145 40.1625 26.145H50.6482C50.7761 26.145 50.9005 26.1201 51.0178 26.0721C51.1351 26.0241 51.24 25.953 51.3306 25.8623L54.4035 22.7891C54.4888 22.7038 54.5563 22.6042 54.6043 22.494C54.6576 22.3731 54.6861 22.2416 54.6861 22.1065V11.6763C54.6861 11.4861 54.6114 11.3154 54.4906 11.1874C54.3626 11.0524 54.1795 10.9688 53.9787 10.9688H53.9769ZM51.0338 21.7848C51.0338 21.9803 50.9556 22.1563 50.8277 22.2843C50.6997 22.4122 50.522 22.4922 50.3265 22.4922H40.1607C39.9652 22.4922 39.7893 22.4122 39.6613 22.2843C39.5333 22.1563 39.4534 21.9803 39.4534 21.7848V12.0424C39.4534 11.4487 39.935 10.967 40.5286 10.967H50.3265C50.5096 10.967 50.6766 11.0364 50.8028 11.1519C50.945 11.2817 51.0338 11.4665 51.0338 11.6745V21.7848Z" fill="black"/>
<path d="M8.71574 21.3227L3.27384 26.7654C3.13166 26.9076 2.94505 26.9733 2.76022 26.9662C2.5665 26.9591 2.37634 26.8685 2.24837 26.7014C1.36864 25.5602 0.657751 24.3302 0.119249 23.0451C0.030387 22.8318 0.0108374 22.6025 0.0534911 22.3857C0.0961448 22.1688 0.204556 21.9644 0.366285 21.8009L4.61743 17.5491C4.83958 17.327 4.94977 17.0372 4.95155 16.7457C4.95333 16.4542 4.84136 16.1609 4.61743 15.937L0.336072 11.6532C0.11214 11.4293 -0.00515769 11.1271 0.000174025 10.8231C0.0037285 10.6863 0.030387 10.5476 0.0854813 10.4161C0.618652 9.12565 1.32421 7.88853 2.20039 6.74027C2.32657 6.57675 2.50963 6.48609 2.69801 6.47365C2.8864 6.46121 3.0819 6.52698 3.22763 6.67273L8.71574 12.1616C8.89346 12.3393 8.98232 12.5722 8.98232 12.8068C8.98232 13.0414 8.89346 13.2743 8.71574 13.452L6.23116 15.937C6.00901 16.1592 5.89704 16.4507 5.89704 16.7422C5.89704 17.0337 6.00901 17.3252 6.23116 17.5474L8.71574 20.0323C8.89346 20.21 8.98232 20.4429 8.98232 20.6775C8.98232 20.9121 8.89346 21.145 8.71574 21.3227Z" fill="black"/>
<path d="M25.3386 4.69786L19.6159 10.4214C19.4915 10.5458 19.3457 10.6435 19.1893 10.7111C19.0205 10.784 18.8374 10.8213 18.6491 10.8213H11.9382C11.7569 10.8213 11.5792 10.7857 11.4157 10.7164C11.2522 10.6471 11.1011 10.5476 10.9714 10.4196L5.22202 4.6712C5.07629 4.52545 5.01053 4.3317 5.02297 4.14329C5.03541 3.95487 5.12427 3.77002 5.28778 3.64559C6.43232 2.76752 7.66572 2.06008 8.95422 1.52506C9.15149 1.44329 9.36298 1.42019 9.56559 1.45396C9.7984 1.49128 10.0206 1.60149 10.1947 1.77568L14.4885 6.07008C14.7036 6.28515 14.9826 6.39536 15.2634 6.40424C15.5655 6.41313 15.8695 6.30115 16.1005 6.07008L20.3747 1.79523C20.5383 1.63171 20.7426 1.52506 20.9595 1.4824C21.1763 1.43974 21.4055 1.45751 21.6188 1.54816C22.9038 2.08674 24.1336 2.79773 25.2746 3.67759C25.5998 3.92999 25.63 4.41169 25.3386 4.70319V4.69786Z" fill="black"/>
<path d="M15.2606 20.3289C17.2394 20.3289 18.8435 18.7246 18.8435 16.7455C18.8435 14.7665 17.2394 13.1621 15.2606 13.1621C13.2818 13.1621 11.6777 14.7665 11.6777 16.7455C11.6777 18.7246 13.2818 20.3289 15.2606 20.3289Z" fill="black"/>
<path d="M5.22203 28.7401L10.9447 23.0166C11.0567 22.9047 11.1847 22.814 11.3251 22.7482C11.5063 22.6629 11.7072 22.6167 11.9116 22.6167H18.6224C18.8037 22.6167 18.9814 22.6522 19.1449 22.7216C19.3084 22.7909 19.4595 22.8904 19.5892 23.0184L25.3386 28.7686C25.4701 28.9001 25.5358 29.069 25.5394 29.2396C25.543 29.4476 25.4541 29.6573 25.2728 29.7959C24.1283 30.674 22.8949 31.3815 21.6064 31.9165C21.3949 32.0054 21.1656 32.0231 20.9488 31.9805C20.732 31.9378 20.5294 31.8294 20.3659 31.6676L16.0721 27.3732C15.8499 27.1511 15.5584 27.0391 15.267 27.0391C14.9755 27.0391 14.684 27.1511 14.4619 27.3732L10.1876 31.6481C10.0383 31.7974 9.85351 31.9005 9.65623 31.9503C9.42342 32.0089 9.1746 31.9929 8.94534 31.8969C7.6604 31.3584 6.43055 30.6474 5.28956 29.7675C5.12606 29.6413 5.0372 29.4582 5.02653 29.2698C5.01587 29.0814 5.07985 28.8877 5.22558 28.7419L5.22203 28.7401Z" fill="black"/>
<path d="M21.8251 12.1154L27.267 6.67273C27.4128 6.52698 27.6065 6.46121 27.7949 6.47365C27.9833 6.48609 28.1663 6.57319 28.2925 6.73672C29.1722 7.87786 29.8831 9.10788 30.4216 10.393C30.4661 10.4996 30.4927 10.6099 30.5034 10.7201C30.5354 11.0524 30.4181 11.3902 30.1728 11.6355L25.9217 15.8872C25.6995 16.1094 25.5876 16.4009 25.5876 16.6924C25.5876 16.9839 25.6995 17.2754 25.9217 17.4976L30.2048 21.7813C30.3665 21.9431 30.4732 22.1475 30.5176 22.3626C30.562 22.5776 30.5425 22.8069 30.4554 23.0184C29.9222 24.3089 29.2167 25.546 28.3405 26.6943C28.2285 26.84 28.0721 26.9271 27.9051 26.9538C27.6971 26.9858 27.475 26.9236 27.3133 26.7618L21.8251 21.273C21.6474 21.0952 21.5586 20.8624 21.5586 20.6277C21.5586 20.3931 21.6474 20.1603 21.8251 19.9825L24.3097 17.4976C24.5265 17.2807 24.6367 16.9999 24.6438 16.7155C24.651 16.4151 24.539 16.1147 24.3097 15.8854L21.8251 13.4005C21.6474 13.2227 21.5586 12.9899 21.5586 12.7553C21.5586 12.5206 21.6474 12.2878 21.8251 12.11V12.1154Z" fill="black"/>
</g>
</g>
<defs>
<clipPath id="clip0_864_10085">
<rect width="143" height="32" fill="white"/>
</clipPath>
</defs>
</svg>
