<svg width="206" height="63" viewBox="0 0 206 63" fill="none" xmlns="http://www.w3.org/2000/svg">
<path fill-rule="evenodd" clip-rule="evenodd" d="M22.9472 3.91086C21.7868 5.19814 21.0864 6.42875 20.7096 7.58151C20.0538 9.5888 20.3205 11.5432 21.15 13.4479C21.9899 15.3764 23.3875 17.2036 24.9064 18.8669C25.9165 19.9734 26.9077 20.9345 27.809 21.8084C28.2886 22.2737 28.7426 22.7139 29.1607 23.1385C30.1352 24.0964 31.1232 24.9725 32.0532 25.7967C36.1347 29.4129 39.0951 32.0358 34.8232 36.2577L31.8521 39.1943C32.2301 39.572 32.6599 39.9832 33.1362 40.4384C33.3043 40.5989 33.4784 40.7655 33.6575 40.9375C34.406 41.6557 35.2275 42.4571 36.0424 43.3246C37.6624 45.0495 39.3167 47.0975 40.3561 49.3874C41.1383 51.1103 41.5836 52.9984 41.3891 54.9889L42.0999 54.2863H42.1032L51.3897 45.1083L53.1281 43.3904C59.2152 37.3741 59.2152 27.6204 53.1281 21.6042L41.8472 10.4552L35.177 3.86292C31.8131 0.538551 26.3594 0.538521 22.9959 3.86289L22.9472 3.91086Z" fill="url(#paint0_linear_864_10155)"/>
<path fill-rule="evenodd" clip-rule="evenodd" d="M36.2482 60.0447C37.4086 58.757 38.1093 57.5266 38.4856 56.3737C39.1415 54.3665 38.8751 52.4124 38.0456 50.5073C37.2057 48.579 35.8076 46.7517 34.2893 45.0885C33.279 43.9819 32.288 43.0207 31.3866 42.1469C30.907 41.6818 30.4527 41.2414 30.0347 40.8168C29.0602 39.8587 28.0725 38.9827 27.1421 38.1585C23.0608 34.5423 20.1003 31.9196 24.3721 27.6977L27.3436 24.7612C26.9655 24.3832 26.5353 23.972 26.0592 23.5171C25.8912 23.3567 25.7172 23.1901 25.5378 23.0181C24.7893 22.2996 23.9681 21.4983 23.1528 20.6306C21.5331 18.906 19.8788 16.8578 18.8393 14.5682C18.0573 12.8448 17.6121 10.957 17.8064 8.96631L17.0952 9.66917H17.0924L7.80601 18.8469L6.06731 20.565C-0.0198335 26.5812 -0.0198335 36.335 6.06731 42.351L17.3483 53.5001L24.0187 60.0926C27.3822 63.4168 32.836 63.4171 36.1998 60.0926L36.2482 60.0447Z" fill="url(#paint1_linear_864_10155)"/>
<path d="M105.219 4.32086C105.219 3.90823 105.555 3.57373 105.971 3.57373H112.641C113.057 3.57373 113.393 3.90823 113.393 4.32086V46.8567C113.393 47.2692 113.057 47.6039 112.641 47.6039H105.971C105.555 47.6039 105.219 47.2692 105.219 46.8567V4.32086Z" fill="white"/>
<path d="M105.219 4.32086C105.219 3.90823 105.555 3.57373 105.971 3.57373H112.641C113.057 3.57373 113.393 3.90823 113.393 4.32086V46.8567C113.393 47.2692 113.057 47.6039 112.641 47.6039H105.971C105.555 47.6039 105.219 47.2692 105.219 46.8567V4.32086Z" fill="url(#paint2_linear_864_10155)"/>
<path fill-rule="evenodd" clip-rule="evenodd" d="M67.4648 32.8443C67.4648 23.6663 73.9544 17.2788 83.3145 17.2788C92.6119 17.2788 99.1015 23.6663 99.1015 32.8443C99.1015 41.9604 92.6119 48.3478 83.3145 48.3478C73.9544 48.3478 67.4648 41.9604 67.4648 32.8443ZM75.6392 32.8443C75.6392 37.6195 78.7591 40.9683 83.3145 40.9683C87.8072 40.9683 90.9271 37.6195 90.9271 32.8443C90.9271 28.0073 87.8072 24.6585 83.3145 24.6585C78.7591 24.6585 75.6392 28.0073 75.6392 32.8443Z" fill="white"/>
<path fill-rule="evenodd" clip-rule="evenodd" d="M67.4648 32.8443C67.4648 23.6663 73.9544 17.2788 83.3145 17.2788C92.6119 17.2788 99.1015 23.6663 99.1015 32.8443C99.1015 41.9604 92.6119 48.3478 83.3145 48.3478C73.9544 48.3478 67.4648 41.9604 67.4648 32.8443ZM75.6392 32.8443C75.6392 37.6195 78.7591 40.9683 83.3145 40.9683C87.8072 40.9683 90.9271 37.6195 90.9271 32.8443C90.9271 28.0073 87.8072 24.6585 83.3145 24.6585C78.7591 24.6585 75.6392 28.0073 75.6392 32.8443Z" fill="url(#paint3_linear_864_10155)"/>
<path d="M130.478 8.97481C130.478 11.7034 128.232 13.7499 125.486 13.7499C122.678 13.7499 120.494 11.7034 120.494 8.97481C120.494 6.18415 122.678 4.1377 125.486 4.1377C128.232 4.1377 130.478 6.18415 130.478 8.97481Z" fill="white"/>
<path d="M130.478 8.97481C130.478 11.7034 128.232 13.7499 125.486 13.7499C122.678 13.7499 120.494 11.7034 120.494 8.97481C120.494 6.18415 122.678 4.1377 125.486 4.1377C128.232 4.1377 130.478 6.18415 130.478 8.97481Z" fill="url(#paint4_linear_864_10155)"/>
<path d="M121.43 46.8566C121.43 47.2691 121.766 47.6038 122.181 47.6038H128.852C129.268 47.6038 129.604 47.2691 129.604 46.8566V18.7701C129.604 18.3575 129.268 18.0229 128.852 18.0229H122.181C121.766 18.0229 121.43 18.3575 121.43 18.7701V46.8566Z" fill="white"/>
<path d="M121.43 46.8566C121.43 47.2691 121.766 47.6038 122.181 47.6038H128.852C129.268 47.6038 129.604 47.2691 129.604 46.8566V18.7701C129.604 18.3575 129.268 18.0229 128.852 18.0229H122.181C121.766 18.0229 121.43 18.3575 121.43 18.7701V46.8566Z" fill="url(#paint5_linear_864_10155)"/>
<path fill-rule="evenodd" clip-rule="evenodd" d="M160.314 18.023C159.899 18.023 159.562 18.3575 159.562 18.7701V19.6354C157.253 18.147 154.321 17.2788 151.013 17.2788C142.776 17.2788 136.162 23.2322 136.162 32.1001C136.162 39.728 142.776 46.3636 151.013 46.3636C154.321 46.3636 157.253 45.4953 159.562 44.0068V46.2957C159.562 51.1327 156.504 53.7373 152.511 53.7373C148.567 53.7373 146.025 51.8627 145.385 49.0589C145.301 48.6897 144.985 48.404 144.604 48.404H137.79C137.351 48.404 137.003 48.7787 137.065 49.2115C138.066 56.2242 144.275 61.1171 152.511 61.1171C161.372 61.1171 167.736 55.5356 167.736 46.2957V18.7701C167.736 18.3575 167.4 18.023 166.985 18.023H160.314ZM150.97 39.2575C146.995 38.6412 144.336 35.2438 144.336 32.1001C144.336 27.3871 147.581 24.2864 152.261 24.2864C154.098 24.2864 157.641 25.2401 159.562 28.1275C160.252 29.2429 160.648 30.5632 160.648 32.0125C160.648 36.254 157.096 39.4355 152.755 39.4355C152.139 39.4355 151.542 39.3741 150.97 39.2575Z" fill="white"/>
<path fill-rule="evenodd" clip-rule="evenodd" d="M160.314 18.023C159.899 18.023 159.562 18.3575 159.562 18.7701V19.6354C157.253 18.147 154.321 17.2788 151.013 17.2788C142.776 17.2788 136.162 23.2322 136.162 32.1001C136.162 39.728 142.776 46.3636 151.013 46.3636C154.321 46.3636 157.253 45.4953 159.562 44.0068V46.2957C159.562 51.1327 156.504 53.7373 152.511 53.7373C148.567 53.7373 146.025 51.8627 145.385 49.0589C145.301 48.6897 144.985 48.404 144.604 48.404H137.79C137.351 48.404 137.003 48.7787 137.065 49.2115C138.066 56.2242 144.275 61.1171 152.511 61.1171C161.372 61.1171 167.736 55.5356 167.736 46.2957V18.7701C167.736 18.3575 167.4 18.023 166.985 18.023H160.314ZM150.97 39.2575C146.995 38.6412 144.336 35.2438 144.336 32.1001C144.336 27.3871 147.581 24.2864 152.261 24.2864C154.098 24.2864 157.641 25.2401 159.562 28.1275C160.252 29.2429 160.648 30.5632 160.648 32.0125C160.648 36.254 157.096 39.4355 152.755 39.4355C152.139 39.4355 151.542 39.3741 150.97 39.2575Z" fill="url(#paint6_linear_864_10155)"/>
<path fill-rule="evenodd" clip-rule="evenodd" d="M188.979 17.2788C179.618 17.2788 173.129 23.6663 173.129 32.8443C173.129 41.9604 179.618 48.3478 188.979 48.3478C198.276 48.3478 204.766 41.9604 204.766 32.8443C204.766 23.6663 198.276 17.2788 188.979 17.2788ZM188.979 40.9683C184.423 40.9683 181.303 37.6195 181.303 32.8443C181.303 28.0073 184.423 24.6585 188.979 24.6585C193.471 24.6585 196.591 28.0073 196.591 32.8443C196.591 37.6195 193.471 40.9683 188.979 40.9683Z" fill="white"/>
<path fill-rule="evenodd" clip-rule="evenodd" d="M188.979 17.2788C179.618 17.2788 173.129 23.6663 173.129 32.8443C173.129 41.9604 179.618 48.3478 188.979 48.3478C198.276 48.3478 204.766 41.9604 204.766 32.8443C204.766 23.6663 198.276 17.2788 188.979 17.2788ZM188.979 40.9683C184.423 40.9683 181.303 37.6195 181.303 32.8443C181.303 28.0073 184.423 24.6585 188.979 24.6585C193.471 24.6585 196.591 28.0073 196.591 32.8443C196.591 37.6195 193.471 40.9683 188.979 40.9683Z" fill="url(#paint7_linear_864_10155)"/>
<defs>
<linearGradient id="paint0_linear_864_10155" x1="25.0176" y1="7.70683" x2="54.1775" y2="47.1394" gradientUnits="userSpaceOnUse">
<stop stop-color="#182D82"/>
<stop offset="1" stop-color="#5726F4"/>
</linearGradient>
<linearGradient id="paint1_linear_864_10155" x1="6.1777" y1="15.3035" x2="32.0179" y2="62.7556" gradientUnits="userSpaceOnUse">
<stop stop-color="#4668F0"/>
<stop offset="1" stop-color="#591EF4"/>
</linearGradient>
<linearGradient id="paint2_linear_864_10155" x1="106.242" y1="8.7776" x2="122.219" y2="14.5358" gradientUnits="userSpaceOnUse">
<stop stop-color="#182D82"/>
<stop offset="1" stop-color="#5726F4"/>
</linearGradient>
<linearGradient id="paint3_linear_864_10155" x1="71.4252" y1="20.9508" x2="85.6616" y2="49.0921" gradientUnits="userSpaceOnUse">
<stop stop-color="#182D82"/>
<stop offset="1" stop-color="#5726F4"/>
</linearGradient>
<linearGradient id="paint4_linear_864_10155" x1="121.744" y1="5.27375" x2="126.096" y2="14.0498" gradientUnits="userSpaceOnUse">
<stop stop-color="#182D82"/>
<stop offset="1" stop-color="#5726F4"/>
</linearGradient>
<linearGradient id="paint5_linear_864_10155" x1="122.453" y1="21.5191" x2="136.471" y2="29.0387" gradientUnits="userSpaceOnUse">
<stop stop-color="#182D82"/>
<stop offset="1" stop-color="#5726F4"/>
</linearGradient>
<linearGradient id="paint6_linear_864_10155" x1="140.115" y1="22.46" x2="163.711" y2="55.4524" gradientUnits="userSpaceOnUse">
<stop stop-color="#182D82"/>
<stop offset="1" stop-color="#5726F4"/>
</linearGradient>
<linearGradient id="paint7_linear_864_10155" x1="177.089" y1="20.9508" x2="191.326" y2="49.0921" gradientUnits="userSpaceOnUse">
<stop stop-color="#182D82"/>
<stop offset="1" stop-color="#5726F4"/>
</linearGradient>
</defs>
</svg>
