<svg width="493" height="64" viewBox="0 0 493 64" fill="none" xmlns="http://www.w3.org/2000/svg">
<g clip-path="url(#clip0_888_10103)">
<path d="M212.545 41.6429H245.07L227.89 13.9095L196.304 64.0002H181.941L220.356 3.9042C221.194 2.70501 222.307 1.72388 223.601 1.04302C224.896 0.362165 226.336 0.0014021 227.799 -0.00904384C229.262 -0.0194898 230.706 0.320686 232.01 0.982985C233.315 1.64528 234.441 2.61042 235.296 3.79753L273.818 64.0002H259.455L252.69 52.8002H219.78L212.609 41.6429M361.854 52.8002V0.597535H349.646V57.9415C349.644 58.7384 349.804 59.5274 350.115 60.2608C350.427 60.9942 350.885 61.6567 351.46 62.2082C352.038 62.7991 352.729 63.2679 353.491 63.5868C354.254 63.9056 355.073 64.068 355.899 64.0642H411.389L418.624 52.8642H361.79M160.023 43.4775C165.711 43.4775 171.167 41.2187 175.189 37.1979C179.212 33.1771 181.471 27.7238 181.471 22.0375C181.471 16.3513 179.212 10.8979 175.189 6.87717C171.167 2.85639 165.711 0.597535 160.023 0.597535H106.668V64.0002H118.854V11.8189H159.276C161.998 11.8189 164.609 12.9 166.534 14.8243C168.46 16.7487 169.541 19.3587 169.541 22.0802C169.541 24.8017 168.46 27.4117 166.534 29.3361C164.609 31.2604 161.998 32.3415 159.276 32.3415H124.894L161.303 64.0002H178.996L154.538 43.4775H160.023ZM31.7146 64.0002H68.5722C76.8381 63.7858 84.6934 60.3529 90.4639 54.4331C96.2344 48.5133 99.4638 40.5749 99.4638 32.3095C99.4638 24.0442 96.2344 16.1057 90.4639 10.1859C84.6934 4.26617 76.8381 0.833263 68.5722 0.618869H31.7146C27.482 0.509087 23.2703 1.2476 19.3278 2.79084C15.3853 4.33409 11.7918 6.65083 8.75937 9.60444C5.72689 12.5581 3.31678 16.0887 1.67116 19.9883C0.0255422 23.8878 -0.822266 28.0772 -0.822266 32.3095C-0.822266 36.5418 0.0255422 40.7313 1.67116 44.6308C3.31678 48.5303 5.72689 52.061 8.75937 55.0146C11.7918 57.9682 15.3853 60.285 19.3278 61.8282C23.2703 63.3715 27.482 64.11 31.7146 64.0002ZM67.7399 52.8429H32.5256C27.1978 52.6711 22.1457 50.4348 18.4377 46.6068C14.7297 42.7788 12.6564 37.6593 12.6564 32.3309C12.6564 27.0025 14.7297 21.883 18.4377 18.055C22.1457 14.227 27.1978 11.9906 32.5256 11.8189H67.7399C70.4903 11.7302 73.2305 12.1951 75.7976 13.186C78.3648 14.177 80.7064 15.6736 82.6834 17.5871C84.6604 19.5006 86.2324 21.7918 87.3059 24.3246C88.3795 26.8574 88.9327 29.5801 88.9327 32.3309C88.9327 35.0816 88.3795 37.8043 87.3059 40.3371C86.2324 42.8699 84.6604 45.1612 82.6834 47.0746C80.7064 48.9881 78.3648 50.4848 75.7976 51.4757C73.2305 52.4666 70.4903 52.9315 67.7399 52.8429ZM299.279 64.0002H336.905L344.033 52.8429H300.111C297.361 52.9315 294.621 52.4666 292.054 51.4757C289.487 50.4848 287.145 48.9881 285.168 47.0746C283.191 45.1612 281.619 42.8699 280.545 40.3371C279.472 37.8043 278.919 35.0816 278.919 32.3309C278.919 29.5801 279.472 26.8574 280.545 24.3246C281.619 21.7918 283.191 19.5006 285.168 17.5871C287.145 15.6736 289.487 14.177 292.054 13.186C294.621 12.1951 297.361 11.7302 300.111 11.8189H335.859L343.073 0.618869H299.279C295.047 0.509087 290.835 1.2476 286.892 2.79084C282.95 4.33409 279.356 6.65083 276.324 9.60444C273.291 12.5581 270.881 16.0887 269.236 19.9883C267.59 23.8878 266.742 28.0772 266.742 32.3095C266.742 36.5418 267.59 40.7313 269.236 44.6308C270.881 48.5303 273.291 52.061 276.324 55.0146C279.356 57.9682 282.95 60.285 286.892 61.8282C290.835 63.3715 295.047 64.11 299.279 64.0002ZM448.396 52.8429C443.924 52.8446 439.574 51.3869 436.007 48.6915C432.44 45.9961 429.851 42.2103 428.633 37.9095H480.75L487.921 26.7309H428.633C429.848 22.4283 432.436 18.6405 436.004 15.9445C439.572 13.2486 443.923 11.7923 448.396 11.7975H484.165L491.314 0.597535H447.563C439.297 0.81193 431.442 4.24484 425.672 10.1646C419.901 16.0844 416.672 24.0229 416.672 32.2882C416.672 40.5535 419.901 48.492 425.672 54.4118C431.442 60.3316 439.297 63.7645 447.563 63.9789H485.189L492.339 52.8215H448.374" fill="#C74634"/>
</g>
<defs>
<clipPath id="clip0_888_10103">
<rect width="493" height="64" fill="white"/>
</clipPath>
</defs>
</svg>
