<svg width="166" height="64" viewBox="0 0 166 64" fill="none" xmlns="http://www.w3.org/2000/svg">
<g clip-path="url(#clip0_914_10278)">
<path d="M156.307 58.7663L149.706 50.7793H152.851L157.561 56.6022H157.771L162.566 50.7793H165.602L158.985 58.7352V62.9778H156.307V58.7741V58.7663Z" fill="#00217E"/>
<path d="M141.182 52.959H136.013V50.7793H146.833L148.367 52.959H143.86V63.1179H141.182V52.959Z" fill="#00217E"/>
<path d="M129.886 50.7715H132.564V62.97H129.886V50.7715Z" fill="#00217E"/>
<path d="M113.499 50.7559H121.144C124.81 50.7559 126.608 52.2194 126.608 54.8584C126.608 56.8668 125.456 58.2291 123.253 58.7351L127.153 62.9777H123.993L120.599 59.1399H116.177V62.9777H113.499V50.7636V50.7559ZM121.058 57.1626C123.129 57.1626 123.884 56.2051 123.884 54.9596C123.884 53.714 123.129 52.7799 121.058 52.7799H116.177V57.1626H121.058Z" fill="#00217E"/>
<path d="M95.7353 58.2759V50.7715H98.4132V58.1669C98.4132 60.44 100.344 61.1873 102.625 61.1873C104.906 61.1873 106.836 60.4555 106.836 58.2369V50.7715H109.514V58.2058C109.514 61.8879 106.517 63.2502 102.578 63.2502C98.639 63.2502 95.7275 61.8879 95.7275 58.2759H95.7353Z" fill="#00217E"/>
<path d="M78.624 56.9135C78.624 53.4727 81.4965 50.4912 86.8368 50.4912C89.2266 50.4912 91.1339 51.223 92.286 51.9547V54.2434H92.2626C90.7135 53.3559 89.1021 52.5152 86.7745 52.5152C83.3804 52.5152 81.3875 54.3991 81.3875 56.8979C81.3875 59.3579 83.2558 61.2106 86.7278 61.2106C89.032 61.2106 90.7291 60.4944 92.2549 59.5369H92.2782V61.8256C91.165 62.5029 89.1566 63.2424 86.5565 63.2424C81.0917 63.2424 78.6162 60.3465 78.6162 56.9213L78.624 56.9135Z" fill="#00217E"/>
<path d="M64.4639 50.7715H76.5067L76.5923 52.7799H67.1262V55.6447H74.833V57.6531H67.1262V60.9538H76.9348L76.8336 62.9778H64.4717V50.7793L64.4639 50.7715Z" fill="#00217E"/>
<path d="M48.4434 61.9579V59.6692H48.4667C50.5219 60.6267 52.9273 61.2028 55.0447 61.2028C57.31 61.2028 58.5011 60.5722 58.5011 59.5602C58.5011 58.5482 57.5825 58.2368 54.0794 57.7308C51.168 57.2949 48.5679 56.6176 48.5679 54.3289C48.5679 52.3049 50.6231 50.4678 54.9591 50.4678C56.8274 50.4678 58.9215 50.8881 60.4939 51.6355V53.9241H60.4706C58.7735 53.0133 56.6561 52.5073 54.7489 52.5073C52.4836 52.5073 51.3782 53.1535 51.3782 54.0954C51.3782 55.232 53.0986 55.4421 55.7375 55.8547C58.6723 56.2907 61.3113 56.9368 61.3113 59.4123C61.3113 60.9848 60.1203 63.2345 55.0291 63.2345C52.2812 63.2345 50.1715 62.674 48.4511 61.9423L48.4434 61.9579Z" fill="#00217E"/>
<path d="M31.4576 53.916H11.9883V59.809H31.4576V53.916Z" fill="#00217E"/>
<path d="M158.292 1.18337C155.871 1.18337 153.753 2.787 153.068 5.10682C150.282 1.9307 146.14 0.03125 140.504 0.03125C129.629 0.03125 120.646 9.57519 120.646 21.9372C120.646 34.2991 129.621 43.8431 140.504 43.8431C146.14 43.8431 150.282 41.9592 153.084 38.7675C153.769 41.0873 155.886 42.6909 158.307 42.6909H165.353V1.17559H158.292V1.18337ZM142.723 31.7302C137.32 31.7302 133.179 27.8223 133.179 21.9372C133.179 16.052 137.32 12.1597 142.723 12.1597C148.125 12.1597 152.282 16.0676 152.282 21.9372C152.282 27.8068 148.125 31.7302 142.723 31.7302Z" fill="#00217E"/>
<path d="M107.257 27.0905C105.638 29.9941 102.602 31.7301 98.9973 31.7301C93.5948 31.7301 89.4378 27.8222 89.4378 21.937C89.4378 16.0441 93.5948 12.144 98.9973 12.144C102.555 12.144 105.591 13.8488 107.226 16.7136L117.891 10.5404C114.045 4.16477 107.039 0 98.9973 0C86.7833 0 76.9902 9.55951 76.9902 21.9215C76.9902 34.2834 86.7833 43.843 98.9973 43.843C107.093 43.843 114.131 39.6548 117.953 33.178L107.257 27.0749V27.0905Z" fill="#00217E"/>
<path d="M73.5651 0.288086V14.4016C68.4272 13.5686 61.1019 15.6549 61.1019 23.8755V42.6286H48.6543V1.12104H55.6994C58.1204 1.12104 60.2378 2.72467 60.9073 5.06006C64.06 2.00849 68.5518 0.435994 72.9345 0.303655H72.9657C73.1681 0.288086 73.3627 0.288086 73.5651 0.288086Z" fill="#00217E"/>
<path d="M22.3026 -2.7885e-05C19.975 -2.7885e-05 17.7252 0.358064 15.6078 1.01976C16.4174 1.76708 17.1881 2.59225 17.9043 3.47191C18.8618 4.65517 19.7337 5.96299 20.4966 7.34086C21.2594 8.73431 21.9134 10.2212 22.4427 11.7625C22.4894 11.8949 22.5361 12.035 22.5828 12.1751C27.6973 12.3853 31.7453 16.659 31.6986 21.9059C31.6519 27.0982 27.6039 31.3408 22.5595 31.6289C22.5206 31.7378 22.4894 31.8468 22.4505 31.9558C21.9211 33.4972 21.2672 34.984 20.5043 36.3775C19.7492 37.7631 18.8774 39.0632 17.9121 40.2464C17.1492 41.1884 16.324 42.068 15.4443 42.8543C17.4839 43.4693 19.648 43.804 21.8978 43.804C34.1041 43.804 44.0839 33.9954 44.2007 21.8981C44.3175 9.8008 34.5166 -0.0078125 22.3104 -0.0078125L22.3026 -2.7885e-05Z" fill="#00217E"/>
<path d="M13.9653 27.1445C13.6929 28.2499 13.3348 29.3398 12.8988 30.3907C12.3539 31.6907 11.6844 32.9441 10.906 34.1118C10.1353 35.2717 9.24007 36.3615 8.26699 37.3579C7.94783 37.6771 7.62087 37.9885 7.28613 38.2921C8.88198 39.7089 10.6802 40.8922 12.6497 41.7952C12.7899 41.6784 12.9378 41.5694 13.0779 41.4527C14.0821 40.6197 15.024 39.6622 15.8803 38.6035C16.7444 37.537 17.5229 36.3693 18.2079 35.1238C18.8541 33.9483 19.4146 32.695 19.8739 31.3949C17.3906 30.8189 15.2887 29.2619 13.9809 27.1445H13.9653Z" fill="#00217E"/>
<path d="M8.25988 6.3675C9.24074 7.35615 10.1282 8.45378 10.8989 9.61369C11.6773 10.7892 12.3546 12.0347 12.8917 13.3347C13.351 14.4401 13.7247 15.5845 13.9971 16.7522C15.3205 14.6348 17.4302 13.0545 19.8901 12.4473C19.423 11.1083 18.847 9.81609 18.1853 8.60169C17.5002 7.35615 16.7218 6.18067 15.8577 5.12197C15.0014 4.06326 14.0594 3.10575 13.0552 2.2728C12.9851 2.21052 12.9073 2.14824 12.8372 2.09375C10.8755 3.01233 9.06948 4.20338 7.47363 5.6124C7.73831 5.85372 8.00299 6.11061 8.25209 6.3675H8.25988Z" fill="#00217E"/>
<path d="M6.39914 35.5206C7.26324 34.6487 8.0417 33.6834 8.72674 32.6636C9.41179 31.6283 10.0034 30.5307 10.4861 29.3863C10.9687 28.2186 11.3424 27.0042 11.5993 25.7587C11.8562 24.482 11.9885 23.1742 11.9885 21.8664C11.9885 20.5586 11.8562 19.243 11.5993 17.9741C11.3502 16.7363 10.9765 15.5141 10.4861 14.3464C10.0112 13.2021 9.41957 12.0967 8.72674 11.0691C8.0417 10.0493 7.26324 9.08404 6.39914 8.21217C6.15004 7.95527 5.88536 7.70617 5.62068 7.46484C4.30508 8.93614 3.17631 10.5865 2.28887 12.3769C2.52241 12.6494 2.74038 12.9296 2.95056 13.2099C3.58111 14.0584 4.11825 14.9614 4.55419 15.8956C4.99791 16.8531 5.34044 17.8573 5.56619 18.8771C5.79973 19.9202 5.9165 21.0023 5.90871 22.0766C5.90871 23.1508 5.77638 24.2329 5.53505 25.276C5.30151 26.2958 4.95121 27.2923 4.4997 28.2498C4.05598 29.1839 3.51105 30.0869 2.87271 30.9277C2.67031 31.1924 2.46013 31.457 2.23438 31.7139C3.0829 33.4343 4.16496 35.0224 5.41828 36.447C5.75302 36.1512 6.07998 35.8476 6.39136 35.5284L6.39914 35.5206Z" fill="#00217E"/>
<path d="M1.08988 28.9117C1.4869 28.3357 1.8372 27.7362 2.12524 27.1213C2.4989 26.335 2.78693 25.5176 2.97376 24.6847C3.16837 23.8284 3.27736 22.9487 3.27736 22.069C3.27736 21.1894 3.18394 20.3019 2.99711 19.4456C2.81028 18.6127 2.53004 17.7875 2.16416 17.0013C1.86834 16.3707 1.52582 15.7557 1.12102 15.1719C0.420405 17.2893 0.0233891 19.5546 3.52522e-05 21.9056C-0.0233186 24.3577 0.358128 26.7165 1.08988 28.9117Z" fill="#00217E"/>
</g>
<defs>
<clipPath id="clip0_914_10278">
<rect width="165.61" height="63.25" fill="white"/>
</clipPath>
</defs>
</svg>
