<svg width="306" height="64" viewBox="0 0 306 64" fill="none" xmlns="http://www.w3.org/2000/svg">
<mask id="mask0_912_10169" style="mask-type:luminance" maskUnits="userSpaceOnUse" x="0" y="0" width="306" height="64">
<path d="M305.418 0H0.708984V64H305.418V0Z" fill="white"/>
</mask>
<g mask="url(#mask0_912_10169)">
<path d="M130.169 53.7391C129.975 53.6266 129.747 53.5944 129.537 53.6586C127.349 54.2863 124.869 54.6726 122.923 54.6726C117.591 54.6726 115.208 52.1297 115.208 46.4001V28.3905H129.747C130.169 28.3905 130.525 28.0524 130.525 27.6179V20.9225C130.525 20.504 130.185 20.15 129.747 20.15H115.208V5.97072C115.208 5.55225 114.868 5.19824 114.43 5.19824H106.375C105.953 5.19824 105.596 5.53616 105.596 5.97072V20.15H84.8497V5.97072C84.8497 5.55225 84.509 5.19824 84.0717 5.19824H76.0159C75.5941 5.19824 75.2379 5.53616 75.2379 5.97072V20.15H66.7282C66.3074 20.15 65.9502 20.4879 65.9502 20.9225V27.6179C65.9502 28.0362 66.2909 28.3905 66.7282 28.3905H75.2379V46.4001C75.2379 57.3283 81.0083 63.5891 91.0575 63.5891C94.3642 63.5891 96.7304 63.2024 100.815 61.9955C101.188 61.8831 101.431 61.5128 101.35 61.126L100.118 54.254C100.086 54.0449 99.9559 53.8518 99.7617 53.7391C99.5674 53.6266 99.3399 53.5944 99.1291 53.6586C96.9414 54.2863 94.4616 54.6726 92.516 54.6726C87.1838 54.6726 84.8009 52.1297 84.8009 46.4001V28.3905H105.548V46.4001C105.548 57.3283 111.318 63.5891 121.367 63.5891C124.674 63.5891 127.04 63.2024 131.125 61.9955C131.498 61.8831 131.741 61.5128 131.66 61.126L130.428 54.254C130.395 54.0449 130.266 53.8518 130.071 53.7391H130.169Z" fill="#090065"/>
<path d="M155.051 19.1201C142.181 19.1201 132.829 28.4388 132.829 41.2662C132.829 54.0934 142.165 63.3318 155.051 63.3318C164.516 63.3318 172.231 58.4872 174.695 50.9871C174.777 50.7457 174.728 50.5044 174.582 50.2952C174.436 50.1021 174.209 49.9732 173.95 49.9732H165.279C164.987 49.9732 164.727 50.1343 164.597 50.3757C163.009 53.3691 159.703 55.0109 155.31 55.0109C147.643 55.0109 143.737 50.0376 142.522 45.0806H174.647C174.647 45.0806 174.712 45.0806 174.728 45.0806C174.874 45.0806 175.036 45.0806 175.166 45.0001C175.392 44.8875 175.539 44.6781 175.571 44.4367C175.749 43.2459 175.749 41.9743 175.749 40.8317C175.652 28.2619 166.948 19.1201 155.019 19.1201H155.051ZM142.505 37.5483C143.851 31.3359 148.454 27.5215 154.695 27.5215C160.934 27.5215 165.036 31.2555 165.992 37.5483H142.505Z" fill="#090065"/>
<path d="M32.4617 0.43457C14.956 0.43457 0.708984 14.5817 0.708984 31.9637C0.708984 49.3457 14.956 63.4927 32.4617 63.4927C49.9674 63.4927 64.2142 49.3457 64.2142 31.9637C64.2142 14.5817 49.9674 0.43457 32.4617 0.43457ZM54.1808 31.9637C54.1808 44.2437 44.44 54.2223 32.4617 54.2223C20.4834 54.2223 10.6606 44.4369 10.6606 31.9637C10.6606 19.4905 20.2403 9.70505 32.4617 9.70505C44.6831 9.70505 54.1808 19.6836 54.1808 31.9637Z" fill="#090065"/>
<path d="M204.422 19.2163C198.733 19.2163 193.708 21.212 189.786 24.9941V20.9383C189.786 20.5199 189.445 20.1659 189.008 20.1659H180.952C180.53 20.1659 180.174 20.5038 180.174 20.9383V61.5283C180.174 61.947 180.515 62.3008 180.952 62.3008H189.008C189.429 62.3008 189.786 61.9635 189.786 61.5283V35.7936C193.367 30.9973 198.296 28.4707 204.438 28.3097C204.86 28.3097 205.184 27.9555 205.184 27.5372V19.9727C205.184 19.5542 204.843 19.2002 204.406 19.2002L204.422 19.2163Z" fill="#090065"/>
<path d="M261.036 20.167H225.848C225.427 20.167 225.07 20.505 225.07 20.9396V27.6349C225.07 28.0532 225.411 28.4073 225.848 28.4073H247.86L224.454 57.136C224.341 57.2649 224.276 57.4418 224.276 57.6189V61.5302C224.276 61.9481 224.616 62.3028 225.054 62.3028H261.02C261.441 62.3028 261.799 61.9645 261.799 61.5302V54.8345C261.799 54.416 261.46 54.0619 261.02 54.0619H238.572L261.62 25.8484C261.735 25.7197 261.799 25.5426 261.799 25.3654V20.9396C261.799 20.5211 261.46 20.167 261.02 20.167H261.036Z" fill="#090065"/>
<path d="M285.281 19.1201C272.413 19.1201 263.061 28.4388 263.061 41.2662C263.061 54.0934 272.397 63.3318 285.281 63.3318C294.748 63.3318 302.462 58.4872 304.927 50.9871C305.007 50.7457 304.959 50.5044 304.813 50.2952C304.666 50.1021 304.441 49.9732 304.18 49.9732H295.509C295.218 49.9732 294.959 50.1343 294.828 50.3757C293.24 53.3691 289.934 55.0109 285.54 55.0109C277.874 55.0109 273.968 50.0376 272.752 45.0806H304.877C304.877 45.0806 304.943 45.0806 304.959 45.0806C305.106 45.0806 305.266 45.0806 305.397 45.0001C305.624 44.8875 305.768 44.6781 305.802 44.4367C305.981 43.2459 305.981 41.9743 305.981 40.8317C305.882 28.2619 297.179 19.1201 285.249 19.1201H285.281ZM272.736 37.5483C274.083 31.3359 278.685 27.5215 284.924 27.5215C291.165 27.5215 295.266 31.2555 296.223 37.5483H272.736Z" fill="#090065"/>
<path d="M214.127 0C210.69 0 208.098 2.49463 208.098 5.8101C208.098 9.12558 210.69 11.6202 214.127 11.6202C217.563 11.6202 220.157 9.06121 220.157 5.8101C220.157 2.55899 217.514 0 214.127 0Z" fill="#090065"/>
<path d="M218.149 20.167H210.191C209.761 20.167 209.413 20.5129 209.413 20.9396V61.5138C209.413 61.9407 209.761 62.2863 210.191 62.2863H218.149C218.578 62.2863 218.927 61.9407 218.927 61.5138V20.9396C218.927 20.5129 218.578 20.167 218.149 20.167Z" fill="#090065"/>
</g>
</svg>
