<svg width="266" height="64" viewBox="0 0 266 64" fill="none" xmlns="http://www.w3.org/2000/svg">
<path fill-rule="evenodd" clip-rule="evenodd" d="M19.8461 15.087C22.7487 13.4069 24.2154 10.1911 23.8144 7.05444C25.4854 6.70379 27.2173 6.51942 28.9921 6.51942C42.8786 6.51942 54.1357 17.8048 54.1357 31.7261C54.1357 37.9537 51.8828 43.654 48.1494 48.0525C45.6235 45.8125 41.8556 45.3252 38.7739 47.1089C35.5416 48.9798 34.0899 52.7552 35.0152 56.2048C33.0855 56.6803 31.0682 56.9327 28.9921 56.9327C15.1057 56.9327 3.84851 45.6474 3.84851 31.7261C3.84851 25.005 6.47238 18.8984 10.7493 14.3795C13.2681 16.4157 16.8758 16.8061 19.8461 15.087ZM36.9585 59.6798C34.4274 60.4034 31.7549 60.7908 28.9921 60.7908C12.9802 60.7908 0 47.7781 0 31.7261C0 23.747 3.20713 16.519 8.39956 11.2668C6.80949 7.55497 8.20599 3.1542 11.7819 1.08445C15.4224 -1.02264 20.0205 0.0392817 22.3978 3.41643C24.5163 2.92245 26.7236 2.66129 28.9921 2.66129C45.004 2.66129 57.9842 15.674 57.9842 31.7261C57.9842 39.2868 55.1046 46.1732 50.3847 51.3434C51.7042 54.963 50.2819 59.1181 46.8381 61.1115C43.544 63.018 39.4659 62.33 36.9585 59.6798ZM162.903 28.7605C163.034 28.8924 163.239 28.8924 163.371 28.7605L170.121 21.9379C170.253 21.8061 170.253 21.5947 170.121 21.4628L156.149 7.34552C156.018 7.21365 155.813 7.21365 155.681 7.34552L148.928 14.168C148.796 14.2999 148.796 14.5114 148.928 14.6433L162.903 28.7605ZM198.991 14.1741L192.241 7.35462C192.109 7.22276 191.905 7.22276 191.773 7.35462L148.934 50.6507C148.802 50.7825 148.802 50.9941 148.934 51.126L155.681 57.9486C155.813 58.0804 156.018 58.0804 156.149 57.9486L198.991 14.6463C199.12 14.5175 199.12 14.3059 198.991 14.1741ZM184.561 36.5333C184.692 36.4015 184.897 36.4015 185.029 36.5333L199.001 50.6566C199.132 50.7885 199.132 51.0001 199.001 51.1319L192.247 57.9543C192.116 58.0862 191.911 58.0862 191.779 57.9543L177.807 43.831C177.676 43.6992 177.676 43.4876 177.807 43.3557L184.561 36.5333ZM264.057 17.949C264.155 17.949 264.247 17.9305 264.336 17.8938C264.425 17.857 264.504 17.8018 264.572 17.7343C264.638 17.6668 264.693 17.5871 264.727 17.4982C264.764 17.4093 264.783 17.3111 264.783 17.2161V8.88497C264.783 8.78686 264.768 8.69487 264.727 8.60288C264.691 8.51089 264.638 8.43424 264.572 8.36676C264.504 8.29931 264.425 8.24412 264.336 8.20732C264.247 8.17054 264.155 8.15213 264.057 8.15213H232.771C232.673 8.15213 232.582 8.17054 232.493 8.20732C232.403 8.24412 232.324 8.29931 232.256 8.36676C232.19 8.43424 232.135 8.51396 232.101 8.60288C232.065 8.6918 232.046 8.78993 232.046 8.88497V56.4126C232.046 56.5107 232.061 56.6027 232.101 56.6916C232.137 56.7806 232.19 56.8602 232.256 56.9276C232.324 56.9952 232.403 57.0502 232.493 57.0901C232.582 57.127 232.673 57.1454 232.771 57.1454H264.057C264.155 57.1454 264.247 57.1238 264.336 57.0901C264.425 57.0534 264.504 56.9982 264.572 56.9276C264.638 56.8602 264.693 56.7806 264.727 56.6916C264.762 56.6027 264.783 56.5045 264.783 56.4126V48.0845C264.783 47.9863 264.768 47.8944 264.727 47.8025C264.691 47.7105 264.638 47.6337 264.572 47.5663C264.504 47.4989 264.425 47.4436 264.336 47.4037C264.247 47.3638 264.155 47.3485 264.057 47.3485H242.956V37.5488H264.057C264.155 37.5488 264.247 37.5302 264.336 37.4935C264.425 37.4566 264.504 37.4016 264.572 37.334C264.638 37.2666 264.693 37.1868 264.727 37.098C264.762 37.0091 264.783 36.9109 264.783 36.8128V28.4847C264.783 28.3866 264.768 28.2946 264.727 28.2027C264.691 28.1107 264.638 28.0339 264.572 27.9665C264.504 27.8991 264.425 27.8438 264.336 27.8071C264.247 27.7702 264.155 27.7519 264.057 27.7519H242.956V17.949H264.057ZM83.9347 8.14884H115.225C115.417 8.14884 115.595 8.21937 115.732 8.36041C115.87 8.50146 115.946 8.68544 115.946 8.88169V38.0361C115.946 38.2323 115.87 38.4162 115.735 38.5572C115.601 38.6953 115.414 38.7718 115.221 38.7718H105.764C105.666 38.7718 105.575 38.7535 105.486 38.7168C105.397 38.6799 105.318 38.6246 105.25 38.5572C105.183 38.4898 105.131 38.41 105.094 38.3213C105.058 38.2323 105.039 38.1404 105.039 38.0422V17.9456H83.9347C83.7421 17.9456 83.5555 17.8721 83.421 17.731C83.2863 17.59 83.2099 17.4029 83.2099 17.2097V8.87861C83.2099 8.7805 83.2282 8.69156 83.265 8.59958C83.3016 8.50759 83.3567 8.42786 83.421 8.36348C83.4882 8.29295 83.5678 8.24083 83.6564 8.20403C83.7451 8.16723 83.8368 8.14884 83.9347 8.14884ZM93.7929 27.7457H83.5374C83.357 27.7457 83.2069 27.8929 83.2069 28.08V56.8111C83.2069 56.9982 83.3538 57.1454 83.5374 57.1454H93.7899C93.9704 57.1454 94.1202 56.9982 94.1202 56.8111V28.08C94.1231 27.8959 93.9763 27.7457 93.7929 27.7457ZM127.199 8.14633H137.452C137.635 8.14633 137.782 8.29965 137.782 8.48056V56.8115C137.782 56.9986 137.632 57.1458 137.452 57.1458H127.199C127.016 57.1458 126.869 56.9986 126.869 56.8115V8.48056C126.869 8.2935 127.019 8.14633 127.199 8.14633ZM220.793 8.14633H210.54C210.36 8.14633 210.21 8.2935 210.21 8.48056V56.8115C210.21 56.9986 210.357 57.1458 210.54 57.1458H220.793C220.974 57.1458 221.123 56.9986 221.123 56.8115V8.48056C221.123 8.29965 220.976 8.14633 220.793 8.14633Z" fill="url(#paint0_linear_864_10167)"/>
<defs>
<linearGradient id="paint0_linear_864_10167" x1="141.594" y1="108.778" x2="20.4613" y2="-6.6816" gradientUnits="userSpaceOnUse">
<stop stop-color="#00DBA6"/>
<stop offset="1" stop-color="#24B2FF"/>
</linearGradient>
</defs>
</svg>
