<svg width="456" height="64" viewBox="0 0 456 64" fill="none" xmlns="http://www.w3.org/2000/svg">
<path d="M11.5451 32.9025C11.3543 32.902 11.167 32.8512 11.0021 32.7552C10.8372 32.6592 10.7006 32.5214 10.6059 32.3558C10.5112 32.1901 10.4619 32.0024 10.4629 31.8116C10.464 31.6208 10.5153 31.4337 10.6117 31.269L28.3024 0.543C28.374 0.419349 28.4692 0.311002 28.5826 0.224145C28.6961 0.137289 28.8255 0.0736249 28.9635 0.0367874C29.1015 -5.0118e-05 29.2455 -0.00933944 29.3871 0.00944983C29.5287 0.0282391 29.6653 0.074739 29.7889 0.146295C29.9126 0.21785 30.0209 0.31306 30.1078 0.426488C30.1946 0.539916 30.2583 0.669342 30.2951 0.807374C30.332 0.945406 30.3413 1.08934 30.3225 1.23097C30.3037 1.37259 30.2572 1.50912 30.1856 1.63277L12.4855 32.3471C12.3923 32.5149 12.256 32.6548 12.0907 32.7524C11.9254 32.85 11.7371 32.9018 11.5451 32.9025ZM16.77 32.9025C16.5794 32.9013 16.3926 32.85 16.2281 32.7539C16.0636 32.6577 15.9273 32.52 15.8328 32.3546C15.7382 32.1892 15.6888 32.0018 15.6895 31.8113C15.6902 31.6208 15.7409 31.4338 15.8365 31.269L30.8413 5.11678C30.9849 4.86706 31.2218 4.6846 31.5 4.60955C31.7781 4.53449 32.0746 4.57299 32.3243 4.71658C32.5741 4.86016 32.7565 5.09707 32.8316 5.37518C32.9066 5.65329 32.8681 5.94983 32.7245 6.19956L17.7127 32.3471C17.6189 32.5149 17.4821 32.6548 17.3165 32.7524C17.1508 32.8499 16.9622 32.9018 16.77 32.9025ZM22.1978 32.9025C22.0067 32.9029 21.819 32.8521 21.6541 32.7555C21.5306 32.6838 21.4224 32.5885 21.3358 32.475C21.2491 32.3614 21.1857 32.232 21.1491 32.0939C21.1124 31.9559 21.1034 31.812 21.1224 31.6705C21.1413 31.5289 21.188 31.3925 21.2597 31.269L33.679 9.90759C33.7472 9.77774 33.8411 9.66304 33.9548 9.5704C34.0686 9.47776 34.1999 9.4091 34.3409 9.36855C34.4819 9.32799 34.6296 9.31638 34.7752 9.33442C34.9208 9.35246 35.0612 9.39977 35.188 9.4735C35.3149 9.54723 35.4255 9.64587 35.5132 9.76346C35.6009 9.88106 35.6639 10.0152 35.6984 10.1578C35.7329 10.3004 35.7382 10.4485 35.714 10.5931C35.6898 10.7378 35.6365 10.8761 35.5575 10.9997L23.1383 32.3518C23.044 32.5184 22.9074 32.6571 22.7422 32.7538C22.577 32.8505 22.3892 32.9018 22.1978 32.9025ZM27.7214 32.9025C27.5331 32.9032 27.3479 32.8541 27.1847 32.7602C27.0603 32.6887 26.9514 32.5933 26.8641 32.4795C26.7768 32.3657 26.7129 32.2357 26.676 32.0972C26.6391 31.9586 26.63 31.814 26.6493 31.6719C26.6685 31.5298 26.7156 31.3929 26.788 31.269L36.2622 14.6564C36.3293 14.5259 36.4221 14.4103 36.5351 14.3165C36.648 14.2228 36.7788 14.153 36.9194 14.1111C37.0601 14.0693 37.2078 14.0564 37.3536 14.0731C37.4994 14.0899 37.6403 14.136 37.7678 14.2086C37.8953 14.2813 38.0068 14.379 38.0955 14.4959C38.1843 14.6128 38.2484 14.7465 38.2842 14.8888C38.3199 15.0311 38.3264 15.1793 38.3034 15.3242C38.2803 15.4691 38.2282 15.6079 38.1501 15.7322L28.6758 32.3448C28.5813 32.5148 28.4428 32.6562 28.2749 32.7543C28.107 32.8524 27.9158 32.9036 27.7214 32.9025ZM1.03708 51.1043C0.757691 51.0914 0.494036 50.9713 0.3009 50.769C0.107764 50.5667 0 50.2977 0 50.018C0 49.7384 0.107764 49.4694 0.3009 49.2671C0.494036 49.0648 0.757691 48.9447 1.03708 48.9318L35.8212 48.8921C36.1006 48.905 36.3642 49.0252 36.5574 49.2274C36.7505 49.4297 36.8583 49.6987 36.8583 49.9784C36.8583 50.2581 36.7505 50.527 36.5574 50.7293C36.3642 50.9316 36.1006 51.0517 35.8212 51.0646L1.03941 51.1043H1.03708ZM3.72768 46.6309C3.44829 46.6179 3.18463 46.4978 2.9915 46.2955C2.79836 46.0932 2.6906 45.8243 2.6906 45.5446C2.6906 45.2649 2.79836 44.996 2.9915 44.7937C3.18463 44.5914 3.44829 44.4713 3.72768 44.4583L33.2076 44.3673C33.487 44.3803 33.7506 44.5004 33.9438 44.7027C34.1369 44.905 34.2447 45.1739 34.2447 45.4536C34.2447 45.7333 34.1369 46.0022 33.9438 46.2045C33.7506 46.4068 33.487 46.5269 33.2076 46.5399L3.72768 46.6309ZM30.4937 41.8401L6.45795 41.7747C6.31106 41.7815 6.16432 41.7585 6.02659 41.707C5.88887 41.6554 5.76302 41.5765 5.65667 41.475C5.55031 41.3735 5.46565 41.2514 5.40781 41.1162C5.34997 40.981 5.32014 40.8355 5.32014 40.6885C5.32014 40.5414 5.34997 40.3959 5.40781 40.2607C5.46565 40.1255 5.55031 40.0035 5.65667 39.9019C5.76302 39.8004 5.88887 39.7215 6.02659 39.6699C6.16432 39.6184 6.31106 39.5954 6.45795 39.6022L30.4937 39.6675C30.773 39.6805 31.0367 39.8006 31.2298 40.0029C31.423 40.2052 31.5307 40.4741 31.5307 40.7538C31.5307 41.0335 31.423 41.3024 31.2298 41.5047C31.0367 41.707 30.773 41.8271 30.4937 41.8401ZM9.28623 37.1613C9.00684 37.1483 8.74318 37.0282 8.55005 36.8259C8.35691 36.6236 8.24915 36.3547 8.24915 36.075C8.24915 35.7953 8.35691 35.5264 8.55005 35.3241C8.74318 35.1218 9.00684 35.0017 9.28623 34.9887L27.7424 34.879C28.0218 34.892 28.2854 35.0121 28.4786 35.2144C28.6717 35.4167 28.7795 35.6856 28.7795 35.9653C28.7795 36.245 28.6717 36.5139 28.4786 36.7162C28.2854 36.9185 28.0218 37.0386 27.7424 37.0516L9.28623 37.1613ZM57.0076 51.088C56.8155 51.0879 56.6268 51.0368 56.4608 50.9401C56.2948 50.8434 56.1573 50.7044 56.0625 50.5373L38.7335 20.0866C38.6054 19.8373 38.5784 19.5482 38.6583 19.2796C38.7382 19.0109 38.9188 18.7835 39.1623 18.6447C39.4058 18.506 39.6935 18.4666 39.9653 18.5348C40.2371 18.603 40.4722 18.7735 40.6213 19.0108L57.9504 49.4708C58.0926 49.7209 58.1298 50.0172 58.0536 50.2946C57.9775 50.5721 57.7943 50.8079 57.5443 50.9503C57.3805 51.0424 57.1955 51.0898 57.0076 51.088ZM51.7851 50.9946C51.5931 50.995 51.4045 50.9444 51.2385 50.8481C51.0724 50.7517 50.9349 50.6131 50.84 50.4462L36.1222 24.6114C36.0441 24.4871 35.992 24.3483 35.9689 24.2034C35.9459 24.0585 35.9524 23.9104 35.9881 23.768C36.0238 23.6257 36.088 23.492 36.1767 23.3751C36.2655 23.2582 36.377 23.1605 36.5045 23.0878C36.632 23.0152 36.7729 22.9691 36.9187 22.9523C37.0645 22.9356 37.2122 22.9485 37.3528 22.9903C37.4935 23.0322 37.6243 23.102 37.7372 23.1958C37.8502 23.2895 37.943 23.4051 38.0101 23.5356L52.7302 49.3705C52.8726 49.6209 52.9098 49.9176 52.8336 50.1954C52.7575 50.4732 52.5743 50.7094 52.3241 50.8523C52.1602 50.9466 51.9742 50.9957 51.7851 50.9946ZM46.2149 51.0623C46.0217 51.0629 45.832 51.0116 45.6653 50.914C45.4987 50.8163 45.3613 50.6757 45.2674 50.5069L33.4013 29.3065C33.2696 29.0556 33.2411 28.7632 33.3217 28.4916C33.4024 28.22 33.5858 27.9906 33.8331 27.8522C34.0803 27.7139 34.3718 27.6775 34.6455 27.7508C34.9192 27.8241 35.1535 28.0013 35.2985 28.2447L47.1623 49.4451C47.2553 49.6104 47.3033 49.7971 47.3016 49.9867C47.3 50.1763 47.2487 50.3621 47.1528 50.5257C47.057 50.6893 46.92 50.8249 46.7554 50.9191C46.5908 51.0132 46.4045 51.0626 46.2149 51.0623ZM40.8103 50.927C40.6181 50.9273 40.4292 50.8765 40.2631 50.7797C40.097 50.6829 39.9597 50.5437 39.8652 50.3762L30.6407 34.0996C30.5141 33.8502 30.4886 33.5615 30.5693 33.2937C30.6501 33.0259 30.831 32.7995 31.0743 32.6616C31.3177 32.5237 31.6049 32.4848 31.8761 32.5532C32.1474 32.6215 32.3819 32.7918 32.5308 33.0285L41.7554 49.3051C41.826 49.4291 41.8714 49.5659 41.8889 49.7075C41.9064 49.8491 41.8958 49.9928 41.8577 50.1303C41.8195 50.2678 41.7545 50.3963 41.6665 50.5086C41.5785 50.6209 41.4691 50.7147 41.3447 50.7846C41.1824 50.8787 40.9979 50.9279 40.8103 50.927ZM97.8823 1.21973H76.2805V50.5209H82.4551V31.5187H97.8823C105.977 31.5187 112.565 24.7234 112.565 16.3692C112.565 8.01507 105.977 1.21973 97.8823 1.21973ZM97.8823 25.1458H82.4551V7.59269H97.8823C102.573 7.59269 106.388 11.5294 106.388 16.3692C106.388 21.209 102.573 25.1458 97.8823 25.1458ZM130.165 13.842C120.151 13.842 112.005 22.2428 112.005 32.5782C112.005 42.9135 120.151 51.312 130.165 51.312C140.178 51.312 148.32 42.9112 148.32 32.5805C148.32 22.2498 140.169 13.842 130.165 13.842ZM142.143 32.5805C142.143 39.3968 136.776 44.9484 130.165 44.9484C123.554 44.9484 118.182 39.4038 118.182 32.5805C118.182 25.7571 123.549 20.2126 130.165 20.2126C136.78 20.2126 142.136 25.7642 142.136 32.5805H142.143ZM152.744 1.21973H158.919V50.5233H152.744V1.21973ZM193.663 14.6307V18.5324C190.398 15.525 186.124 13.8513 181.685 13.842C171.674 13.842 163.528 22.2428 163.528 32.5782C163.528 42.9135 171.674 51.312 181.685 51.312C186.124 51.3027 190.398 49.629 193.663 46.6215V50.5233H199.84V14.6307H193.663ZM193.663 32.5782C193.663 39.3945 188.296 44.946 181.685 44.946C175.074 44.946 169.702 39.4015 169.702 32.5782C169.702 25.7548 175.07 20.2103 181.685 20.2103C188.301 20.2103 193.663 25.7618 193.663 32.5782ZM224.756 13.9283C222.255 14.1698 219.833 14.933 217.646 16.1685C215.458 17.4041 213.554 19.0847 212.057 21.1017V14.6307H205.88V50.5256H212.057V33.8756C212.057 26.6416 217.769 20.6233 224.788 20.4413H225.064V13.9073L224.756 13.9283ZM266.039 23.4073L251.571 19.3259C248.719 18.2944 248.07 15.7065 248.411 13.6296C248.992 10.1129 252.528 6.56126 259.115 6.56126C263.003 6.56126 265.911 7.58103 267.749 9.59489C269.782 11.8094 270.139 14.8197 270.2 16.0122L270.216 16.3482L276.318 15.1161L276.295 14.8524C276.045 12.2202 275.147 8.42111 272.293 5.2848C269.231 1.8988 264.795 0.188299 259.11 0.188299C248.917 0.188299 243.331 6.40258 242.309 12.5562C241.361 18.2991 244.332 23.4563 249.72 25.3908L264.459 29.5562C269.126 30.7696 271.835 33.969 271.385 37.7237C270.918 41.5834 267.124 45.4781 259.685 45.4781C255.155 45.4781 251.75 44.274 249.578 41.9007C248.178 40.3769 247.268 38.3701 246.873 35.9385L246.827 35.6421L240.776 36.8696L240.822 37.1519C241.436 40.7643 242.857 43.8166 245.041 46.2248C248.427 49.9585 253.356 51.8557 259.692 51.8557C270.839 51.8557 276.748 44.939 277.52 38.5124C278.229 32.6692 274.951 25.7221 266.039 23.4073ZM287.006 1.22907C284.803 1.22907 283.013 3.07725 283.013 5.35014C283.013 7.62303 284.803 9.47121 287.006 9.47121C289.209 9.47121 291.001 7.62303 291.001 5.35014C291.001 3.07725 289.209 1.22907 287.006 1.22907ZM283.919 14.6307H290.096V50.5233H283.919V14.6307ZM325.766 14.6307V18.5324C322.501 15.525 318.227 13.8513 313.788 13.842C303.777 13.842 295.631 22.2428 295.631 32.5758C295.631 42.9088 303.777 51.312 313.788 51.312C318.228 51.302 322.502 49.6275 325.766 46.6192V56.0328C325.769 56.239 325.732 56.4439 325.656 56.6356C325.58 56.8273 325.467 57.0022 325.323 57.1502C325.179 57.2982 325.008 57.4164 324.819 57.4982C324.629 57.5799 324.425 57.6236 324.219 57.6266H302.412V63.9996H324.219C328.478 63.9996 331.943 60.4269 331.943 56.0328V14.6307H325.766ZM325.766 32.5758C325.766 39.3945 320.399 44.9437 313.788 44.9437C307.177 44.9437 301.808 39.3992 301.808 32.5758C301.808 25.7525 307.175 20.2079 313.788 20.2079C320.402 20.2079 325.766 25.7618 325.766 32.5758ZM354.927 13.842C352.644 13.8533 350.396 14.3996 348.363 15.4371C346.329 16.4746 344.568 17.9743 343.219 19.8159V14.6307H337.042V50.5209H343.219V30.7813C343.219 25.0594 347.73 20.404 353.277 20.404C358.824 20.404 363.334 25.0711 363.334 30.7813V50.5209H369.693V29.0755C369.689 20.6746 363.066 13.842 354.927 13.842ZM403.992 14.6307V18.5324C400.727 15.5245 396.451 13.8507 392.012 13.842C382.001 13.842 373.854 22.2428 373.854 32.5782C373.854 42.9135 382.001 51.312 392.012 51.312C396.451 51.3032 400.727 49.6295 403.992 46.6215V50.5233H410.167V14.6307H403.992ZM403.992 32.5782C403.992 39.3945 398.625 44.946 392.012 44.946C385.398 44.946 380.029 39.4015 380.029 32.5782C380.029 25.7548 385.396 20.2103 392.012 20.2103C398.627 20.2103 403.992 25.7618 403.992 32.5782ZM416.033 1.21973H422.21V50.5233H416.033V1.21973ZM446.407 29.0848L436.237 26.2845C434.496 25.6685 434.468 24.21 434.604 23.3979C434.947 21.356 437.143 19.2978 441.273 19.2978C443.761 19.2978 445.595 19.9046 446.724 21.1017C447.658 22.1005 448.01 23.3839 448.124 24.2847L448.204 24.8517L454.313 24.0233L454.241 23.4469C453.895 20.8217 452.897 18.5978 451.263 16.8429C448.93 14.3274 445.565 13.0509 441.282 13.0509C433.544 13.0509 429.293 17.718 428.509 22.3501C427.762 26.7839 430.126 30.751 434.41 32.2655L444.85 35.1357C447.667 35.8545 449.322 37.6607 449.065 39.7399C448.785 41.9941 446.4 44.2693 441.698 44.2693C438.748 44.2693 436.564 43.5366 435.208 42.0898C434.347 41.175 433.785 39.9569 433.54 38.4657L433.351 37.3246L427.265 38.5241L427.458 39.6208C427.925 42.2928 429.003 44.5587 430.676 46.3555C433.243 49.1231 436.977 50.5256 441.698 50.5256C450.134 50.5256 454.614 45.3357 455.209 40.5146C455.753 36.0738 453.244 30.8186 446.407 29.0848Z" fill="black"/>
</svg>
