<svg width="154" height="64" viewBox="0 0 154 64" fill="none" xmlns="http://www.w3.org/2000/svg">
<path d="M87.9373 24.7246C88.7358 24.7246 89.5115 24.8387 90.2645 25.0669C90.9946 25.3177 91.3824 25.6371 91.3824 26.0251C91.3824 26.2304 91.3139 26.4357 91.177 26.6182C91.0858 26.8008 90.8805 26.9376 90.675 26.9376C90.3786 26.8464 90.0819 26.7323 89.7853 26.5953C89.2149 26.3445 88.5989 26.2075 87.9602 26.2304C87.2984 26.2075 86.6141 26.3672 86.0437 26.7094C85.5418 27.0517 85.268 27.6449 85.3136 28.2609C85.2907 28.8312 85.5189 29.3789 85.9523 29.7438C86.4315 30.1317 86.979 30.4512 87.5723 30.6336C88.211 30.8617 88.8499 31.1128 89.4886 31.4094C90.1275 31.7288 90.675 32.2078 91.0858 32.8011C91.5421 33.5312 91.7702 34.3753 91.7474 35.2422C91.7474 36.5883 91.3595 37.615 90.561 38.2995C89.6941 39.0296 88.5762 39.3945 87.4354 39.3261C86.4086 39.3489 85.3821 39.0979 84.4922 38.596C83.6709 38.0485 83.2602 37.5694 83.2602 37.0902C83.2602 36.8621 83.3515 36.6568 83.4883 36.4742C83.6024 36.3145 83.7622 36.2005 83.9675 36.1777C84.1501 36.2005 84.3098 36.2917 84.4238 36.4286C84.6062 36.5883 84.7888 36.7708 84.9942 36.9761C85.268 37.2272 85.5874 37.4097 85.9296 37.5237C86.3859 37.7062 86.8878 37.7747 87.3669 37.7747C88.097 37.8203 88.8043 37.5921 89.3746 37.1587C89.8765 36.7024 90.1504 36.0179 90.1046 35.3336C90.1275 34.6718 89.8994 34.0558 89.443 33.5768C88.9867 33.1205 88.4392 32.7782 87.8232 32.55C87.1845 32.3219 86.5683 32.071 85.9067 31.7973C85.268 31.5233 84.7203 31.1128 84.2869 30.5653C83.8306 29.9493 83.5797 29.1963 83.6253 28.4206C83.6024 27.8046 83.7394 27.1886 84.0131 26.6182C84.2413 26.139 84.6062 25.7512 85.0626 25.4774C85.4962 25.2265 85.9523 25.044 86.4315 24.907C86.9334 24.7929 87.4354 24.7246 87.9373 24.7246ZM76.256 25.7969C77.0318 26.4812 77.4197 27.5764 77.4197 29.0366V34.9456C77.4197 36.4286 77.0318 37.5009 76.256 38.1854C74.4309 39.5771 71.9213 39.5771 70.096 38.1854C69.3432 37.5009 68.9554 36.4286 68.9554 34.9456V29.0366C68.9554 27.5536 69.3432 26.4812 70.096 25.7969C71.9213 24.428 74.4309 24.428 76.256 25.7969ZM132.632 24.7702C133.179 24.7702 133.521 24.9528 133.636 25.3406L137.674 38.3451V38.4592C137.674 38.6645 137.537 38.847 137.354 38.9382C137.149 39.0752 136.898 39.1437 136.624 39.1208C136.373 39.1437 136.122 39.0067 136.031 38.7558L135.164 35.8811H130.008L129.141 38.7558C129.073 39.0067 128.799 39.1664 128.548 39.1437C128.32 39.1437 128.092 39.0752 127.886 38.9382C127.681 38.847 127.567 38.6645 127.567 38.4363C127.567 38.3907 127.59 38.3222 127.612 38.2766L131.628 25.3406C131.742 24.9528 132.084 24.7702 132.632 24.7702ZM112.281 24.7702C112.806 24.7702 113.239 25.1125 113.604 25.8197L116.684 31.7288L119.787 25.8197C120.175 25.1352 120.608 24.7702 121.11 24.7702C121.498 24.7017 121.863 24.9755 121.932 25.3633C121.954 25.4318 121.954 25.5003 121.932 25.5688V38.5048C121.932 38.6873 121.84 38.847 121.68 38.9382C121.316 39.1437 120.882 39.1437 120.517 38.9382C120.357 38.847 120.266 38.6873 120.266 38.5048V28.2152L117.3 33.782C117.209 34.0558 116.958 34.2612 116.661 34.2612C116.388 34.2384 116.136 34.0558 116.045 33.782L113.079 28.1013V38.5048C113.079 38.6873 112.988 38.847 112.828 38.9382C112.669 39.0523 112.463 39.1208 112.281 39.1208C112.076 39.1208 111.87 39.0752 111.71 38.9611C111.528 38.8926 111.414 38.71 111.437 38.5276V25.5915C111.368 25.2037 111.642 24.8387 112.03 24.7702C112.121 24.7473 112.212 24.7473 112.281 24.7702ZM144.176 24.7473C144.427 24.7473 144.678 24.8387 144.883 24.9984C145.112 25.2265 145.317 25.5003 145.431 25.7969L150.336 35.3792V25.3177C150.336 25.1352 150.427 24.9755 150.587 24.907C150.952 24.7017 151.386 24.7017 151.751 24.907C151.91 24.9984 152.002 25.1581 152.002 25.3177V38.5276C152.002 38.71 151.91 38.8699 151.751 38.9611C151.568 39.0752 151.386 39.1208 151.18 39.1208C150.724 39.0979 150.313 38.8014 150.154 38.3678L144.997 28.4891V38.5276C144.997 38.71 144.906 38.8699 144.769 38.9611C144.404 39.1664 143.971 39.1664 143.606 38.9611C143.446 38.8699 143.355 38.71 143.355 38.5276V25.3177C143.355 24.9299 143.628 24.7473 144.176 24.7473ZM55.312 24.7473H59.0309C60.1259 24.7017 61.221 25.0669 62.0651 25.7741C62.8181 26.4585 63.2059 27.5308 63.2059 28.991V29.1734C63.2059 30.6336 62.8181 31.7288 62.0424 32.4133C61.1753 33.1205 60.0803 33.5083 58.9624 33.4398H56.3158V38.5276C56.3158 38.71 56.2246 38.8699 56.0648 38.9611C55.6998 39.1664 55.2664 39.1664 54.9013 38.9611C54.7416 38.8699 54.6504 38.71 54.6504 38.5276V25.3177C54.6504 25.1581 54.7187 25.0211 54.8328 24.907C54.9697 24.7929 55.1294 24.7246 55.312 24.7473ZM105.231 24.7473C105.413 24.7473 105.573 24.8158 105.664 24.9755C105.779 25.1125 105.824 25.295 105.824 25.4774C105.824 25.66 105.779 25.8653 105.664 26.0251C105.573 26.1848 105.413 26.2531 105.231 26.2531H102.105V38.5276C102.105 38.71 102.014 38.8699 101.854 38.9611C101.489 39.1664 101.056 39.1664 100.691 38.9611C100.531 38.8699 100.44 38.71 100.44 38.5276V26.2531H97.2686C97.0861 26.2531 96.9264 26.1848 96.835 26.0251C96.721 25.8653 96.6526 25.6829 96.6526 25.4774C96.6526 25.295 96.6982 25.1125 96.8123 24.9755C96.9035 24.8158 97.0632 24.7473 97.2458 24.7473H105.231ZM73.1989 26.2304C71.4877 26.2304 70.6435 27.143 70.6435 29.0137L70.6208 34.9456C70.6208 36.7937 71.465 37.7291 73.1989 37.7291C73.9061 37.7747 74.5906 37.5238 75.1154 37.0446C75.6173 36.4742 75.8454 35.7214 75.7998 34.9456V29.0137C75.8682 28.2609 75.6173 27.508 75.1154 26.9148C74.5906 26.4356 73.9061 26.1848 73.1989 26.2304ZM132.632 27.1657L130.419 34.5121H134.822L132.632 27.1657ZM58.9624 26.2531H56.3158L56.293 32.071H58.9624C59.6696 32.1166 60.377 31.8656 60.8789 31.3637C61.3808 30.7934 61.6317 30.0405 61.5632 29.2648V29.0366C61.6317 28.2836 61.3808 27.5309 60.8789 26.9376C60.3541 26.4585 59.6696 26.2075 58.9624 26.2531Z" fill="#FF6C37"/>
<path d="M47.051 34.8982C48.6481 22.3956 39.8187 10.9654 27.339 9.36826C14.8592 7.7713 3.3833 16.6006 1.78624 29.0804C0.189202 41.5601 9.01858 53.0132 21.4983 54.6331C34.0009 56.2302 45.4311 47.4007 47.051 34.8982Z" fill="#FF6C37"/>
<path d="M32.6554 23.8337L23.0275 33.4615L20.3125 30.7467C29.7807 21.2785 30.7162 22.0998 32.6554 23.8337Z" fill="white"/>
<path d="M23.0285 33.6867C22.96 33.6867 22.9144 33.6638 22.8688 33.6182L20.131 30.9032C20.0397 30.812 20.0397 30.675 20.131 30.5838C29.7589 20.956 30.7627 21.8684 32.7933 23.6937C32.8389 23.7393 32.8617 23.7849 32.8617 23.8534C32.8617 23.9219 32.8389 23.9675 32.7933 24.0131L23.1653 33.6182C23.1425 33.6638 23.0741 33.6867 23.0285 33.6867ZM20.6329 30.7435L23.0285 33.139L32.3141 23.8534C30.6257 22.3476 29.4851 21.8913 20.6329 30.7435Z" fill="#FF6C37"/>
<path d="M25.7858 36.2204L23.1621 33.5968L32.7899 23.9688C35.368 26.5697 31.5123 30.7905 25.7858 36.2204Z" fill="white"/>
<path d="M25.792 36.452C25.7235 36.452 25.6779 36.4293 25.6323 36.3835L23.0085 33.7599C22.9629 33.7143 22.9629 33.6687 22.9629 33.6002C22.9629 33.5317 22.9858 33.4861 23.0314 33.4405L32.6592 23.8127C32.7506 23.7213 32.8874 23.7213 32.9787 23.8127C33.5718 24.3602 33.8912 25.1359 33.8685 25.9344C33.8229 28.4669 30.9482 31.6837 25.9746 36.3835C25.9061 36.4293 25.8376 36.452 25.792 36.452ZM23.4877 33.6002C24.9479 35.0832 25.5639 35.6763 25.792 35.9045C29.6248 32.2541 33.3437 28.5125 33.3666 25.9344C33.3893 25.3411 33.1611 24.748 32.7733 24.2917L23.4877 33.6002Z" fill="#FF6C37"/>
<path d="M20.3619 30.812L22.3013 32.7513C22.3469 32.7969 22.3469 32.8425 22.3013 32.8881C22.2784 32.911 22.2784 32.911 22.2555 32.911L18.2402 33.7779C18.0349 33.8008 17.8523 33.6638 17.8067 33.4585C17.7839 33.3445 17.8295 33.2304 17.8979 33.1619L20.2251 30.8349C20.2707 30.7891 20.3392 30.7664 20.3619 30.812Z" fill="white"/>
<path d="M18.1673 34.0061C17.8253 34.0061 17.5742 33.7324 17.5742 33.3901C17.5742 33.2305 17.6427 33.0706 17.7568 32.9566L20.0838 30.6295C20.2208 30.5154 20.4033 30.5154 20.5401 30.6295L22.4795 32.5687C22.6163 32.6828 22.6163 32.8882 22.4795 33.025C22.4337 33.0706 22.3881 33.0935 22.3197 33.1164L18.3043 33.9833C18.2587 33.9833 18.2131 34.0061 18.1673 34.0061ZM20.2893 31.0629L18.0533 33.2988C18.0077 33.3445 17.9849 33.4129 18.0305 33.4813C18.0533 33.5498 18.1217 33.5726 18.1902 33.5498L21.9547 32.7285L20.2893 31.0629Z" fill="#FF6C37"/>
<path d="M37.7431 18.4932C36.283 17.0787 33.9331 17.1244 32.5187 18.6073C31.1041 20.0903 31.1497 22.4174 32.6327 23.8319C33.8419 24.9955 35.667 25.2009 37.1044 24.3339L34.5035 21.7329L37.7431 18.4932Z" fill="white"/>
<path d="M35.1859 25.0856C33.0184 25.0856 31.2617 23.329 31.2617 21.1615C31.2617 18.9941 33.0184 17.2373 35.1859 17.2373C36.1897 17.2373 37.1707 17.6251 37.9008 18.3325C37.9464 18.3781 37.9692 18.4237 37.9692 18.4922C37.9692 18.5607 37.9464 18.6063 37.9008 18.6519L34.8208 21.7319L37.2392 24.1503C37.3304 24.2415 37.3304 24.3784 37.2392 24.4696L37.1936 24.5152C36.6003 24.8803 35.8931 25.0856 35.1859 25.0856ZM35.1859 17.7165C33.2694 17.7165 31.7179 19.2679 31.7408 21.1843C31.7408 23.1008 33.2921 24.6522 35.2086 24.6293C35.7334 24.6293 36.258 24.5152 36.7372 24.2643L34.3417 21.8915C34.296 21.8459 34.2732 21.8003 34.2732 21.7319C34.2732 21.6634 34.296 21.6178 34.3417 21.5722L37.3988 18.5149C36.7828 17.9903 36.0072 17.7165 35.1859 17.7165Z" fill="#FF6C37"/>
<path d="M37.8082 18.5643L37.7624 18.5186L34.5 21.7355L37.0781 24.3136C37.329 24.1539 37.58 23.9714 37.7853 23.7661C39.2454 22.3286 39.2454 20.0016 37.8082 18.5643Z" fill="white"/>
<path d="M37.1044 24.5596C37.036 24.5596 36.9903 24.5367 36.9447 24.4911L34.3439 21.8903C34.2981 21.8445 34.2754 21.7989 34.2754 21.7305C34.2754 21.6621 34.2981 21.6164 34.3439 21.5708L37.5836 18.3311C37.6748 18.2399 37.8117 18.2399 37.9029 18.3311L37.9714 18.3767C39.5 19.9053 39.5 22.3693 37.9943 23.9207C37.7661 24.1489 37.5151 24.3543 37.2413 24.514C37.1728 24.5367 37.1272 24.5596 37.1044 24.5596ZM34.8229 21.7305L37.1272 24.0348C37.3098 23.9207 37.4922 23.761 37.6292 23.6242C38.9296 22.3237 38.9981 20.202 37.7432 18.833L34.8229 21.7305Z" fill="#FF6C37"/>
<path d="M33.049 24.2417C32.5015 23.6942 31.6115 23.6942 31.064 24.2417L22.4629 32.843L23.9002 34.2803L33.0034 26.295C33.5965 25.7931 33.6421 24.9033 33.1402 24.3102C33.0946 24.2873 33.0717 24.2644 33.049 24.2417Z" fill="white"/>
<path d="M23.8647 34.512C23.7963 34.512 23.7507 34.4891 23.7049 34.4435L22.2676 33.0062C22.1764 32.9149 22.1764 32.7781 22.2676 32.6867L30.8689 24.0856C31.5076 23.4467 32.5343 23.4467 33.1732 24.0856C33.8119 24.7243 33.8119 25.751 33.1732 26.3899C33.1503 26.4126 33.1275 26.4355 33.1047 26.4582L24.0015 34.4435C23.9788 34.4891 23.9331 34.512 23.8647 34.512ZM22.7695 32.8466L23.8875 33.9645L32.831 26.1162C33.3329 25.7054 33.3785 24.9525 32.9678 24.4506C32.5572 23.9486 31.8043 23.903 31.3023 24.3138C31.2795 24.3365 31.2567 24.3594 31.2111 24.3821L22.7695 32.8466Z" fill="#FF6C37"/>
<path d="M15.8586 42.629C15.7673 42.6746 15.7217 42.7658 15.7445 42.8571L16.1324 44.4997C16.2236 44.7279 16.0868 45.0016 15.8358 45.0701C15.6533 45.1386 15.4479 45.0701 15.3339 44.9333L12.8242 42.4464L21.0148 34.2559L23.8438 34.3015L25.7603 36.2179C25.3039 36.6058 22.5433 39.2752 15.8586 42.629Z" fill="white"/>
<path d="M15.6848 45.3018C15.5022 45.3018 15.3197 45.2335 15.2057 45.0965L12.7188 42.6096C12.6732 42.564 12.6504 42.5184 12.6504 42.45C12.6504 42.3815 12.6732 42.3359 12.7188 42.2903L20.9094 34.0997C20.955 34.0541 21.0235 34.0312 21.0691 34.0312L23.8981 34.0768C23.9666 34.0768 24.0122 34.0997 24.0579 34.1453L25.9742 36.0618C26.02 36.1074 26.0427 36.1759 26.0427 36.2444C26.0427 36.3128 26.02 36.3584 25.9515 36.404L25.7918 36.541C23.3734 38.6628 20.088 40.7845 16.0041 42.8151L16.392 44.4349C16.4605 44.7316 16.3235 45.0509 16.0498 45.2106C15.9129 45.2791 15.7988 45.3018 15.6848 45.3018ZM13.1751 42.45L15.5251 44.7772C15.5935 44.8912 15.7304 44.9369 15.8445 44.8684C15.9586 44.7999 16.0042 44.6631 15.9357 44.549L15.5479 42.9063C15.5022 42.701 15.5935 42.5184 15.776 42.4272C19.8142 40.3967 23.0768 38.2977 25.4723 36.2215L23.784 34.5332L21.1603 34.4876L13.1751 42.45Z" fill="#FF6C37"/>
<path d="M10.8945 44.4123L12.8566 42.4502L15.7769 45.3705L11.1227 45.051C10.9173 45.0283 10.7804 44.8457 10.8033 44.6404C10.8033 44.5491 10.8261 44.4579 10.8945 44.4123Z" fill="white"/>
<path d="M15.777 45.5767L11.0999 45.2574C10.7577 45.2345 10.5295 44.938 10.5524 44.5958C10.5752 44.4588 10.6208 44.322 10.7349 44.2307L12.697 42.2686C12.7882 42.1774 12.9251 42.1774 13.0164 42.2686L15.9367 45.1889C16.0051 45.2574 16.0279 45.3486 15.9823 45.44C15.9367 45.5312 15.8682 45.5767 15.777 45.5767ZM12.8567 42.7705L11.0543 44.5729C10.9858 44.6185 10.9858 44.7326 11.0543 44.7782C11.0771 44.8011 11.0999 44.824 11.1455 44.824L15.1838 45.0977L12.8567 42.7705Z" fill="#FF6C37"/>
<path d="M20.2164 35.307C20.0795 35.307 19.9883 35.1929 19.9883 35.0789C19.9883 35.0105 20.0112 34.9649 20.0568 34.9192L22.2697 32.7062C22.3611 32.6149 22.4979 32.6149 22.5892 32.7062L24.0265 34.1435C24.095 34.212 24.1177 34.2805 24.095 34.3717C24.0721 34.4401 24.0036 34.5086 23.9124 34.5313L20.262 35.307H20.2164ZM22.4296 33.1853L20.9236 34.691L23.3876 34.1664L22.4296 33.1853Z" fill="#FF6C37"/>
<path d="M23.8542 34.3021L21.3446 34.8498C21.1621 34.8954 20.9797 34.7813 20.9341 34.5987C20.9112 34.4847 20.9339 34.3706 21.0253 34.2794L22.4169 32.8877L23.8542 34.3021Z" fill="white"/>
<path d="M21.295 35.0789C20.9757 35.0789 20.7246 34.828 20.7246 34.5086C20.7246 34.3489 20.7931 34.212 20.8844 34.0979L22.2761 32.7062C22.3673 32.6149 22.5043 32.6149 22.5955 32.7062L24.0329 34.1435C24.1013 34.212 24.1241 34.2805 24.1012 34.3717C24.0785 34.4401 24.01 34.5086 23.9188 34.5313L21.4091 35.0789H21.295ZM22.4358 33.1853L21.2038 34.4173C21.1582 34.4629 21.1582 34.5086 21.1809 34.5542C21.2038 34.5998 21.2494 34.6227 21.3179 34.6227L23.4168 34.1664L22.4358 33.1853Z" fill="#FF6C37"/>
<path d="M37.8276 20.7548C37.782 20.618 37.6224 20.5495 37.4854 20.5951C37.3486 20.6407 37.2801 20.8004 37.3257 20.9374C37.3257 20.9602 37.3486 20.983 37.3486 21.0058C37.4854 21.2796 37.4398 21.6218 37.2572 21.8727C37.166 21.9868 37.1889 22.1465 37.2801 22.2378C37.3942 22.329 37.5539 22.3063 37.6451 22.1922C37.9873 21.7586 38.0558 21.2111 37.8276 20.7548Z" fill="#FF6C37"/>
</svg>
