<svg width="95" height="45" viewBox="0 0 95 45" fill="none" xmlns="http://www.w3.org/2000/svg">
<g clip-path="url(#clip0_868_10201)">
<path d="M80.3195 0.525931H69.8851C68.8853 0.525931 68.1122 0.788212 67.5883 1.30593C67.063 1.82364 66.7966 2.58583 66.7966 3.57058V20.4921C66.7966 20.7948 67.0418 21.04 67.3445 21.04H72.688C72.9907 21.04 73.2359 20.7948 73.2359 20.4921V6.96516H80.3195C85.5775 6.96516 87.8421 9.38253 87.8421 15.9341C87.8421 22.4856 85.6644 24.9468 80.3195 24.9468H62.5057C61.9099 24.9468 61.3757 24.5784 61.1641 24.0216L53.6402 4.22114C52.5424 1.34154 50.4044 0 46.9106 0C43.4167 0 41.2924 1.20115 40.0961 4.21498L32.2653 24.0394C32.0489 24.5873 31.5196 24.9475 30.9306 24.9475H24.9454C24.4345 24.9475 23.962 24.6756 23.7045 24.2339L20.8208 19.2746C22.6945 18.5788 24.214 17.3564 25.2454 15.7053C26.2513 14.0947 26.7827 12.1272 26.7827 10.0153C26.7827 4.23553 22.9465 0.525931 16.636 0.525931H0.548529C0.102721 0.525931 -0.156136 1.03063 0.103405 1.39358L3.22407 6.73712C3.32679 6.88025 3.49252 6.96585 3.6692 6.96585H16.8106C19.6005 6.96585 20.299 8.80935 20.299 10.2351C20.299 11.0535 20.0477 13.7235 16.8106 13.7235H5.28054C3.45964 13.7235 2.15509 14.1426 1.29292 15.0048C0.422525 15.8745 0 17.1969 0 19.0472V31.3867H6.43924V21.379C6.43924 20.5866 7.0809 19.945 7.87322 19.9443C9.12915 19.9443 10.9541 19.9436 12.2683 19.9436C13.2839 19.9436 14.2241 20.4805 14.7404 21.355L19.8265 29.9753C20.3428 30.8498 21.2824 31.3867 22.2986 31.3867H34.4704C35.6496 31.3867 36.7083 30.6656 37.1404 29.5686L45.9601 7.18978C46.16 6.73849 46.4066 6.57071 46.8667 6.57071C47.3269 6.57071 47.5577 6.73301 47.7214 7.16992L56.163 29.5302C56.5848 30.6471 57.6538 31.3867 58.8481 31.3867H80.3195C88.3968 31.3867 94.2807 27.2683 94.2807 15.9786C94.2807 4.68887 88.2571 0.525931 80.3195 0.525931Z" fill="#895AE8"/>
<path d="M15.2878 36.5455H13.4121V44.596H22.6207V42.9114H15.8555V41.4103H22.0831V39.7257H15.8555V38.2246H22.6207V36.54H15.2878V36.5455Z" fill="#895AE8"/>
<path d="M71.6699 38.2246H75.4617V44.596H77.9051V38.2246H81.6969V36.54H71.6699V38.2246Z" fill="#895AE8"/>
<path d="M68.8809 36.5454H66.4375V44.5959H68.8809V36.5454Z" fill="#895AE8"/>
<path d="M92.137 36.5454V39.7085H87.2763C86.8133 39.7085 86.4374 39.3332 86.4374 38.8696V36.5454H84.2734V39.1463C84.2734 40.3871 85.2794 41.3931 86.5202 41.3931H92.1363V42.2525C92.1302 42.6175 91.8336 42.9113 91.4673 42.9113H84.5521V44.5959H92.1487C93.3375 44.5959 94.301 43.6324 94.301 42.4436V36.5454H92.137Z" fill="#895AE8"/>
<path d="M47.4593 41.2541H47.4572C47.4203 42.0471 46.7663 42.6785 45.9644 42.6785H43.4422C42.6403 42.6785 41.9856 42.0471 41.9493 41.2541H41.9473V36.5454H39.5039V41.4903C39.5039 43.1907 40.8824 44.5685 42.5821 44.5685H46.8245C48.5249 44.5685 49.9027 43.19 49.9027 41.4903V36.5454H47.4593V41.2541Z" fill="#895AE8"/>
<path d="M7.91842 39.7255H2.83373C2.4386 39.7152 2.12085 39.392 2.12085 38.9941V38.9551C2.12085 38.5572 2.4386 38.2347 2.83373 38.2251L7.06789 38.2244V38.2271C7.51917 38.2573 7.87664 38.6319 7.87664 39.0907V39.1708H10.0235V38.725C10.0235 37.5177 9.04492 36.5391 7.83761 36.5391H2.10715C0.942978 36.5391 0 37.4828 0 38.6462V39.3023C0 40.4665 0.943663 41.4094 2.10715 41.4094H7.19252C7.58766 41.4197 7.90541 41.7429 7.90541 42.1408V42.1798C7.90541 42.5777 7.58766 42.9003 7.19252 42.9098L2.95837 42.9105V42.9078C2.50708 42.8777 2.14961 42.5031 2.14961 42.0443V41.9641H0.00273923V42.4099C0.00273923 43.6172 0.981327 44.5958 2.18864 44.5958H7.91842C9.08259 44.5958 10.0255 43.6522 10.0255 42.4887V41.8326C10.0255 40.6685 9.0819 39.7255 7.91842 39.7255Z" fill="#895AE8"/>
<path d="M29.7448 38.4266H32.2341C33.0223 38.4266 33.6797 38.9841 33.8352 39.7257H36.3423C36.3279 37.963 34.8946 36.5386 33.1291 36.5386H28.8779C27.1029 36.5386 25.6641 37.9774 25.6641 39.7524V41.3816C25.6641 43.1566 27.1029 44.5954 28.8779 44.5954H33.1291C34.8946 44.5954 36.3272 43.1716 36.3423 41.4096H33.8276C33.6606 42.1362 33.0107 42.6779 32.2334 42.6779H29.7441C28.8409 42.6779 28.1081 41.9452 28.1081 41.0419V40.0619C28.1081 39.1587 28.8416 38.4266 29.7448 38.4266Z" fill="#895AE8"/>
<path d="M63.0847 39.8754V38.7557C63.0847 37.5306 62.0917 36.5376 60.8666 36.5376H59.2155V36.5397H54.9355V36.5452H53.0605V44.5957H55.5039V42.2523H59.3648L60.9878 44.5957H63.4312L61.6685 42.0503C62.5033 41.6812 63.0861 40.8471 63.0861 39.8754H63.0847ZM55.5032 38.2243H60.038C60.5352 38.2243 60.9385 38.6277 60.9385 39.1248V39.6672C60.9385 40.1644 60.5352 40.5677 60.038 40.5677H55.5032V38.2243Z" fill="#895AE8"/>
</g>
<defs>
<clipPath id="clip0_868_10201">
<rect width="95" height="45" fill="white"/>
</clipPath>
</defs>
</svg>
