<svg width="195" height="65" viewBox="0 0 195 65" fill="none" xmlns="http://www.w3.org/2000/svg">
<g clip-path="url(#clip0_867_10098)">
<path d="M75.54 62.2364C75.0963 62.2364 74.6963 62.0944 74.3384 61.8115C73.9804 61.5286 73.6994 61.121 73.4947 60.5889C73.2899 60.0568 73.1875 59.4286 73.1875 58.7024C73.1875 57.9763 73.2875 57.3767 73.4875 56.8384C73.6875 56.3002 73.9661 55.8855 74.3241 55.5934C74.682 55.3013 75.0908 55.1562 75.5511 55.1562C75.8265 55.1562 76.0837 55.2083 76.3218 55.3115C76.5599 55.4157 76.7742 55.5607 76.9639 55.7486C77.1536 55.9366 77.3076 56.1603 77.425 56.4197H77.4504V55.3115H78.3822V62.0862H77.4504V60.9781H77.425C77.2972 61.2508 77.1361 61.4795 76.9417 61.6654C76.7464 61.8513 76.5305 61.9933 76.2916 62.0903C76.0527 62.1874 75.8027 62.2364 75.5408 62.2364H75.54ZM75.8019 61.1803C76.1273 61.1803 76.4162 61.0792 76.6686 60.8759C76.9202 60.6727 77.1163 60.3846 77.2552 60.0108C77.3949 59.637 77.4639 59.2019 77.4639 58.7045C77.4639 58.2071 77.3949 57.7904 77.2576 57.4145C77.1195 57.0386 76.925 56.7455 76.6734 56.5361C76.4218 56.3267 76.1289 56.2215 75.7972 56.2215C75.4654 56.2215 75.1916 56.3227 74.9384 56.5259C74.6844 56.7292 74.4876 57.0172 74.3463 57.391C74.205 57.7648 74.1344 58.1999 74.1344 58.6973C74.1344 59.1947 74.2058 59.636 74.3487 60.0098C74.4915 60.3836 74.6892 60.6727 74.9431 60.8749C75.1971 61.0781 75.4829 61.1793 75.8019 61.1793V61.1803Z" fill="black"/>
<path d="M131.376 62.2433C130.905 62.2433 130.468 62.1125 130.063 61.8511C129.658 61.5896 129.333 61.1953 129.088 60.6683C128.843 60.1413 128.721 59.4968 128.721 58.7359C128.721 57.975 128.837 57.3519 129.071 56.8137C129.304 56.2754 129.621 55.8638 130.021 55.5788C130.421 55.2939 130.872 55.1509 131.376 55.1509C131.84 55.1509 132.248 55.2724 132.6 55.5135C132.953 55.7555 133.23 56.0803 133.434 56.4889C133.637 56.8974 133.761 57.3499 133.804 57.8473H132.888C132.85 57.5276 132.769 57.2406 132.641 56.9883C132.513 56.735 132.342 56.5348 132.127 56.3857C131.912 56.2366 131.662 56.162 131.376 56.162C131.044 56.162 130.748 56.2672 130.487 56.4766C130.227 56.686 130.023 56.9842 129.876 57.3713C129.728 57.7584 129.654 58.2068 129.654 58.7165C129.654 59.2261 129.731 59.698 129.886 60.078C130.041 60.4579 130.248 60.7459 130.508 60.94C130.768 61.1341 131.057 61.2321 131.372 61.2321C131.645 61.2321 131.888 61.1627 132.103 61.0248C132.318 60.8869 132.492 60.6959 132.626 60.4538C132.761 60.2118 132.849 59.9442 132.893 59.65H133.81C133.763 60.1168 133.636 60.5468 133.43 60.94C133.223 61.3332 132.944 61.6488 132.591 61.8868C132.238 62.1248 131.834 62.2433 131.376 62.2433H131.376Z" fill="black"/>
<path d="M137.044 62.2363C136.553 62.2363 136.106 62.0882 135.701 61.792C135.296 61.4958 134.977 61.0781 134.744 60.5378C134.51 59.9975 134.394 59.3857 134.394 58.7034C134.394 58.0211 134.509 57.4032 134.741 56.865C134.973 56.3267 135.291 55.9079 135.696 55.6076C136.101 55.3074 136.552 55.1572 137.048 55.1572C137.545 55.1572 138 55.3074 138.401 55.6076C138.803 55.9079 139.118 56.3267 139.348 56.8619C139.578 57.3981 139.693 58.012 139.693 58.7034C139.693 59.3949 139.577 60.0087 139.345 60.5449C139.114 61.0812 138.796 61.4969 138.393 61.7931C137.99 62.0893 137.54 62.2374 137.043 62.2374L137.044 62.2363ZM137.044 61.2313C137.36 61.2313 137.646 61.1261 137.905 60.9167C138.164 60.7073 138.369 60.4122 138.522 60.0322C138.676 59.6523 138.752 59.209 138.752 58.7034C138.752 58.1978 138.676 57.7535 138.525 57.3716C138.373 56.9896 138.168 56.6934 137.91 56.483C137.652 56.2736 137.363 56.1684 137.044 56.1684C136.725 56.1684 136.44 56.2736 136.183 56.483C135.924 56.6923 135.718 56.9885 135.565 57.3716C135.412 57.7546 135.336 58.1978 135.336 58.7034C135.336 59.209 135.412 59.6523 135.565 60.0322C135.718 60.4122 135.925 60.7073 136.185 60.9167C136.445 61.1261 136.732 61.2313 137.044 61.2313Z" fill="black"/>
<path d="M140.556 62.0871V55.3052H141.487V56.2643H141.492C141.576 56.0355 141.695 55.8363 141.85 55.6678C142.005 55.4993 142.187 55.3706 142.397 55.2817C142.607 55.1928 142.836 55.1489 143.085 55.1489C143.475 55.1489 143.802 55.2531 144.068 55.4604C144.333 55.6678 144.528 55.9681 144.652 56.3613H144.657C144.825 55.964 145.05 55.6627 145.334 55.4574C145.619 55.2521 145.955 55.1489 146.345 55.1489C146.735 55.1489 147.046 55.2449 147.322 55.437C147.597 55.629 147.811 55.917 147.962 56.299C148.112 56.681 148.189 57.1426 148.189 57.6829V62.085H147.257V57.8188C147.257 57.3132 147.156 56.919 146.954 56.636C146.753 56.3531 146.467 56.2112 146.098 56.2112C145.833 56.2112 145.607 56.2857 145.42 56.4348C145.234 56.584 145.09 56.7954 144.989 57.0701C144.888 57.3449 144.838 57.6676 144.838 58.0394V62.085H143.901V57.8188C143.901 57.3091 143.803 56.9118 143.609 56.6289C143.414 56.346 143.134 56.204 142.768 56.204C142.509 56.204 142.284 56.2816 142.092 56.4379C141.9 56.5942 141.752 56.8097 141.646 57.0865C141.541 57.3633 141.487 57.6809 141.487 58.0394V62.085H140.556V62.0871Z" fill="black"/>
<path d="M152.072 62.2364C151.81 62.2364 151.559 62.1864 151.319 62.0873C151.078 61.9882 150.861 61.8432 150.666 61.6532C150.471 61.4632 150.308 61.2294 150.177 60.9526H150.167V64.6091H149.235V55.3115H150.167V56.4463H150.177C150.298 56.1828 150.454 55.955 150.643 55.762C150.833 55.5699 151.049 55.4208 151.291 55.3146C151.533 55.2084 151.791 55.1553 152.067 55.1553C152.528 55.1553 152.936 55.3013 153.294 55.5924C153.652 55.8835 153.931 56.2992 154.131 56.8375C154.331 57.3757 154.431 57.9967 154.431 58.7015C154.431 59.4062 154.328 60.0568 154.124 60.5879C153.919 61.1201 153.637 61.5266 153.28 61.8105C152.923 62.0945 152.52 62.2354 152.074 62.2354L152.072 62.2364ZM151.816 61.1803C152.135 61.1803 152.42 61.0792 152.672 60.876C152.924 60.6727 153.122 60.3847 153.267 60.0109C153.411 59.637 153.483 59.1999 153.483 58.6984C153.483 58.1969 153.413 57.7659 153.271 57.3921C153.13 57.0183 152.933 56.7302 152.679 56.527C152.425 56.3237 152.138 56.2226 151.815 56.2226C151.492 56.2226 151.195 56.3278 150.943 56.5372C150.692 56.7466 150.497 57.0397 150.359 57.4156C150.221 57.7914 150.153 58.2214 150.153 58.7056C150.153 59.1897 150.223 59.6381 150.362 60.0119C150.501 60.3857 150.696 60.6748 150.946 60.877C151.196 61.0802 151.485 61.1814 151.815 61.1814L151.816 61.1803Z" fill="black"/>
<path d="M157.438 62.2364C156.995 62.2364 156.595 62.0944 156.237 61.8115C155.879 61.5286 155.598 61.121 155.393 60.5889C155.188 60.0568 155.086 59.4286 155.086 58.7024C155.086 57.9763 155.186 57.3767 155.386 56.8384C155.586 56.3002 155.865 55.8855 156.223 55.5934C156.58 55.3013 156.989 55.1562 157.45 55.1562C157.725 55.1562 157.982 55.2083 158.22 55.3115C158.458 55.4157 158.673 55.5607 158.862 55.7486C159.052 55.9366 159.206 56.1603 159.323 56.4197H159.349V55.3115H160.281V62.0862H159.349V60.9781H159.323C159.196 61.2508 159.035 61.4795 158.84 61.6654C158.645 61.8513 158.429 61.9933 158.19 62.0903C157.951 62.1874 157.701 62.2364 157.439 62.2364H157.438ZM157.7 61.1803C158.026 61.1803 158.315 61.0792 158.567 60.8759C158.819 60.6727 159.015 60.3846 159.154 60.0108C159.293 59.637 159.362 59.2019 159.362 58.7045C159.362 58.2071 159.293 57.7904 159.156 57.4145C159.018 57.0386 158.823 56.7455 158.572 56.5361C158.32 56.3267 158.027 56.2215 157.696 56.2215C157.364 56.2215 157.09 56.3227 156.837 56.5259C156.583 56.7292 156.386 57.0172 156.245 57.391C156.103 57.7648 156.033 58.1999 156.033 58.6973C156.033 59.1947 156.104 59.636 156.247 60.0098C156.39 60.3836 156.588 60.6727 156.842 60.8749C157.096 61.0781 157.381 61.1793 157.7 61.1793V61.1803Z" fill="black"/>
<path d="M161.408 62.0873V55.3054H162.34V56.3298H162.355C162.51 55.9713 162.732 55.6853 163.023 55.4739C163.313 55.2625 163.65 55.1562 164.033 55.1562C164.436 55.1562 164.781 55.2635 165.068 55.477C165.355 55.6904 165.574 55.9999 165.725 56.4044C165.876 56.8088 165.952 57.3021 165.952 57.8854V62.0862H165.02V58.0212C165.02 57.4421 164.912 56.9957 164.696 56.6822C164.479 56.3686 164.177 56.2123 163.792 56.2123C163.492 56.2123 163.234 56.2992 163.015 56.4718C162.797 56.6444 162.63 56.8803 162.514 57.1786C162.398 57.4768 162.34 57.8077 162.34 58.1703V62.0862H161.408V62.0873Z" fill="black"/>
<path d="M166.849 64.6098V63.6242H167.176C167.479 63.6242 167.719 63.5558 167.899 63.4199C168.079 63.2841 168.222 63.0512 168.33 62.7233L168.532 62.1269L166.416 55.3062H167.373L168.618 59.553C168.715 59.8901 168.831 60.3078 168.965 60.8042H168.991C169.115 60.3119 169.224 59.8941 169.319 59.553L170.538 55.3062H171.505L169.142 63.0277C168.984 63.5425 168.753 63.9347 168.447 64.2043C168.142 64.474 167.718 64.6098 167.177 64.6098H166.849H166.849Z" fill="black"/>
<path d="M45.2215 41.7529V20.9252H49.8662V24.5306H49.8956C50.3599 23.3479 50.9869 22.4296 51.775 21.7749C52.5639 21.1213 53.4902 20.7944 54.5545 20.7944C55.0188 20.7944 55.3768 20.8261 55.6284 20.8874V26.3231C55.4927 26.2853 55.3236 26.2547 55.1204 26.2302C54.9172 26.2056 54.7236 26.1924 54.5394 26.1924C53.6204 26.1924 52.8068 26.4293 52.1012 26.9022C51.3948 27.3751 50.8456 28.0451 50.4535 28.9102C50.0614 29.7764 49.8654 30.7875 49.8654 31.9457V41.7519H45.2207L45.2215 41.7529Z" fill="black"/>
<path d="M64.1023 42.2014C62.5054 42.2014 61.0831 41.753 59.8346 40.8563C58.5861 39.9595 57.6115 38.693 56.9099 37.0547C56.2082 35.4175 55.8574 33.5341 55.8574 31.4045C55.8574 29.275 56.2082 27.3476 56.9099 25.6981C57.6115 24.0486 58.5861 22.7627 59.8346 21.8404C61.0831 20.9191 62.5054 20.4585 64.1023 20.4585C65.6992 20.4585 67.0636 20.8977 68.2541 21.775C69.4446 22.6534 70.3661 23.8801 71.0193 25.455C71.6725 27.03 71.9988 28.845 71.9988 30.9C71.9988 31.187 71.9868 31.5046 71.9622 31.8529C71.9376 32.2012 71.9114 32.5444 71.8821 32.8804H60.4585C60.5648 33.9641 60.7926 34.8578 61.141 35.5605C61.4895 36.2642 61.9252 36.781 62.4475 37.1109C62.9697 37.4408 63.5602 37.6063 64.2182 37.6063C64.7214 37.6063 65.1809 37.5031 65.5968 37.2978C66.0127 37.0925 66.3612 36.8096 66.6421 36.448C66.9231 36.0875 67.1263 35.6697 67.2517 35.1969H71.8099C71.6352 36.5665 71.2027 37.7809 70.5106 38.8391C69.8185 39.8972 68.9184 40.7225 67.8104 41.3138C66.7024 41.9052 65.4659 42.2014 64.1015 42.2014H64.1023ZM67.3969 29.0513C67.339 28.1545 67.1691 27.3824 66.889 26.7348C66.608 26.0873 66.2286 25.595 65.7492 25.2589C65.2698 24.9229 64.7206 24.7544 64.1015 24.7544C63.5205 24.7544 62.984 24.8974 62.4903 25.1844C61.9966 25.4714 61.576 25.9351 61.2275 26.5765C60.8791 27.2179 60.637 28.0432 60.5021 29.0513H67.3969Z" fill="black"/>
<path d="M80.3644 42.2207C78.9802 42.2207 77.7444 41.7754 76.6554 40.8847C75.5665 39.9941 74.7173 38.7306 74.1077 37.0924C73.4981 35.4551 73.1934 33.5523 73.1934 31.386C73.1934 29.2197 73.491 27.4169 74.0863 25.7542C74.6815 24.0914 75.5228 22.7963 76.6118 21.8689C77.7007 20.9415 78.9611 20.4767 80.3929 20.4767C81.1382 20.4767 81.8351 20.6014 82.4835 20.8506C83.132 21.0998 83.7169 21.4573 84.24 21.925C84.7622 22.3918 85.2075 22.9433 85.5758 23.5786H85.6043V14.8184H90.249V41.7539H85.6043V39.1198H85.5758C85.1789 39.7919 84.7146 40.3556 84.182 40.8102C83.6495 41.2647 83.0574 41.6129 82.4042 41.856C81.751 42.0991 81.0708 42.2207 80.3652 42.2207H80.3644ZM81.801 37.0648C82.5653 37.0648 83.2399 36.8309 83.8257 36.3641C84.4114 35.8974 84.8654 35.2345 85.19 34.3745C85.5138 33.5155 85.6766 32.5187 85.6766 31.386C85.6766 30.2533 85.5146 29.2687 85.19 28.3975C84.8654 27.5262 84.4106 26.8501 83.8257 26.3711C83.2399 25.892 82.5605 25.652 81.7867 25.652C81.0128 25.652 80.3445 25.8859 79.7548 26.3527C79.1643 26.8194 78.7071 27.4864 78.3833 28.3515C78.0587 29.2176 77.8968 30.2226 77.8968 31.3686C77.8968 32.5146 78.0611 33.5166 78.3905 34.3755C78.719 35.2345 79.1794 35.8984 79.7691 36.3652C80.3588 36.8319 81.0366 37.0658 81.801 37.0658V37.0648Z" fill="black"/>
<path d="M104.405 42.2208C102.876 42.2208 101.463 41.8255 100.167 41.035C98.8699 40.2445 97.827 39.0423 97.0389 37.4296C96.2499 35.8168 95.8555 33.8333 95.8555 31.4801C95.8555 29.1269 96.2301 27.2118 96.9801 25.549C97.7302 23.8862 98.7509 22.6228 100.043 21.7567C101.335 20.8916 102.779 20.4585 104.376 20.4585C105.973 20.4585 107.286 20.8476 108.433 21.6259C109.58 22.4042 110.478 23.447 111.126 24.7544C111.775 26.0617 112.171 27.5131 112.317 29.1064H107.774C107.677 28.4088 107.495 27.7797 107.229 27.22C106.963 26.6592 106.593 26.2088 106.119 25.8656C105.644 25.5235 105.073 25.3519 104.406 25.3519C103.612 25.3519 102.92 25.595 102.33 26.0801C101.74 26.5653 101.29 27.2629 100.98 28.1719C100.671 29.0809 100.516 30.1462 100.516 31.3657C100.516 32.5852 100.68 33.7128 101.01 34.5973C101.338 35.4818 101.794 36.1539 102.374 36.6145C102.955 37.0751 103.623 37.306 104.377 37.306C105.045 37.306 105.621 37.1375 106.104 36.8014C106.588 36.4654 106.966 36.0231 107.236 35.4757C107.507 34.9282 107.691 34.3297 107.788 33.6822H112.346C112.201 35.2643 111.799 36.6993 111.141 37.9883C110.483 39.2772 109.578 40.3047 108.427 41.0707C107.275 41.8368 105.935 42.2198 104.406 42.2198L104.405 42.2208Z" fill="black"/>
<path d="M120.373 42.2205C118.989 42.2205 117.756 41.7752 116.671 40.8845C115.587 39.9939 114.739 38.7305 114.124 37.0922C113.509 35.4549 113.202 33.5521 113.202 31.3858C113.202 29.2195 113.5 27.4168 114.095 25.754C114.69 24.0912 115.534 22.7961 116.628 21.8687C117.721 20.9413 118.984 20.4766 120.416 20.4766C121.151 20.4766 121.838 20.6012 122.477 20.8504C123.116 21.0996 123.692 21.455 124.204 21.9147C124.717 22.3753 125.158 22.9299 125.525 23.5774H125.627V20.9249H130.271V41.7527H125.627V39.1186H125.525C125.138 39.7906 124.681 40.3544 124.154 40.809C123.626 41.2635 123.043 41.6118 122.404 41.8548C121.765 42.0979 121.088 42.2195 120.372 42.2195L120.373 42.2205ZM121.81 37.0646C122.574 37.0646 123.249 36.8307 123.834 36.364C124.419 35.8972 124.874 35.2343 125.199 34.3743C125.523 33.5154 125.685 32.5185 125.685 31.3858C125.685 30.2531 125.526 29.2685 125.206 28.3973C124.887 27.5261 124.431 26.8499 123.842 26.3709C123.251 25.8919 122.569 25.6518 121.795 25.6518C121.02 25.6518 120.367 25.8857 119.777 26.3525C119.187 26.8193 118.727 27.4862 118.398 28.3513C118.069 29.2174 117.905 30.2225 117.905 31.3684C117.905 32.5144 118.071 33.5164 118.406 34.3754C118.74 35.2343 119.202 35.8982 119.792 36.365C120.383 36.8317 121.055 37.0656 121.81 37.0656V37.0646Z" fill="black"/>
<path d="M131.783 41.7527V20.9249H136.428V23.652H136.486C136.998 22.6429 137.659 21.8615 138.467 21.308C139.275 20.7544 140.21 20.4766 141.276 20.4766C142.466 20.4766 143.484 20.8003 144.331 21.4479C145.178 22.0954 145.821 23.0422 146.262 24.2873C146.702 25.5323 146.922 27.0583 146.922 28.864V41.7527H142.277V29.7046C142.277 28.434 142.038 27.4443 141.559 26.7345C141.08 26.0246 140.41 25.6702 139.549 25.6702C138.91 25.6702 138.356 25.8541 137.887 26.2218C137.417 26.5895 137.056 27.094 136.805 27.7344C136.553 28.3758 136.427 29.1071 136.427 29.9293V41.7537H131.782L131.783 41.7527Z" fill="black"/>
<path d="M155.487 42.2205C154.103 42.2205 152.87 41.7752 151.786 40.8845C150.701 39.9939 149.853 38.7305 149.238 37.0922C148.624 35.4549 148.316 33.5521 148.316 31.3858C148.316 29.2195 148.614 27.4168 149.209 25.754C149.805 24.0912 150.648 22.7961 151.742 21.8687C152.836 20.9413 154.098 20.4766 155.53 20.4766C156.265 20.4766 156.953 20.6012 157.592 20.8504C158.23 21.0996 158.806 21.455 159.319 21.9147C159.831 22.3753 160.272 22.9299 160.639 23.5774H160.741V20.9249H165.386V41.7527H160.741V39.1186H160.639C160.252 39.7906 159.795 40.3544 159.268 40.809C158.74 41.2635 158.157 41.6118 157.518 41.8548C156.88 42.0979 156.203 42.2195 155.487 42.2195L155.487 42.2205ZM156.925 37.0646C157.689 37.0646 158.364 36.8307 158.95 36.364C159.534 35.8972 159.989 35.2343 160.314 34.3743C160.638 33.5154 160.8 32.5185 160.8 31.3858C160.8 30.2531 160.641 29.2685 160.321 28.3973C160.002 27.5261 159.546 26.8499 158.957 26.3709C158.366 25.8919 157.684 25.6518 156.91 25.6518C156.135 25.6518 155.482 25.8857 154.892 26.3525C154.302 26.8193 153.842 27.4862 153.514 28.3513C153.184 29.2174 153.02 30.2225 153.02 31.3684C153.02 32.5144 153.187 33.5164 153.521 34.3754C153.855 35.2343 154.317 35.8982 154.907 36.365C155.498 36.8317 156.17 37.0656 156.925 37.0656V37.0646Z" fill="black"/>
<path d="M166.898 41.7529V20.9252H171.543V24.5306H171.572C172.037 23.3479 172.664 22.4296 173.452 21.7749C174.241 21.1213 175.167 20.7944 176.231 20.7944C176.696 20.7944 177.054 20.8261 177.305 20.8874V26.3231C177.169 26.2853 177 26.2547 176.797 26.2302C176.594 26.2056 176.4 26.1924 176.216 26.1924C175.297 26.1924 174.484 26.4293 173.778 26.9022C173.072 27.3751 172.522 28.0451 172.13 28.9102C171.738 29.7764 171.542 30.7875 171.542 31.9457V41.7519H166.897L166.898 41.7529Z" fill="black"/>
<path d="M179.86 49.02V44.2012H181.602C182.299 44.2012 182.837 44.0674 183.214 43.7998C183.591 43.5322 183.891 43.093 184.114 42.4832L184.361 41.7734L178.046 20.9272H182.822L185.58 31.5372C185.87 32.6955 186.189 33.9844 186.538 35.4041H186.61C186.929 33.9844 187.229 32.6955 187.51 31.5372L190.21 20.9272H195L188.134 43.9591C187.621 45.7026 186.844 46.9824 185.804 47.7974C184.764 48.6125 183.363 49.021 181.602 49.021H179.859L179.86 49.02Z" fill="black"/>
<path fill-rule="evenodd" clip-rule="evenodd" d="M3.19352 44.4142L39.4645 36.3862L38.0954 42.3377L1.8252 50.3647L3.19352 44.4142Z" fill="black"/>
<path d="M38.7545 37.1993L37.7037 41.7699L2.53515 49.5527L3.586 44.9821L38.7537 37.1982M40.1744 35.5743L38.5839 35.9266L3.41615 43.7095L2.80104 43.8453L2.62404 44.6154L1.5732 49.186L1.11523 51.1777L2.70579 50.8253L37.8735 43.0415L38.4886 42.9056L38.6656 42.1355L39.7165 37.5649L40.1744 35.5732V35.5743Z" fill="white"/>
<path d="M8.06943 46.5715L4.02954 54.4268C3.02075 56.302 1.89927 58.1088 0.696821 59.7972L0.377757 60.2445C0.0586926 60.6929 -0.0786163 61.319 0.0428187 61.9073C0.205526 62.6968 0.753967 63.2269 1.3667 63.2269C1.46829 63.2269 1.57147 63.2126 1.67148 63.183L2.38262 62.9767C3.37792 62.6876 4.15573 61.9911 4.81053 61.2414C4.81371 61.2373 4.81847 61.2363 4.82323 61.2393C4.99149 61.3364 5.17563 61.3885 5.36612 61.3885C5.54311 61.3885 5.71693 61.3435 5.88202 61.2557L8.48215 59.8676C9.50443 59.3222 10.3846 58.4234 11.0291 57.2683L11.5776 56.3787C12.3974 55.0488 13.2356 53.815 14.0705 52.7109C14.3261 52.3728 14.6031 52.045 15.4032 51.4546C16.3969 50.7223 18.3001 49.7969 19.7359 49.3475C21.7813 48.7082 26.9101 46.8554 30.3444 43.4685L30.3508 43.4624L30.3571 43.4553C30.4714 43.3388 33.1771 40.5576 35.4248 35.602C36.7495 32.6808 37.6432 29.6024 38.0797 26.4525C38.6266 22.508 38.4552 18.4511 37.5694 14.3963L37.5662 14.381L37.563 14.3667L37.5289 14.2227C38.0829 12.9511 38.2615 11.369 38.1924 10.0075C38.1924 10.0024 38.194 9.99727 38.198 9.9942C38.4036 9.82874 38.629 9.65409 38.8615 9.47432C39.6076 8.89725 40.3791 8.30077 40.9156 7.67365L41.7918 6.65024C41.7974 6.64411 41.7974 6.6339 41.7918 6.62777L40.9561 5.55022C39.9751 4.28577 38.225 3.31649 36.9543 2.84053C36.9535 2.84053 36.9527 2.84053 36.9519 2.83951C35.0145 1.35853 33.1573 0.609863 31.4318 0.609863C29.6293 0.609863 27.9721 1.41164 26.5069 2.9917C25.214 4.38586 24.0671 6.40307 23.0972 8.98713C22.9067 9.49577 22.7083 10.129 22.4988 10.799C22.4988 10.799 21.7059 13.5057 21.3193 14.335C21.3193 14.335 13.8602 17.9088 10.0322 35.1924C9.90524 35.7644 9.7719 36.3333 9.65047 36.9063C9.65047 36.9063 8.18849 42.4216 6.236 46.5643C6.20108 46.6389 6.24949 46.7185 6.31696 46.7216C6.89 46.7441 8.07023 46.5715 8.07023 46.5715H8.06943Z" fill="white"/>
<path d="M34.6751 25.4107C25.0372 43.7494 9.29991 45.3346 7.83475 45.4438C7.7911 45.4469 7.7657 45.3836 7.79268 45.3397C9.52849 42.4339 10.8317 36.8357 10.8317 36.8357C15.128 17.9108 22.0577 15.6914 22.0601 15.6903C18.8155 18.3786 17.4845 22.8624 17.4845 22.8624C20.6449 17.0947 23.7737 14.0122 30.9884 14.6097C30.9376 14.6353 26.2762 12.7498 22.4665 14.4606C22.4665 14.4606 22.8673 13.4709 23.0681 12.8734C23.4737 11.6682 23.8205 10.4385 24.1245 9.62852C26.6865 2.79965 30.6947 -0.314506 36.4982 4.1979C37.6482 4.60543 39.3118 5.50525 40.1499 6.58586C39.3777 7.48773 37.8109 8.48459 36.9728 9.2833C37.222 10.8725 36.995 12.8326 36.2831 13.9908L36.4728 14.7926C40.1507 31.6288 29.6518 42.3031 29.6518 42.3031C26.7223 45.1926 22.2633 47.0474 19.4687 47.9207C17.9877 48.3833 15.9669 49.3475 14.8375 50.1799C13.9335 50.8459 13.5716 51.2554 13.1787 51.7886C12.2723 53.0163 11.4087 54.294 10.5912 55.6197L10.1198 56.3837C9.59754 57.3295 8.87925 58.0669 8.04667 58.5112L5.44574 59.8993C5.24969 60.0035 5.08064 59.693 5.22509 59.4928C7.25139 56.6707 9.67771 52.1042 10.3857 50.5721C10.4055 50.5282 10.3579 50.4863 10.3341 50.5272C9.20704 52.4525 7.0355 56.3664 4.59013 59.4897C3.87105 60.4089 3.1218 61.2587 2.13366 61.5457L1.42251 61.752C1.20345 61.8154 1.05106 61.4773 1.20265 61.2638L1.53997 60.7899C2.77893 59.0505 3.92581 57.2039 4.96952 55.2633L9.16339 47.3518C9.26737 47.1546 9.43087 47.0239 9.61421 46.9902C11.8151 46.5878 26.2627 43.3061 34.6759 25.4097L34.6751 25.4107Z" fill="#D61E2A"/>
<path d="M33.1008 6.10592C33.3341 5.98029 33.8572 5.79543 34.3508 6.28058C34.4096 6.33879 34.4993 6.30407 34.5088 6.21623C34.5445 5.90675 34.5485 5.32457 34.1405 5.05595C33.6032 4.70154 32.9286 5.07434 32.9611 6.00378C32.9643 6.08652 33.0373 6.14065 33.1008 6.10694V6.10592Z" fill="white"/>
<path d="M90.1234 54.1326L90.5028 51.9683H84.1334L83.9897 52.8058C83.8239 53.5463 84.2747 54.0723 84.7596 54.055H87.7106L82.4801 60.0504L82.127 62.0615H88.8741L89.2623 59.8584H84.9954L90.1242 54.1306L90.1234 54.1326ZM94.3728 55.8771C94.0736 55.779 92.3989 55.4491 92.5029 54.7005C92.6204 53.8568 93.4148 53.7772 93.8006 53.7925C94.5959 53.8221 94.8467 54.2766 94.8879 54.4359C94.9983 54.8639 95.2523 55.0794 95.6237 55.0794H96.8793C97.0166 54.0703 97.0539 51.7416 94.1363 51.7416C93.199 51.7416 91.9513 52.047 91.125 53.2818C90.6853 53.9447 89.921 55.5891 90.7004 56.8249C91.1084 57.449 92.1719 57.9372 93.3133 58.2273C94.0514 58.4162 94.4419 58.7982 94.3601 59.2507C94.3109 59.555 94.0173 60.2404 92.9307 60.2383C92.445 60.2383 91.3909 60.1382 91.5925 58.7206H89.6067C89.3734 60.0055 89.2877 62.2484 92.3164 62.2484C93.4839 62.2484 95.8618 62.0554 96.4809 58.8319C96.9277 56.5165 94.9157 56.0579 94.3713 55.8802V55.8761L94.3728 55.8771ZM101.393 59.4458C101.222 59.651 101.021 59.8104 100.802 59.9146C100.583 60.0187 100.35 60.0657 100.117 60.0535C98.6167 60.0719 98.7858 58.1445 98.9905 56.9812C99.1953 55.8179 99.6779 53.9436 101.104 53.9477C102.115 53.9477 102.231 54.7975 102.283 55.0467H104.327C104.255 52.2461 102.601 51.7109 101.432 51.7477C98.227 51.8509 97.3 55.3276 97.0135 56.9444C96.1769 61.6652 98.5024 62.2555 99.6152 62.2555C100.528 62.2555 102.526 61.9696 103.7 58.9545H102.24C101.818 58.934 101.624 59.1771 101.392 59.4437L101.393 59.4458ZM109.742 60.414C109.152 61.3169 108.333 61.9154 107.432 62.1013C105.656 62.4823 103.215 62.3873 103.83 59.0678C104.027 58.0087 104.331 57.3152 104.944 56.7922C105.97 55.9169 107.333 55.7933 107.775 55.73C107.926 55.7086 109.043 55.6003 109.235 54.7424C109.422 53.9069 108.397 53.8384 108.11 53.8344C107.23 53.8211 106.932 54.2766 106.79 54.5483H104.833C105.623 51.8478 107.802 51.7416 108.396 51.7416C109.055 51.7416 111.702 51.7416 111.197 54.5881C110.424 58.9361 110.392 59.3702 109.743 60.414H109.742ZM108.862 56.9873C108.547 57.211 107.762 57.4316 107.636 57.4786C107.234 57.6328 106.464 57.7013 106.09 58.1547C105.77 58.5469 105.205 60.1689 106.547 60.2036C107.379 60.224 108.417 59.6163 108.712 57.8555C108.774 57.4571 108.866 56.9873 108.866 56.9873H108.861H108.862ZM113.898 49.0176H112.843L110.549 62.0645H112.594L114.667 50.2698C114.757 49.899 114.699 49.0533 113.899 49.0176H113.898ZM119.198 58.9535H120.659C120.2 60.1587 119.01 62.2555 116.572 62.2545C113.463 62.2545 113.654 58.6521 113.971 56.9434C114.852 52.1951 117.3 51.7467 118.392 51.7467C119.846 51.7467 122.123 52.529 120.966 57.7013H115.907C115.784 58.3866 115.679 60.0729 117.073 60.0524C117.807 60.0422 118.082 59.698 118.148 59.6541C118.342 59.5285 118.518 58.9688 119.198 58.9535ZM116.212 55.9956H119.192C119.446 54.1397 118.561 53.9467 118.062 53.9467C117.634 53.9467 116.616 54.1479 116.212 55.9956ZM123.581 53.0745C122.212 54.2868 121.758 56.2366 121.601 57.1712C121.476 57.9076 120.74 62.0635 120.74 62.0635H122.786C122.786 62.0635 123.562 57.4949 123.698 56.8688C123.86 56.1365 124.386 54.1561 126.426 54.2378L126.898 51.9724C125.249 51.904 124.16 52.5617 123.579 53.0745H123.581Z" fill="black"/>
</g>
<defs>
<clipPath id="clip0_867_10098">
<rect width="195" height="64" fill="white" transform="translate(0 0.609863)"/>
</clipPath>
</defs>
</svg>
