<svg width="266" height="63" viewBox="0 0 266 63" fill="none" xmlns="http://www.w3.org/2000/svg">
<g clip-path="url(#clip0_867_10133)">
<path d="M55.3131 36.2651C60.7416 36.2651 68.5957 35.1464 68.5957 28.6949C68.612 28.1969 68.5668 27.6989 68.4612 27.212L65.2284 13.1816C64.4821 10.0945 63.8268 8.69406 58.4027 5.98422C54.1935 3.83369 45.0246 0.282715 42.3125 0.282715C39.787 0.282715 39.0537 3.53452 36.0422 3.53452C33.1435 3.53452 30.9912 1.10651 28.2791 1.10651C25.6756 1.10651 23.9789 2.87983 22.6684 6.52619C22.6684 6.52619 19.019 16.8106 18.5504 18.3021C18.4759 18.576 18.4437 18.8596 18.4549 19.1432C18.4549 23.1408 34.2067 36.2477 55.3131 36.2477M69.4289 31.3137C70.1796 34.8646 70.1796 35.2375 70.1796 35.7058C70.1796 41.7758 63.3495 45.1447 54.3714 45.1447C34.0808 45.1577 16.307 33.2777 16.307 25.4257C16.3058 24.3327 16.5288 23.2511 16.9622 22.2476C9.66349 22.6118 0.216797 23.9125 0.216797 32.2458C0.216797 45.8948 32.5837 62.7175 58.2117 62.7175C77.8602 62.7175 82.8157 53.8379 82.8157 46.8269C82.8157 41.3119 78.0424 35.0511 69.4376 31.3137" fill="#EE0000"/>
<path d="M69.4295 31.3136C70.1802 34.8645 70.1802 35.2374 70.1802 35.7057C70.1802 41.7757 63.3501 45.1446 54.3721 45.1446C34.0815 45.1576 16.3076 33.2777 16.3076 25.4256C16.3064 24.3327 16.5294 23.251 16.9629 22.2475L18.551 18.3193C18.4783 18.5876 18.4461 18.8653 18.4556 19.1431C18.4556 23.1407 34.2073 36.2476 55.3137 36.2476C60.7422 36.2476 68.5964 35.129 68.5964 28.6774C68.6126 28.1795 68.5674 27.6815 68.4618 27.1946L69.4295 31.3136Z" fill="black"/>
<path d="M251.567 40.3014C251.567 45.4566 254.67 47.9627 260.328 47.9627C262.071 47.9193 263.802 47.6749 265.488 47.2343V41.2553C264.41 41.5965 263.286 41.7662 262.155 41.7582C259.825 41.7582 258.961 41.0298 258.961 38.8403V29.6788H265.713V23.5221H258.961V15.7177L251.585 17.3133V23.5221H246.686V29.6788H251.567V40.3014ZM228.569 40.4402C228.569 38.8446 230.17 38.0685 232.587 38.0685C234.064 38.0771 235.536 38.2605 236.97 38.6148V41.7149C235.556 42.4862 233.967 42.879 232.357 42.8552C229.988 42.8552 228.569 41.9447 228.569 40.4402ZM230.825 48.0537C233.429 48.0537 235.529 47.5074 237.491 46.185V47.6462H244.789V32.1849C244.789 26.3056 240.823 23.0798 234.206 23.0798C230.509 23.0798 226.855 23.947 222.923 25.7246L225.57 31.153C228.4 29.965 230.778 29.2366 232.873 29.2366C235.911 29.2366 237.482 30.4203 237.482 32.8396V34.0233C235.694 33.5607 233.853 33.3305 232.006 33.3382C225.796 33.3382 222.056 35.9397 222.056 40.5919C222.056 44.8323 225.432 48.0667 230.817 48.0667M190.704 47.6592H198.554V35.1506H211.698V47.6462H219.569V15.7264H211.728V27.9922H198.584V15.7264H190.734L190.704 47.6592ZM160.824 35.5625C160.824 32.0939 163.562 29.449 167.168 29.449C169.044 29.411 170.865 30.0797 172.271 31.3221V39.7551C171.59 40.3979 170.788 40.8997 169.913 41.2316C169.037 41.5634 168.104 41.7189 167.168 41.6889C163.609 41.6889 160.824 39.0441 160.824 35.5798M172.37 47.6635H179.674V14.1309L172.297 15.7264V24.8011C170.419 23.7374 168.293 23.1871 166.135 23.2056C159.109 23.2056 153.586 28.6296 153.586 35.5625C153.565 37.1892 153.87 38.8036 154.481 40.3115C155.092 41.8194 155.997 43.1905 157.145 44.3449C158.292 45.4993 159.658 46.4138 161.163 47.0349C162.667 47.6561 164.281 47.9714 165.909 47.9627C168.237 47.9738 170.507 47.2399 172.388 45.8685L172.37 47.6635ZM138.858 29.1152C141.184 29.1152 143.145 30.6197 143.922 32.9437H133.855C134.584 30.546 136.411 29.1152 138.858 29.1152ZM126.417 35.6188C126.417 42.6427 132.167 48.1144 139.557 48.1144C143.618 48.1144 146.586 47.0175 149.645 44.4637L144.759 40.128C143.618 41.316 141.93 41.9533 139.925 41.9533C138.665 41.9888 137.423 41.6421 136.363 40.9587C135.304 40.2753 134.476 39.2873 133.989 38.1249H151.195V36.2909C151.195 28.6296 146.039 23.1145 139.01 23.1145C137.357 23.0896 135.717 23.3951 134.184 24.013C132.651 24.6309 131.258 25.5487 130.085 26.7125C128.913 27.8763 127.985 29.2626 127.357 30.7899C126.728 32.3172 126.412 33.9546 126.426 35.6058M113.69 22.4295C116.293 22.4295 117.751 24.0684 117.751 26.0325C117.751 27.9966 116.293 29.6355 113.69 29.6355H105.927V22.4295H113.69ZM98.0684 47.6462H105.918V36.0177H111.893L117.921 47.6462H126.708L119.678 34.8774C121.465 34.1514 122.993 32.908 124.066 31.307C125.14 29.706 125.709 27.8207 125.701 25.8937C125.701 20.1489 121.184 15.7264 114.419 15.7264H98.0684V47.6462Z" fill="#151515"/>
</g>
<defs>
<clipPath id="clip0_867_10133">
<rect width="266" height="63" fill="white"/>
</clipPath>
</defs>
</svg>
