<svg width="329" height="63" viewBox="0 0 329 63" fill="none" xmlns="http://www.w3.org/2000/svg">
<mask id="mask0_867_10190" style="mask-type:luminance" maskUnits="userSpaceOnUse" x="0" y="0" width="329" height="63">
<path d="M328.5 0.5V61.6924H0.5V0.5H328.5Z" fill="white" stroke="white"/>
</mask>
<g mask="url(#mask0_867_10190)">
<path d="M83.9941 15.4121C87.7283 15.4121 90.7186 16.3873 92.7822 18.0693C94.7173 19.6468 95.874 21.8749 96.0576 24.6094H90.1611C89.9336 23.3157 89.3145 22.1983 88.3389 21.3828C87.2546 20.4765 85.7689 19.9727 83.9844 19.9727C82.4454 19.9727 81.0514 20.298 80.0264 21C78.9793 21.7172 78.3496 22.8088 78.3496 24.2285C78.3496 24.9764 78.5358 25.6161 78.9375 26.1562C79.3331 26.6879 79.9076 27.0822 80.6113 27.4004C81.9252 27.9945 83.8448 28.3864 86.3057 28.8564V29.6523L86.9697 28.9893C89.6264 29.4908 92.0413 30.146 93.8066 31.4014C95.5824 32.6642 96.7382 34.5601 96.7383 37.6748C96.714 40.5636 95.5188 42.9817 93.4316 44.6875C91.3358 46.4004 88.3093 47.418 84.6025 47.418C80.5667 47.418 77.344 46.3511 75.1289 44.5303C73.0437 42.8161 71.8167 40.4056 71.6514 37.4854L77.5322 37.5635C77.7472 39.0721 78.465 40.3661 79.6133 41.3027C80.8713 42.3288 82.6098 42.8993 84.6885 42.8994C86.3471 42.8994 87.8432 42.54 88.9404 41.8018C90.0564 41.0508 90.7411 39.9165 90.7412 38.4629C90.7412 37.6931 90.5527 37.0363 90.1465 36.4824C89.7462 35.9368 89.1645 35.5322 88.4512 35.2051C87.0471 34.5613 84.9622 34.1464 82.2812 33.6182L82.2793 33.6172C79.5307 33.0856 77.0614 32.405 75.2793 31.0918C73.5376 29.8082 72.4102 27.8883 72.4102 24.7432C72.4102 22.0066 73.4644 19.6919 75.4111 18.0537C77.3657 16.4089 80.2626 15.4121 83.9941 15.4121Z" fill="black" stroke="black"/>
<path d="M139.645 24.022C141.955 24.0483 143.964 24.6892 145.41 26.2017C146.891 27.7504 147.858 30.2941 147.858 34.2759V47.1294H142.313V35.0659C142.313 33.008 141.949 31.3362 141.07 30.1714C140.17 28.9778 138.795 28.4019 136.989 28.4019C135.168 28.4019 133.682 29.0568 132.664 30.3081C131.657 31.5452 131.153 33.3068 131.153 35.4409V47.1343H125.608V24.3208H132.049C131.995 24.87 131.853 25.4086 131.628 25.9165L130.112 29.3228L129.8 30.0259H132.646L132.76 29.6841C133.808 26.5346 136.091 24.0249 139.488 24.0249H139.642L139.645 24.022Z" fill="black" stroke="black"/>
<path d="M192.662 24.0249H192.94C195.198 24.0729 197.161 24.7167 198.581 26.2017C200.062 27.7504 201.03 30.2941 201.03 34.2759V47.1294H195.484V35.0659C195.484 33.0079 195.12 31.3362 194.241 30.1714C193.34 28.9777 191.966 28.4019 190.16 28.4019C188.338 28.4019 186.853 29.0567 185.835 30.3081C184.828 31.5452 184.325 33.3068 184.325 35.4409V47.1343H178.779V24.3208H185.224C185.169 24.8698 185.028 25.4085 184.802 25.9165L183.286 29.3228L182.974 30.0259H185.82L185.935 29.6841C186.982 26.5346 189.264 24.0249 192.662 24.0249Z" fill="black" stroke="black"/>
<path d="M174.43 24.3184V47.1318H168.86V24.3184H174.43Z" fill="black" stroke="black"/>
<path d="M236.058 47.1343H230.531V17.8706L236.058 15.0854V47.1343Z" fill="black" stroke="black"/>
<path d="M174.43 15.9595V21.522H168.86V15.9595H174.43Z" fill="black" stroke="black"/>
<path d="M159.361 24.3179H164.822V28.8257H159.361V42.6196H164.822V47.1323H156.83C155.174 47.1322 153.832 45.7894 153.832 44.1372V28.8257H149.9V24.3179H153.832V18.9771L159.361 16.1909V24.3179Z" fill="black" stroke="black"/>
<path d="M215.816 24.0249C219.405 24.0249 222.265 25.1052 224.229 26.9858C226.07 28.7472 227.169 31.2526 227.317 34.3511L227.335 34.978C227.335 35.523 227.304 36.1209 227.223 36.6997H209.889V37.5444C209.963 39.3416 210.583 40.8281 211.667 41.8657C212.751 42.9029 214.251 43.4467 216.003 43.4468C217.373 43.4468 218.59 43.1414 219.555 42.5073C220.426 41.9344 221.067 41.1097 221.429 40.062H226.901C225.966 44.152 222.155 47.4067 216.236 47.4067C212.37 47.4067 209.338 46.2446 207.275 44.2388C205.215 42.2346 204.069 39.3374 204.068 35.7622C204.068 32.1655 205.247 29.2407 207.278 27.2163C209.31 25.1917 212.239 24.025 215.816 24.0249ZM215.866 27.8911C214.306 27.8911 212.944 28.3506 211.918 29.2212C210.89 30.0931 210.234 31.3476 210.035 32.8696L209.961 33.4341H221.824L221.743 32.8638C221.519 31.2995 220.852 30.0443 219.815 29.1831C218.781 28.324 217.419 27.8911 215.866 27.8911Z" fill="black" stroke="black"/>
<path d="M290.495 24.0249H290.773C293.031 24.0729 294.995 24.7167 296.414 26.2017C297.895 27.7504 298.863 30.2941 298.863 34.2759V47.1294H293.317V35.0659C293.317 33.0079 292.953 31.3362 292.074 30.1714C291.173 28.9777 289.799 28.4019 287.993 28.4019C286.171 28.4019 284.686 29.0567 283.668 30.3081C282.661 31.5452 282.158 33.3068 282.158 35.4409V47.1343H276.612V24.3208H283.057C283.003 24.8697 282.861 25.4083 282.636 25.9165L281.12 29.3228L280.807 30.0259H283.653L283.768 29.6841C284.815 26.5346 287.097 24.0249 290.495 24.0249Z" fill="black" stroke="black"/>
<path d="M313.649 24.0249C317.238 24.0249 320.098 25.1052 322.062 26.9858C323.903 28.7472 325.002 31.2526 325.15 34.3511L325.168 34.978C325.168 35.523 325.137 36.1209 325.056 36.6997H307.722V37.5444C307.796 39.3416 308.416 40.8282 309.5 41.8657C310.584 42.9029 312.084 43.4467 313.836 43.4468C315.206 43.4468 316.423 43.1414 317.388 42.5073C318.26 41.9344 318.9 41.1097 319.263 40.062H324.736C323.8 44.1522 319.988 47.4067 314.069 47.4067C310.203 47.4067 307.171 46.2446 305.108 44.2388C303.048 42.2346 301.902 39.3374 301.901 35.7622C301.901 32.1655 303.08 29.2407 305.111 27.2163C307.143 25.1917 310.072 24.025 313.649 24.0249ZM313.699 27.8911C312.139 27.8911 310.777 28.3506 309.751 29.2212C308.723 30.0931 308.067 31.3476 307.868 32.8696L307.794 33.4341H319.657L319.576 32.8638C319.352 31.2995 318.685 30.0443 317.648 29.1831C316.614 28.324 315.252 27.8911 313.699 27.8911Z" fill="black" stroke="black"/>
<path d="M111.12 24.0249C114.708 24.0249 117.567 25.1054 119.532 26.9858C121.495 28.8645 122.615 31.5895 122.638 34.978C122.638 35.523 122.608 36.1209 122.526 36.6997H105.191V37.5337L105.192 37.5444C105.267 39.3417 105.887 40.8281 106.971 41.8657C108.054 42.9029 109.555 43.4468 111.307 43.4468C112.677 43.4468 113.892 43.1414 114.857 42.5073C115.729 41.9344 116.37 41.1099 116.732 40.062H122.205C121.268 44.1521 117.458 47.4066 111.54 47.4067C107.673 47.4067 104.641 46.2446 102.578 44.2388C100.517 42.2346 99.3716 39.3374 99.3711 35.7622C99.3711 32.1654 100.55 29.2407 102.582 27.2163C104.614 25.1916 107.542 24.0249 111.12 24.0249ZM111.169 27.8911C109.609 27.8911 108.248 28.3506 107.222 29.2212C106.194 30.0931 105.537 31.3476 105.338 32.8696L105.264 33.4341H116.553V32.9331L117.046 32.8638C116.822 31.2993 116.155 30.0443 115.118 29.1831C114.083 28.324 112.722 27.8911 111.169 27.8911Z" fill="black" stroke="black"/>
<path d="M257.347 15.4189C266.625 15.4189 273.422 22.2388 273.422 31.415C273.422 40.5914 266.625 47.4111 257.347 47.4111C248.073 47.411 241.375 40.5955 241.375 31.415C241.375 22.2347 248.073 15.4191 257.347 15.4189ZM257.347 20.3037C251.588 20.3038 247.471 25.0821 247.471 31.415C247.471 37.7464 251.54 42.5262 257.347 42.5264C263.102 42.5264 267.278 37.7523 267.278 31.415C267.278 25.078 263.102 20.3037 257.347 20.3037Z" fill="black" stroke="black"/>
<mask id="path-14-inside-1_867_10190" fill="white">
<path d="M325.861 22.2362H326.718C327.18 22.2362 327.49 22.5088 327.49 22.9351C327.49 23.2053 327.35 23.4197 327.131 23.5244L327.546 24.3329H327.047L326.692 23.6293H326.314V24.3329H325.864V22.2339L325.861 22.2362ZM326.312 22.6089V23.2542H326.681C326.892 23.2542 327.028 23.1285 327.028 22.9328C327.028 22.7371 326.892 22.6089 326.681 22.6089H326.312Z"/>
</mask>
<path d="M325.861 22.2362H326.718C327.18 22.2362 327.49 22.5088 327.49 22.9351C327.49 23.2053 327.35 23.4197 327.131 23.5244L327.546 24.3329H327.047L326.692 23.6293H326.314V24.3329H325.864V22.2339L325.861 22.2362ZM326.312 22.6089V23.2542H326.681C326.892 23.2542 327.028 23.1285 327.028 22.9328C327.028 22.7371 326.892 22.6089 326.681 22.6089H326.312Z" fill="black"/>
<path d="M325.861 22.2362L325.214 21.4741L323.139 23.2362H325.861V22.2362ZM327.131 23.5244L326.7 22.6221L325.771 23.0658L326.241 23.9814L327.131 23.5244ZM327.546 24.3329V25.3329H329.184L328.436 23.8759L327.546 24.3329ZM327.047 24.3329L326.154 24.7834L326.432 25.3329H327.047V24.3329ZM326.692 23.6293L327.585 23.1788L327.308 22.6293H326.692V23.6293ZM326.314 23.6293V22.6293H325.314V23.6293H326.314ZM326.314 24.3329V25.3329H327.314V24.3329H326.314ZM325.864 24.3329H324.864V25.3329H325.864V24.3329ZM325.864 22.2339H326.864V20.0724L325.217 21.4717L325.864 22.2339ZM326.312 22.6089V21.6089H325.312V22.6089H326.312ZM326.312 23.2542H325.312V24.2542H326.312V23.2542ZM325.861 22.2362V23.2362H326.718V22.2362V21.2362H325.861V22.2362ZM326.718 22.2362V23.2362C326.756 23.2362 326.694 23.2457 326.609 23.1697C326.568 23.1327 326.535 23.0861 326.514 23.0365C326.493 22.9878 326.49 22.9506 326.49 22.9351H327.49H328.49C328.49 22.4655 328.311 22.0105 327.945 21.6818C327.59 21.363 327.142 21.2362 326.718 21.2362V22.2362ZM327.49 22.9351H326.49C326.49 22.8947 326.501 22.8312 326.543 22.7643C326.584 22.6977 326.642 22.6497 326.7 22.6221L327.131 23.5244L327.562 24.4268C328.139 24.1512 328.49 23.5796 328.49 22.9351H327.49ZM327.131 23.5244L326.241 23.9814L326.657 24.7899L327.546 24.3329L328.436 23.8759L328.02 23.0674L327.131 23.5244ZM327.546 24.3329V23.3329H327.047V24.3329V25.3329H327.546V24.3329ZM327.047 24.3329L327.94 23.8823L327.585 23.1788L326.692 23.6293L325.799 24.0799L326.154 24.7834L327.047 24.3329ZM326.692 23.6293V22.6293H326.314V23.6293V24.6293H326.692V23.6293ZM326.314 23.6293H325.314V24.3329H326.314H327.314V23.6293H326.314ZM326.314 24.3329V23.3329H325.864V24.3329V25.3329H326.314V24.3329ZM325.864 24.3329H326.864V22.2339H325.864H324.864V24.3329H325.864ZM325.864 22.2339L325.217 21.4717L325.214 21.4741L325.861 22.2362L326.509 22.9984L326.511 22.9961L325.864 22.2339ZM326.312 22.6089H325.312V23.2542H326.312H327.312V22.6089H326.312ZM326.312 23.2542V24.2542H326.681V23.2542V22.2542H326.312V23.2542ZM326.681 23.2542V24.2542C326.983 24.2542 327.331 24.1619 327.613 23.9004C327.903 23.6315 328.028 23.2721 328.028 22.9328H327.028H326.028C326.028 22.7891 326.084 22.5905 326.254 22.4334C326.416 22.2837 326.59 22.2542 326.681 22.2542V23.2542ZM327.028 22.9328H328.028C328.028 22.5942 327.904 22.2364 327.617 21.9677C327.337 21.7049 326.988 21.6089 326.681 21.6089V22.6089V23.6089C326.585 23.6089 326.41 23.577 326.25 23.4272C326.084 23.2715 326.028 23.0756 326.028 22.9328H327.028ZM326.681 22.6089V21.6089H326.312V22.6089V23.6089H326.681V22.6089Z" fill="black" mask="url(#path-14-inside-1_867_10190)"/>
<mask id="path-16-inside-2_867_10190" fill="white">
<path d="M326.622 25.4327C325.458 25.4327 324.514 24.4868 324.514 23.3267C324.514 22.1665 325.461 21.2207 326.622 21.2207C327.783 21.2207 328.729 22.1665 328.729 23.3267C328.729 24.4868 327.783 25.4327 326.622 25.4327ZM326.622 21.6703C325.708 21.6703 324.963 22.4135 324.963 23.3267C324.963 24.2399 325.708 24.983 326.622 24.983C327.536 24.983 328.279 24.2399 328.279 23.3267C328.279 22.4135 327.536 21.6703 326.622 21.6703Z"/>
</mask>
<path d="M326.622 25.4327C325.458 25.4327 324.514 24.4868 324.514 23.3267C324.514 22.1665 325.461 21.2207 326.622 21.2207C327.783 21.2207 328.729 22.1665 328.729 23.3267C328.729 24.4868 327.783 25.4327 326.622 25.4327ZM326.622 21.6703C325.708 21.6703 324.963 22.4135 324.963 23.3267C324.963 24.2399 325.708 24.983 326.622 24.983C327.536 24.983 328.279 24.2399 328.279 23.3267C328.279 22.4135 327.536 21.6703 326.622 21.6703Z" fill="black"/>
<path d="M326.622 25.4327V24.4327C326.01 24.4327 325.514 23.9342 325.514 23.3267H324.514H323.514C323.514 25.0394 324.906 26.4327 326.622 26.4327V25.4327ZM324.514 23.3267H325.514C325.514 22.72 326.012 22.2207 326.622 22.2207V21.2207V20.2207C324.91 20.2207 323.514 21.6131 323.514 23.3267H324.514ZM326.622 21.2207V22.2207C327.231 22.2207 327.729 22.7191 327.729 23.3267H328.729H329.729C329.729 21.6139 328.335 20.2207 326.622 20.2207V21.2207ZM328.729 23.3267H327.729C327.729 23.9342 327.231 24.4327 326.622 24.4327V25.4327V26.4327C328.335 26.4327 329.729 25.0395 329.729 23.3267H328.729ZM326.622 21.6703V20.6703C325.157 20.6703 323.963 21.8598 323.963 23.3267H324.963H325.963C325.963 22.9672 326.259 22.6703 326.622 22.6703V21.6703ZM324.963 23.3267H323.963C323.963 24.7936 325.157 25.983 326.622 25.983V24.983V23.983C326.259 23.983 325.963 23.6862 325.963 23.3267H324.963ZM326.622 24.983V25.983C328.088 25.983 329.279 24.7925 329.279 23.3267H328.279H327.279C327.279 23.6873 326.984 23.983 326.622 23.983V24.983ZM328.279 23.3267H329.279C329.279 21.8608 328.088 20.6703 326.622 20.6703V21.6703V22.6703C326.984 22.6703 327.279 22.9661 327.279 23.3267H328.279Z" fill="black" mask="url(#path-16-inside-2_867_10190)"/>
<path d="M49.7158 12.749V24.0947L25.8145 12.1562V0.808594L49.7158 12.749Z" fill="url(#paint0_linear_867_10190)" stroke="black"/>
<path d="M49.7158 49.4419L25.8145 61.3823V50.0347L49.7158 38.0942V49.4419Z" fill="url(#paint1_linear_867_10190)" stroke="black"/>
<path d="M24.8145 12.1562L0.913086 24.0947V12.749L24.8145 0.808594V12.1562Z" fill="url(#paint2_linear_867_10190)" stroke="black"/>
<path d="M24.8145 50.0347V61.3823L0.913086 49.4419V38.0942L24.8145 50.0347Z" fill="url(#paint3_linear_867_10190)" stroke="black"/>
<path d="M42.8682 34.1919L31.5156 39.8667L7.75293 27.9956L19.1152 22.3267L42.8682 34.1919Z" fill="url(#paint4_linear_867_10190)" stroke="black"/>
</g>
<defs>
<linearGradient id="paint0_linear_867_10190" x1="50.0409" y1="18.5928" x2="25.312" y2="6.2018" gradientUnits="userSpaceOnUse">
<stop stop-color="#4500B6"/>
<stop offset="1" stop-color="#6100FF"/>
</linearGradient>
<linearGradient id="paint1_linear_867_10190" x1="50.0409" y1="43.5989" x2="25.312" y2="55.99" gradientUnits="userSpaceOnUse">
<stop stop-color="#4500B6"/>
<stop offset="1" stop-color="#6100FF"/>
</linearGradient>
<linearGradient id="paint2_linear_867_10190" x1="0.58797" y1="18.5928" x2="25.3168" y2="6.20181" gradientUnits="userSpaceOnUse">
<stop stop-color="#6100FF"/>
<stop offset="1" stop-color="#4500B6"/>
</linearGradient>
<linearGradient id="paint3_linear_867_10190" x1="0.58797" y1="43.5989" x2="25.3168" y2="55.99" gradientUnits="userSpaceOnUse">
<stop stop-color="#6100FF"/>
<stop offset="1" stop-color="#4500B6"/>
</linearGradient>
<linearGradient id="paint4_linear_867_10190" x1="38.5956" y1="37.7377" x2="11.8343" y2="24.3271" gradientUnits="userSpaceOnUse">
<stop stop-color="#6100FF"/>
<stop offset="1" stop-color="#4500B6"/>
</linearGradient>
</defs>
</svg>
