<svg width="334" height="64" viewBox="0 0 334 64" fill="none" xmlns="http://www.w3.org/2000/svg">
<g clip-path="url(#clip0_912_10206)">
<mask id="mask0_912_10206" style="mask-type:luminance" maskUnits="userSpaceOnUse" x="0" y="0" width="334" height="64">
<path d="M334 0H0V63.1791H334V0Z" fill="white"/>
</mask>
<g mask="url(#mask0_912_10206)">
<path d="M88.1267 28.8961C82.6798 27.8595 80.0474 27.2962 80.0474 24.6125C80.0474 22.0707 82.2584 20.7975 85.26 20.7975C88.6926 20.7975 90.8042 22.731 91.0906 25.5071H98.0478C97.9058 19.1977 93.0198 15.1484 85.2695 15.1484C77.5192 15.1484 73.0025 19.2947 73.0025 25.1355C73.0025 31.8213 77.8436 33.5678 83.4325 34.6494C88.9293 35.7332 91.6113 36.2942 91.6113 39.0726C91.6113 41.6617 89.2134 43.0721 85.9749 43.0721C81.9365 43.0721 79.3988 40.857 79.1644 37.6572L72.2119 37.565C72.3042 44.2508 77.5215 48.6786 85.8874 48.6786C93.5926 48.6786 98.6657 44.4447 98.7154 38.2726C98.7154 31.6343 93.7324 29.9351 88.1433 28.9032L88.1244 28.8913V28.8984L88.1267 28.8961Z" fill="black"/>
<path d="M141.607 23.8983C137.853 23.8983 135.396 26.6838 134.295 29.9947H132.553L134.092 26.5348C134.418 25.7987 134.589 25.0035 134.589 24.1989H127.009V48.3904H133.654V36.0036C133.654 31.8123 135.633 29.3605 139.07 29.3605C142.508 29.3605 143.967 31.5283 143.967 35.6225V48.3857H150.613V34.8203C150.613 26.5797 146.607 23.8936 141.614 23.8936L141.607 23.8983Z" fill="black"/>
<path d="M195.59 23.8983C191.835 23.8983 189.379 26.6838 188.278 29.9947H186.535L188.073 26.5348C188.4 25.7987 188.571 25.0035 188.571 24.1989H180.988V48.3904H187.633V36.0036C187.633 31.8123 189.612 29.3605 193.05 29.3605C196.487 29.3605 197.947 31.5283 197.947 35.6225V48.3857H204.592V34.8203C204.592 26.5797 200.587 23.8936 195.592 23.8936H195.59V23.8983Z" fill="black"/>
<path d="M177.585 24.1963H170.919V48.3879H177.588V24.1963H177.585Z" fill="black"/>
<path d="M240.153 14.5L233.527 17.8416V48.3899H240.153V14.5Z" fill="black"/>
<path d="M177.588 15.7051H170.919V22.3719H177.588V15.7051Z" fill="black"/>
<path d="M162.291 24.1959V15.624L155.662 18.9657V24.1959H151.671V29.7906H155.662V44.8375C155.662 46.797 157.253 48.3874 159.214 48.3874H167.835V42.788H162.291V29.7906H167.835V24.1959H162.291Z" fill="black"/>
<path d="M206.662 36.3302C206.662 28.7949 211.607 23.8984 219.097 23.8984C226.587 23.8984 231.25 28.4186 231.297 35.5303C231.297 36.2356 231.25 37.0378 231.108 37.7905H213.586V38.1194C213.728 41.5581 215.94 43.6288 219.286 43.6288C221.923 43.6288 223.807 42.4526 224.42 40.1902H230.968C230.216 44.8998 226.023 48.6674 219.522 48.6674C211.468 48.6674 206.662 43.8158 206.662 36.3278V36.3302ZM224.61 33.4571C224.186 30.4895 222.112 28.8423 219.147 28.8423C216.18 28.8423 214.106 30.5841 213.73 33.4571H224.61Z" fill="black"/>
<path d="M294.909 23.8983C291.154 23.8983 288.698 26.6838 287.597 29.9947H285.855L287.394 26.5348C287.72 25.7987 287.891 25.0035 287.891 24.1989H280.308V48.3904H286.953V36.0036C286.953 31.8123 288.932 29.3605 292.369 29.3605C295.807 29.3605 297.266 31.5283 297.266 35.6225V48.3857H303.912V34.8203C303.912 26.5797 299.906 23.8936 294.912 23.8936H294.909V23.8983Z" fill="black"/>
<path d="M305.981 36.3302C305.981 28.7949 310.926 23.8984 318.416 23.8984C325.906 23.8984 330.569 28.4186 330.617 35.5303C330.617 36.2356 330.569 37.0378 330.427 37.7905H312.905V38.1194C313.047 41.5581 315.261 43.6288 318.605 43.6288C321.242 43.6288 323.127 42.4526 323.741 40.1902H330.288C329.535 44.8998 325.342 48.6674 318.842 48.6674C310.787 48.6674 305.981 43.8158 305.981 36.3278V36.3302ZM323.93 33.4571C323.505 30.4895 321.432 28.8423 318.466 28.8423C315.499 28.8423 313.425 30.5841 313.05 33.4571H323.93Z" fill="black"/>
<path d="M100.373 36.3302C100.373 28.7949 105.318 23.8984 112.808 23.8984C120.298 23.8984 124.962 28.4186 125.009 35.5303C125.009 36.2356 124.962 37.0378 124.819 37.7905H107.297V38.1194C107.439 41.5581 109.653 43.6288 112.998 43.6288C115.635 43.6288 117.519 42.4526 118.132 40.1902H124.68C123.927 44.8998 119.735 48.6674 113.234 48.6674C105.179 48.6674 100.373 43.8158 100.373 36.3278V36.3302ZM118.321 33.4571C117.898 30.4895 115.824 28.8423 112.858 28.8423C109.892 28.8423 107.818 30.5841 107.442 33.4571H118.324H118.321Z" fill="black"/>
<path d="M261.257 48.6724C251.559 48.6724 244.535 41.518 244.535 31.9142C244.535 22.3106 251.559 15.1562 261.257 15.1562C270.956 15.1562 278.084 22.3106 278.084 31.9142C278.084 41.518 270.956 48.6724 261.257 48.6724ZM261.257 42.6942C266.766 42.6942 270.832 38.1291 270.832 31.9142C270.832 25.6996 266.766 21.1344 261.257 21.1344C255.749 21.1344 251.738 25.6996 251.738 31.9142C251.738 38.1291 255.702 42.6942 261.257 42.6942Z" fill="black"/>
<path d="M330.812 22.5893H331.682C332.151 22.5893 332.466 22.8662 332.466 23.2993C332.466 23.5738 332.324 23.7915 332.101 23.8979L332.523 24.7192H332.016L331.656 24.0045H331.272V24.7192H330.815V22.5869L330.812 22.5893ZM331.27 22.9679V23.6234H331.645C331.859 23.6234 331.997 23.4957 331.997 23.2969C331.997 23.0981 331.859 22.9679 331.645 22.9679H331.27Z" fill="black"/>
<path d="M331.585 25.8364C330.403 25.8364 329.444 24.8756 329.444 23.697C329.444 22.5185 330.406 21.5576 331.585 21.5576C332.763 21.5576 333.724 22.5185 333.724 23.697C333.724 24.8756 332.763 25.8364 331.585 25.8364ZM331.585 22.0144C330.656 22.0144 329.901 22.7693 329.901 23.697C329.901 24.6247 330.656 25.3797 331.585 25.3797C332.513 25.3797 333.267 24.6247 333.267 23.697C333.267 22.7693 332.513 22.0144 331.585 22.0144Z" fill="black"/>
<path d="M25.6982 12.6638L50.9779 25.2992V12.6377L25.6982 0V12.6638Z" fill="url(#paint0_linear_912_10206)"/>
<path d="M25.6982 50.5157L50.9779 37.8779V50.5417L25.6982 63.1795V50.5157Z" fill="url(#paint1_linear_912_10206)"/>
<path d="M25.6986 12.6638L0.418945 25.2992V12.6377L25.6986 0V12.6638Z" fill="url(#paint2_linear_912_10206)"/>
<path d="M25.6986 50.5157L0.418945 37.8779V50.5417L25.6986 63.1795V50.5157Z" fill="url(#paint3_linear_912_10206)"/>
<path d="M6.73438 28.4402L31.9951 41.0684L44.6551 34.7355L19.4061 22.1143L6.73438 28.4402Z" fill="url(#paint4_linear_912_10206)"/>
</g>
</g>
<defs>
<linearGradient id="paint0_linear_912_10206" x1="50.8004" y1="18.8879" x2="25.689" y2="6.31362" gradientUnits="userSpaceOnUse">
<stop stop-color="#4500B6"/>
<stop offset="1" stop-color="#6100FF"/>
</linearGradient>
<linearGradient id="paint1_linear_912_10206" x1="50.8004" y1="44.2914" x2="25.689" y2="56.8658" gradientUnits="userSpaceOnUse">
<stop stop-color="#4500B6"/>
<stop offset="1" stop-color="#6100FF"/>
</linearGradient>
<linearGradient id="paint2_linear_912_10206" x1="0.596487" y1="18.8879" x2="25.7078" y2="6.31362" gradientUnits="userSpaceOnUse">
<stop stop-color="#6100FF"/>
<stop offset="1" stop-color="#4500B6"/>
</linearGradient>
<linearGradient id="paint3_linear_912_10206" x1="0.596487" y1="44.2914" x2="25.7078" y2="56.8658" gradientUnits="userSpaceOnUse">
<stop stop-color="#6100FF"/>
<stop offset="1" stop-color="#4500B6"/>
</linearGradient>
<linearGradient id="paint4_linear_912_10206" x1="39.182" y1="38.3374" x2="12.0067" y2="24.7284" gradientUnits="userSpaceOnUse">
<stop stop-color="#6100FF"/>
<stop offset="1" stop-color="#4500B6"/>
</linearGradient>
<clipPath id="clip0_912_10206">
<rect width="334" height="64" fill="white"/>
</clipPath>
</defs>
</svg>
