<svg width="124" height="64" viewBox="0 0 124 64" fill="none" xmlns="http://www.w3.org/2000/svg">
<path d="M111.517 35.2189H111.036V43.5229H105.059V22.8477L111.036 13.5269V32.8181C112.226 31.3635 116.234 25.8416 116.234 25.8416H123.613L116.616 33.2277L123.853 43.537H116.304L111.517 35.2189ZM94.8616 33.8632L97.3118 25.8981H103.232L96.2921 43.4664C94.2243 48.7482 91.2642 52.3212 86.8453 52.3212C85.1458 52.3212 83.7153 51.8834 82.9647 51.4597L85.344 47.7879C85.6981 47.8302 86.0664 47.8444 86.4346 47.8444C88.4741 47.8444 90.0037 45.8672 90.9951 43.5229L83.7153 25.8981H90.4144L93.0346 33.7643C93.5445 35.2613 93.9127 38.114 93.9127 38.114C93.9127 38.114 94.3801 35.3601 94.8616 33.8632ZM76.8037 33.4536C76.8037 31.1517 75.784 30.0642 73.8436 30.0642C72.8947 30.0642 71.9033 30.3326 71.2235 30.7421V43.5229H65.2467V26.0676L71.096 25.5874L70.9544 28.4401H71.1527C72.4132 26.7455 74.5518 25.4603 77.1011 25.4603C80.1604 25.4603 82.8089 27.3527 82.8089 31.8295V43.5229H76.8037V33.4536ZM48.1377 42.6191L48.6759 38.5518C50.5454 39.4698 52.6557 39.9076 54.4261 39.9076C55.7149 39.9076 56.5647 39.4698 56.5647 38.693C56.5647 36.4617 48.5059 36.9983 48.5059 31.1658C48.5059 27.4375 51.9334 25.4744 56.2248 25.4744C58.3634 25.4744 60.5729 26.0535 62.0033 26.5619L61.4226 30.5585C59.9214 29.9795 57.8819 29.4428 56.1823 29.4428C55.1342 29.4428 54.2845 29.81 54.2845 30.4879C54.2845 32.691 62.5132 32.2532 62.5132 37.9445C62.5132 41.7294 59.1424 43.9042 54.5252 43.9042C51.9759 43.9042 49.9081 43.4664 48.1377 42.6191Z" fill="#091C30"/>
<path d="M35.1268 16.8506H5.39648C5.39648 14.9924 8.08378 9.37557 13.4584 0C13.4584 0 14.2025 4.94465 15.6908 14.834L24.7735 14.8342L27.0029 0C32.4188 9.49989 35.1268 15.1168 35.1268 16.8506Z" fill="white"/>
<path d="M20.2153 63.8597L0 49.7147V16.7012C0 16.7012 7.47422 13.9468 20.2412 13.9468C33.0081 13.9468 40.4277 16.7012 40.4277 16.7012V49.7147L20.2153 63.8597Z" fill="white"/>
<path d="M20.2147 61.872L1.29102 48.686V18.0268C1.29102 18.0268 8.36768 15.4688 20.2147 15.4688V61.872Z" fill="#DBDBDB"/>
<path d="M20.2406 15.4688C20.2318 15.4688 20.2236 15.469 20.2148 15.4688V61.833L38.9725 48.6852V18.0268C38.9725 18.0268 32.0876 15.4688 20.2406 15.4688Z" fill="#C6C6C6"/>
<path d="M30.4546 54.6579L28.8589 40.8101H20.0889C20.0889 51.801 20.0889 58.8324 20.0889 61.9041L20.2152 62.0232C23.6272 59.6923 27.0403 57.2372 30.4546 54.6579Z" fill="#3B3B63"/>
<path d="M9.98145 54.767L20.2154 62.0231L20.2205 40.3882H11.3574L9.98145 54.767Z" fill="#53537A"/>
<path d="M24.5944 50.6685C24.5944 53.0476 22.3339 54.227 20.26 54.227C18.1862 54.227 15.8799 53.0476 15.8799 50.6685" fill="#BC9375"/>
<path d="M20.2372 51.8986C18.5723 51.8986 17.7627 50.6979 17.7627 48.2295H18.5565C18.5565 51.1193 19.6913 51.1193 20.2372 51.1193C20.7828 51.1193 21.9178 51.1193 21.9178 48.2295H22.7114C22.7114 50.6979 21.9018 51.8986 20.2372 51.8986Z" fill="white"/>
<path d="M20.2148 48.8321C20.7271 50.156 21.7172 50.8179 23.1852 50.8179C24.6225 50.8179 26.1223 50.0744 26.8053 48.237C27.7593 45.6667 27.7498 42.0891 27.7498 42.0891C27.7498 42.0891 31.9891 36.8738 31.9891 35.1104C31.9891 35.1104 28.0644 35.1104 20.2148 35.1104V48.8321Z" fill="#C49A7E"/>
<path d="M8.27051 35.1104C8.27051 37.1526 12.4732 42.0891 12.4732 42.0891C12.4732 42.0891 12.4629 45.6656 13.4179 48.237C14.0994 50.0731 15.6007 50.8179 17.0383 50.8179C18.5063 50.8179 19.5654 50.156 20.2156 48.8321V35.1104H8.27051Z" fill="#D8B7A0"/>
<path d="M31.4837 23.367C28.2156 20.0742 27.3983 13.208 27.3983 13.208C26.7881 15.3716 25.4619 21.7507 25.4619 21.7507C25.4619 21.7507 22.886 20.932 20.1113 20.9277C20.0202 20.9277 20.0202 29.5225 20.1113 46.7122L22.7528 44.836L23.2439 35.7309L26.0565 38.8844L29.6798 39.9249C29.6798 39.9249 31.0355 38.9749 31.0355 38.9785C31.611 38.1863 31.8019 37.5115 31.9412 37.1613C32.4444 35.8873 31.3145 26.1445 31.3145 26.1445C30.9133 25.3193 31.4837 23.367 31.4837 23.367Z" fill="#3B3B63"/>
<path d="M15.0381 21.7507C15.0381 21.7507 13.7113 15.3718 13.1017 13.208C13.1017 13.208 12.2849 20.0742 9.01631 23.367C9.01631 23.367 9.58668 25.3196 9.18551 26.1445C9.18551 26.1445 8.0556 35.8878 8.55881 37.1598C8.69779 37.5103 8.89024 38.1848 9.46501 38.977C9.46501 38.9734 10.8215 39.9236 10.8215 39.9236L14.444 38.8829L17.2561 35.7299L17.7484 44.835L20.2182 46.6615V20.8799C17.4332 20.8845 15.0381 21.7507 15.0381 21.7507Z" fill="#53537A"/>
<path d="M29.1964 6.845C29.7386 7.83803 34.3999 17.0183 34.3999 20.1975L32.3325 25.731C32.6822 28.8533 33.3779 35.6377 32.8527 36.9631C32.5285 37.783 31.2927 39.4695 30.2356 40.8353L31.6808 53.797L29.7272 55.1794L28.641 45.7087C28.4917 46.6697 28.2672 47.696 27.9249 48.6175C27.4723 49.8372 26.6726 50.7615 25.6496 51.309C25.5897 54.2331 22.8455 55.8106 20.2599 55.8106C17.6529 55.8106 14.8858 54.2343 14.8248 51.3113C13.7998 50.7628 12.999 49.8385 12.5459 48.6175C12.2173 47.7315 11.9959 46.7506 11.8458 45.8218L10.8067 55.3535L8.84253 53.9486L10.261 40.8749C9.19567 39.503 7.93608 37.7913 7.60878 36.9624C7.08361 35.6367 7.75215 28.8533 8.10244 25.7305L5.91211 20.0031V19.8165C5.91211 16.6373 10.6955 7.83803 11.2385 6.845L12.7877 4.05713C13.7309 10.5164 14.2022 13.7488 14.2015 13.7546L14.9643 18.9888L15.9679 20.6099C16.9322 20.2902 18.5692 19.8461 20.2269 19.8461C21.8863 19.8461 23.5345 20.2917 24.5029 20.6109L25.506 18.989L27.6793 4.05713L29.1964 6.845ZM20.2599 53.7322C21.4043 53.7322 23.0341 53.2238 23.4409 51.876C23.3973 51.8773 23.3552 51.8808 23.3115 51.8808C23.0888 51.8808 22.8806 51.8603 22.6786 51.8332C22.0884 52.6398 21.1687 52.8845 20.2372 52.8845C19.3072 52.8845 18.3894 52.6375 17.8002 51.8321C17.5969 51.8605 17.3863 51.8808 17.1619 51.8808C17.119 51.8808 17.0776 51.8773 17.0355 51.876C17.4465 53.2238 19.0983 53.7322 20.2599 53.7322ZM18.9198 51.5169C19.2747 51.7781 19.7133 51.9234 20.238 51.9234C20.7598 51.9234 21.1964 51.7771 21.5508 51.5169C21.2682 51.3935 21.0124 51.2464 20.7869 51.0859C20.5828 51.1452 20.3876 51.1439 20.237 51.1439C20.0856 51.1439 19.8882 51.1439 19.6826 51.0846C19.4576 51.2464 19.2024 51.3935 18.9198 51.5169ZM27.0513 41.4617C28.4573 39.7465 30.574 36.9839 30.8807 36.2108C31.1119 35.4148 30.7174 30.1377 30.2155 25.7148L30.1878 25.4696L30.6027 24.3708C29.2349 22.9386 28.2806 20.9758 27.6286 19.1224L27.5439 19.7046L25.3843 23.1909L24.5409 22.8379C24.5202 22.829 22.3183 21.9235 20.2282 21.9235C18.1246 21.9235 15.9583 22.8283 15.9371 22.8371L15.0924 23.1932L12.9303 19.7054L12.8662 19.2586C12.2072 21.094 11.2519 23.0222 9.89056 24.4233L10.2868 25.4703L10.2592 25.7158C9.757 30.1377 9.36254 35.4148 9.60149 36.2308C9.90037 36.9852 12.0173 39.7477 13.4226 41.4617L13.6572 41.748L13.6559 42.1149C13.6559 42.1494 13.66 45.5426 14.5368 47.9039C15.1733 49.6166 16.5853 49.7997 17.1637 49.7997C18.6175 49.7997 19.2326 48.4894 19.2579 48.4336C19.5986 47.7753 19.769 46.6937 19.769 45.1888H20.6479C20.6479 46.3978 20.8312 47.4818 21.1977 48.4407C21.2199 48.4882 21.8504 49.803 23.3115 49.803C23.8886 49.803 25.3011 49.6179 25.9371 47.9052C26.8167 45.5355 26.8178 42.1494 26.8178 42.1162L26.8167 41.7492L27.0513 41.4617Z" fill="#333152"/>
<path d="M26.812 32.2393H23.6372H22.5791V32.2831C22.5791 33.7346 23.8573 34.9105 25.3566 34.9105C26.8564 34.9105 28.1346 33.7344 28.1346 32.2831V32.2393H26.812Z" fill="#333152"/>
<path d="M23.6367 32.2393V32.2831C23.6367 33.1466 24.3445 33.8462 25.2244 33.8462C26.1042 33.8462 26.8118 33.1466 26.8118 32.2831V32.2393H23.6367Z" fill="white"/>
<path d="M24.9704 32.2393C24.9632 32.2393 24.957 32.2428 24.9505 32.2441C25.0428 32.2631 25.0939 32.4685 25.074 32.6052C25.0443 32.8141 24.863 32.9592 24.6553 32.9627C24.7157 33.2358 24.9425 33.4554 25.2437 33.497C25.6286 33.5505 25.9844 33.2914 26.0389 32.9138C26.0781 32.6359 25.942 32.2393 25.7144 32.2393H24.9704Z" fill="#333152"/>
<path d="M16.593 32.2393H13.4187H12.3604V32.2831C12.3604 33.7346 13.6388 34.9105 15.1379 34.9105C16.6377 34.9105 17.9161 33.7344 17.9161 32.2831V32.2393H16.593Z" fill="#333152"/>
<path d="M13.4199 32.2393V32.2831C13.4199 33.1466 14.1282 33.8462 15.0068 33.8462C15.8869 33.8462 16.5945 33.1466 16.5945 32.2831V32.2393H13.4199Z" fill="white"/>
<path d="M15.4964 32.2393H14.7517C14.7452 32.2393 14.7382 32.2428 14.7323 32.2441C14.8243 32.2631 14.8752 32.4685 14.8558 32.6052C14.8258 32.8141 14.6455 32.9592 14.4365 32.9627C14.4977 33.2358 14.7246 33.4554 15.0252 33.497C15.4099 33.5505 15.7664 33.2914 15.8201 32.9138C15.8599 32.6359 15.724 32.2393 15.4964 32.2393Z" fill="#333152"/>
<path d="M26.4924 30.9999C26.6701 30.8087 28.179 29.1279 26.161 29.1279C24.3375 29.1279 23.0254 30.5723 22.6777 30.9999H26.4924Z" fill="#C49A7E"/>
<path d="M17.7874 30.9999C17.4399 30.5723 16.1279 29.1279 14.3039 29.1279C12.2869 29.1279 13.7957 30.8087 13.9724 30.9999H17.7874Z" fill="#D8B7A0"/>
<path d="M8.08691 19.6476C8.20678 17.9986 9.95434 14.0476 11.6213 10.7178L12.0656 13.7623C11.8962 14.9006 11.1217 19.3649 9.04426 22.1789L8.08691 19.6476Z" fill="#D8B7A0"/>
<path d="M28.4443 13.5249L28.8538 10.7178C30.5205 14.0473 32.2691 17.9986 32.3889 19.6476L31.4541 22.1188C29.2095 19.021 28.5053 13.9852 28.4443 13.5249Z" fill="#C49A7E"/>
<path d="M18.6806 47.0377C17.8978 46.4546 17.0947 45.7189 17.0947 45.1545C17.0947 44.7837 17.7625 43.6411 17.7625 43.6411H22.728C22.728 43.6411 23.3792 44.6542 23.3792 45.1545C23.3792 45.68 22.5687 46.3955 21.7599 46.9786C21.4846 46.5132 21.1343 46.4324 20.9724 46.7992C20.8889 46.9893 20.8724 47.2629 20.9132 47.5493C20.4728 47.8286 20.151 48.0085 20.151 48.0085C20.151 48.0085 19.9024 47.866 19.547 47.6366C19.6043 47.3192 19.5933 47.0085 19.501 46.7992C19.3378 46.4275 18.9805 46.5155 18.7031 46.9975C18.6954 47.0107 18.6879 47.0241 18.6806 47.0377Z" fill="#333152"/>
</svg>
