<svg width="161" height="65" viewBox="0 0 161 65" fill="none" xmlns="http://www.w3.org/2000/svg">
<g clip-path="url(#clip0_928_10176)">
<path d="M17.1807 29.9033C17.1807 30.9741 16.9554 31.9609 16.4994 32.869C16.0486 33.777 15.4144 34.5434 14.6073 35.1785C13.8001 35.8136 12.8358 36.307 11.7194 36.6639C10.603 37.0208 9.3818 37.1941 8.05577 37.1941C6.46767 37.1941 5.0473 36.9789 3.78417 36.5432C2.52103 36.1075 1.26314 35.3884 0 34.3859L2.08601 30.9898C3.08708 31.8297 3.98857 32.4438 4.80096 32.8322C5.60811 33.2206 6.43099 33.4148 7.27482 33.4148C8.31259 33.4148 9.1407 33.1524 9.77489 32.6118C10.4091 32.0711 10.7183 31.352 10.7183 30.444C10.7183 30.0555 10.6607 29.6881 10.5453 29.3469C10.43 29.0058 10.2256 28.6593 9.9164 28.2972C9.61241 27.9402 9.19311 27.5518 8.65327 27.1319C8.1239 26.712 7.4373 26.1923 6.59346 25.573C5.94879 25.1163 5.3146 24.6492 4.70662 24.1663C4.08816 23.6781 3.53783 23.1637 3.03467 22.6073C2.53675 22.0562 2.13318 21.4421 1.82395 20.7597C1.51996 20.0774 1.36272 19.3005 1.36272 18.4292C1.36272 17.4267 1.57237 16.5028 1.99167 15.6788C2.41096 14.8494 2.98226 14.1461 3.71079 13.5687C4.43408 12.9808 5.30412 12.5294 6.32616 12.2092C7.34296 11.8891 8.44362 11.7211 9.64386 11.7211C10.907 11.7211 12.123 11.8943 13.3022 12.225C14.4815 12.5662 15.5717 13.0543 16.578 13.6999L14.6859 16.7548C13.3913 15.8467 12.0339 15.3953 10.6082 15.3953C9.7382 15.3953 9.01491 15.621 8.44886 16.0777C7.87756 16.5343 7.59978 17.1012 7.59978 17.7836C7.59978 18.4659 7.84612 19.0171 8.34927 19.5367C8.84719 20.0564 9.70675 20.786 10.9332 21.7255C12.1649 22.6336 13.1922 23.4314 14.0046 24.1138C14.8169 24.7961 15.4564 25.4365 15.9281 26.0401C16.3998 26.6437 16.7248 27.2474 16.903 27.8667C17.0812 28.4861 17.1703 29.1632 17.1703 29.9086H17.186L17.1807 29.9033ZM45.4257 23.9301C45.4257 25.8407 45.1374 27.599 44.5452 29.2052C43.9582 30.8114 43.151 32.2076 42.108 33.4096C41.065 34.6116 39.8386 35.5407 38.4077 36.202C36.9821 36.8634 35.4412 37.1941 33.7797 37.1941C33.0354 37.1941 32.3384 37.1311 31.6885 36.9999C31.0385 36.8686 30.4201 36.6482 29.8383 36.3437C29.2565 36.0393 28.68 35.6404 28.1087 35.1522C27.5374 34.6641 26.9504 34.0657 26.3319 33.3519V48.7574H20.0949V12.3142H26.3319L26.3634 15.8625C27.5007 14.44 28.7324 13.3902 30.0532 12.7289C31.3845 12.0623 32.9254 11.7368 34.676 11.7368C36.264 11.7368 37.7159 12.036 39.0209 12.6344C40.3365 13.2328 41.4686 14.0674 42.4225 15.1381C43.3764 16.2089 44.1154 17.4844 44.6343 18.9803C45.1532 20.471 45.41 22.1244 45.41 23.9353H45.4205L45.4257 23.9301ZM38.6436 24.182C38.6436 21.5208 38.109 19.4212 37.0293 17.8781C35.9548 16.3349 34.4925 15.5685 32.6319 15.5685C30.6769 15.5685 29.1255 16.3874 27.9882 18.025C26.8508 19.6627 26.2743 21.8777 26.2743 24.6649C26.2743 27.4521 26.8403 29.5306 27.9567 31.0896C29.0731 32.6485 30.6245 33.4253 32.5795 33.4253C33.7483 33.4253 34.7231 33.1262 35.4883 32.5278C36.2536 31.9242 36.872 31.1631 37.3437 30.2393C37.8154 29.3154 38.1509 28.3077 38.3448 27.2264C38.5387 26.1399 38.6383 25.1268 38.6383 24.182H38.6331H38.6436ZM48.1983 36.6062H54.5979V0.93457H48.1983V36.6009V36.6062ZM81.9361 36.6167V12.2827H75.5366V25.3788C75.5366 26.544 75.4894 27.4468 75.3898 28.0819C75.2955 28.7171 75.1277 29.2892 74.9024 29.8141C73.9956 31.8244 72.3394 32.8322 69.9284 32.8322C68.0468 32.8322 66.7261 32.1499 65.9766 30.7851C65.683 30.2707 65.4786 29.6829 65.3633 29.032C65.248 28.3811 65.1904 27.4416 65.1904 26.2028V12.2827H58.7908V26.1084C58.7908 27.0479 58.8013 27.8457 58.817 28.4966C58.8328 29.1475 58.8747 29.7196 58.9428 30.2288C59.0057 30.7327 59.0843 31.1788 59.163 31.5672C59.2416 31.9556 59.3674 32.3283 59.5299 32.6852C60.1169 34.1812 61.0603 35.3097 62.3758 36.0708C63.6914 36.8319 65.3004 37.2098 67.2082 37.2098C68.9274 37.2098 70.4316 36.9106 71.7314 36.3122C73.0313 35.7086 74.2891 34.7323 75.5261 33.3676L75.5418 36.6219H81.9413V36.6114H81.9361V36.6167ZM109.542 36.6062V22.812C109.542 21.8725 109.531 21.0694 109.515 20.408C109.5 19.7414 109.463 19.1745 109.39 18.6811C109.327 18.1982 109.243 17.7678 109.149 17.3952C109.054 17.0225 108.939 16.6603 108.808 16.2981C108.221 14.8442 107.277 13.7209 105.962 12.9231C104.646 12.1253 103.037 11.7316 101.119 11.7316C99.3999 11.7316 97.8956 12.0308 96.5958 12.6344C95.296 13.238 94.0381 14.2196 92.8012 15.579L92.7907 12.3247H86.3335V36.6062H92.7907V23.4996C92.7907 22.3659 92.8326 21.4841 92.9165 20.8542C93.0003 20.2243 93.1523 19.6364 93.3829 19.0801C93.8022 18.109 94.4469 17.3689 95.3117 16.8703C96.1765 16.3716 97.2038 16.1197 98.4093 16.1197C100.291 16.1197 101.612 16.802 102.361 18.1563C102.649 18.6706 102.854 19.2585 102.969 19.9041C103.084 20.5498 103.142 21.4893 103.142 22.7228V36.6114H109.542V36.6062ZM136.047 35.0053L126.293 22.8593L134.542 14.0149L129.689 11.9258L121.104 21.883H120.422V0.93457H113.965V36.6009H120.422V23.6781L130.077 37.0891L136.047 35H136.052L136.047 35.0053ZM160.995 26.2868V22.3081L141.587 12.5557V16.9228L156.629 24.2555L141.587 31.6827V35.9553L160.995 26.2973V26.2868ZM37.1341 54.0168H35.7294C35.8028 53.2977 36.1435 52.7413 36.7515 52.3477C37.2913 51.9855 37.9779 51.8123 38.8008 51.8123C39.7809 51.8123 40.5409 52.0695 41.0598 52.5839C41.5 53.0248 41.7202 53.5917 41.7202 54.295V59.1923H40.63L40.4623 58.216C39.8962 59.0085 39.1048 59.4022 38.0618 59.4022C37.2442 59.4022 36.61 59.1818 36.1435 58.7408C35.7661 58.3734 35.5774 57.9063 35.5774 57.3499C35.5774 56.6413 35.8185 56.0902 36.306 55.7122C36.7358 55.371 37.4014 55.1191 38.2924 54.9669L40.3837 54.6047V54.2425C40.3837 53.7754 40.2212 53.4185 39.9015 53.177C39.6184 52.967 39.2253 52.8621 38.7327 52.8621C37.763 52.8621 37.2232 53.2505 37.1236 54.0221H37.1288L37.1341 54.0168ZM38.3867 58.2789C38.9528 58.2789 39.435 58.0952 39.8438 57.7278C40.2107 57.3866 40.3941 56.9982 40.3941 56.5573V55.6335L38.6174 55.9484C37.9622 56.0639 37.5167 56.2266 37.2808 56.4576C37.0869 56.6413 36.9926 56.888 36.9926 57.2029C36.9926 57.5546 37.1131 57.8223 37.3542 58.006C37.5953 58.1897 37.9412 58.2789 38.3867 58.2789ZM59.6609 59.1975H62.271V48.7522H59.6609V59.1975ZM75.4108 53.9748C75.4108 57.3394 77.979 59.3865 80.9141 59.3865C82.0724 59.3865 82.9634 59.1083 83.2936 59.0138V56.2109C83.1783 56.2686 82.3292 56.762 81.1027 56.762C79.3627 56.762 78.241 55.5285 78.241 53.9748C78.241 52.4212 79.4098 51.1877 81.1027 51.1877C82.3502 51.1877 83.1887 51.6968 83.2936 51.744V48.9411C83.0472 48.8676 82.1405 48.5685 80.9141 48.5685C77.7379 48.5685 75.4108 50.8517 75.4108 53.9696V53.9748ZM48.1983 53.9748C48.1983 57.3394 50.7665 59.3865 53.6964 59.3865C54.8599 59.3865 55.7509 59.1083 56.0811 59.0138V56.2109C55.9606 56.2686 55.1167 56.762 53.8903 56.762C52.1502 56.762 51.0286 55.5285 51.0286 53.9748C51.0286 52.4212 52.1974 51.1877 53.8903 51.1877C55.1377 51.1877 55.9711 51.6968 56.0811 51.744V48.9411C55.8348 48.8676 54.9281 48.5685 53.6964 48.5685C50.5254 48.5685 48.1983 50.8517 48.1983 53.9696V53.9748ZM91.5013 48.5737C88.3252 48.5737 86.0452 50.9935 86.0452 53.9748C86.0452 56.9562 88.3252 59.3865 91.5013 59.3865C94.6775 59.3865 96.9575 56.9615 96.9575 53.9748C96.9575 50.9882 94.6775 48.5737 91.5013 48.5737ZM91.5013 56.7253C89.9499 56.7253 88.8021 55.497 88.8021 53.9748C88.8021 52.4527 89.9499 51.2297 91.5013 51.2297C93.0527 51.2297 94.2006 52.4579 94.2006 53.9748C94.2006 55.4918 93.0475 56.7253 91.5013 56.7253ZM70.4211 52.8936L69.7031 52.6626C69.2733 52.5209 68.5081 52.3004 68.5081 51.6706C68.5081 51.1667 69.0741 50.8097 70.1224 50.8097C71.0186 50.8097 72.1245 51.1142 72.1612 51.1299V48.8991C72.0826 48.8781 70.8876 48.5685 69.6245 48.5685C67.2187 48.5685 65.7722 49.8807 65.7722 51.8385C65.7722 53.5707 66.9881 54.4262 68.4347 54.8934C68.5972 54.9459 68.8383 55.0246 68.9903 55.0771C69.6349 55.2818 70.1486 55.5863 70.1486 56.1164C70.1486 56.7148 69.5511 57.0927 68.2565 57.0927C67.1191 57.0927 66.0237 56.7673 65.7931 56.7043V59.1135C65.9241 59.1398 67.2187 59.397 68.6077 59.397C70.6046 59.397 72.8845 58.5151 72.8845 55.8854C72.8845 54.6152 72.114 53.4394 70.4211 52.8988H70.4264L70.4211 52.8936ZM108.294 56.888H109.741C109.636 57.6596 109.269 58.2789 108.651 58.7513C108.085 59.1818 107.403 59.4022 106.601 59.4022C105.543 59.4022 104.709 59.0348 104.08 58.3104C103.499 57.6386 103.21 56.7568 103.21 55.6597C103.21 54.3895 103.561 53.408 104.258 52.7098C104.856 52.1115 105.632 51.8123 106.586 51.8123C107.466 51.8123 108.189 52.0485 108.766 52.5156C109.269 52.9303 109.578 53.4709 109.688 54.1428H108.231C108.142 53.7544 107.954 53.4552 107.676 53.2452C107.398 53.0353 107.042 52.9303 106.622 52.9303C105.972 52.9303 105.469 53.1875 105.118 53.7019C104.788 54.1795 104.625 54.8462 104.625 55.7017C104.625 56.5573 104.845 57.2712 105.286 57.7278C105.637 58.1005 106.088 58.2789 106.638 58.2789C107.115 58.2789 107.508 58.1372 107.807 57.8643C108.074 57.6228 108.237 57.2974 108.299 56.888H108.294ZM110.747 55.602C110.747 54.2898 111.14 53.2977 111.916 52.6259C112.54 52.0852 113.331 51.8123 114.285 51.8123C115.396 51.8123 116.271 52.1692 116.906 52.8778C117.514 53.5392 117.812 54.4525 117.812 55.6072C117.812 56.9037 117.43 57.8905 116.67 58.5729C116.046 59.124 115.249 59.4022 114.274 59.4022C113.163 59.4022 112.288 59.0348 111.643 58.2999C111.046 57.6281 110.747 56.7305 110.747 55.6072V55.602ZM112.126 55.602C112.126 56.5206 112.361 57.2239 112.828 57.7121C113.216 58.1162 113.703 58.3209 114.306 58.3209C115.003 58.3209 115.538 58.0585 115.915 57.5388C116.266 57.0612 116.434 56.4156 116.434 55.6072C116.434 54.6729 116.203 53.9643 115.747 53.4867C115.37 53.0878 114.882 52.8883 114.29 52.8883C113.604 52.8883 113.069 53.1508 112.681 53.6704C112.314 54.1481 112.131 54.7937 112.131 55.602H112.126ZM120.637 59.1923H119.317V52.017H120.407L120.548 52.8621C121.036 52.164 121.733 51.8123 122.655 51.8123C123.651 51.8123 124.359 52.1902 124.762 52.946C125.239 52.1955 126.015 51.8123 127.089 51.8123C127.891 51.8123 128.504 52.0537 128.934 52.5419C129.322 52.9933 129.516 53.6127 129.516 54.3895V59.187H128.195V54.484C128.195 53.4499 127.729 52.9408 126.806 52.9408C126.256 52.9408 125.816 53.156 125.485 53.5864C125.218 53.9381 125.087 54.3423 125.087 54.8147V59.187H123.766V54.484C123.766 53.4499 123.305 52.9408 122.377 52.9408C121.864 52.9408 121.439 53.1455 121.093 53.5497C120.8 53.8909 120.653 54.295 120.653 54.7727V59.187H120.632L120.637 59.1923ZM131.529 52.017H132.619L132.828 52.9513C133.415 52.1902 134.223 51.807 135.255 51.807C136.288 51.807 137.079 52.1745 137.65 52.9093C138.153 53.5707 138.405 54.4525 138.405 55.5443C138.405 56.8407 138.059 57.8328 137.373 58.5204C136.791 59.103 136.052 59.3917 135.156 59.3917C134.133 59.3917 133.368 59.0138 132.855 58.258V61.6645H131.534V52.0065V52.017H131.529ZM137.021 55.5233C137.021 54.6205 136.796 53.9486 136.345 53.4972C135.984 53.1298 135.517 52.946 134.941 52.946C134.27 52.946 133.74 53.1875 133.342 53.6756C132.965 54.1428 132.776 54.7622 132.776 55.5233C132.776 56.4418 133.001 57.1452 133.452 57.6333C133.829 58.0585 134.327 58.2684 134.941 58.2684C135.627 58.2684 136.151 58.0165 136.513 57.5126C136.854 57.0455 137.021 56.3841 137.021 55.5233ZM140.973 54.0168H139.569C139.642 53.2977 139.983 52.7413 140.591 52.3477C141.131 51.9855 141.817 51.8123 142.64 51.8123C143.62 51.8123 144.38 52.0695 144.899 52.5839C145.339 53.0248 145.559 53.5917 145.559 54.295V59.1923H144.469L144.301 58.216C143.735 59.0085 142.944 59.4022 141.901 59.4022C141.083 59.4022 140.449 59.1818 139.983 58.7408C139.605 58.3734 139.417 57.9063 139.417 57.3499C139.417 56.6413 139.658 56.0902 140.145 55.7122C140.575 55.371 141.241 55.1191 142.132 54.9669L144.223 54.6047V54.2425C144.223 53.7754 144.06 53.4185 143.741 53.177C143.458 52.967 143.065 52.8621 142.572 52.8621C141.602 52.8621 141.062 53.2505 140.963 54.0221H140.968L140.973 54.0168ZM142.226 58.2789C142.792 58.2789 143.274 58.0952 143.683 57.7278C144.05 57.3866 144.233 56.9982 144.233 56.5573V55.6335L142.457 55.9484C141.801 56.0639 141.356 56.2266 141.12 56.4576C140.926 56.6413 140.832 56.888 140.832 57.2029C140.832 57.5546 140.952 57.8223 141.193 58.006C141.435 58.1897 141.78 58.2789 142.226 58.2789ZM148.788 59.1923H147.467V52.017H148.557L148.709 52.9251C149.239 52.1797 149.972 51.807 150.89 51.807C151.734 51.807 152.383 52.0695 152.834 52.5891C153.233 53.0563 153.426 53.6966 153.426 54.5102V59.187H152.106V54.5207C152.106 53.4604 151.597 52.9356 150.575 52.9356C150.046 52.9356 149.611 53.1193 149.265 53.4867C148.956 53.8174 148.798 54.2373 148.798 54.7569V59.187H148.793L148.788 59.1923ZM160.995 52.017L158.5 59.2867C158.17 60.2525 157.85 60.9087 157.551 61.2603C157.19 61.675 156.728 61.8797 156.162 61.8797C155.921 61.8797 155.643 61.8377 155.308 61.7537V60.6777C155.565 60.7407 155.795 60.7722 155.995 60.7722C156.278 60.7722 156.498 60.6777 156.655 60.4782C156.812 60.2788 157.011 59.8484 157.247 59.187H156.818L154.186 52.0117H155.617L157.64 58.1057L159.663 52.0117H160.995V52.017Z" fill="black"/>
</g>
<defs>
<clipPath id="clip0_928_10176">
<rect width="161" height="64" fill="white" transform="translate(0 0.929688)"/>
</clipPath>
</defs>
</svg>
