<svg width="322" height="64" viewBox="0 0 322 64" fill="none" xmlns="http://www.w3.org/2000/svg">
<g clip-path="url(#clip0_869_10260)">
<path d="M146.502 52.724C147.876 52.724 149.249 52.5716 150.622 52.1144C151.95 51.7465 153.194 51.1255 154.285 50.2859C155.375 49.4108 156.246 48.2943 156.829 47.0247C157.412 45.7551 157.69 44.3674 157.642 42.9716C157.69 41.6941 157.439 40.423 156.909 39.2592C156.38 38.0954 155.586 37.0708 154.59 36.2668C151.705 34.7808 148.691 33.5569 145.586 32.6097C144.831 32.3488 144.112 31.9902 143.45 31.543L141.924 30.0192C141.619 29.4097 141.466 28.6478 141.466 27.7335C141.466 26.8192 141.771 26.2097 142.076 25.4478C142.534 24.8382 142.992 24.2287 143.603 23.924C144.192 23.4486 144.865 23.0868 145.586 22.8573C147.579 22.3378 149.693 22.5542 151.538 23.4668C152.586 23.9215 153.485 24.6607 154.132 25.6002L157.185 22.5525C156.133 21.3667 154.829 20.4297 153.369 19.8097C151.843 19.0478 149.859 18.743 148.028 18.743C146.655 18.743 145.434 18.8954 144.06 19.3525C142.808 19.6453 141.619 20.1616 140.55 20.8763C139.482 21.7906 138.567 22.7049 137.956 23.924C137.193 24.9906 136.888 26.3621 136.888 28.0382C136.821 29.2075 137.019 30.3768 137.469 31.4586C137.918 32.5405 138.606 33.507 139.482 34.2859C140.318 34.9262 141.243 35.4397 142.229 35.8097C143.297 36.4192 144.366 36.724 145.281 37.0287C147.125 37.7075 148.956 38.4187 150.775 39.1621C151.385 39.6192 151.996 40.2287 152.301 40.8382C152.985 41.9305 153.209 43.2487 152.923 44.5049C152.637 45.7612 151.865 46.8534 150.775 47.543C150.317 48.0002 149.554 48.3049 148.791 48.4573C147.735 48.7819 146.625 48.8952 145.526 48.7906C144.426 48.686 143.357 48.3656 142.382 47.8478C141.161 47.0859 140.093 46.324 139.33 45.1049L135.82 48.1525C137.04 49.6763 138.567 50.743 140.398 51.5049C142.382 52.2668 144.366 52.724 146.502 52.724ZM169.851 52.2668C171.097 52.2614 172.333 52.0556 173.513 51.6573V48.1525L172.14 48.6097H170.919C169.851 48.6097 169.088 48.4573 168.477 47.8478C168.02 47.2382 167.867 46.324 167.867 45.1049V33.8287H173.513V30.324H167.867V24.0763H163.594V30.1716H159.474V33.8287H163.594V45.5621C163.594 47.6954 164.052 49.524 165.12 50.5906C166.188 51.6573 167.867 52.2668 169.851 52.2668ZM183.585 52.4192C185.264 52.4192 186.638 52.1144 188.011 51.5049C189.232 50.8954 190.148 49.9811 191.063 48.7621C191.063 49.8287 191.216 50.8954 191.521 51.8097H195.336L195.031 49.9811V38.0954C195.061 36.9973 194.853 35.9056 194.421 34.8954C194.075 33.85 193.498 32.8959 192.731 32.1044C191.965 31.3129 191.03 30.7043 189.995 30.324C187.058 29.3862 183.894 29.4398 180.991 30.4763C179.593 31.0726 178.304 31.8965 177.176 32.9144L179.465 35.6573C181.102 34.0785 183.294 33.2032 185.569 33.2192C187.095 33.2192 188.469 33.524 189.385 34.2859C190.453 35.0478 190.911 36.2668 190.911 37.943V38.5525L185.417 38.7049C183.738 38.8573 182.059 39.1621 180.686 39.6192C179.16 40.2287 178.092 40.9906 177.176 41.9049C176.26 42.8192 175.803 44.1906 175.803 45.7144C175.803 47.0859 176.108 48.1525 176.566 48.9144C177.023 49.8287 177.786 50.4382 178.549 51.0478L180.991 52.1144L183.738 52.4192H183.585ZM184.654 49.0668L183.128 48.9144C182.517 48.9144 182.059 48.6097 181.602 48.3049L180.533 47.2382C180.301 46.7652 180.196 46.2402 180.228 45.7144C180.228 44.8002 180.533 44.1906 181.144 43.5811C181.754 42.9716 182.517 42.5144 183.433 42.2097C185.55 41.8417 187.693 41.6379 189.842 41.6002H190.911V42.6668C190.911 44.3154 190.375 45.9194 189.385 47.2382C188.164 48.4573 186.638 49.0668 184.654 49.0668ZM211.818 52.5716C213.649 52.5716 215.175 52.2668 216.396 51.6573C217.922 51.0478 218.99 50.1335 219.906 49.0668L217.006 46.4763C216.446 47.2437 215.715 47.8698 214.87 48.3049C213.895 48.6805 212.862 48.8867 211.818 48.9144C210.828 48.9054 209.852 48.6829 208.956 48.2621C208.061 47.8412 207.267 47.2321 206.629 46.4763C205.97 45.7677 205.452 44.9403 205.103 44.0382C204.657 42.6225 204.563 41.1196 204.829 39.6595C205.095 38.1993 205.713 36.8257 206.629 35.6573C207.239 34.8954 208.003 34.2859 208.766 33.9811C209.711 33.4995 210.757 33.2484 211.818 33.2484C212.879 33.2484 213.925 33.4995 214.87 33.9811C215.633 34.4382 216.396 35.0478 216.854 35.8097L219.906 33.2192C218.99 32.0564 217.778 31.1615 216.396 30.6287C213.463 29.4264 210.173 29.4264 207.239 30.6287C205.887 31.1383 204.649 31.9132 203.601 32.9077C202.553 33.9022 201.714 35.0961 201.135 36.4192C200.538 37.87 200.227 39.4222 200.22 40.9906C200.22 42.8192 200.525 44.343 201.135 45.7144C201.672 47.0986 202.492 48.3556 203.543 49.4052C204.594 50.4547 205.853 51.2737 207.239 51.8097C208.766 52.2668 210.292 52.5716 211.818 52.5716ZM227.994 51.9621V40.6859H228.147L238.066 51.8097H244.17L233.03 39.924L243.102 30.1716H237.456L228.299 39.4668V17.3716H223.874V51.9621H228.147H227.994ZM251.953 51.9621V37.4859H256.684L264.925 51.9621H270.419L261.415 37.0287C263.562 36.8076 265.562 35.8361 267.061 34.2859C267.83 33.536 268.431 32.6326 268.825 31.6347C269.22 30.6369 269.399 29.5671 269.35 28.4954C269.35 26.9716 269.045 25.4478 268.435 24.3811C267.814 23.2641 266.922 22.3209 265.84 21.6382C264.772 20.8763 263.551 20.4192 262.178 20.1144C260.725 19.7968 259.24 19.6435 257.752 19.6573H247.375V51.8097H251.953V51.9621ZM257.142 33.6763H251.801V23.4668H257.294L260.041 23.6192C260.957 23.7716 261.72 24.0763 262.33 24.5335C263.094 24.8382 263.551 25.4478 263.857 26.0573C264.314 26.8192 264.62 27.5811 264.62 28.4954C264.648 29.3491 264.437 30.1937 264.009 30.9335C263.587 31.574 263.009 32.098 262.33 32.4573C261.573 32.9299 260.75 33.2892 259.889 33.524L256.837 33.6763H257.142ZM284.306 52.5716C285.985 52.5716 287.511 52.2668 288.884 51.6573C291.038 50.8384 292.884 49.3729 294.169 47.4625C295.453 45.5521 296.113 43.291 296.057 40.9906C296.057 39.4668 295.751 37.943 295.141 36.4192C294.587 35.0632 293.758 33.8358 292.708 32.8134C291.658 31.7909 290.408 30.9954 289.037 30.4763C287.511 30.0192 285.985 29.7144 284.458 29.7144C282.208 29.6226 279.982 30.2142 278.075 31.4111C276.168 32.6081 274.669 34.3543 273.776 36.4192C273.013 37.943 272.708 39.4668 272.708 40.9906C272.703 44.0669 273.909 47.0219 276.065 49.2192C276.981 50.2859 278.354 51.0478 279.728 51.6573C281.254 52.2668 282.78 52.5716 284.306 52.5716ZM284.306 48.9144C283.238 48.9144 282.169 48.6097 281.254 48.3049C280.338 47.8478 279.728 47.2382 278.965 46.4763C278.36 45.7552 277.894 44.9286 277.591 44.0382C277.145 42.6225 277.051 41.1196 277.317 39.6595C277.583 38.1993 278.201 36.8257 279.117 35.6573C279.748 34.8936 280.541 34.2789 281.438 33.8574C282.335 33.4358 283.314 33.2179 284.306 33.2192C285.527 33.2192 286.595 33.524 287.358 33.8287C289.079 34.733 290.389 36.2591 291.021 38.0954C291.488 39.4991 291.607 40.995 291.367 42.4548C291.128 43.9145 290.538 45.2945 289.647 46.4763C289.037 47.2382 288.274 47.8478 287.358 48.3049C286.595 48.6097 285.527 48.9144 284.306 48.9144ZM303.229 51.9621L309.333 43.4287L315.438 51.9621H320.626L311.928 40.5335L319.711 30.324H314.827L309.333 37.6382L304.145 30.324H298.803L306.739 40.5335L298.04 51.9621H303.229ZM112.318 62.0192C112.776 61.8668 113.081 61.4097 112.929 60.9525L99.194 22.8573C99.194 22.8573 99.0414 22.5525 98.7362 22.5525C98.7362 22.4002 98.431 22.4002 98.1257 22.5525L63.0262 40.2287C62.721 40.5335 62.5684 40.9906 62.721 41.2954L71.267 64.0002H107.893L112.471 62.0192H112.318Z" fill="#344256"/>
<path d="M56.77 39.314C56.6174 38.8569 56.77 38.3998 57.2278 38.2474L90.8013 21.3331L87.2913 11.5807L86.6809 10.9712H85.9178L41.0515 33.8283C40.5937 33.9807 40.2885 34.5902 40.4411 35.1998L51.2761 63.9998H65.9264L56.77 39.314Z" fill="#344256"/>
<path d="M34.3365 33.0666C34.1839 32.6095 34.3365 32 34.9469 31.8476L76.1507 10.6666L72.6408 0.761868C72.6408 0.457106 72.3355 0.304725 72.0303 0.152344H71.1147L19.2284 26.5142C18.4654 26.819 18.1602 27.4285 18.4654 28.0381L31.8948 64H45.782L34.1839 33.0666H34.3365ZM13.7346 29.5619L26.8588 64H5.49384C5.49384 64 5.18863 64 5.18863 63.6952L0 49.3714V49.0666L13.1242 29.5619C13.1659 29.499 13.2226 29.4474 13.2892 29.4118C13.3558 29.3761 13.4301 29.3574 13.5057 29.3574C13.5812 29.3574 13.6556 29.3761 13.7222 29.4118C13.7887 29.4474 13.8454 29.499 13.8872 29.5619H13.7346Z" fill="#344256"/>
</g>
<defs>
<clipPath id="clip0_869_10260">
<rect width="322" height="64" fill="white"/>
</clipPath>
</defs>
</svg>
