<svg width="378" height="64" viewBox="0 0 378 64" fill="none" xmlns="http://www.w3.org/2000/svg">
<mask id="mask0_885_10107" style="mask-type:luminance" maskUnits="userSpaceOnUse" x="0" y="0" width="376" height="64">
<path d="M375.672 0H0V64H375.672V0Z" fill="white"/>
</mask>
<g mask="url(#mask0_885_10107)">
<path d="M106.586 35.3395C106.586 37.227 106.096 39.0266 105.116 40.7386C104.136 42.4508 102.605 43.8584 100.527 44.9621C98.4487 46.0656 95.8496 46.6121 92.7403 46.6121C89.6307 46.6121 87.0316 46.0449 84.9535 44.9104C82.8753 43.7759 81.3439 42.332 80.364 40.584C79.4978 39.0421 79.0182 37.4436 78.9151 35.7882C78.8944 35.4325 79.1935 35.1282 79.5544 35.1282H83.9686C84.3037 35.1282 84.5616 35.3912 84.5926 35.7212C84.6803 36.5618 84.9587 37.3766 85.4279 38.1707C86.0054 39.1504 86.9131 39.9445 88.1558 40.5582C89.3986 41.1718 90.925 41.4761 92.7453 41.4761C94.5656 41.4761 96.1333 41.1822 97.3606 40.584C98.5828 39.991 99.4852 39.2277 100.063 38.3047C100.64 37.3766 100.929 36.3915 100.929 35.3395C100.929 34.2876 100.542 33.3697 99.774 32.6891C99.0055 32.0083 98.0723 31.4823 96.9686 31.1162C95.8704 30.75 94.5501 30.4098 93.0084 30.0952C92.5545 29.9922 92.0647 29.9044 91.5387 29.8322L90.7497 29.6775C88.6148 29.2599 86.7377 28.7081 85.1135 28.0274C83.4891 27.3468 82.1173 26.2946 80.9983 24.8818C79.8793 23.4636 79.3225 21.6228 79.3225 19.3486C79.3225 17.5644 79.7917 15.8627 80.7354 14.2332C81.679 12.6088 83.1642 11.268 85.1958 10.2212C87.2224 9.17442 89.7595 8.64844 92.8021 8.64844C95.8446 8.64844 98.4383 9.17442 100.486 10.2212C102.533 11.268 104.023 12.6139 104.972 14.2589C105.916 15.9039 106.39 17.5954 106.39 19.3434V19.7095H100.728V19.3434C100.728 18.4359 100.455 17.5541 99.9131 16.6929C99.3717 15.8369 98.5053 15.1356 97.3193 14.5941C96.1282 14.0527 94.6276 13.7794 92.8073 13.7794C90.9868 13.7794 89.5894 14.0527 88.4034 14.5941C87.2122 15.1356 86.3458 15.8369 85.8096 16.6929C85.2681 17.5489 84.9947 18.4307 84.9947 19.3434C84.9947 20.4263 85.2681 21.3185 85.8096 22.0198C86.351 22.7211 87.0936 23.2626 88.0373 23.6442C88.9809 24.0309 90.1722 24.361 91.6058 24.6394L92.5494 24.7942H92.6577C95.3856 25.2119 97.7164 25.7636 99.6605 26.4442C101.599 27.125 103.244 28.1821 104.59 29.6156C105.936 31.0492 106.607 32.952 106.607 35.3345L106.586 35.3395Z" fill="#232323"/>
<path d="M112.355 37.8042V26.1604C112.355 25.8148 112.071 25.5312 111.726 25.5312H108.838C108.493 25.5312 108.209 25.2476 108.209 24.9022V21.0192C108.209 20.6736 108.493 20.39 108.838 20.39C110.777 20.39 112.35 18.8173 112.35 16.8782V14.6506C112.35 14.3051 112.633 14.0215 112.979 14.0215H117.383C117.728 14.0215 118.012 14.3051 118.012 14.6506V19.7609C118.012 20.1064 118.296 20.39 118.641 20.39H124.989C125.335 20.39 125.618 20.6736 125.618 21.0192V24.9022C125.618 25.2476 125.335 25.5312 124.989 25.5312H118.641C118.296 25.5312 118.012 25.8148 118.012 26.1604V37.7527C118.012 38.5933 118.306 39.3203 118.904 39.9289C119.497 40.5424 120.214 40.8467 121.054 40.8467H124.989C125.335 40.8467 125.618 41.1304 125.618 41.4758V45.3589C125.618 45.7044 125.335 45.988 124.989 45.988H120.534C118.785 45.988 117.29 45.6063 116.047 44.8329C114.805 44.0644 113.876 43.0487 113.268 41.7904C112.654 40.5321 112.35 39.2018 112.35 37.8042H112.355Z" fill="#232323"/>
<path d="M133.592 37.8815C134.082 39.016 134.861 39.9802 135.928 40.764C136.996 41.5531 138.347 41.945 139.992 41.945C141.637 41.945 143.096 41.5324 144.164 40.7125C145.128 39.9699 145.87 38.9902 146.391 37.7732C146.489 37.5411 146.711 37.3813 146.964 37.3813H151.228C151.646 37.3813 151.961 37.7835 151.842 38.1806C151.213 40.269 150.047 42.1461 148.356 43.8066C146.448 45.6784 143.679 46.6118 140.043 46.6118C137.176 46.6118 134.789 45.957 132.886 44.6471C130.978 43.3373 129.591 41.6562 128.714 39.614C127.843 37.5669 127.404 35.4269 127.404 33.1888C127.404 30.9508 127.843 28.8108 128.714 26.7635C129.586 24.7164 130.978 23.0404 132.886 21.7306C134.789 20.4208 137.176 19.7607 140.043 19.7607C142.91 19.7607 145.303 20.426 147.227 21.7564C149.15 23.0869 150.558 24.8711 151.445 27.1039C152.265 29.1666 152.652 31.4098 152.595 33.8231C152.59 34.1634 152.296 34.442 151.955 34.442H133.412C133.03 34.442 132.721 34.7772 132.783 35.1536C132.927 36.0663 133.195 36.9739 133.582 37.8763L133.592 37.8815ZM136.32 25.4022C135.304 26.0467 134.521 26.8718 133.958 27.8672C133.53 28.6303 133.216 29.4194 133.01 30.234C132.912 30.6209 133.226 30.9921 133.623 30.9921L146.381 31.0386C146.768 31.0386 147.082 30.693 147.01 30.3115C146.85 29.5122 146.551 28.7231 146.123 27.9445C145.566 26.9286 144.767 26.0932 143.736 25.4279C142.704 24.7628 141.456 24.4327 139.987 24.4327C138.517 24.4327 137.331 24.7576 136.315 25.4022H136.32Z" fill="#232323"/>
<path d="M181.161 39.6658C180.321 41.7129 179.037 43.3786 177.304 44.6729C175.573 45.9672 173.432 46.6118 170.879 46.6118C168.503 46.6118 166.594 46.0806 165.161 45.0131C163.727 43.9458 162.624 42.6101 161.855 41.0013H161.015C161.572 42.9247 161.855 44.9668 161.855 47.1378V55.3008C161.855 55.6464 161.572 55.93 161.226 55.93H156.822C156.477 55.93 156.193 55.6464 156.193 55.3008V21.019C156.193 20.6734 156.477 20.39 156.822 20.39H161.855V20.7559C161.855 21.5243 161.768 22.3133 161.592 23.1177C161.417 23.9223 161.226 24.6751 161.015 25.3712H161.855C161.922 25.1598 162.031 24.9175 162.17 24.6391C162.727 23.7314 163.382 22.9166 164.135 22.1998C164.888 21.4832 165.836 20.8952 166.992 20.4415C168.147 19.9876 169.493 19.7607 171.029 19.7607C173.545 19.7607 175.661 20.4053 177.372 21.6996C179.085 22.9941 180.353 24.6648 181.173 26.7069C181.992 28.7541 182.404 30.9095 182.404 33.1837C182.404 35.4578 181.981 37.6134 181.146 39.6605L181.161 39.6658ZM174.736 27.207C173.39 25.6703 171.581 24.902 169.306 24.902C167.837 24.902 166.538 25.2526 165.398 25.9489C164.264 26.6502 163.387 27.6299 162.773 28.8882C162.16 30.1464 161.855 31.58 161.855 33.1888C161.855 35.6383 162.536 37.6287 163.903 39.1655C165.264 40.7022 167.064 41.4758 169.306 41.4758C170.776 41.4758 172.077 41.125 173.215 40.4289C174.35 39.7328 175.226 38.7529 175.841 37.4896C176.454 36.2261 176.759 34.7977 176.759 33.1888C176.759 30.7394 176.083 28.7489 174.743 27.2122L174.736 27.207Z" fill="#232323"/>
<path d="M212.683 35.3395C212.683 37.227 212.193 39.0266 211.214 40.7386C210.234 42.4508 208.703 43.8584 206.625 44.9621C204.546 46.0656 201.948 46.6121 198.837 46.6121C195.728 46.6121 193.129 46.0449 191.051 44.9104C188.972 43.7759 187.441 42.332 186.461 40.584C185.596 39.0421 185.116 37.4436 185.013 35.7882C184.991 35.4325 185.291 35.1282 185.651 35.1282H190.065C190.401 35.1282 190.658 35.3912 190.69 35.7212C190.778 36.5618 191.056 37.3766 191.526 38.1707C192.103 39.1504 193.011 39.9445 194.252 40.5582C195.495 41.1718 197.023 41.4761 198.842 41.4761C200.663 41.4761 202.231 41.1822 203.458 40.584C204.679 39.991 205.582 39.2277 206.16 38.3047C206.737 37.3766 207.027 36.3915 207.027 35.3395C207.027 34.2876 206.64 33.3697 205.872 32.6891C205.102 32.0083 204.169 31.4823 203.066 31.1162C201.968 30.75 200.647 30.4098 199.106 30.0952C198.652 29.9922 198.161 29.9044 197.636 29.8322L196.848 29.6775C194.712 29.2599 192.834 28.7081 191.211 28.0274C189.587 27.3468 188.215 26.2946 187.096 24.8818C185.976 23.4636 185.42 21.6228 185.42 19.3486C185.42 17.5644 185.889 15.8627 186.833 14.2332C187.777 12.6088 189.262 11.268 191.293 10.2212C193.319 9.17442 195.857 8.64844 198.899 8.64844C201.943 8.64844 204.536 9.17442 206.583 10.2212C208.631 11.268 210.121 12.6139 211.069 14.2589C212.012 15.9039 212.487 17.5954 212.487 19.3434V19.7095H206.825V19.3434C206.825 18.4359 206.552 17.5541 206.01 16.6929C205.469 15.8369 204.602 15.1356 203.416 14.5941C202.225 14.0527 200.725 13.7794 198.904 13.7794C197.084 13.7794 195.687 14.0527 194.5 14.5941C193.309 15.1356 192.444 15.8369 191.906 16.6929C191.366 17.5489 191.093 18.4307 191.093 19.3434C191.093 20.4263 191.366 21.3185 191.906 22.0198C192.449 22.7211 193.191 23.2626 194.135 23.6442C195.078 24.0309 196.27 24.361 197.703 24.6394L198.647 24.7942H198.754C201.483 25.2119 203.814 25.7636 205.757 26.4442C207.697 27.125 209.341 28.1821 210.687 29.6156C212.034 31.0492 212.705 32.952 212.705 35.3345L212.683 35.3395Z" fill="#232323"/>
<path d="M221.805 37.8815C222.293 39.016 223.073 39.9802 224.141 40.764C225.207 41.5531 226.559 41.945 228.203 41.945C229.848 41.945 231.309 41.5324 232.375 40.7125C233.34 39.9699 234.083 38.9902 234.603 37.7732C234.701 37.5411 234.923 37.3813 235.176 37.3813H239.44C239.858 37.3813 240.173 37.7835 240.053 38.1806C239.425 40.269 238.259 42.1461 236.568 43.8066C234.66 45.6784 231.891 46.6118 228.255 46.6118C225.389 46.6118 223 45.957 221.097 44.6471C219.189 43.3373 217.803 41.6562 216.926 39.614C216.055 37.5669 215.615 35.4269 215.615 33.1888C215.615 30.9508 216.055 28.8108 216.926 26.7635C217.798 24.7164 219.189 23.0404 221.097 21.7306C223 20.4208 225.389 19.7607 228.255 19.7607C231.122 19.7607 233.515 20.426 235.438 21.7564C237.362 23.0869 238.77 24.8711 239.657 27.1039C240.476 29.1666 240.863 31.4098 240.806 33.8231C240.801 34.1634 240.508 34.442 240.168 34.442H221.623C221.242 34.442 220.932 34.7772 220.995 35.1536C221.139 36.0663 221.407 36.9739 221.793 37.8763L221.805 37.8815ZM224.531 25.4022C223.516 26.0467 222.733 26.8718 222.17 27.8672C221.742 28.6303 221.427 29.4194 221.222 30.234C221.123 30.6209 221.438 30.9921 221.835 30.9921L234.593 31.0386C234.98 31.0386 235.294 30.693 235.221 30.3115C235.063 29.5122 234.763 28.7231 234.335 27.9445C233.778 26.9286 232.979 26.0932 231.947 25.4279C230.916 24.7628 229.668 24.4327 228.198 24.4327C226.729 24.4327 225.542 24.7576 224.526 25.4022H224.531Z" fill="#232323"/>
<path d="M262.255 37.6442H267C267.423 37.6442 267.738 38.0568 267.608 38.4538C266.887 40.6507 265.649 42.5122 263.886 44.0437C261.91 45.7557 259.244 46.6118 255.887 46.6118C253.019 46.6118 250.643 45.957 248.755 44.6471C246.868 43.3373 245.486 41.6562 244.615 39.614C243.743 37.5669 243.305 35.4269 243.305 33.1888C243.305 30.9508 243.743 28.8108 244.615 26.7635C245.486 24.7164 246.868 23.0404 248.755 21.7306C250.643 20.4208 253.019 19.7607 255.887 19.7607C258.161 19.7607 260.115 20.1836 261.76 21.019C263.406 21.8596 264.726 22.9579 265.722 24.3244C266.545 25.4537 267.175 26.6707 267.603 27.9703C267.738 28.3724 267.418 28.7851 266.995 28.7851H262.26C262.018 28.7851 261.807 28.6355 261.698 28.4189C261.24 27.4648 260.57 26.6604 259.682 26.0056C258.687 25.2733 257.418 24.9072 255.882 24.9072C254.345 24.9072 253.004 25.3094 251.973 26.1138C250.941 26.9183 250.183 27.9495 249.693 29.2078C249.204 30.4661 248.962 31.7966 248.962 33.194C248.962 34.5914 249.204 35.9219 249.693 37.1802C250.183 38.4385 250.941 39.4697 251.973 40.2743C253.004 41.0786 254.309 41.4808 255.882 41.4808C257.454 41.4808 258.676 41.125 259.657 40.4031C260.527 39.7636 261.208 38.9644 261.693 38.0053C261.802 37.7938 262.008 37.6494 262.25 37.6494L262.255 37.6442Z" fill="#232323"/>
<path d="M271.103 35.0761V21.0189C271.103 20.6733 271.387 20.3896 271.733 20.3896H276.137C276.482 20.3896 276.765 20.6733 276.765 21.0189V34.6532C276.765 36.6798 277.21 38.3608 278.101 39.6862C278.993 41.0165 280.401 41.785 282.32 41.9912C283.893 42.1665 285.223 41.9551 286.306 41.3621C287.389 40.7691 288.24 39.913 288.848 38.794C289.461 37.675 289.853 36.3807 290.028 34.9161C290.168 32.8174 290.24 30.7031 290.24 28.5683V21.0189C290.24 20.6733 290.523 20.3896 290.869 20.3896H295.273C295.618 20.3896 295.903 20.6733 295.903 21.0189V45.3534C295.903 45.699 295.618 45.9826 295.273 45.9826H290.24V44.6728C290.24 43.8682 290.363 42.971 290.606 41.9706C290.848 40.9754 291.131 40.042 291.446 39.1654H290.658C290.168 41.0888 289.312 42.6616 288.09 43.8837C286.867 45.1059 285.444 45.9206 283.815 46.3228C282.19 46.7251 280.556 46.7354 278.911 46.3486C277.162 45.9309 275.704 45.1162 274.533 43.9095C273.361 42.7029 272.496 41.3208 271.938 39.7687C271.382 38.2113 271.098 36.6488 271.098 35.0761H271.103Z" fill="#232323"/>
<path d="M318.289 21.0446V24.9225C318.289 25.2627 318.017 25.531 317.676 25.5413C315.608 25.6238 313.88 26.1343 312.494 27.078C310.972 28.1094 309.863 29.4398 309.163 31.0642C308.46 32.6884 308.115 34.3954 308.115 36.1744V45.3534C308.115 45.699 307.832 45.9826 307.487 45.9826H303.083C302.737 45.9826 302.453 45.699 302.453 45.3534V26.3715C302.453 26.0931 302.382 25.8817 302.242 25.7424C302.103 25.6031 301.892 25.531 301.612 25.531H299.411C299.066 25.531 298.781 25.2474 298.781 24.9018V21.0189C298.781 20.6733 299.066 20.3896 299.411 20.3896H305.129C305.831 20.3896 306.389 20.565 306.807 20.9156C307.224 21.2664 307.435 21.7717 307.435 22.437C307.435 23.8344 307.172 26.0363 306.647 29.0478H307.435C307.925 27.3358 308.668 25.83 309.663 24.5357C310.658 23.2414 311.884 22.2307 313.335 21.4933C314.613 20.8486 316.046 20.4877 317.634 20.4104C317.991 20.3949 318.289 20.6888 318.289 21.0446Z" fill="#232323"/>
<path d="M329.155 22.3334V45.358C329.155 45.7036 328.872 45.9873 328.525 45.9873H324.122C323.777 45.9873 323.492 45.7036 323.492 45.358V26.5825C323.492 26.268 323.389 26.0152 323.177 25.8193C322.967 25.6285 322.724 25.5305 322.446 25.5305H320.771C320.424 25.5305 320.141 25.2469 320.141 24.9014V21.0183C320.141 20.6729 320.424 20.3893 320.771 20.3893H327.221C327.747 20.3893 328.201 20.5749 328.582 20.941C328.969 21.3072 329.16 21.7713 329.16 22.3334H329.155ZM326.163 13.8351C326.931 13.8351 327.607 13.5463 328.179 12.9688C328.757 12.3912 329.047 11.7208 329.047 10.9473C329.047 10.1738 328.757 9.4622 328.179 8.90013C327.602 8.34319 326.926 8.05957 326.163 8.05957C325.323 8.05957 324.617 8.33804 324.04 8.90013C323.462 9.45704 323.172 10.1429 323.172 10.9473C323.172 11.7518 323.462 12.3912 324.04 12.9688C324.617 13.5463 325.323 13.8351 326.163 13.8351Z" fill="#232323"/>
<path d="M335.709 37.8042V26.1604C335.709 25.8148 335.426 25.5312 335.081 25.5312H332.193C331.847 25.5312 331.564 25.2476 331.564 24.9022V21.0192C331.564 20.6736 331.847 20.39 332.193 20.39C334.133 20.39 335.704 18.8173 335.704 16.8782V14.6506C335.704 14.3051 335.989 14.0215 336.334 14.0215H340.738C341.084 14.0215 341.367 14.3051 341.367 14.6506V19.7609C341.367 20.1064 341.651 20.39 341.996 20.39H348.344C348.69 20.39 348.972 20.6736 348.972 21.0192V24.9022C348.972 25.2476 348.69 25.5312 348.344 25.5312H341.996C341.651 25.5312 341.367 25.8148 341.367 26.1604V37.7527C341.367 38.5933 341.661 39.3203 342.259 39.9289C342.852 40.5424 343.57 40.8467 344.41 40.8467H348.344C348.69 40.8467 348.972 41.1304 348.972 41.4758V45.3589C348.972 45.7044 348.69 45.988 348.344 45.988H343.888C342.14 45.988 340.646 45.6063 339.403 44.8329C338.16 44.0644 337.232 43.0487 336.622 41.7904C336.009 40.5321 335.704 39.2018 335.704 37.8042H335.709Z" fill="#232323"/>
<path d="M364.293 37.0665L370.274 20.8023C370.368 20.5547 370.599 20.3896 370.862 20.3896H375.04C375.473 20.3896 375.776 20.8228 375.633 21.2302L365.354 50.0048C364.794 51.6498 363.783 53.0472 362.313 54.2024C360.842 55.3574 358.956 55.9349 356.65 55.9349H352.664C352.319 55.9349 352.036 55.6513 352.036 55.3059V51.7374C352.036 51.3919 352.319 51.1083 352.664 51.1083H356.863C357.806 51.1083 358.564 50.8659 359.141 50.376C359.719 49.8861 360.132 49.2725 360.374 48.5402L360.93 46.8075C361.06 46.4003 360.76 45.9876 360.332 45.9876H359.384C359.121 45.9876 358.884 45.8226 358.791 45.5752L349.962 21.2405C349.813 20.828 350.117 20.3949 350.555 20.3949H354.727C354.99 20.3949 355.227 20.5599 355.315 20.8075L361.297 37.0718C361.925 38.6445 362.293 39.9027 362.4 40.8464H363.184C363.288 39.9027 363.658 38.6445 364.288 37.0718L364.293 37.0665Z" fill="#232323"/>
<path d="M1.69656 28.9086H25.3041C28.429 28.9086 31.3683 27.4595 33.3228 25.0255C37.278 20.1061 46.7301 13.0465 59.0804 18.3476C60.2046 18.8323 61.4577 18.0175 61.4577 16.7954V7.48239C61.4577 6.05915 60.576 4.79574 59.2404 4.3007C55.2077 2.8001 45.6679 0 30.734 0C15.8002 0 6.25509 2.8001 2.21738 4.3007C0.881799 4.79574 0 6.0643 0 7.48239V27.2069C0 28.1453 0.758038 28.9034 1.69656 28.9034V28.9086Z" fill="#232323"/>
<path d="M27.6253 34.1583C29.7395 31.5439 33.0966 30.6413 36.4588 30.6465L58.8595 30.693C59.8393 30.693 60.6127 31.5284 60.5509 32.5081C59.3289 52.0004 38.5627 61.2929 32.2612 63.6752C31.101 64.1136 29.822 64.1084 28.6567 63.6752C23.9177 61.8859 11.0464 56.198 4.4046 45.2297C3.64656 43.9715 4.71916 42.409 6.16304 42.6772C11.6962 43.7239 20.2408 43.2857 27.62 34.1633L27.6253 34.1583Z" fill="#232323"/>
</g>
</svg>
