<svg width="200" height="63" viewBox="0 0 200 63" fill="none" xmlns="http://www.w3.org/2000/svg">
<path d="M190.993 61.6477C186.199 61.6477 182.285 57.7376 182.285 52.9478C182.285 48.06 186.199 44.1499 190.993 44.1499C195.788 44.1499 199.703 48.06 199.703 52.9478C199.703 57.7376 195.788 61.6477 190.993 61.6477Z" fill="black"/>
<path d="M168.25 61.4521C161.694 61.4521 158.367 57.542 158.367 48.5487V18.1476H155.138V16.8768C160.813 15.3128 168.837 7.29701 171.185 0.258789H172.555V14.7262H180.09V18.1476H172.555L172.457 48.7443C172.457 51.8724 173.436 52.8499 175.001 52.8499C176.861 52.8499 178.426 51.4814 180.187 47.9622L180.872 48.2554C178.035 57.542 173.729 61.4521 168.25 61.4521Z" fill="black"/>
<path d="M137.486 61.6475C126.527 61.6475 120.46 51.0902 120.46 38.4801C120.46 23.8171 127.799 13.7485 138.758 13.7485C149.228 13.7485 154.121 22.3508 153.631 33.8856H132.985C133.768 46.007 139.443 48.7441 143.748 48.7441C147.369 48.7441 150.891 46.8868 153.044 42.2923L153.729 42.488C151.479 53.4363 145.999 61.6475 137.486 61.6475ZM132.887 30.6598H140.421C140.324 19.907 139.247 16.4856 136.605 16.4856C134.257 16.4856 132.887 20.2002 132.887 30.6598Z" fill="black"/>
<path d="M102.224 61.6475C91.2649 61.6475 85.1982 51.0902 85.1982 38.4801C85.1982 23.8171 92.537 13.7485 103.496 13.7485C113.966 13.7485 118.859 22.3508 118.37 33.8856H97.7231C98.5058 46.007 104.181 48.7441 108.487 48.7441C112.107 48.7441 115.63 46.8868 117.783 42.2923L118.467 42.488C116.217 53.4363 110.737 61.6475 102.224 61.6475ZM97.6253 30.6598H105.16C105.062 19.907 103.985 16.4856 101.343 16.4856C98.9952 16.4856 97.6253 20.2002 97.6253 30.6598Z" fill="black"/>
<path d="M68.8775 61.6475L58.9944 30.953L48.133 61.6475H47.3503L32.1834 18.3429C31.6941 16.9744 31.0092 15.8991 29.835 15.6059V14.7261H50.9708V15.6059H50.8728C49.0137 15.6059 48.0351 16.8766 48.0351 18.6361C48.0351 20.0047 48.6223 21.9598 49.6009 24.8924L53.6126 36.4271L57.331 25.9677L55.4719 20.1024C54.3955 16.8766 54.0041 16.0946 52.9278 15.6059V14.7261H72.5957V15.6059H72.4978C70.7366 15.6059 69.758 16.8766 69.758 18.6361C69.758 20.0047 69.9537 21.9598 70.9323 24.8924L74.6506 36.5251L78.369 25.2833C79.1517 23.0351 79.9346 20.8845 79.9346 19.125C79.9346 16.7789 78.7604 15.6059 76.4119 15.6059H76.3141V14.7261H87.9584V15.6059C86.0991 15.6059 84.3378 17.4632 82.0872 24.3059L69.6602 61.6475H68.8775Z" fill="black"/>
<path d="M13.7372 61.6475C9.13822 61.6475 4.53923 60.7677 1.50586 60.0835V44.8339H2.28867C3.46287 54.6094 8.45327 58.3238 13.248 58.3238C16.5749 58.3238 18.9233 56.4666 18.9233 52.9474C18.9233 50.1126 17.162 48.1576 13.9329 45.7138L9.23608 42.0968C4.14783 38.1867 1.50586 34.1788 1.50586 28.8024C1.50586 20.4934 7.57262 13.7485 17.9448 13.7485C21.8588 13.7485 25.7728 14.6283 28.317 15.4103V28.0205H27.6321C26.8492 21.1778 22.6416 17.0721 18.1406 17.0721C15.1071 17.0721 12.9544 18.9294 12.9544 21.7642C12.9544 24.6968 15.205 26.5542 17.5534 28.3137L22.2503 31.9306C28.0234 36.4272 30.7633 41.1194 30.7633 45.8115C30.7633 55.3913 25.2836 61.6475 13.7372 61.6475Z" fill="black"/>
</svg>
