<svg width="211" height="65" viewBox="0 0 211 65" fill="none" xmlns="http://www.w3.org/2000/svg">
<g clip-path="url(#clip0_871_10284)">
<path d="M31.0779 41.4026C31.3505 45.1028 29.7149 48.5289 26.8525 50.8587C23.8538 53.0514 20.1735 54.0107 16.4933 53.8736C10.4959 53.8736 4.77109 51.818 0.136719 48.1178L4.77109 40.9914C8.99654 44.0064 12.9494 45.5139 16.7659 45.5139C19.7646 45.5139 21.264 44.5546 21.264 42.636V42.4989C21.264 41.4026 20.4462 40.5803 18.9468 39.8951C18.4016 39.621 16.4933 39.0728 13.3583 38.1135C5.72522 35.9208 1.90868 32.0835 1.90868 26.6017V26.4646C1.77238 22.9015 3.27173 19.6124 5.99783 17.4197C8.86023 15.227 12.2679 14.1306 15.8118 14.2676C20.8551 14.2676 25.8983 15.7751 30.1238 18.6531L26.0347 26.1906C21.9455 23.8608 18.5379 22.6274 15.6755 22.6274C12.9494 22.6274 11.7226 23.4497 11.7226 25.2312V25.3683C11.7226 26.3276 12.5405 27.1499 14.0398 27.9721C14.7213 28.2462 16.4933 28.9315 19.492 30.0278C22.2181 30.8501 24.9442 32.0835 27.2614 33.728C29.7149 35.5096 31.0779 38.3876 31.0779 41.4026ZM57.3848 54.0107C55.8854 57.985 54.2498 60.7259 52.4778 62.3704C50.2969 64.152 47.5708 64.9743 44.8447 64.8372C41.4371 64.8372 38.1658 63.8779 35.1671 62.2334L38.8473 54.2848C40.2104 55.2441 41.846 55.6552 43.4817 55.7923C45.1173 55.7923 46.6167 54.833 47.2982 53.3255L32.3047 14.6788H43.7543L52.4778 40.8544L60.7924 14.6788H72.1057L57.3848 54.0107ZM102.638 41.4026C102.911 45.1028 101.275 48.5289 98.4126 50.8587C95.4139 53.0514 91.7336 54.0107 88.0534 53.8736C82.056 53.8736 76.3312 51.818 71.6968 48.1178L76.3312 40.9914C80.5566 44.0064 84.5095 45.5139 88.326 45.5139C91.3247 45.5139 92.8241 44.5546 92.8241 42.636V42.4989C92.8241 41.4026 92.0062 40.5803 90.5069 39.8951C89.9617 39.621 88.0534 39.0728 84.9184 38.1135C77.2853 35.9208 73.4688 32.0835 73.4688 26.6017V26.4646C73.3325 22.9015 74.8318 19.6124 77.5579 17.4197C80.4203 15.227 83.8279 14.1306 87.3719 14.2676C92.4151 14.2676 97.4584 15.7751 101.684 18.6531L97.5947 26.1906C93.5056 23.8608 90.098 22.6274 87.2356 22.6274C84.5095 22.6274 83.2827 23.4497 83.2827 25.2312V25.3683C83.2827 26.3276 84.1005 27.1499 85.5999 27.9721C86.2814 28.2462 88.0534 28.9315 91.0521 30.0278C93.7782 30.8501 96.5043 32.0835 98.8215 33.728C101.275 35.5096 102.638 38.3876 102.638 41.4026ZM135.76 53.0514V49.6252C132.489 52.5032 128.127 53.8736 123.902 53.7366C119.404 53.8736 114.905 51.955 111.907 48.6659C108.363 44.9657 106.591 40.0321 106.591 33.8651V33.728C106.591 27.561 108.363 22.6274 111.907 18.9272C115.042 15.6381 119.404 13.7195 124.038 13.8565C128.263 13.7195 132.489 14.9529 135.896 17.4197V0.700195H146.801V53.0514H135.76ZM135.896 33.728C136.033 30.8501 135.079 28.1092 133.17 26.0535C131.535 24.1349 129.081 23.0385 126.628 23.1756C124.174 23.1756 121.721 24.1349 120.085 26.0535C118.177 28.1092 117.223 30.9871 117.359 33.8651V34.0021C117.223 36.8801 118.313 39.621 120.085 41.6766C123.356 45.3769 128.945 45.6509 132.489 42.3619C132.761 42.0878 132.898 41.9507 133.17 41.6766C135.079 39.621 136.033 36.8801 135.896 34.0021V33.728ZM153.071 10.4304V0.700195H164.52V10.4304H153.071ZM153.343 53.0514V14.6788H164.248V53.0514H153.343ZM211 44.4175C211 51.5439 209.228 56.7516 205.685 60.0407C202.277 63.1927 196.961 64.8372 189.737 64.8372C183.876 64.9743 178.015 63.6038 172.835 60.8629L176.515 51.955C180.468 54.2848 184.83 55.5182 189.464 55.5182C196.688 55.5182 200.369 52.5032 200.369 46.4732V46.0621C196.825 48.803 192.327 50.3105 187.829 50.1734C183.467 50.3105 179.105 48.6659 175.97 45.5139C172.426 41.9507 170.654 37.1542 170.79 32.2205V32.0835C170.518 27.1499 172.426 22.3533 175.97 18.7901C179.105 15.6381 183.331 13.9936 187.692 14.1306C192.054 13.9936 196.416 15.227 200.096 17.6938V14.8158H211V44.4175ZM200.232 31.8094C200.232 29.3426 199.278 27.0128 197.506 25.3683C193.69 22.0792 188.101 22.0792 184.285 25.3683C182.513 27.0128 181.559 29.3426 181.695 31.8094V31.9464C181.559 34.4133 182.513 36.743 184.285 38.3876C186.057 40.0321 188.51 40.8544 190.964 40.8544C193.417 40.9914 195.871 40.0321 197.643 38.3876C199.414 36.743 200.369 34.4133 200.232 31.8094Z" fill="#171717"/>
</g>
<defs>
<clipPath id="clip0_871_10284">
<rect width="211" height="64" fill="white" transform="translate(0 0.700195)"/>
</clipPath>
</defs>
</svg>
