<svg width="474" height="64" viewBox="0 0 474 64" fill="none" xmlns="http://www.w3.org/2000/svg">
<path d="M4.45605 1.81152L2.33203 10.1715H22.0146L14.7929 39.3241L9.48288 60.8313H22.3686L27.6786 39.3241L34.9003 10.1715H54.512L56.5652 1.81152H4.45605ZM397.824 2.4546C396.776 6.79891 395.813 10.1886 394.85 13.101H390.036L391.593 12.1007C394.278 10.343 395.601 9.43979 395.629 9.31404C394.196 6.04723 392.984 3.79219 391.876 2.66895C391.845 2.46591 389.801 3.72645 385.858 6.31303L384.513 7.17046C384.542 7.23334 384.703 7.47628 385.009 7.88499C386.396 9.7056 387.569 11.4205 388.478 13.101H384.513L383.239 19.103H392.16L391.522 20.3177L390.885 21.5324H381.256L380.053 27.5344H386.708C383.867 31.0327 380.489 33.8422 376.584 35.9658L382.814 5.95577H365.609L359.167 36.9662C358.994 37.7779 358.798 38.5495 358.6 39.3241C357.102 45.3232 354.873 50.705 351.874 55.4723C353.692 57.0929 355.173 58.8306 356.405 60.6884C360.011 55.4981 362.843 48.853 364.972 40.6817H368.725L366.601 50.8279C366.433 52.217 365.035 52.8429 362.494 52.6142C363.024 55.0979 363.25 57.5845 363.061 60.1882C369.192 60.1482 372.287 58.7534 372.406 55.9011L375.876 39.3241L376.088 38.1808C376.47 38.5667 376.827 38.9468 377.15 39.3241C377.977 40.3073 378.62 41.2733 379.061 42.2536C380.002 41.7849 381.118 41.0647 382.389 39.9672L380.123 47.3982H400.726L400.372 49.3274C399.557 53.3402 398.41 55.2894 396.974 55.0436L398.107 49.3274H376.017L374.743 55.258H392.726C393.754 57.4959 394.193 59.7881 394 62.1889C399.738 62.0003 403.253 61.1085 404.62 59.4737C405.048 58.9964 405.498 58.1675 405.966 56.7585C406.903 53.9261 408.002 49.7847 409.364 44.3258L410.143 41.1819H402.496L402.921 39.3241L403.488 36.466C404.847 37.6664 406.053 38.601 407.098 39.3241C407.872 39.8585 408.554 40.2673 409.152 40.5388C409.48 40.1244 409.817 39.7156 410.143 39.3241C412.114 36.909 413.986 34.8969 415.736 33.2506C411.12 31.9245 407.738 30.021 405.612 27.5344H415.736L416.94 21.5324H398.744C399.231 20.8122 399.684 20.0376 400.018 19.103H415.028L416.232 13.101H410.851C413.201 10.7831 415.269 8.87675 417.152 7.38482L410.851 3.45493C408.832 6.0558 406.654 8.58808 404.267 11.0289L408.09 13.3868H402.638L403.417 10.886L404.408 8.38515C405.235 6.27873 405.915 4.6782 406.391 3.66929C406.436 3.25486 406.167 3.04622 405.329 2.95476C403.74 2.70325 401.245 2.53748 397.824 2.4546ZM435.914 2.95476C433.994 3.59784 431.009 4.77252 426.852 6.52739C428.16 10.2915 429.103 14.047 429.755 17.8169C431.225 17.2538 434.413 16.1478 439.242 14.3872C437.228 7.07043 436.076 3.24343 435.914 2.95476ZM442.924 6.17013L441.437 13.101H447.101L444.41 26.0339H437.33L435.844 32.9648H442.994L441.649 39.3241L437.33 59.9739H445.26L449.508 39.3241L450.853 32.9648H456.517L455.385 38.1808C455.302 38.5667 455.243 38.944 455.172 39.3241C453.722 46.9867 454.467 52.9801 457.367 57.2587C459.134 59.7938 461.267 60.8656 463.81 60.474C466.444 60.6112 469.08 56.3212 471.669 47.6126C469.312 46.5322 467.143 45.5805 465.226 44.7545C463.94 48.7444 463.142 50.0391 462.819 48.6129C462.312 46.5779 462.417 43.4826 463.102 39.3241C463.323 37.9808 463.606 36.5374 463.951 34.9655L469.97 6.17013H442.924ZM325.324 6.88465L322.634 17.8883H312.297L310.314 26.0339H348.122L325.324 6.88465ZM370.92 12.1007H374.672L372.902 20.6035H369.22L370.92 12.1007ZM454.96 13.101H460.907L458.217 26.0339H452.269L454.96 13.101ZM71.3625 15.459C63.5065 15.459 56.6927 17.5311 50.9012 21.6753C45.1409 25.8796 41.3998 31.3871 39.7147 38.1808C39.6157 38.5781 39.5108 38.9354 39.4315 39.3241C38.1373 45.6319 39.2842 50.7765 42.9007 54.6864C46.7551 58.802 52.7023 60.8313 60.7425 60.8313C74.4466 60.8313 84.9506 52.3942 86.0182 51.471L80.071 50.1134C78.672 50.4392 71.0538 52.6657 63.4329 51.9712C53.8182 51.0995 51.6375 43.9942 52.1756 40.4673H90.7619L91.1159 39.3241L91.3991 38.1094C93.1493 31.027 92.2232 25.4566 88.6379 21.461C85.0242 17.431 79.2979 15.459 71.3625 15.459ZM185.705 15.459C177.439 15.459 169.962 17.6225 163.191 22.0326C156.408 26.4455 152.248 31.913 150.659 38.3238C150.571 38.6753 150.444 38.9783 150.376 39.3241C149.189 45.2746 150.761 50.3078 155.049 54.4006C159.597 58.6934 166.034 60.8313 174.377 60.8313C179.432 60.8313 184.737 59.7738 190.307 57.6874L193.564 44.6116C189.86 47.4897 186.753 49.4017 184.289 50.3992C181.746 51.4281 178.996 51.9712 176.006 51.9712C171.319 51.9712 167.773 50.7022 165.386 48.1127C163.273 45.7805 162.517 42.8195 163.12 39.3241C163.188 38.9382 163.304 38.5781 163.403 38.1808C164.38 34.2424 166.731 30.9327 170.483 28.3204C174.227 25.7081 178.467 24.3905 183.157 24.3905C186.144 24.3905 188.563 24.9021 190.52 25.9625C192.514 26.9885 194.604 28.9149 196.75 31.6787L200.007 18.46C195.785 16.4336 191.021 15.459 185.705 15.459ZM232.363 15.459C224.504 15.459 217.69 17.5311 211.902 21.6753C206.138 25.8796 202.397 31.3871 200.715 38.1808C200.616 38.5781 200.514 38.9354 200.432 39.3241C199.135 45.6319 200.279 50.7765 203.901 54.6864C207.75 58.802 213.706 60.8313 221.743 60.8313C235.441 60.8313 245.954 52.3942 247.019 51.471L241.071 50.1134C239.672 50.4392 232.054 52.6657 224.433 51.9712C214.821 51.0995 212.632 43.9942 213.176 40.4673H251.762L252.116 39.3241L252.399 38.1094C254.155 31.027 253.289 25.4566 249.709 21.461C246.095 17.431 240.301 15.459 232.363 15.459ZM131.968 16.6736C126.508 16.6736 121.169 18.3771 115.967 21.8182L104.426 17.8883L99.1163 39.3241L93.8063 60.8313H106.338L111.436 40.1101C111.501 39.8443 111.583 39.5642 111.648 39.3241C112.951 34.3853 114.698 30.8641 116.816 28.8206C119.088 26.6484 122.242 25.6052 126.374 25.6052C130.175 25.6052 132.636 26.3855 133.667 28.0346C134.74 29.6466 134.718 32.5904 133.667 36.8232L133.1 39.3241L127.72 60.8313H140.251L145.561 39.3241L146.765 34.4653C148.269 28.409 147.855 24.0733 145.491 21.3895C142.763 18.2456 138.244 16.6736 131.968 16.6736ZM291.906 16.6736C286.443 16.6736 281.113 18.3771 275.905 21.8182L264.365 17.8883L259.055 39.3241L253.745 60.8313H266.276L271.374 40.1101C271.442 39.8443 271.519 39.5642 271.586 39.3241C272.895 34.3853 274.631 30.8641 276.755 28.8206C279.029 26.6484 282.175 25.6052 286.313 25.6052C290.111 25.6052 292.572 26.3855 293.605 28.0346C294.676 29.6466 294.656 32.5904 293.605 36.8232L292.968 39.3241L287.658 60.8313H300.19L305.5 39.3241L306.703 34.4653C308.207 28.409 307.791 24.0733 305.429 21.3895C302.705 18.2456 298.176 16.6736 291.906 16.6736ZM419.135 21.1752L417.648 28.1775H424.657L422.321 39.3241L420.834 46.7551C420.511 48.31 419.279 49.9305 417.152 51.6854C416.526 52.2055 416.141 52.5399 416.09 52.6857C416.869 55.1465 418.257 57.5473 420.197 59.7595C420.347 59.7995 421.177 59.0621 422.604 57.6159C424.734 55.338 430.137 50.3163 438.888 42.5394C438.86 42.4393 438.378 41.3962 437.472 39.467L437.401 39.3241L436.127 36.466L434.711 37.6807C434.031 38.2837 433.374 38.8382 432.799 39.3241C431.27 40.6617 430.109 41.642 429.33 42.2536L429.967 39.3241L433.72 21.1752H419.135ZM69.3801 24.3905C76.024 24.3905 79.5754 27.0257 80.0002 32.3217H55.0076C55.7156 31.087 56.5369 30.0067 57.5564 29.0349C58.5675 28.0689 59.7088 27.2086 60.9549 26.5341C62.2349 25.8253 63.5745 25.3165 64.9905 24.9621C66.4122 24.5791 67.8678 24.3905 69.3801 24.3905ZM230.38 24.3905C237.024 24.3905 240.581 27.0257 241.001 32.3217H216.008C216.722 31.087 217.546 30.0067 218.557 29.0349C219.573 28.0689 220.723 27.2086 221.955 26.5341C223.247 25.8253 224.575 25.3165 225.991 24.9621C227.418 24.5791 228.865 24.3905 230.38 24.3905ZM367.946 26.5341H371.628L369.999 34.4653H366.317L367.946 26.5341ZM395.062 27.5344H397.257C397.549 28.3833 397.954 29.2293 398.461 30.0353H393.08L394.071 28.7491L395.062 27.5344ZM320.156 27.8917L317.324 39.3241L311.943 60.8313H324.404L329.784 39.3241L332.616 27.8917H320.156ZM387.416 35.68H396.266L395.558 39.3241L395.062 41.3962H388.974C389.2 40.6302 389.404 39.9443 389.611 39.3241C389.846 38.6096 390.036 38.0008 390.248 37.4663C389.951 37.2948 389.769 37.1805 389.611 37.1805H385.929L387.416 35.68Z" fill="#006CB6"/>
</svg>
