<?xml version="1.0" encoding="UTF-8"?>
<svg id="Layer_1" xmlns="http://www.w3.org/2000/svg" version="1.1" viewBox="0 0 204 55.3">
  <!-- Generator: Adobe Illustrator 29.3.1, SVG Export Plug-In . SVG Version: 2.1.0 Build 151)  -->
  <defs>
    <style>
      .st0 {
        fill: #d23200;
      }

      .st0, .st1 {
        fill-rule: evenodd;
      }

      .st1, .st2 {
        fill: #1a1a1a;
      }
    </style>
  </defs>
  <g>
    <path class="st1" d="M9.6,6.1v23.9h7.7V6.1h4L25.5,0H.1v6h9.4ZM68.4,19.9l7.5,10.1h0c0,0,8.8,0,8.8,0l-8.5-10.7.8-.4c5.7-2.4,6.5-5.8,6.5-8.8,0-5-3.7-10.1-11.9-10.1h-15.1v30h7.8v-10.1h4.2ZM71.5,14.6h-7.4V5.8h7.3c3,0,4.3,2.4,4.3,4.5s-1.6,4.3-4.2,4.3ZM43.9,30v-11.8h-13v11.8h-7.8V11L30.8.1h.1v11.9h13V.1h7.7v29.9h-7.7ZM134.8,24.9l2.1,5.1h8.3L131.4,0h-8.4l-13.8,29.9h8.2l2.1-5.1h15.4ZM132.2,18.8h-10.3l5.2-12.3,5.1,12.3ZM148.7,30V6.1h-9.4V0h17.1l4.4,6h-4.4v19.1l-3.4,4.9h-4.2ZM109.3,0v6.1h-16.2v5.8h15.3v5.9h-15.3v6h14.1l-2.8,6.2h-14.1l-4.7-5.9V0h23.9Z"/>
    <path class="st0" d="M173.1,6.9l-4-6.8h-8.8l8.8,12.5,4-5.7ZM175.5,19.3l6.9,10.7h8.5l-10.6-15.1L190.4,0h-8.7l-21.1,29.9h8l7-10.7Z"/>
    <path class="st2" d="M194.9,5.1V1h-1.2V0h3.5v1h-1.2v4h-1.1Z"/>
    <path class="st2" d="M197.3,5.1l.8-5h1.3l1.2,3.8,1.2-3.8h1.3l.8,5h-1.1l-.6-3.6-1.1,3.6h-1.1l-1.1-3.6-.6,3.6h-1.1Z"/>
  </g>
  <g>
    <path class="st2" d="M58.6,50.9v.6c0,.1,0,.2-.1.3,0,0-.2.1-.3.1h-1.4c-.1,0-.2,0-.3-.1,0,0-.1-.2-.1-.3v-11.3c0-.1,0-.2.1-.3,0,0,.2-.1.3-.1h1.5c.1,0,.2,0,.3.1s.1.2.1.3v3.8c.6-.8,1.5-1.1,2.6-1.1s2,.4,2.7,1.1c.6.7.9,1.7,1,2.9,0,.1,0,.3,0,.6s0,.4,0,.6c0,1.2-.4,2.2-1,2.9-.6.7-1.5,1.1-2.6,1.1s-2.1-.4-2.7-1.2ZM62.6,48c0-.1,0-.3,0-.5s0-.4,0-.5c0-1.5-.7-2.3-1.9-2.3s-1.1.2-1.4.6c-.3.4-.5.9-.5,1.5,0,.1,0,.4,0,.7s0,.5,0,.7c0,.6.2,1.1.5,1.5.3.4.8.6,1.5.6,1.2,0,1.9-.8,1.9-2.3Z"/>
    <path class="st2" d="M67.9,55.1c0,0-.1-.1-.1-.2s0-.2,0-.3l1.4-3.2-3.3-7.7c0-.1,0-.2,0-.2,0-.1,0-.2.1-.3,0,0,.2-.1.3-.1h1.4c.2,0,.4.1.4.3l2.3,5.6,2.3-5.6c.1-.2.3-.3.5-.3h1.4c.1,0,.2,0,.3.1s.1.1.1.2,0,.2,0,.3l-4.8,11.2c0,.2-.3.3-.5.3h-1.4c0,0-.2,0-.2-.1Z"/>
    <path class="st2" d="M79.5,51.8c0,0-.1-.2-.1-.3v-.2s4.1-11,4.1-11c.1-.3.3-.4.6-.4h1.9c.3,0,.5.1.6.4l4.1,11v.2c0,.1,0,.2,0,.3,0,0-.2.1-.2.1h-1.5c-.2,0-.4-.1-.5-.3l-.8-2.1h-5.1l-.8,2.1c0,.2-.3.3-.5.3h-1.5c-.1,0-.2,0-.3-.1ZM83.1,47.6h3.9l-1.9-5.3-1.9,5.3Z"/>
    <path class="st2" d="M94.3,51.8c0,0-.1-.2-.1-.3v-8.8l-2.6,2c0,0-.2,0-.3,0s-.2,0-.3-.2l-.7-1c0,0,0-.2,0-.2,0-.1,0-.3.2-.3l3.8-3c.1,0,.3-.1.4-.1h1.5c.1,0,.2,0,.3.1s.1.2.1.3v11.1c0,.1,0,.2-.1.3,0,0-.2.1-.3.1h-1.6c-.1,0-.2,0-.3-.1Z"/>
    <path class="st2" d="M100.3,50.9c-.7-.8-1.2-1.9-1.2-3.3,0-.3,0-.8,0-1.6s0-1.3,0-1.6c0-1.3.5-2.4,1.2-3.3.8-.8,1.9-1.3,3.4-1.3s2.6.4,3.4,1.3c.8.8,1.2,1.9,1.2,3.3,0,.6,0,1.2,0,1.6s0,1,0,1.6c0,1.4-.5,2.5-1.2,3.3-.7.8-1.9,1.3-3.4,1.3s-2.7-.4-3.4-1.3ZM105.3,49.4c.4-.5.5-1.1.6-2,0-.3,0-.8,0-1.5s0-1.2,0-1.5c0-.8-.2-1.5-.6-1.9-.4-.5-.9-.7-1.6-.7-.7,0-1.2.3-1.6.7-.4.5-.5,1.1-.6,1.9,0,.3,0,.8,0,1.5s0,1.2,0,1.5c0,.9.2,1.5.6,2,.4.5.9.7,1.6.7s1.2-.2,1.6-.7Z"/>
    <path class="st2" d="M114.7,51.8c0,0-.1-.2-.1-.3v-11.1c0-.1,0-.2.1-.3,0,0,.2-.1.3-.1h1.3c.2,0,.4,0,.5.3l4.9,7.6v-7.5c0-.1,0-.2.1-.3,0,0,.2-.1.3-.1h1.5c.1,0,.2,0,.3.1s.1.2.1.3v11.1c0,.1,0,.2-.1.3,0,0-.2.1-.3.1h-1.4c-.2,0-.4,0-.5-.3l-4.9-7.4v7.3c0,.1,0,.2-.1.3,0,0-.2.1-.3.1h-1.5c-.1,0-.2,0-.3-.1Z"/>
    <path class="st2" d="M127.2,51c-.7-.7-1.1-1.8-1.2-3.1v-.4c0-1.4.4-2.5,1.1-3.4.7-.8,1.8-1.2,3.1-1.2s2.4.4,3.1,1.2,1.1,1.9,1.1,3.3v.4c0,.1,0,.2-.1.3s-.2.1-.3.1h-5.7c0,.8.2,1.3.5,1.7.3.4.8.6,1.3.6s1.2-.3,1.6-.8c.1-.1.2-.2.2-.2,0,0,.2,0,.3,0h1.5c.1,0,.2,0,.3,0,0,0,.1.1.1.2,0,.3-.2.6-.5,1s-.8.7-1.4,1c-.6.3-1.3.4-2.1.4-1.3,0-2.3-.4-3-1.1ZM132.1,46.7h0c0-.7-.2-1.2-.5-1.6-.3-.4-.8-.6-1.4-.6s-1,.2-1.4.6c-.3.4-.5.9-.5,1.6h0s3.7,0,3.7,0Z"/>
    <path class="st2" d="M137.9,51.1c-.5-.5-.8-1.3-.8-2.4v-3.9h-1.4c-.1,0-.2,0-.3-.1,0,0-.1-.2-.1-.3v-1c0-.1,0-.2.1-.3,0,0,.2-.1.3-.1h1.4v-2.8c0-.1,0-.2.1-.3,0,0,.2-.1.3-.1h1.4c.1,0,.2,0,.3.1s.1.2.1.3v2.8h2.1c.1,0,.2,0,.3.1s.1.2.1.3v1c0,.1,0,.2-.1.3s-.2.1-.3.1h-2.1v3.7c0,.5,0,.9.3,1.1.2.3.4.4.8.4h1.2c.1,0,.2,0,.3.1,0,0,.1.2.1.3v1.1c0,.1,0,.2-.1.3,0,0-.2.1-.3.1h-1.4c-1,0-1.8-.3-2.3-.8Z"/>
    <path class="st2" d="M145.7,51.5l-2.4-7.9s0,0,0-.2c0-.1,0-.2.1-.3,0,0,.2-.1.3-.1h1.3c.1,0,.2,0,.3.1,0,0,.1.1.2.2l1.7,5.6,1.8-5.6c0-.1,0-.2.2-.3,0,0,.2-.1.3-.1h.9c.1,0,.2,0,.3.1,0,0,.1.2.2.3l1.8,5.6,1.7-5.6c0,0,0-.2.2-.2s.2-.1.3-.1h1.3c.1,0,.2,0,.3.1,0,0,.1.2.1.3v.2s-2.5,7.9-2.5,7.9c0,.1-.1.2-.2.3s-.2.1-.4.1h-1.1c-.3,0-.5-.1-.6-.4l-1.8-5.4-1.8,5.4c0,.3-.3.4-.6.4h-1.1c-.3,0-.5-.1-.6-.4Z"/>
    <path class="st2" d="M158.4,51.1c-.7-.7-1.1-1.6-1.2-2.8v-.8s0-.8,0-.8c0-1.2.5-2.1,1.2-2.8s1.8-1,3.1-1,2.3.3,3.1,1,1.1,1.6,1.2,2.8c0,.1,0,.4,0,.8s0,.6,0,.8c0,1.2-.5,2.2-1.2,2.8-.7.7-1.8,1-3.1,1s-2.4-.3-3.1-1ZM162.9,49.8c.3-.4.5-.9.5-1.7,0-.1,0-.3,0-.7s0-.6,0-.7c0-.7-.2-1.3-.5-1.7-.3-.4-.8-.6-1.4-.6s-1.1.2-1.4.6c-.3.4-.5.9-.5,1.7v.7s0,.7,0,.7c0,.7.2,1.3.5,1.7.3.4.8.6,1.4.6s1.1-.2,1.4-.6Z"/>
    <path class="st2" d="M167.8,51.8c0,0-.1-.2-.1-.3v-8.1c0-.1,0-.2.1-.3s.2-.1.3-.1h1.4c.1,0,.2,0,.3.1s.1.2.1.3v.7c.6-.8,1.4-1.1,2.5-1.1h.7c.1,0,.2,0,.3.1,0,0,.1.2.1.3v1.2c0,.1,0,.2-.1.3,0,0-.2.1-.3.1h-1.4c-.5,0-1,.2-1.3.5s-.5.7-.5,1.3v4.7c0,.1,0,.2-.1.3,0,0-.2.1-.3.1h-1.5c-.1,0-.2,0-.3-.1Z"/>
    <path class="st2" d="M175,51.8c0,0-.1-.2-.1-.3v-11.3c0-.1,0-.2.1-.3,0,0,.2-.1.3-.1h1.4c.1,0,.2,0,.3.1s.1.2.1.3v5.8l2.8-2.7s0,0,.2-.1c0,0,.1-.1.2-.1,0,0,.2,0,.3,0h1.6c.1,0,.2,0,.3.1s.1.2.1.3,0,.2-.2.3l-3.5,3.3,3.9,4.2c.1.1.2.2.2.3s0,.2-.1.3-.2.1-.3.1h-1.7c-.2,0-.3,0-.4,0,0,0-.2-.1-.3-.2l-3.2-3.4v3.3c0,.1,0,.2-.1.3,0,0-.2.1-.3.1h-1.4c-.1,0-.2,0-.3-.1Z"/>
    <path class="st2" d="M185.6,51.7c-.6-.3-1-.6-1.3-.9-.3-.3-.4-.6-.4-.9s0-.2.1-.3c0,0,.2-.1.3-.1h1.4c0,0,.2,0,.2.1,0,0,.2.2.4.3.2.2.4.3.7.4s.5.1.8.1c.5,0,.8,0,1.1-.3s.4-.4.4-.8,0-.4-.2-.6c-.1-.1-.4-.3-.7-.4-.3-.1-.8-.3-1.5-.4-1-.2-1.7-.5-2.1-.9-.5-.4-.7-1-.7-1.7s.1-.9.4-1.3c.3-.4.7-.7,1.2-1,.5-.3,1.2-.4,1.9-.4s1.4.1,2,.4c.6.2,1,.5,1.3.9.3.3.4.6.4.9s0,.2-.1.3-.2.1-.3.1h-1.3c-.1,0-.2,0-.3-.1,0,0-.2-.2-.4-.3-.2-.2-.4-.3-.6-.4-.2,0-.5-.1-.8-.1s-.7,0-1,.3c-.2.2-.3.4-.3.7s0,.4.2.5c.1.1.3.3.7.4.3.1.8.2,1.5.4,2.1.4,3.1,1.3,3.1,2.7s-.4,1.5-1.1,2c-.7.5-1.7.8-2.9.8s-1.6-.1-2.2-.4Z"/>
  </g>
</svg>