<svg version="1.1" id="Layer_1" xmlns:x="ns_extend;" xmlns:i="ns_ai;" xmlns:graph="ns_graphs;" xmlns="http://www.w3.org/2000/svg" xmlns:xlink="http://www.w3.org/1999/xlink" x="0px" y="0px" viewBox="0 0 242.6 40.1" style="enable-background:new 0 0 242.6 40.1;" xml:space="preserve">
 <style type="text/css">
  .st0{fill:#FD5138;}
	.st1{fill:#454F56;}
 </style>
 <metadata>
  <sfw xmlns="ns_sfw;">
   <slices>
   </slices>
   <sliceSourceBounds bottomLeftOrigin="true" height="40.1" width="242.6" x="1.7" y="-0.1">
   </sliceSourceBounds>
  </sfw>
 </metadata>
 <g>
  <g>
   <g>
    <path class="st0" d="M13.4,25.1l1-0.9l0.3-0.3c0,0,8.3-5.4,13.3-5.4h0.4c-4.6-0.2-9-2.1-12.4-5.3L3.7,1.2H2.9L1.5,2.5v0.8
				l11.9,11.7c1.4,1.4,2.1,3.2,2.1,5.1C15.5,21.9,14.8,23.7,13.4,25.1z">
    </path>
    <path class="st1" d="M21.9,8.8l-9-8.8h-0.8l-1.4,1.3v0.8l9.4,9.2c2.3,2.3,5.5,3.5,8.7,3.5h6.8l0.6-0.6v-1.9l-0.6-0.6h-6.2
				C26.7,11.9,23.9,10.8,21.9,8.8z">
    </path>
    <path class="st1" d="M21.9,31.2l-9,8.8h-0.8l-1.4-1.3v-0.8l9.4-9.2c2.3-2.3,5.5-3.5,8.7-3.5h6.8l0.6,0.6v1.9l-0.6,0.6h-6.2
				C26.7,28.2,23.9,29.3,21.9,31.2z">
    </path>
    <path class="st1" d="M7.7,15.2L2.2,9.9H1.4L0,11.2V12l5.3,5.1c0.4,0.4,0.7,0.8,0.9,1.3c0.2,0.5,0.3,1,0.3,1.6
				c0,0.5-0.1,1.1-0.3,1.6c-0.2,0.5-0.5,0.9-0.9,1.3l-4.9,4.8v0.8l1.4,1.3h0.8l5.1-5c0.6-0.6,1.1-1.4,1.5-2.2
				c0.3-0.8,0.5-1.7,0.5-2.6c0-0.9-0.2-1.8-0.5-2.6C8.8,16.6,8.3,15.9,7.7,15.2z">
    </path>
    <path class="st1" d="M40.9,18.5h-13c-5,0-9.7,1.9-13.3,5.4l-13.3,13v0.8l1.4,1.3h0.8l12.4-12.1c1.7-1.7,3.8-3.1,6.1-4
				c2.3-0.9,4.7-1.4,7.2-1.4H41l0.6-0.5V19L40.9,18.5z">
    </path>
    <path class="st1" d="M47.4,12H63l0.4,0.4v2L63,14.8h-5.9l-0.4,0.4V28l-0.4,0.4H54L53.7,28V15.2l-0.4-0.4h-5.9L47,14.4v-2L47.4,12
				z">
    </path>
    <path class="st1" d="M69,12.4l0.4-0.4h9c3.7,0,5.7,1.7,5.7,4.9c0,2.1-1,3.6-2.9,4.3l-0.2,0.5l3.4,6.1L84,28.4h-2.5l-0.3-0.2
				l-3.6-6.3l-0.3-0.2h-4.8L72.1,22v6l-0.4,0.4h-2.4L68.9,28L69,12.4z M72.1,15.2v3.5l0.4,0.4H78c1.8,0,2.7-0.7,2.7-2
				c0-1.5-0.9-2.1-2.7-2.1h-5.5L72.1,15.2z">
    </path>
    <path class="st1" d="M101.5,25h-7.9l-0.3,0.2l-1.3,2.9l-0.3,0.2h-2.3l-0.3-0.5L96,12.2l0.3-0.2h2.5l0.3,0.2l7.2,15.6l-0.3,0.5
				h-2.5l-0.3-0.2l-1.3-2.9L101.5,25z M100.3,21.8l-2.4-5.3h-0.7l-2.4,5.3l0.3,0.5h4.8L100.3,21.8z">
    </path>
    <path class="st1" d="M110.1,20.2c0-4.8,3.5-8.4,8.4-8.4c4.7,0,7,2.9,7.6,4.8l-0.4,0.5h-2.5l-0.3-0.2c-0.5-0.7-1.1-1.3-1.9-1.7
				c-0.8-0.4-1.6-0.6-2.5-0.6c-3.1,0-5.1,2.6-5.1,5.6c0,3.1,2,5.6,5.1,5.6c2.7,0,4-1.4,4.5-2.3l0.3-0.2h2.5l0.4,0.5
				c-0.6,1.8-2.7,4.8-7.6,4.8C113.7,28.7,110.1,25,110.1,20.2z">
    </path>
    <path class="st1" d="M132.6,12h13.7l0.4,0.4v1.9l-0.4,0.4h-10.5l-0.4,0.4v3l0.4,0.4h6.3l0.4,0.4v2l-0.4,0.4h-6.3l-0.4,0.4v3.8
				l0.4,0.4h10.5l0.4,0.4v2l-0.4,0.4h-13.7l-0.4-0.4V12.4L132.6,12z">
    </path>
    <path class="st1" d="M214.4,12H228l0.4,0.4v1.9l-0.4,0.4h-10.5l-0.4,0.4v3l0.4,0.4h6.3l0.4,0.4v2l-0.4,0.4h-6.3l-0.4,0.4v3.8
				l0.4,0.4H228l0.4,0.4v2l-0.4,0.4h-13.7L214,28V12.4L214.4,12z">
    </path>
    <path class="st1" d="M163.5,25h-7.9l-0.3,0.2l-1.3,2.9l-0.3,0.2h-2.4l-0.3-0.5l7.2-15.6l0.3-0.2h2.5l0.3,0.2l7.2,15.6l-0.3,0.5
				h-2.5l-0.3-0.2l-1.3-2.9L163.5,25z M162.4,21.8l-2.4-5.3h-0.7l-2.4,5.3l0.3,0.5h4.8L162.4,21.8z">
    </path>
    <path class="st1" d="M173.9,12.4l0.4-0.4h8.6c3.6,0,5.6,1.7,5.6,4.4c0,0.6-0.2,1.2-0.5,1.7c-0.3,0.5-0.8,0.9-1.3,1.2v0.6
				c0.7,0.3,1.2,0.9,1.6,1.5c0.4,0.6,0.6,1.4,0.5,2.1c0,2.9-2,4.7-5.8,4.7h-8.7l-0.4-0.4V12.4z M177,15.1v3.3l0.4,0.4h5.1
				c1.8,0,2.7-0.7,2.7-2c0-1.3-0.9-2-2.7-2h-5.1L177,15.1z M177,21.6v3.7l0.4,0.4h5.2c2,0,3-0.8,3-2.3s-1-2.2-3-2.2h-5.2L177,21.6z">
    </path>
    <path class="st1" d="M208,28.4h-12.7l-0.4-0.4V12.4l0.4-0.4h2.4l0.4,0.4v12.8l0.4,0.4h9.6l0.4,0.4v2L208,28.4z">
    </path>
    <path class="st0" d="M242.3,28.4h-7.9L234,28v-2l0.4-0.4h7.9l0.4,0.4v2L242.3,28.4z">
    </path>
   </g>
  </g>
 </g>
</svg>