<svg width="213" height="65" viewBox="0 0 213 65" fill="none" xmlns="http://www.w3.org/2000/svg">
<g clip-path="url(#clip0_873_10302)">
<path d="M129.04 53.1336C136.272 53.1336 141.107 49.0014 142.273 42.5011H137.198C136.266 46.342 133.348 48.8234 129.094 48.8234C123.38 48.8234 119.53 44.3352 119.53 37.7809C119.53 31.2267 123.38 26.6198 129.094 26.6198C133.465 26.6198 136.384 29.0419 137.257 33.0554H142.273C141.048 26.4418 136.442 22.3042 129.158 22.3042C120.531 22.3042 114.642 28.5672 114.642 37.7809C114.642 46.9947 120.355 53.139 129.04 53.139V53.1336Z" fill="#050314"/>
<path d="M146.294 42.8574C146.411 49.471 151.715 53.1338 159.409 53.1338C165.996 53.1338 171.305 49.649 171.305 44.0388C171.305 37.3658 165.885 36.0657 159.122 35.2404C154.809 34.7063 151.662 34.2963 151.662 30.9895C151.662 28.2114 154.462 26.442 158.6 26.442C162.738 26.442 165.48 28.7454 165.831 31.8149H170.73C170.262 25.5519 165.368 22.3638 158.605 22.3044C151.901 22.2451 146.944 25.8486 146.944 31.3402C146.944 37.6032 152.247 38.9572 158.893 39.7879C163.323 40.322 166.588 40.6133 166.588 44.3948C166.588 47.1729 163.616 49.0017 159.415 49.0017C154.457 49.0017 151.369 46.4015 151.193 42.8574H146.294Z" fill="#050314"/>
<path fill-rule="evenodd" clip-rule="evenodd" d="M212.127 22.6604H181.013C183.217 29.2146 189.352 33.9348 196.567 33.9348C203.783 33.9348 209.917 29.22 212.122 22.6604H212.127ZM212.159 22.5687C212.707 20.9072 213 19.1324 213 17.2875V0.640137H180.14V17.2875C180.14 19.1324 180.438 20.9072 180.981 22.5687L196.567 0.640137L212.154 22.5633L212.159 22.5687Z" fill="#6910D6"/>
<path d="M13.0569 53.1281C5.8575 53.1281 0 47.1942 0 39.9009V22.6548H4.81913V39.9009C4.81913 44.5024 8.51468 48.2408 13.0516 48.2408H14.0793C18.6215 48.2408 22.3118 44.497 22.3118 39.9009V22.6548H27.1309V39.9009C27.1309 47.1942 21.2734 53.1281 14.074 53.1281H13.0463H13.0569Z" fill="#050314"/>
<path d="M114.083 22.6602H109.008L100.147 46.6979L90.9937 22.6602H85.9189L97.5115 52.9339L95.9406 56.9474C95.1898 58.8733 93.3846 60.1194 91.3398 60.1194H87.4951V64.64H91.3398C95.2324 64.64 98.667 62.2718 100.094 58.6089L102.512 52.4269H102.496L114.083 22.6548V22.6602Z" fill="#050314"/>
<path d="M79.05 48.3486C76.4141 48.3486 74.2681 45.8132 74.2681 43.1429V34.5226V27.089H81.9628V22.6601H74.2681V14.2124H69.4863V22.6601H64.124V27.089H69.4863V34.5226H69.4756V43.1429C69.4756 48.4943 73.7729 52.8422 79.05 52.8422H82.426V48.3486H79.05Z" fill="#050314"/>
<path d="M47.5628 48.8234C41.7319 48.8234 37.7701 44.2166 37.7701 37.6029C37.7701 30.9893 41.7373 26.6198 47.5628 26.6198C53.3884 26.6198 57.4141 31.1673 57.4141 37.7216C57.4141 44.2759 53.447 48.8234 47.5628 48.8234ZM48.0314 22.3042C43.0153 22.3042 39.8096 24.7263 37.8287 27.4991V22.6549H33.0469V64.5915H37.8287V48.1707C39.6339 51.0621 43.0153 53.1336 48.0314 53.1336C56.2532 53.1336 62.3131 46.93 62.3131 37.7162C62.3131 27.9145 56.2479 22.2988 48.0314 22.2988V22.3042Z" fill="#050314"/>
</g>
<defs>
<clipPath id="clip0_873_10302">
<rect width="213" height="64" fill="white" transform="translate(0 0.640137)"/>
</clipPath>
</defs>
</svg>
