<svg width="280" height="64" viewBox="0 0 280 64" fill="none" xmlns="http://www.w3.org/2000/svg">
<g clip-path="url(#clip0_923_10110)">
<mask id="mask0_923_10110" style="mask-type:luminance" maskUnits="userSpaceOnUse" x="0" y="0" width="65" height="64">
<path d="M0.587891 25.6C0.587891 16.6392 0.587891 12.1587 2.33179 8.73615C3.86576 5.72555 6.31344 3.27787 9.32404 1.7439C12.7466 0 17.227 0 26.1879 0H38.9879C47.9486 0 52.4292 0 55.8517 1.7439C58.8623 3.27787 61.31 5.72555 62.8441 8.73615C64.5879 12.1587 64.5879 16.6392 64.5879 25.6V38.4C64.5879 47.3608 64.5879 51.8413 62.8441 55.2638C61.31 58.2744 58.8623 60.7221 55.8517 62.2562C52.4292 64 47.9486 64 38.9879 64H26.1879C17.227 64 12.7466 64 9.32404 62.2562C6.31344 60.7221 3.86576 58.2744 2.33179 55.2638C0.587891 51.8413 0.587891 47.3608 0.587891 38.4V25.6Z" fill="white"/>
</mask>
<g mask="url(#mask0_923_10110)">
<path fill-rule="evenodd" clip-rule="evenodd" d="M52.4959 25.4629L14.7539 35.5758L16.5574 42.3066L61.0301 30.3901L52.4959 25.4629Z" fill="#0CB176"/>
<path fill-rule="evenodd" clip-rule="evenodd" d="M25.5302 29.5682L48.8061 23.3314L40.2718 18.4043L16.9961 24.641L25.5302 29.5682Z" fill="#4FF3B8"/>
<path fill-rule="evenodd" clip-rule="evenodd" d="M25.1338 19.3409L36.5802 16.2739L28.046 11.3467L16.5996 14.4137L25.1338 19.3409Z" fill="#BAFAE3"/>
<path fill-rule="evenodd" clip-rule="evenodd" d="M14.2881 42.914L50.0291 33.3372L48.2256 26.6064L5.75391 37.9868L14.2881 42.914Z" fill="#0CB176"/>
<path fill-rule="evenodd" clip-rule="evenodd" d="M41.254 38.8076L17.9785 45.0444L26.5127 49.9715L49.7882 43.7349L41.254 38.8076Z" fill="#24F0A6"/>
<path fill-rule="evenodd" clip-rule="evenodd" d="M43.3203 48.5879L30.2031 52.1026L38.7373 57.0299L51.8543 53.5151L43.3203 48.5879Z" fill="#BAFAE3"/>
</g>
<path d="M266.707 45.9079C264.109 45.9079 261.841 45.3884 259.9 44.3493C257.962 43.3102 256.454 41.8729 255.381 40.037C254.342 38.1667 253.822 35.9674 253.822 33.4388C253.822 30.8758 254.342 28.6765 255.381 26.8406C256.454 24.9703 257.962 23.5329 259.9 22.5285C261.841 21.4893 264.126 20.9697 266.758 20.9697C269.391 20.9697 271.626 21.4546 273.461 22.4246C275.332 23.3598 276.751 24.7452 277.721 26.5808C278.69 28.3819 279.176 30.5641 279.176 33.1271C279.176 33.4388 279.159 33.7678 279.123 34.1142C279.123 34.4606 279.106 34.7376 279.072 34.9454H257.666V30.7892H273.201L271.383 33.179C271.522 32.9712 271.642 32.6942 271.746 32.3478C271.885 31.9668 271.955 31.6551 271.955 31.4126C271.955 30.235 271.729 29.2306 271.279 28.3992C270.863 27.5679 270.257 26.9099 269.461 26.425C268.665 25.9401 267.729 25.6976 266.654 25.6976C265.339 25.6976 264.23 25.992 263.33 26.5808C262.464 27.135 261.788 27.9836 261.303 29.1267C260.853 30.235 260.61 31.6205 260.576 33.283C260.576 34.8762 260.802 36.2271 261.252 37.3355C261.736 38.4438 262.447 39.2924 263.381 39.8812C264.316 40.47 265.442 40.7644 266.758 40.7644C268.249 40.7644 269.512 40.4873 270.551 39.9331C271.626 39.3443 272.508 38.4784 273.201 37.3355L279.072 39.1538C277.824 41.4051 276.162 43.1024 274.084 44.2454C272.042 45.3537 269.581 45.9079 266.707 45.9079Z" fill="black"/>
<path d="M235.105 33.4388C235.105 34.8242 235.418 36.0366 236.041 37.0757C236.664 38.1148 237.496 38.9287 238.535 39.5175C239.608 40.1063 240.786 40.4007 242.068 40.4007C243.107 40.4007 244.113 40.2448 245.082 39.9331C246.051 39.5868 246.917 39.1365 247.68 38.5823C248.476 37.9935 249.082 37.3182 249.498 36.5562V43.4661C248.666 44.2281 247.576 44.8342 246.225 45.2845C244.909 45.7001 243.367 45.9079 241.6 45.9079C239.072 45.9079 236.786 45.3884 234.742 44.3493C232.734 43.3102 231.141 41.8556 229.963 39.9851C228.82 38.0801 228.248 35.8981 228.248 33.4388C228.248 30.9451 228.82 28.763 229.963 26.8926C231.141 25.0222 232.734 23.5676 234.742 22.5285C236.786 21.4893 239.072 20.9697 241.6 20.9697C243.367 20.9697 244.909 21.1949 246.225 21.6451C247.576 22.0609 248.666 22.6324 249.498 23.3598V30.2697C249.082 29.5077 248.459 28.8496 247.627 28.2953C246.831 27.7065 245.948 27.2562 244.978 26.9445C244.007 26.6328 243.038 26.4769 242.068 26.4769C240.786 26.4769 239.608 26.7886 238.535 27.4121C237.496 28.0009 236.664 28.815 236.041 29.8541C235.418 30.8931 235.105 32.088 235.105 33.4388Z" fill="black"/>
<path d="M207.701 37.9591C207.701 38.6518 207.874 39.2579 208.221 39.7775C208.567 40.2625 209.034 40.6435 209.623 40.9206C210.246 41.1631 210.922 41.2843 211.648 41.2843C212.687 41.2843 213.623 41.0765 214.455 40.6608C215.285 40.2106 215.961 39.587 216.48 38.7904C217 37.9591 217.26 36.972 217.26 35.829L218.092 38.9462C218.092 40.4704 217.659 41.7519 216.793 42.7909C215.961 43.83 214.869 44.6093 213.519 45.1288C212.204 45.6483 210.818 45.9081 209.363 45.9081C207.874 45.9081 206.489 45.6137 205.207 45.0249C203.925 44.4361 202.886 43.5875 202.09 42.4792C201.327 41.3362 200.945 39.9506 200.945 38.3228C200.945 36.0022 201.76 34.1665 203.389 32.8156C205.015 31.4648 207.319 30.7894 210.299 30.7894C211.822 30.7894 213.156 30.9453 214.299 31.257C215.475 31.5687 216.463 31.9497 217.26 32.4C218.056 32.8502 218.628 33.2832 218.974 33.699V36.8161C218.039 36.1234 216.983 35.6039 215.805 35.2576C214.662 34.9112 213.45 34.738 212.168 34.738C211.129 34.738 210.28 34.8766 209.623 35.1536C208.964 35.3961 208.48 35.7598 208.168 36.2447C207.855 36.6949 207.701 37.2664 207.701 37.9591ZM205.102 28.2437L202.609 23.6717C203.855 23.0136 205.38 22.3902 207.182 21.8014C208.981 21.1779 210.991 20.8662 213.207 20.8662C215.251 20.8662 217.07 21.1606 218.662 21.7494C220.256 22.3382 221.502 23.2041 222.404 24.3471C223.304 25.4554 223.754 26.8237 223.754 28.4515V45.3886H217.26V29.8543C217.26 29.1962 217.156 28.642 216.947 28.1918C216.74 27.7069 216.411 27.3086 215.961 26.9968C215.545 26.6849 215.042 26.4598 214.455 26.3213C213.866 26.1827 213.207 26.1135 212.48 26.1135C211.372 26.1135 210.316 26.2347 209.31 26.4771C208.307 26.7196 207.441 27.0142 206.713 27.3605C205.986 27.7069 205.448 28.0013 205.102 28.2437Z" fill="black"/>
<path d="M189.274 21.4896V45.3886H182.676V21.4896H189.274ZM196.288 28.5035C195.838 28.0878 195.369 27.7761 194.885 27.5681C194.436 27.3257 193.863 27.2045 193.171 27.2045C192.339 27.2045 191.629 27.4296 191.04 27.88C190.453 28.3303 190.001 28.9711 189.69 29.8023C189.413 30.5989 189.274 31.5687 189.274 32.7117L187.404 30.8414C187.404 28.9364 187.767 27.2564 188.495 25.8017C189.221 24.3124 190.174 23.1348 191.352 22.2689C192.531 21.3684 193.743 20.918 194.989 20.918C195.855 20.918 196.668 21.074 197.43 21.3857C198.227 21.6975 198.869 22.165 199.352 22.7885L196.288 28.5035Z" fill="black"/>
<path d="M164.34 21.4894H179.095V27.1525H164.34V21.4894ZM168.444 13.1768H174.939V45.3885H168.444V13.1768Z" fill="black"/>
<path d="M160.774 30.1138V45.3884H154.02V30.8412C154.02 29.2133 153.743 28.0009 153.189 27.2043C152.635 26.373 151.734 25.9574 150.487 25.9574C149.656 25.9574 148.929 26.1479 148.305 26.5289C147.682 26.8752 147.197 27.4294 146.85 28.1914C146.504 28.9189 146.331 29.8021 146.331 30.8412V45.3884H139.629V30.8412C139.629 29.2133 139.352 28.0009 138.798 27.2043C138.243 26.373 137.343 25.9574 136.096 25.9574C135.265 25.9574 134.537 26.1479 133.914 26.5289C133.29 26.8752 132.806 27.4294 132.459 28.1914C132.113 28.9189 131.94 29.8021 131.94 30.8412V45.3884H125.445V21.4893H131.94V25.0222C132.632 23.7061 133.55 22.7017 134.693 22.009C135.836 21.3161 137.204 20.9697 138.798 20.9697C140.564 20.9697 142.019 21.3161 143.162 22.009C144.305 22.7017 145.136 23.7234 145.656 25.0742C146.521 23.7234 147.578 22.7017 148.825 22.009C150.106 21.3161 151.561 20.9697 153.189 20.9697C154.955 20.9697 156.393 21.3334 157.501 22.0609C158.61 22.7536 159.423 23.7927 159.943 25.1781C160.497 26.5289 160.774 28.1741 160.774 30.1138Z" fill="black"/>
<path d="M122.428 21.4893L106.842 56.8182H99.9318L105.959 42.9983L96.0352 21.4893H103.517L111.206 40.5044L107.881 40.4005L115.414 21.4893H122.428Z" fill="black"/>
<path d="M83.4828 27.6199H72.2605V21.4893H94.8089L81.9761 39.2575H93.302V45.3882H70.2344L83.4828 27.6199Z" fill="black"/>
</g>
<defs>
<clipPath id="clip0_923_10110">
<rect width="278.588" height="64" fill="white" transform="translate(0.587891)"/>
</clipPath>
</defs>
</svg>
